<svg xmlns="http://www.w3.org/2000/svg" xmlns:xlink="http://www.w3.org/1999/xlink" width="1047" zoomAndPan="magnify" viewBox="0 0 785.25 87.749997" height="117" preserveAspectRatio="xMidYMid meet" version="1.2"><defs/><g id="1f9530830c"><path style=" stroke:none;fill-rule:nonzero;fill:#393be5;fill-opacity:1;" d="M 28.609375 20.441406 L 691.988281 20.441406 L 691.988281 66.625 L 28.609375 66.625 L 28.609375 20.441406 "/><g style="fill:#ffffff;fill-opacity:1;"><g transform="translate(41.142134, 53.6337)"><path style="stroke:none" d="M 8.34375 0 L 8.34375 -10 L 11.671875 -10 L 11.671875 0 Z M 1.671875 -16.671875 L 1.671875 -23.34375 L 5 -23.34375 L 5 -16.671875 Z M 5 -10 L 5 -16.671875 L 8.34375 -16.671875 L 8.34375 -10 Z M 11.671875 -10 L 11.671875 -16.671875 L 15 -16.671875 L 15 -10 Z M 15 -16.671875 L 15 -23.34375 L 18.34375 -23.34375 L 18.34375 -16.671875 Z M 15 -16.671875 "/></g></g><g style="fill:#ffffff;fill-opacity:1;"><g transform="translate(66.146501, 53.6337)"><path style="stroke:none" d="M 15 -3.328125 L 15 0 L 5 0 L 5 -3.328125 Z M 1.671875 -3.328125 L 1.671875 -20 L 5 -20 L 5 -3.328125 Z M 5 -20 L 5 -23.34375 L 15 -23.34375 L 15 -20 Z M 15 -3.328125 L 15 -20 L 18.34375 -20 L 18.34375 -3.328125 Z M 15 -3.328125 "/></g></g><g style="fill:#ffffff;fill-opacity:1;"><g transform="translate(91.150869, 53.6337)"><path style="stroke:none" d="M 15 -3.328125 L 15 0 L 5 0 L 5 -3.328125 Z M 1.671875 -3.328125 L 1.671875 -23.34375 L 5 -23.34375 L 5 -3.328125 Z M 15 -3.328125 L 15 -23.34375 L 18.34375 -23.34375 L 18.34375 -3.328125 Z M 15 -3.328125 "/></g></g><g style="fill:#ffffff;fill-opacity:1;"><g transform="translate(116.155237, 53.6337)"><path style="stroke:none" d="M 1.671875 0 L 1.671875 -23.34375 L 15 -23.34375 L 15 -20 L 5 -20 L 5 -13.34375 L 15 -13.34375 L 15 -10 L 11.671875 -10 L 11.671875 -6.671875 L 8.34375 -6.671875 L 8.34375 -10 L 5 -10 L 5 0 Z M 11.671875 -3.328125 L 11.671875 -6.671875 L 15 -6.671875 L 15 -3.328125 Z M 15 0 L 15 -3.328125 L 18.34375 -3.328125 L 18.34375 0 Z M 15 -13.34375 L 15 -20 L 18.34375 -20 L 18.34375 -13.34375 Z M 15 -13.34375 "/></g></g><g style="fill:#ffffff;fill-opacity:1;"><g transform="translate(141.159605, 53.6337)"><path style="stroke:none" d=""/></g></g><g style="fill:#ffffff;fill-opacity:1;"><g transform="translate(154.495473, 53.6337)"><path style="stroke:none" d="M 1.671875 0 L 1.671875 -23.34375 L 15 -23.34375 L 15 -20 L 5 -20 L 5 -13.34375 L 15 -13.34375 L 15 -10 L 5 -10 L 5 0 Z M 15 -13.34375 L 15 -20 L 18.34375 -20 L 18.34375 -13.34375 Z M 15 -13.34375 "/></g></g><g style="fill:#ffffff;fill-opacity:1;"><g transform="translate(179.499841, 53.6337)"><path style="stroke:none" d="M 1.671875 0 L 1.671875 -23.34375 L 18.34375 -23.34375 L 18.34375 -20 L 5 -20 L 5 -13.34375 L 15 -13.34375 L 15 -10 L 5 -10 L 5 -3.328125 L 18.3125 -3.328125 L 18.3125 0 Z M 1.671875 0 "/></g></g><g style="fill:#ffffff;fill-opacity:1;"><g transform="translate(204.504209, 53.6337)"><path style="stroke:none" d="M 1.671875 0 L 1.671875 -23.34375 L 15 -23.34375 L 15 -20 L 5 -20 L 5 -13.34375 L 15 -13.34375 L 15 -10 L 11.671875 -10 L 11.671875 -6.671875 L 8.34375 -6.671875 L 8.34375 -10 L 5 -10 L 5 0 Z M 11.671875 -3.328125 L 11.671875 -6.671875 L 15 -6.671875 L 15 -3.328125 Z M 15 0 L 15 -3.328125 L 18.34375 -3.328125 L 18.34375 0 Z M 15 -13.34375 L 15 -20 L 18.34375 -20 L 18.34375 -13.34375 Z M 15 -13.34375 "/></g></g><g style="fill:#ffffff;fill-opacity:1;"><g transform="translate(229.508576, 53.6337)"><path style="stroke:none" d="M 5 -20 L 5 -13.34375 L 1.671875 -13.34375 L 1.671875 -20 Z M 1.671875 -3.328125 L 1.671875 -6.671875 L 5 -6.671875 L 5 -3.328125 Z M 5 0 L 5 -3.328125 L 15 -3.328125 L 15 0 Z M 5 -10 L 5 -13.34375 L 15 -13.34375 L 15 -10 Z M 5 -20 L 5 -23.34375 L 15 -23.34375 L 15 -20 Z M 15 -3.328125 L 15 -10 L 18.34375 -10 L 18.34375 -3.328125 Z M 15 -16.671875 L 15 -20 L 18.34375 -20 L 18.34375 -16.671875 Z M 15 -16.671875 "/></g></g><g style="fill:#ffffff;fill-opacity:1;"><g transform="translate(254.512944, 53.6337)"><path style="stroke:none" d="M 15 -3.328125 L 15 0 L 5 0 L 5 -3.328125 Z M 1.671875 -3.328125 L 1.671875 -20 L 5 -20 L 5 -3.328125 Z M 5 -20 L 5 -23.34375 L 15 -23.34375 L 15 -20 Z M 15 -3.328125 L 15 -20 L 18.34375 -20 L 18.34375 -3.328125 Z M 15 -3.328125 "/></g></g><g style="fill:#ffffff;fill-opacity:1;"><g transform="translate(279.517312, 53.6337)"><path style="stroke:none" d="M 15 0 L 15 -10 L 11.671875 -10 L 11.671875 -13.34375 L 15 -13.34375 L 15 -23.34375 L 18.34375 -23.34375 L 18.34375 0 Z M 1.671875 0 L 1.671875 -23.34375 L 5 -23.34375 L 5 -20 L 8.34375 -20 L 8.34375 -16.671875 L 5 -16.671875 L 5 0 Z M 8.34375 -13.34375 L 8.34375 -16.671875 L 11.671875 -16.671875 L 11.671875 -13.34375 Z M 8.34375 -13.34375 "/></g></g><g style="fill:#ffffff;fill-opacity:1;"><g transform="translate(304.52168, 53.6337)"><path style="stroke:none" d="M 1.671875 0 L 1.671875 -20 L 5 -20 L 5 -10 L 15 -10 L 15 -20 L 18.34375 -20 L 18.34375 0 L 15 0 L 15 -6.671875 L 5 -6.671875 L 5 0 Z M 5 -20 L 5 -23.34375 L 15 -23.34375 L 15 -20 Z M 5 -20 "/></g></g><g style="fill:#ffffff;fill-opacity:1;"><g transform="translate(329.526047, 53.6337)"><path style="stroke:none" d="M 1.671875 0 L 1.671875 -23.34375 L 5 -23.34375 L 5 -3.328125 L 18.34375 -3.328125 L 18.34375 0 Z M 1.671875 0 "/></g></g><g style="fill:#ffffff;fill-opacity:1;"><g transform="translate(354.530415, 53.6337)"><path style="stroke:none" d=""/></g></g><g style="fill:#ffffff;fill-opacity:1;"><g transform="translate(367.866284, 53.6337)"><path style="stroke:none" d="M 1.671875 0 L 1.671875 -23.34375 L 5 -23.34375 L 5 -3.328125 L 18.34375 -3.328125 L 18.34375 0 Z M 1.671875 0 "/></g></g><g style="fill:#ffffff;fill-opacity:1;"><g transform="translate(392.870651, 53.6337)"><path style="stroke:none" d="M 1.671875 0 L 1.671875 -23.34375 L 18.34375 -23.34375 L 18.34375 -20 L 5 -20 L 5 -13.34375 L 15 -13.34375 L 15 -10 L 5 -10 L 5 -3.328125 L 18.3125 -3.328125 L 18.3125 0 Z M 1.671875 0 "/></g></g><g style="fill:#ffffff;fill-opacity:1;"><g transform="translate(417.875019, 53.6337)"><path style="stroke:none" d="M 1.671875 0 L 1.671875 -20 L 5 -20 L 5 -10 L 15 -10 L 15 -20 L 18.34375 -20 L 18.34375 0 L 15 0 L 15 -6.671875 L 5 -6.671875 L 5 0 Z M 5 -20 L 5 -23.34375 L 15 -23.34375 L 15 -20 Z M 5 -20 "/></g></g><g style="fill:#ffffff;fill-opacity:1;"><g transform="translate(442.879387, 53.6337)"><path style="stroke:none" d="M 1.671875 0 L 1.671875 -23.34375 L 15 -23.34375 L 15 -20 L 5 -20 L 5 -13.34375 L 15 -13.34375 L 15 -10 L 11.671875 -10 L 11.671875 -6.671875 L 8.34375 -6.671875 L 8.34375 -10 L 5 -10 L 5 0 Z M 11.671875 -3.328125 L 11.671875 -6.671875 L 15 -6.671875 L 15 -3.328125 Z M 15 0 L 15 -3.328125 L 18.34375 -3.328125 L 18.34375 0 Z M 15 -13.34375 L 15 -20 L 18.34375 -20 L 18.34375 -13.34375 Z M 15 -13.34375 "/></g></g><g style="fill:#ffffff;fill-opacity:1;"><g transform="translate(467.883755, 53.6337)"><path style="stroke:none" d="M 15 0 L 15 -10 L 11.671875 -10 L 11.671875 -13.34375 L 15 -13.34375 L 15 -23.34375 L 18.34375 -23.34375 L 18.34375 0 Z M 1.671875 0 L 1.671875 -23.34375 L 5 -23.34375 L 5 -20 L 8.34375 -20 L 8.34375 -16.671875 L 5 -16.671875 L 5 0 Z M 8.34375 -13.34375 L 8.34375 -16.671875 L 11.671875 -16.671875 L 11.671875 -13.34375 Z M 8.34375 -13.34375 "/></g></g><g style="fill:#ffffff;fill-opacity:1;"><g transform="translate(492.888122, 53.6337)"><path style="stroke:none" d="M 1.671875 0 L 1.671875 -23.34375 L 5 -23.34375 L 5 0 Z M 1.671875 0 "/></g></g><g style="fill:#ffffff;fill-opacity:1;"><g transform="translate(504.557056, 53.6337)"><path style="stroke:none" d="M 15 0 L 15 -10 L 11.671875 -10 L 11.671875 -13.34375 L 15 -13.34375 L 15 -23.34375 L 18.34375 -23.34375 L 18.34375 0 Z M 1.671875 0 L 1.671875 -23.34375 L 5 -23.34375 L 5 -20 L 8.34375 -20 L 8.34375 -16.671875 L 5 -16.671875 L 5 0 Z M 8.34375 -13.34375 L 8.34375 -16.671875 L 11.671875 -16.671875 L 11.671875 -13.34375 Z M 8.34375 -13.34375 "/></g></g><g style="fill:#ffffff;fill-opacity:1;"><g transform="translate(529.561423, 53.6337)"><path style="stroke:none" d="M 15 -3.328125 L 15 0 L 5 0 L 5 -3.328125 Z M 1.671875 -3.328125 L 1.671875 -20 L 5 -20 L 5 -3.328125 Z M 5 -20 L 5 -23.34375 L 15 -23.34375 L 15 -20 Z M 11.671875 -10 L 11.671875 -13.34375 L 18.34375 -13.34375 L 18.34375 -3.328125 L 15 -3.328125 L 15 -10 Z M 15 -16.671875 L 15 -20 L 18.34375 -20 L 18.34375 -16.671875 Z M 15 -16.671875 "/></g></g><g style="fill:#ffffff;fill-opacity:1;"><g transform="translate(554.565791, 53.6337)"><path style="stroke:none" d=""/></g></g><g style="fill:#ffffff;fill-opacity:1;"><g transform="translate(567.901682, 53.6337)"><path style="stroke:none" d="M 15 -3.328125 L 15 0 L 5 0 L 5 -3.328125 Z M 1.671875 -3.328125 L 1.671875 -20 L 5 -20 L 5 -3.328125 Z M 5 -20 L 5 -23.34375 L 15 -23.34375 L 15 -20 Z M 11.671875 -10 L 11.671875 -13.34375 L 18.34375 -13.34375 L 18.34375 -3.328125 L 15 -3.328125 L 15 -10 Z M 15 -16.671875 L 15 -20 L 18.34375 -20 L 18.34375 -16.671875 Z M 15 -16.671875 "/></g></g><g style="fill:#ffffff;fill-opacity:1;"><g transform="translate(592.90605, 53.6337)"><path style="stroke:none" d="M 15 -3.328125 L 15 0 L 5 0 L 5 -3.328125 Z M 1.671875 -3.328125 L 1.671875 -23.34375 L 5 -23.34375 L 5 -3.328125 Z M 15 -3.328125 L 15 -23.34375 L 18.34375 -23.34375 L 18.34375 -3.328125 Z M 15 -3.328125 "/></g></g><g style="fill:#ffffff;fill-opacity:1;"><g transform="translate(617.910418, 53.6337)"><path style="stroke:none" d="M 1.671875 0 L 1.671875 -23.34375 L 5 -23.34375 L 5 0 Z M 1.671875 0 "/></g></g><g style="fill:#ffffff;fill-opacity:1;"><g transform="translate(629.579351, 53.6337)"><path style="stroke:none" d="M 1.671875 0 L 1.671875 -23.34375 L 15 -23.34375 L 15 -20 L 5 -20 L 5 -3.328125 L 15 -3.328125 L 15 0 Z M 15 -3.328125 L 15 -20 L 18.34375 -20 L 18.34375 -3.328125 Z M 15 -3.328125 "/></g></g><g style="fill:#ffffff;fill-opacity:1;"><g transform="translate(654.583719, 53.6337)"><path style="stroke:none" d="M 1.671875 0 L 1.671875 -23.34375 L 18.34375 -23.34375 L 18.34375 -20 L 5 -20 L 5 -13.34375 L 15 -13.34375 L 15 -10 L 5 -10 L 5 -3.328125 L 18.3125 -3.328125 L 18.3125 0 Z M 1.671875 0 "/></g></g><g style="fill:#ffffff;fill-opacity:1;"><g transform="translate(679.588772, 53.6337)"><path style="stroke:none" d=""/></g></g></g></svg>