<svg xmlns="http://www.w3.org/2000/svg" xmlns:xlink="http://www.w3.org/1999/xlink" width="78" zoomAndPan="magnify" viewBox="0 0 58.5 48" height="64" preserveAspectRatio="xMidYMid meet" version="1.2"><defs><clipPath id="f754c100d7"><path d="M 8.671875 11.027344 L 45.40625 11.027344 L 45.40625 44.089844 L 8.671875 44.089844 Z M 8.671875 11.027344 "/></clipPath></defs><g id="f4521a2373"><g clip-rule="nonzero" clip-path="url(#f754c100d7)"><path style=" stroke:none;fill-rule:evenodd;fill:#000000;fill-opacity:1;" d="M 17.875 32.007812 C 21.972656 32.007812 25.296875 28.664062 25.296875 24.535156 C 25.296875 20.625 22.316406 17.417969 18.515625 17.089844 C 18.476562 17.085938 18.445312 17.054688 18.445312 17.015625 L 18.445312 14.617188 C 18.445312 14.589844 18.460938 14.5625 18.488281 14.550781 C 18.917969 14.328125 19.210938 13.875 19.210938 13.355469 C 19.210938 12.613281 18.613281 12.011719 17.875 12.011719 C 17.140625 12.011719 16.542969 12.613281 16.542969 13.355469 C 16.542969 13.875 16.835938 14.328125 17.265625 14.550781 C 17.289062 14.5625 17.304688 14.589844 17.304688 14.617188 L 17.304688 17.015625 C 17.304688 17.054688 17.273438 17.085938 17.234375 17.089844 C 13.4375 17.417969 10.453125 20.625 10.453125 24.535156 C 10.453125 28.664062 13.777344 32.007812 17.875 32.007812 Z M 39.808594 33.9375 L 31.367188 33.9375 C 31.050781 33.9375 30.796875 34.191406 30.796875 34.511719 C 30.796875 34.828125 31.050781 35.085938 31.367188 35.085938 L 39.808594 35.085938 C 40.125 35.085938 40.382812 34.828125 40.382812 34.511719 C 40.382812 34.191406 40.125 33.9375 39.808594 33.9375 Z M 39.808594 29.566406 L 31.367188 29.566406 C 31.050781 29.566406 30.796875 29.824219 30.796875 30.140625 C 30.796875 30.457031 31.050781 30.714844 31.367188 30.714844 L 39.808594 30.714844 C 40.125 30.714844 40.382812 30.457031 40.382812 30.140625 C 40.382812 29.824219 40.125 29.566406 39.808594 29.566406 Z M 39.808594 25.195312 L 34.914062 25.195312 C 34.597656 25.195312 34.34375 25.453125 34.34375 25.769531 C 34.34375 26.089844 34.597656 26.347656 34.914062 26.347656 L 39.808594 26.347656 C 40.125 26.347656 40.382812 26.089844 40.382812 25.769531 C 40.382812 25.453125 40.125 25.195312 39.808594 25.195312 Z M 39.808594 20.828125 L 34.914062 20.828125 C 34.597656 20.828125 34.34375 21.085938 34.34375 21.402344 C 34.34375 21.71875 34.597656 21.976562 34.914062 21.976562 L 39.808594 21.976562 C 40.125 21.976562 40.382812 21.71875 40.382812 21.402344 C 40.382812 21.085938 40.125 20.828125 39.808594 20.828125 Z M 34.914062 16.457031 C 34.597656 16.457031 34.34375 16.714844 34.34375 17.03125 C 34.34375 17.351562 34.597656 17.605469 34.914062 17.605469 L 39.808594 17.605469 C 40.125 17.605469 40.382812 17.351562 40.382812 17.03125 C 40.382812 16.714844 40.125 16.457031 39.808594 16.457031 Z M 28.199219 12.960938 C 28.199219 12.921875 28.164062 12.886719 28.125 12.886719 L 25.855469 12.886719 C 25.816406 12.886719 25.78125 12.851562 25.78125 12.808594 L 25.78125 11.101562 C 25.78125 11.058594 25.816406 11.027344 25.855469 11.027344 L 45.320312 11.027344 C 45.363281 11.027344 45.394531 11.058594 45.394531 11.101562 L 45.394531 12.808594 C 45.394531 12.851562 45.363281 12.886719 45.320312 12.886719 L 43.054688 12.886719 C 43.011719 12.886719 42.976562 12.921875 42.976562 12.960938 L 42.976562 37.382812 C 42.976562 38.207031 42.308594 38.878906 41.492188 38.878906 L 36.234375 38.878906 C 36.191406 38.878906 36.160156 38.914062 36.160156 38.957031 L 36.160156 42.113281 C 36.160156 42.140625 36.171875 42.160156 36.191406 42.175781 C 37.015625 42.757812 36.613281 44.089844 35.589844 44.089844 C 34.5625 44.089844 34.160156 42.757812 34.984375 42.175781 C 35.003906 42.160156 35.015625 42.140625 35.015625 42.113281 L 35.015625 38.957031 C 35.015625 38.914062 34.984375 38.878906 34.941406 38.878906 L 29.683594 38.878906 C 28.867188 38.878906 28.199219 38.207031 28.199219 37.382812 L 28.199219 29.746094 C 28.199219 29.710938 28.222656 29.679688 28.257812 29.671875 C 28.605469 29.585938 28.929688 29.429688 29.214844 29.207031 C 29.265625 29.167969 29.335938 29.203125 29.335938 29.265625 L 29.335938 37.382812 C 29.335938 37.574219 29.496094 37.734375 29.683594 37.734375 L 41.492188 37.734375 C 41.683594 37.734375 41.839844 37.574219 41.839844 37.382812 L 41.839844 12.960938 C 41.839844 12.921875 41.804688 12.886719 41.761719 12.886719 L 29.414062 12.886719 C 29.371094 12.886719 29.335938 12.921875 29.335938 12.960938 L 29.335938 23.125 C 29.335938 23.140625 29.332031 23.15625 29.320312 23.171875 L 28.335938 24.417969 C 28.289062 24.476562 28.199219 24.445312 28.199219 24.371094 Z M 26.183594 26.628906 C 26.027344 27.261719 25.800781 27.863281 25.515625 28.429688 C 25.492188 28.480469 25.523438 28.539062 25.578125 28.542969 L 27.246094 28.644531 C 28.140625 28.699219 28.933594 28.34375 29.488281 27.640625 L 31.773438 24.746094 C 31.785156 24.726562 31.804688 24.71875 31.824219 24.714844 C 32.179688 24.671875 32.515625 24.492188 32.757812 24.1875 C 33.234375 23.582031 33.148438 22.710938 32.574219 22.210938 C 32.550781 22.195312 32.542969 22.167969 32.546875 22.140625 L 33.394531 16.921875 C 33.445312 16.609375 33.234375 16.316406 32.925781 16.265625 C 32.613281 16.214844 32.320312 16.425781 32.269531 16.738281 L 31.445312 21.824219 C 31.4375 21.859375 31.414062 21.882812 31.382812 21.886719 C 30.65625 22.023438 30.15625 22.699219 30.230469 23.441406 C 30.230469 23.460938 30.226562 23.480469 30.214844 23.496094 L 28.121094 26.148438 C 27.855469 26.480469 27.484375 26.648438 27.0625 26.621094 L 26.261719 26.574219 C 26.226562 26.570312 26.191406 26.59375 26.183594 26.628906 Z M 19.683594 24.730469 L 19.683594 24.339844 C 19.683594 24.023438 19.9375 23.765625 20.253906 23.765625 C 20.570312 23.765625 20.824219 24.023438 20.824219 24.339844 L 20.824219 24.730469 C 20.824219 25.050781 20.570312 25.308594 20.253906 25.308594 C 19.9375 25.308594 19.683594 25.050781 19.683594 24.730469 Z M 14.925781 24.730469 L 14.925781 24.339844 C 14.925781 24.023438 15.183594 23.765625 15.496094 23.765625 C 15.8125 23.765625 16.066406 24.023438 16.066406 24.339844 L 16.066406 24.730469 C 16.066406 25.050781 15.8125 25.308594 15.496094 25.308594 C 15.183594 25.308594 14.925781 25.050781 14.925781 24.730469 Z M 11.480469 30.269531 C 11.503906 30.296875 11.507812 30.328125 11.492188 30.359375 L 11.070312 31.128906 C 10.878906 31.476562 10.921875 31.886719 11.175781 32.191406 L 13.46875 34.941406 C 13.484375 34.957031 13.5 34.964844 13.519531 34.964844 C 13.878906 35.003906 14.21875 35.171875 14.46875 35.46875 C 14.972656 36.074219 14.898438 36.976562 14.296875 37.488281 C 13.695312 37.996094 12.796875 37.917969 12.292969 37.3125 C 12.042969 37.015625 11.9375 36.644531 11.960938 36.285156 C 11.964844 36.265625 11.957031 36.246094 11.945312 36.230469 L 9.460938 33.257812 C 8.78125 32.445312 8.675781 31.351562 9.183594 30.421875 L 10.183594 28.589844 C 10.210938 28.535156 10.289062 28.535156 10.316406 28.589844 C 10.636719 29.195312 11.03125 29.761719 11.480469 30.269531 Z M 22.222656 26.542969 L 13.527344 26.542969 C 13.007812 26.542969 12.582031 26.117188 12.582031 25.59375 L 12.582031 23.480469 C 12.582031 22.957031 13.007812 22.527344 13.527344 22.527344 L 22.222656 22.527344 C 22.742188 22.527344 23.167969 22.957031 23.167969 23.480469 L 23.167969 25.59375 C 23.167969 26.117188 22.742188 26.542969 22.222656 26.542969 Z M 22.222656 26.542969 "/></g></g></svg>