<svg xmlns="http://www.w3.org/2000/svg" xmlns:xlink="http://www.w3.org/1999/xlink" width="89" zoomAndPan="magnify" viewBox="0 0 66.75 69.749998" height="93" preserveAspectRatio="xMidYMid meet" version="1.0"><defs><clipPath id="6c5d8dcf52"><path d="M 0 6.691406 L 65.753906 6.691406 L 65.753906 61.984375 L 0 61.984375 Z M 0 6.691406 " clip-rule="nonzero"/></clipPath></defs><g clip-path="url(#6c5d8dcf52)"><path fill="#7eb0e6" d="M 38.078125 60.757812 L 38.078125 47.246094 L 26.441406 47.246094 L 26.441406 60.753906 C 26.441406 60.949219 26.402344 61.136719 26.328125 61.316406 C 26.253906 61.496094 26.148438 61.652344 26.011719 61.792969 C 25.875 61.929688 25.71875 62.035156 25.539062 62.109375 C 25.359375 62.183594 25.171875 62.222656 24.980469 62.222656 L 9.601562 62.222656 C 9.410156 62.222656 9.222656 62.183594 9.042969 62.109375 C 8.863281 62.035156 8.703125 61.929688 8.566406 61.792969 C 8.429688 61.65625 8.324219 61.496094 8.25 61.316406 C 8.175781 61.136719 8.136719 60.953125 8.136719 60.757812 L 8.136719 34.164062 C 8.136719 34.023438 8.164062 33.882812 8.21875 33.75 C 8.273438 33.617188 8.351562 33.5 8.453125 33.398438 C 8.554688 33.296875 8.671875 33.21875 8.804688 33.164062 C 8.9375 33.109375 9.078125 33.082031 9.21875 33.082031 C 9.363281 33.082031 9.503906 33.109375 9.636719 33.164062 C 9.769531 33.21875 9.886719 33.296875 9.988281 33.398438 C 10.089844 33.5 10.167969 33.617188 10.222656 33.75 C 10.277344 33.882812 10.304688 34.023438 10.304688 34.164062 L 10.304688 60.054688 L 24.273438 60.054688 L 24.273438 46.546875 C 24.273438 46.351562 24.3125 46.164062 24.386719 45.984375 C 24.460938 45.804688 24.566406 45.648438 24.703125 45.507812 C 24.839844 45.371094 25 45.265625 25.179688 45.191406 C 25.359375 45.117188 25.546875 45.078125 25.738281 45.078125 L 38.789062 45.078125 C 38.980469 45.078125 39.167969 45.117188 39.347656 45.191406 C 39.527344 45.265625 39.6875 45.371094 39.824219 45.507812 C 39.960938 45.648438 40.066406 45.804688 40.140625 45.984375 C 40.214844 46.164062 40.253906 46.351562 40.253906 46.546875 L 40.253906 60.054688 L 54.222656 60.054688 L 54.222656 34.164062 C 54.222656 34.023438 54.25 33.882812 54.304688 33.75 C 54.363281 33.617188 54.441406 33.5 54.542969 33.398438 C 54.644531 33.296875 54.761719 33.21875 54.894531 33.164062 C 55.027344 33.109375 55.164062 33.082031 55.308594 33.082031 C 55.449219 33.082031 55.589844 33.109375 55.722656 33.164062 C 55.855469 33.21875 55.972656 33.296875 56.074219 33.398438 C 56.175781 33.5 56.253906 33.617188 56.308594 33.75 C 56.363281 33.882812 56.390625 34.023438 56.390625 34.164062 L 56.390625 60.757812 C 56.390625 60.953125 56.351562 61.136719 56.277344 61.316406 C 56.203125 61.496094 56.097656 61.65625 55.960938 61.792969 C 55.824219 61.929688 55.664062 62.035156 55.484375 62.109375 C 55.304688 62.183594 55.121094 62.222656 54.925781 62.222656 L 39.546875 62.222656 C 39.351562 62.222656 39.164062 62.183594 38.984375 62.109375 C 38.804688 62.035156 38.648438 61.929688 38.511719 61.792969 C 38.371094 61.65625 38.265625 61.496094 38.191406 61.316406 C 38.117188 61.136719 38.082031 60.953125 38.078125 60.757812 Z M 64.191406 35.21875 C 64.296875 35.328125 64.421875 35.410156 64.566406 35.464844 C 64.707031 35.519531 64.851562 35.542969 65.003906 35.535156 C 65.15625 35.53125 65.300781 35.492188 65.4375 35.425781 C 65.574219 35.359375 65.691406 35.265625 65.789062 35.148438 C 65.886719 35.03125 65.957031 34.898438 66 34.753906 C 66.039062 34.609375 66.050781 34.460938 66.03125 34.308594 C 66.011719 34.15625 65.960938 34.015625 65.878906 33.886719 C 65.800781 33.757812 65.699219 33.648438 65.574219 33.5625 L 33.957031 7.148438 C 33.6875 6.921875 33.375 6.808594 33.019531 6.808594 C 32.664062 6.808594 32.351562 6.921875 32.078125 7.148438 L 0.464844 33.5625 C 0.355469 33.65625 0.265625 33.765625 0.199219 33.890625 C 0.132812 34.019531 0.09375 34.15625 0.0820312 34.296875 C 0.0664062 34.441406 0.0820312 34.582031 0.125 34.71875 C 0.167969 34.855469 0.234375 34.980469 0.328125 35.089844 C 0.421875 35.199219 0.53125 35.289062 0.65625 35.355469 C 0.785156 35.421875 0.917969 35.460938 1.0625 35.472656 C 1.207031 35.488281 1.347656 35.472656 1.484375 35.429688 C 1.621094 35.386719 1.742188 35.320312 1.855469 35.226562 L 33.019531 9.1875 Z M 43.378906 10.347656 L 51.585938 10.347656 L 51.585938 18.554688 C 51.585938 18.699219 51.613281 18.835938 51.667969 18.96875 C 51.722656 19.101562 51.800781 19.21875 51.902344 19.320312 C 52.003906 19.421875 52.121094 19.5 52.253906 19.554688 C 52.386719 19.609375 52.523438 19.640625 52.667969 19.640625 C 52.8125 19.640625 52.949219 19.609375 53.082031 19.554688 C 53.214844 19.5 53.332031 19.421875 53.433594 19.320312 C 53.535156 19.21875 53.613281 19.101562 53.667969 18.96875 C 53.722656 18.835938 53.75 18.699219 53.75 18.554688 L 53.75 9.648438 C 53.75 9.453125 53.714844 9.265625 53.640625 9.085938 C 53.566406 8.90625 53.457031 8.75 53.320312 8.609375 C 53.183594 8.472656 53.023438 8.367188 52.847656 8.292969 C 52.667969 8.21875 52.480469 8.183594 52.285156 8.179688 L 43.378906 8.179688 C 43.234375 8.179688 43.09375 8.207031 42.960938 8.265625 C 42.828125 8.320312 42.710938 8.398438 42.609375 8.5 C 42.507812 8.601562 42.429688 8.71875 42.375 8.851562 C 42.320312 8.984375 42.292969 9.121094 42.292969 9.265625 C 42.292969 9.410156 42.320312 9.546875 42.375 9.679688 C 42.429688 9.8125 42.507812 9.929688 42.609375 10.03125 C 42.710938 10.132812 42.828125 10.210938 42.960938 10.265625 C 43.09375 10.320312 43.234375 10.347656 43.378906 10.347656 Z M 43.378906 10.347656 " fill-opacity="1" fill-rule="nonzero"/></g></svg>