<svg xmlns="http://www.w3.org/2000/svg" xmlns:xlink="http://www.w3.org/1999/xlink" width="78" zoomAndPan="magnify" viewBox="0 0 58.5 48" height="64" preserveAspectRatio="xMidYMid meet" version="1.2"><defs><clipPath id="ef4169683a"><path d="M 0.351562 0 L 57.65625 0 L 57.65625 47.019531 L 0.351562 47.019531 Z M 0.351562 0 "/></clipPath><clipPath id="9f05465226"><path d="M 22 22 L 35 22 L 35 37.171875 L 22 37.171875 Z M 22 22 "/></clipPath><clipPath id="81c78893bf"><path d="M 36 16 L 45.078125 16 L 45.078125 27 L 36 27 Z M 36 16 "/></clipPath><clipPath id="e66c73699b"><path d="M 11.285156 16 L 21 16 L 21 27 L 11.285156 27 Z M 11.285156 16 "/></clipPath><clipPath id="94eb1e9a61"><path d="M 24 9.253906 L 32 9.253906 L 32 18 L 24 18 Z M 24 9.253906 "/></clipPath></defs><g id="69e804c2be"><g clip-rule="nonzero" clip-path="url(#ef4169683a)"><path style=" stroke:none;fill-rule:nonzero;fill:#ffffff;fill-opacity:1;" d="M 0.351562 0 L 57.65625 0 L 57.65625 47.019531 L 0.351562 47.019531 Z M 0.351562 0 "/></g><path style=" stroke:none;fill-rule:nonzero;fill:#000000;fill-opacity:1;" d="M 35.8125 17.539062 C 35.027344 17.027344 34.121094 16.664062 33.125 16.460938 C 32.945312 16.429688 32.765625 16.542969 32.726562 16.722656 C 32.691406 16.90625 32.804688 17.085938 32.988281 17.125 C 33.894531 17.3125 34.75 17.652344 35.453125 18.113281 C 35.507812 18.148438 35.574219 18.164062 35.632812 18.164062 C 35.746094 18.164062 35.851562 18.113281 35.910156 18.015625 C 36.015625 17.847656 35.972656 17.644531 35.8125 17.539062 Z M 35.8125 17.539062 "/><path style=" stroke:none;fill-rule:nonzero;fill:#000000;fill-opacity:1;" d="M 39.042969 30.476562 C 38.539062 31.617188 37.492188 32.5625 36.082031 33.140625 C 35.910156 33.210938 35.828125 33.40625 35.902344 33.578125 C 35.957031 33.707031 36.082031 33.789062 36.210938 33.789062 C 36.253906 33.789062 36.292969 33.78125 36.339844 33.769531 C 37.902344 33.117188 39.085938 32.046875 39.65625 30.75 C 39.730469 30.582031 39.65625 30.378906 39.484375 30.304688 C 39.320312 30.230469 39.117188 30.304688 39.042969 30.476562 Z M 39.042969 30.476562 "/><path style=" stroke:none;fill-rule:nonzero;fill:#000000;fill-opacity:1;" d="M 20.277344 33.140625 C 18.871094 32.5625 17.816406 31.609375 17.320312 30.476562 C 17.246094 30.3125 17.050781 30.230469 16.878906 30.304688 C 16.714844 30.378906 16.632812 30.578125 16.707031 30.75 C 17.277344 32.046875 18.453125 33.117188 20.023438 33.769531 C 20.070312 33.78125 20.105469 33.789062 20.152344 33.789062 C 20.285156 33.789062 20.40625 33.714844 20.457031 33.578125 C 20.535156 33.40625 20.453125 33.210938 20.277344 33.140625 Z M 20.277344 33.140625 "/><path style=" stroke:none;fill-rule:nonzero;fill:#000000;fill-opacity:1;" d="M 23.882812 16.714844 C 23.84375 16.535156 23.664062 16.421875 23.484375 16.453125 C 22.488281 16.664062 21.582031 17.027344 20.796875 17.53125 C 20.636719 17.628906 20.59375 17.839844 20.699219 17.992188 C 20.757812 18.089844 20.871094 18.140625 20.976562 18.140625 C 21.035156 18.140625 21.101562 18.128906 21.15625 18.089844 C 21.875 17.621094 22.699219 17.289062 23.621094 17.101562 C 23.808594 17.078125 23.917969 16.898438 23.882812 16.714844 Z M 23.882812 16.714844 "/><g clip-rule="nonzero" clip-path="url(#9f05465226)"><path style=" stroke:none;fill-rule:nonzero;fill:#000000;fill-opacity:1;" d="M 30.421875 31.339844 C 31.792969 30.570312 32.734375 29.105469 32.734375 27.40625 C 32.734375 24.917969 30.71875 22.886719 28.25 22.886719 C 25.777344 22.886719 23.761719 24.917969 23.761719 27.40625 C 23.761719 29.105469 24.707031 30.570312 26.078125 31.339844 C 24.023438 31.722656 22.457031 33.535156 22.457031 35.714844 L 22.457031 36.824219 C 22.457031 37.011719 22.609375 37.15625 22.789062 37.15625 C 22.96875 37.15625 23.117188 37.003906 23.117188 36.824219 L 23.117188 35.714844 C 23.117188 33.625 24.804688 31.925781 26.878906 31.925781 L 29.597656 31.925781 C 31.671875 31.925781 33.355469 33.625 33.355469 35.714844 L 33.355469 36.824219 C 33.355469 37.011719 33.507812 37.15625 33.6875 37.15625 C 33.867188 37.15625 34.015625 37.003906 34.015625 36.824219 L 34.015625 35.714844 C 34.039062 33.535156 32.480469 31.722656 30.421875 31.339844 Z M 24.4375 27.40625 C 24.4375 25.289062 26.152344 23.558594 28.257812 23.558594 C 30.359375 23.558594 32.078125 25.289062 32.078125 27.40625 C 32.078125 29.527344 30.359375 31.253906 28.257812 31.253906 C 26.144531 31.253906 24.4375 29.527344 24.4375 27.40625 Z M 24.4375 27.40625 "/></g><g clip-rule="nonzero" clip-path="url(#81c78893bf)"><path style=" stroke:none;fill-rule:nonzero;fill:#000000;fill-opacity:1;" d="M 42.511719 22.421875 C 43.46875 21.800781 44.105469 20.730469 44.105469 19.5 C 44.105469 17.585938 42.554688 16.03125 40.660156 16.03125 C 38.757812 16.03125 37.214844 17.589844 37.214844 19.5 C 37.214844 20.730469 37.851562 21.800781 38.808594 22.421875 C 37.335938 22.796875 36.242188 24.132812 36.242188 25.734375 L 36.242188 26.5625 C 36.242188 26.75 36.390625 26.894531 36.570312 26.894531 C 36.75 26.894531 36.898438 26.742188 36.898438 26.5625 L 36.898438 25.734375 C 36.898438 24.207031 38.128906 22.972656 39.640625 22.972656 L 41.679688 22.972656 C 43.191406 22.972656 44.421875 24.207031 44.421875 25.734375 L 44.421875 26.5625 C 44.421875 26.75 44.570312 26.894531 44.75 26.894531 C 44.929688 26.894531 45.078125 26.742188 45.078125 26.5625 L 45.078125 25.734375 C 45.078125 24.132812 43.976562 22.796875 42.511719 22.421875 Z M 37.875 19.5 C 37.875 17.953125 39.125 16.703125 40.652344 16.703125 C 42.1875 16.703125 43.429688 17.960938 43.429688 19.5 C 43.429688 21.046875 42.179688 22.300781 40.652344 22.300781 C 39.117188 22.308594 37.875 21.046875 37.875 19.5 Z M 37.875 19.5 "/></g><g clip-rule="nonzero" clip-path="url(#e66c73699b)"><path style=" stroke:none;fill-rule:nonzero;fill:#000000;fill-opacity:1;" d="M 19.460938 25.734375 L 19.460938 26.5625 C 19.460938 26.75 19.613281 26.894531 19.792969 26.894531 C 19.980469 26.894531 20.121094 26.742188 20.121094 26.5625 L 20.121094 25.734375 C 20.121094 24.132812 19.027344 22.796875 17.550781 22.421875 C 18.511719 21.800781 19.148438 20.730469 19.148438 19.5 C 19.148438 17.585938 17.597656 16.03125 15.703125 16.03125 C 13.800781 16.03125 12.257812 17.589844 12.257812 19.5 C 12.257812 20.730469 12.894531 21.800781 13.851562 22.421875 C 12.375 22.796875 11.285156 24.132812 11.285156 25.734375 L 11.285156 26.5625 C 11.285156 26.75 11.433594 26.894531 11.613281 26.894531 C 11.792969 26.894531 11.941406 26.742188 11.941406 26.5625 L 11.941406 25.734375 C 11.941406 24.207031 13.171875 22.972656 14.683594 22.972656 L 16.722656 22.972656 C 18.234375 22.980469 19.460938 24.214844 19.460938 25.734375 Z M 12.921875 19.5 C 12.921875 17.953125 14.175781 16.703125 15.703125 16.703125 C 17.238281 16.703125 18.480469 17.960938 18.480469 19.5 C 18.480469 21.046875 17.230469 22.300781 15.703125 22.300781 C 14.175781 22.308594 12.921875 21.046875 12.921875 19.5 Z M 12.921875 19.5 "/></g><g clip-rule="nonzero" clip-path="url(#94eb1e9a61)"><path style=" stroke:none;fill-rule:nonzero;fill:#000000;fill-opacity:1;" d="M 25.183594 17.578125 C 25.371094 17.578125 25.515625 17.425781 25.515625 17.246094 L 25.515625 16.625 C 25.515625 15.53125 26.398438 14.640625 27.484375 14.640625 L 29.011719 14.640625 C 30.097656 14.640625 30.984375 15.53125 30.984375 16.625 L 30.984375 17.246094 C 30.984375 17.433594 31.132812 17.578125 31.3125 17.578125 C 31.5 17.578125 31.640625 17.425781 31.640625 17.246094 L 31.640625 16.625 C 31.640625 15.449219 30.871094 14.460938 29.8125 14.113281 C 30.472656 13.625 30.90625 12.839844 30.90625 11.957031 C 30.90625 10.46875 29.710938 9.269531 28.242188 9.269531 C 26.765625 9.269531 25.574219 10.476562 25.574219 11.957031 C 25.574219 12.847656 26.007812 13.625 26.667969 14.113281 C 25.613281 14.460938 24.839844 15.449219 24.839844 16.625 L 24.839844 17.246094 C 24.855469 17.425781 25.003906 17.578125 25.183594 17.578125 Z M 26.25 11.941406 C 26.25 10.832031 27.148438 9.925781 28.25 9.925781 C 29.351562 9.925781 30.25 10.832031 30.25 11.941406 C 30.25 13.050781 29.351562 13.957031 28.25 13.957031 C 27.148438 13.960938 26.25 13.058594 26.25 11.941406 Z M 26.25 11.941406 "/></g></g></svg>