<svg xmlns="http://www.w3.org/2000/svg" xmlns:xlink="http://www.w3.org/1999/xlink" width="909" zoomAndPan="magnify" viewBox="0 0 681.75 62.249996" height="83" preserveAspectRatio="xMidYMid meet" version="1.0"><defs><g/></defs><path fill="#ffffff" d="M 17.71875 16.207031 L 654.628906 16.207031 L 654.628906 46.5625 L 17.71875 46.5625 L 17.71875 16.207031 " fill-opacity="1" fill-rule="nonzero"/><g fill="#393be5" fill-opacity="1"><g transform="translate(20.658603, 39.165594)"><g><path d="M 14.984375 -16.796875 C 15.128906 -16.796875 15.253906 -16.75 15.359375 -16.65625 C 15.453125 -16.539062 15.488281 -16.40625 15.46875 -16.25 L 14.5 -0.515625 C 14.476562 -0.367188 14.421875 -0.242188 14.328125 -0.140625 C 14.210938 -0.046875 14.082031 0 13.9375 0 L 11.671875 0 C 11.523438 0 11.378906 -0.046875 11.234375 -0.140625 C 11.078125 -0.222656 10.957031 -0.332031 10.875 -0.46875 L 8.515625 -4.53125 L 6.171875 -0.46875 C 6.085938 -0.332031 5.972656 -0.222656 5.828125 -0.140625 C 5.660156 -0.046875 5.503906 0 5.359375 0 L 3.140625 0 C 3.003906 0 2.878906 -0.046875 2.765625 -0.140625 C 2.648438 -0.242188 2.585938 -0.367188 2.578125 -0.515625 L 1.59375 -16.25 C 1.570312 -16.40625 1.613281 -16.539062 1.71875 -16.65625 C 1.8125 -16.75 1.929688 -16.796875 2.078125 -16.796875 L 4.375 -16.796875 C 4.53125 -16.796875 4.664062 -16.75 4.78125 -16.65625 C 4.875 -16.539062 4.929688 -16.40625 4.953125 -16.25 L 5.53125 -5.171875 L 7.171875 -7.765625 C 7.253906 -7.890625 7.378906 -7.992188 7.546875 -8.078125 C 7.691406 -8.179688 7.835938 -8.234375 7.984375 -8.234375 L 9.0625 -8.234375 C 9.207031 -8.234375 9.363281 -8.179688 9.53125 -8.078125 C 9.675781 -7.992188 9.789062 -7.890625 9.875 -7.765625 L 11.53125 -5.140625 L 12.125 -16.25 C 12.132812 -16.40625 12.195312 -16.539062 12.3125 -16.65625 C 12.414062 -16.75 12.539062 -16.796875 12.6875 -16.796875 Z M 14.984375 -16.796875 "/></g></g></g><g fill="#393be5" fill-opacity="1"><g transform="translate(37.720115, 39.165594)"><g><path d="M 14.984375 -13.953125 C 14.984375 -13.804688 14.929688 -13.679688 14.828125 -13.578125 C 14.734375 -13.484375 14.613281 -13.4375 14.46875 -13.4375 L 5.40625 -13.4375 L 5.40625 -10.0625 L 13.609375 -10.0625 C 13.753906 -10.0625 13.878906 -10.007812 13.984375 -9.90625 C 14.097656 -9.8125 14.15625 -9.691406 14.15625 -9.546875 L 14.15625 -7.25 C 14.15625 -7.101562 14.097656 -6.972656 13.984375 -6.859375 C 13.878906 -6.753906 13.753906 -6.703125 13.609375 -6.703125 L 5.40625 -6.703125 L 5.40625 -3.359375 L 14.46875 -3.359375 C 14.613281 -3.359375 14.734375 -3.300781 14.828125 -3.1875 C 14.929688 -3.082031 14.984375 -2.957031 14.984375 -2.8125 L 14.984375 -0.53125 C 14.984375 -0.382812 14.929688 -0.257812 14.828125 -0.15625 C 14.734375 -0.0507812 14.613281 0 14.46875 0 L 2.578125 0 C 2.421875 0 2.296875 -0.0507812 2.203125 -0.15625 C 2.109375 -0.257812 2.0625 -0.382812 2.0625 -0.53125 L 2.0625 -16.25 C 2.0625 -16.40625 2.109375 -16.535156 2.203125 -16.640625 C 2.296875 -16.742188 2.421875 -16.796875 2.578125 -16.796875 L 14.46875 -16.796875 C 14.613281 -16.796875 14.734375 -16.742188 14.828125 -16.640625 C 14.929688 -16.535156 14.984375 -16.40625 14.984375 -16.25 Z M 14.984375 -13.953125 "/></g></g></g><g fill="#393be5" fill-opacity="1"><g transform="translate(54.757146, 39.165594)"><g><path d="M 14.515625 0 L 3.0625 0 C 2.914062 0 2.785156 -0.0507812 2.671875 -0.15625 C 2.566406 -0.257812 2.515625 -0.382812 2.515625 -0.53125 L 2.515625 -16.25 C 2.515625 -16.40625 2.566406 -16.535156 2.671875 -16.640625 C 2.785156 -16.742188 2.914062 -16.796875 3.0625 -16.796875 L 5.34375 -16.796875 C 5.488281 -16.796875 5.613281 -16.742188 5.71875 -16.640625 C 5.820312 -16.535156 5.875 -16.40625 5.875 -16.25 L 5.875 -3.359375 L 14.515625 -3.359375 C 14.660156 -3.359375 14.78125 -3.300781 14.875 -3.1875 C 14.976562 -3.082031 15.03125 -2.957031 15.03125 -2.8125 L 15.03125 -0.53125 C 15.03125 -0.382812 14.976562 -0.257812 14.875 -0.15625 C 14.78125 -0.0507812 14.660156 0 14.515625 0 Z M 14.515625 0 "/></g></g></g><g fill="#393be5" fill-opacity="1"><g transform="translate(71.818659, 39.165594)"><g><path d="M 12.4375 -11.75 C 12.289062 -11.75 12.164062 -11.800781 12.0625 -11.90625 C 11.957031 -12.019531 11.90625 -12.148438 11.90625 -12.296875 L 11.90625 -12.46875 C 11.90625 -12.738281 11.8125 -12.96875 11.625 -13.15625 C 11.4375 -13.34375 11.203125 -13.4375 10.921875 -13.4375 L 6.140625 -13.4375 C 5.867188 -13.4375 5.640625 -13.34375 5.453125 -13.15625 C 5.273438 -12.96875 5.1875 -12.738281 5.1875 -12.46875 L 5.1875 -4.328125 C 5.1875 -4.054688 5.273438 -3.828125 5.453125 -3.640625 C 5.640625 -3.453125 5.867188 -3.359375 6.140625 -3.359375 L 10.921875 -3.359375 C 11.203125 -3.359375 11.4375 -3.453125 11.625 -3.640625 C 11.8125 -3.828125 11.90625 -4.054688 11.90625 -4.328125 L 11.90625 -4.5 C 11.90625 -4.644531 11.957031 -4.769531 12.0625 -4.875 C 12.164062 -4.988281 12.289062 -5.046875 12.4375 -5.046875 L 14.71875 -5.046875 C 14.863281 -5.046875 14.988281 -4.988281 15.09375 -4.875 C 15.195312 -4.769531 15.25 -4.644531 15.25 -4.5 L 15.25 -4.328125 C 15.25 -3.722656 15.132812 -3.160156 14.90625 -2.640625 C 14.675781 -2.117188 14.363281 -1.660156 13.96875 -1.265625 C 13.582031 -0.878906 13.128906 -0.570312 12.609375 -0.34375 C 12.085938 -0.113281 11.523438 0 10.921875 0 L 6.140625 0 C 5.554688 0 5 -0.113281 4.46875 -0.34375 C 3.9375 -0.570312 3.472656 -0.878906 3.078125 -1.265625 C 2.691406 -1.660156 2.382812 -2.117188 2.15625 -2.640625 C 1.925781 -3.160156 1.8125 -3.722656 1.8125 -4.328125 L 1.8125 -12.46875 C 1.8125 -13.070312 1.925781 -13.632812 2.15625 -14.15625 C 2.382812 -14.675781 2.691406 -15.128906 3.078125 -15.515625 C 3.472656 -15.910156 3.9375 -16.222656 4.46875 -16.453125 C 5 -16.679688 5.554688 -16.796875 6.140625 -16.796875 L 10.921875 -16.796875 C 11.523438 -16.796875 12.085938 -16.679688 12.609375 -16.453125 C 13.128906 -16.222656 13.582031 -15.910156 13.96875 -15.515625 C 14.363281 -15.128906 14.675781 -14.675781 14.90625 -14.15625 C 15.132812 -13.632812 15.25 -13.070312 15.25 -12.46875 L 15.25 -12.296875 C 15.25 -12.148438 15.195312 -12.019531 15.09375 -11.90625 C 14.988281 -11.800781 14.863281 -11.75 14.71875 -11.75 Z M 12.4375 -11.75 "/></g></g></g><g fill="#393be5" fill-opacity="1"><g transform="translate(88.880171, 39.165594)"><g><path d="M 10.921875 -16.765625 C 11.523438 -16.765625 12.085938 -16.648438 12.609375 -16.421875 C 13.128906 -16.203125 13.582031 -15.894531 13.96875 -15.5 C 14.363281 -15.101562 14.675781 -14.644531 14.90625 -14.125 C 15.132812 -13.601562 15.25 -13.050781 15.25 -12.46875 L 15.25 -4.3125 C 15.25 -3.71875 15.132812 -3.160156 14.90625 -2.640625 C 14.675781 -2.117188 14.363281 -1.660156 13.96875 -1.265625 C 13.582031 -0.878906 13.128906 -0.570312 12.609375 -0.34375 C 12.085938 -0.113281 11.523438 0 10.921875 0 L 6.140625 0 C 5.535156 0 4.972656 -0.113281 4.453125 -0.34375 C 3.929688 -0.570312 3.472656 -0.878906 3.078125 -1.265625 C 2.691406 -1.660156 2.382812 -2.117188 2.15625 -2.640625 C 1.925781 -3.160156 1.8125 -3.71875 1.8125 -4.3125 L 1.8125 -12.46875 C 1.8125 -13.050781 1.925781 -13.601562 2.15625 -14.125 C 2.382812 -14.644531 2.691406 -15.101562 3.078125 -15.5 C 3.472656 -15.894531 3.929688 -16.203125 4.453125 -16.421875 C 4.972656 -16.648438 5.535156 -16.765625 6.140625 -16.765625 Z M 11.90625 -12.46875 C 11.90625 -12.738281 11.8125 -12.960938 11.625 -13.140625 C 11.4375 -13.328125 11.203125 -13.421875 10.921875 -13.421875 L 6.140625 -13.421875 C 5.867188 -13.421875 5.640625 -13.328125 5.453125 -13.140625 C 5.265625 -12.960938 5.171875 -12.738281 5.171875 -12.46875 L 5.171875 -4.3125 C 5.171875 -4.03125 5.265625 -3.800781 5.453125 -3.625 C 5.640625 -3.445312 5.867188 -3.359375 6.140625 -3.359375 L 10.921875 -3.359375 C 11.203125 -3.359375 11.4375 -3.445312 11.625 -3.625 C 11.8125 -3.800781 11.90625 -4.03125 11.90625 -4.3125 Z M 11.90625 -12.46875 "/></g></g></g><g fill="#393be5" fill-opacity="1"><g transform="translate(105.941683, 39.165594)"><g><path d="M 14.71875 -16.796875 C 14.863281 -16.796875 14.992188 -16.75 15.109375 -16.65625 C 15.203125 -16.539062 15.25 -16.40625 15.25 -16.25 L 15.25 -0.53125 C 15.25 -0.382812 15.203125 -0.265625 15.109375 -0.171875 C 14.992188 -0.0546875 14.863281 0 14.71875 0 L 12.4375 0 C 12.289062 0 12.171875 -0.0546875 12.078125 -0.171875 C 11.960938 -0.265625 11.90625 -0.382812 11.90625 -0.53125 L 11.90625 -11 L 9.890625 -7.8125 C 9.804688 -7.675781 9.691406 -7.5625 9.546875 -7.46875 C 9.378906 -7.382812 9.222656 -7.34375 9.078125 -7.34375 L 8 -7.34375 C 7.851562 -7.34375 7.703125 -7.382812 7.546875 -7.46875 C 7.398438 -7.5625 7.285156 -7.675781 7.203125 -7.8125 L 5.171875 -11.015625 L 5.171875 -0.53125 C 5.171875 -0.382812 5.117188 -0.265625 5.015625 -0.171875 C 4.898438 -0.0546875 4.769531 0 4.625 0 L 2.34375 0 C 2.195312 0 2.078125 -0.0546875 1.984375 -0.171875 C 1.867188 -0.265625 1.8125 -0.382812 1.8125 -0.53125 L 1.8125 -16.25 C 1.8125 -16.40625 1.867188 -16.539062 1.984375 -16.65625 C 2.078125 -16.75 2.195312 -16.796875 2.34375 -16.796875 L 4.625 -16.796875 L 4.796875 -16.765625 C 4.878906 -16.753906 4.960938 -16.71875 5.046875 -16.65625 C 5.203125 -16.570312 5.320312 -16.460938 5.40625 -16.328125 L 8.546875 -10.921875 L 11.671875 -16.328125 C 11.753906 -16.460938 11.867188 -16.570312 12.015625 -16.65625 L 12.21875 -16.75 C 12.28125 -16.78125 12.351562 -16.796875 12.4375 -16.796875 Z M 14.71875 -16.796875 "/></g></g></g><g fill="#393be5" fill-opacity="1"><g transform="translate(123.003196, 39.165594)"><g><path d="M 14.984375 -13.953125 C 14.984375 -13.804688 14.929688 -13.679688 14.828125 -13.578125 C 14.734375 -13.484375 14.613281 -13.4375 14.46875 -13.4375 L 5.40625 -13.4375 L 5.40625 -10.0625 L 13.609375 -10.0625 C 13.753906 -10.0625 13.878906 -10.007812 13.984375 -9.90625 C 14.097656 -9.8125 14.15625 -9.691406 14.15625 -9.546875 L 14.15625 -7.25 C 14.15625 -7.101562 14.097656 -6.972656 13.984375 -6.859375 C 13.878906 -6.753906 13.753906 -6.703125 13.609375 -6.703125 L 5.40625 -6.703125 L 5.40625 -3.359375 L 14.46875 -3.359375 C 14.613281 -3.359375 14.734375 -3.300781 14.828125 -3.1875 C 14.929688 -3.082031 14.984375 -2.957031 14.984375 -2.8125 L 14.984375 -0.53125 C 14.984375 -0.382812 14.929688 -0.257812 14.828125 -0.15625 C 14.734375 -0.0507812 14.613281 0 14.46875 0 L 2.578125 0 C 2.421875 0 2.296875 -0.0507812 2.203125 -0.15625 C 2.109375 -0.257812 2.0625 -0.382812 2.0625 -0.53125 L 2.0625 -16.25 C 2.0625 -16.40625 2.109375 -16.535156 2.203125 -16.640625 C 2.296875 -16.742188 2.421875 -16.796875 2.578125 -16.796875 L 14.46875 -16.796875 C 14.613281 -16.796875 14.734375 -16.742188 14.828125 -16.640625 C 14.929688 -16.535156 14.984375 -16.40625 14.984375 -16.25 Z M 14.984375 -13.953125 "/></g></g></g><g fill="#393be5" fill-opacity="1"><g transform="translate(140.040227, 39.165594)"><g/></g></g><g fill="#393be5" fill-opacity="1"><g transform="translate(157.077258, 39.165594)"><g><path d="M 14.71875 -16.796875 C 14.863281 -16.796875 14.988281 -16.742188 15.09375 -16.640625 C 15.195312 -16.535156 15.25 -16.40625 15.25 -16.25 L 15.25 -13.953125 C 15.25 -13.804688 15.195312 -13.679688 15.09375 -13.578125 C 14.988281 -13.484375 14.863281 -13.4375 14.71875 -13.4375 L 10.203125 -13.4375 L 10.203125 -0.53125 C 10.203125 -0.382812 10.148438 -0.257812 10.046875 -0.15625 C 9.941406 -0.0507812 9.816406 0 9.671875 0 L 7.375 0 C 7.226562 0 7.101562 -0.0507812 7 -0.15625 C 6.90625 -0.257812 6.859375 -0.382812 6.859375 -0.53125 L 6.859375 -13.4375 L 2.34375 -13.4375 C 2.195312 -13.4375 2.070312 -13.484375 1.96875 -13.578125 C 1.863281 -13.679688 1.8125 -13.804688 1.8125 -13.953125 L 1.8125 -16.25 C 1.8125 -16.40625 1.863281 -16.535156 1.96875 -16.640625 C 2.070312 -16.742188 2.195312 -16.796875 2.34375 -16.796875 Z M 14.71875 -16.796875 "/></g></g></g><g fill="#393be5" fill-opacity="1"><g transform="translate(174.13877, 39.165594)"><g><path d="M 10.921875 -16.765625 C 11.523438 -16.765625 12.085938 -16.648438 12.609375 -16.421875 C 13.128906 -16.203125 13.582031 -15.894531 13.96875 -15.5 C 14.363281 -15.101562 14.675781 -14.644531 14.90625 -14.125 C 15.132812 -13.601562 15.25 -13.050781 15.25 -12.46875 L 15.25 -4.3125 C 15.25 -3.71875 15.132812 -3.160156 14.90625 -2.640625 C 14.675781 -2.117188 14.363281 -1.660156 13.96875 -1.265625 C 13.582031 -0.878906 13.128906 -0.570312 12.609375 -0.34375 C 12.085938 -0.113281 11.523438 0 10.921875 0 L 6.140625 0 C 5.535156 0 4.972656 -0.113281 4.453125 -0.34375 C 3.929688 -0.570312 3.472656 -0.878906 3.078125 -1.265625 C 2.691406 -1.660156 2.382812 -2.117188 2.15625 -2.640625 C 1.925781 -3.160156 1.8125 -3.71875 1.8125 -4.3125 L 1.8125 -12.46875 C 1.8125 -13.050781 1.925781 -13.601562 2.15625 -14.125 C 2.382812 -14.644531 2.691406 -15.101562 3.078125 -15.5 C 3.472656 -15.894531 3.929688 -16.203125 4.453125 -16.421875 C 4.972656 -16.648438 5.535156 -16.765625 6.140625 -16.765625 Z M 11.90625 -12.46875 C 11.90625 -12.738281 11.8125 -12.960938 11.625 -13.140625 C 11.4375 -13.328125 11.203125 -13.421875 10.921875 -13.421875 L 6.140625 -13.421875 C 5.867188 -13.421875 5.640625 -13.328125 5.453125 -13.140625 C 5.265625 -12.960938 5.171875 -12.738281 5.171875 -12.46875 L 5.171875 -4.3125 C 5.171875 -4.03125 5.265625 -3.800781 5.453125 -3.625 C 5.640625 -3.445312 5.867188 -3.359375 6.140625 -3.359375 L 10.921875 -3.359375 C 11.203125 -3.359375 11.4375 -3.445312 11.625 -3.625 C 11.8125 -3.800781 11.90625 -4.03125 11.90625 -4.3125 Z M 11.90625 -12.46875 "/></g></g></g><g fill="#393be5" fill-opacity="1"><g transform="translate(191.200283, 39.165594)"><g/></g></g><g fill="#393be5" fill-opacity="1"><g transform="translate(208.237314, 39.165594)"><g><path d="M 14.71875 -16.796875 C 14.863281 -16.796875 14.988281 -16.742188 15.09375 -16.640625 C 15.195312 -16.535156 15.25 -16.40625 15.25 -16.25 L 15.25 -13.953125 C 15.25 -13.804688 15.195312 -13.679688 15.09375 -13.578125 C 14.988281 -13.484375 14.863281 -13.4375 14.71875 -13.4375 L 10.203125 -13.4375 L 10.203125 -0.53125 C 10.203125 -0.382812 10.148438 -0.257812 10.046875 -0.15625 C 9.941406 -0.0507812 9.816406 0 9.671875 0 L 7.375 0 C 7.226562 0 7.101562 -0.0507812 7 -0.15625 C 6.90625 -0.257812 6.859375 -0.382812 6.859375 -0.53125 L 6.859375 -13.4375 L 2.34375 -13.4375 C 2.195312 -13.4375 2.070312 -13.484375 1.96875 -13.578125 C 1.863281 -13.679688 1.8125 -13.804688 1.8125 -13.953125 L 1.8125 -16.25 C 1.8125 -16.40625 1.863281 -16.535156 1.96875 -16.640625 C 2.070312 -16.742188 2.195312 -16.796875 2.34375 -16.796875 Z M 14.71875 -16.796875 "/></g></g></g><g fill="#393be5" fill-opacity="1"><g transform="translate(225.298826, 39.165594)"><g><path d="M 11.875 -16.25 C 11.875 -16.40625 11.925781 -16.535156 12.03125 -16.640625 C 12.132812 -16.742188 12.257812 -16.796875 12.40625 -16.796875 L 14.71875 -16.796875 C 14.863281 -16.796875 14.984375 -16.742188 15.078125 -16.640625 C 15.179688 -16.535156 15.234375 -16.40625 15.234375 -16.25 L 15.234375 -0.53125 C 15.234375 -0.382812 15.179688 -0.257812 15.078125 -0.15625 C 14.984375 -0.0507812 14.863281 0 14.71875 0 L 12.40625 0 C 12.257812 0 12.132812 -0.0507812 12.03125 -0.15625 C 11.925781 -0.257812 11.875 -0.382812 11.875 -0.53125 L 11.875 -6.703125 L 5.171875 -6.703125 L 5.171875 -0.53125 C 5.171875 -0.382812 5.113281 -0.257812 5 -0.15625 C 4.894531 -0.0507812 4.769531 0 4.625 0 L 2.328125 0 C 2.179688 0 2.054688 -0.0507812 1.953125 -0.15625 C 1.859375 -0.257812 1.8125 -0.382812 1.8125 -0.53125 L 1.8125 -16.25 C 1.8125 -16.40625 1.859375 -16.535156 1.953125 -16.640625 C 2.054688 -16.742188 2.179688 -16.796875 2.328125 -16.796875 L 4.625 -16.796875 C 4.769531 -16.796875 4.894531 -16.742188 5 -16.640625 C 5.113281 -16.535156 5.171875 -16.40625 5.171875 -16.25 L 5.171875 -10.0625 L 11.875 -10.0625 Z M 11.875 -16.25 "/></g></g></g><g fill="#393be5" fill-opacity="1"><g transform="translate(242.335868, 39.165594)"><g><path d="M 14.984375 -13.953125 C 14.984375 -13.804688 14.929688 -13.679688 14.828125 -13.578125 C 14.734375 -13.484375 14.613281 -13.4375 14.46875 -13.4375 L 5.40625 -13.4375 L 5.40625 -10.0625 L 13.609375 -10.0625 C 13.753906 -10.0625 13.878906 -10.007812 13.984375 -9.90625 C 14.097656 -9.8125 14.15625 -9.691406 14.15625 -9.546875 L 14.15625 -7.25 C 14.15625 -7.101562 14.097656 -6.972656 13.984375 -6.859375 C 13.878906 -6.753906 13.753906 -6.703125 13.609375 -6.703125 L 5.40625 -6.703125 L 5.40625 -3.359375 L 14.46875 -3.359375 C 14.613281 -3.359375 14.734375 -3.300781 14.828125 -3.1875 C 14.929688 -3.082031 14.984375 -2.957031 14.984375 -2.8125 L 14.984375 -0.53125 C 14.984375 -0.382812 14.929688 -0.257812 14.828125 -0.15625 C 14.734375 -0.0507812 14.613281 0 14.46875 0 L 2.578125 0 C 2.421875 0 2.296875 -0.0507812 2.203125 -0.15625 C 2.109375 -0.257812 2.0625 -0.382812 2.0625 -0.53125 L 2.0625 -16.25 C 2.0625 -16.40625 2.109375 -16.535156 2.203125 -16.640625 C 2.296875 -16.742188 2.421875 -16.796875 2.578125 -16.796875 L 14.46875 -16.796875 C 14.613281 -16.796875 14.734375 -16.742188 14.828125 -16.640625 C 14.929688 -16.535156 14.984375 -16.40625 14.984375 -16.25 Z M 14.984375 -13.953125 "/></g></g></g><g fill="#393be5" fill-opacity="1"><g transform="translate(259.372888, 39.165594)"><g/></g></g><g fill="#393be5" fill-opacity="1"><g transform="translate(276.409908, 39.165594)"><g><path d="M 12.40625 -11.75 C 12.257812 -11.75 12.132812 -11.800781 12.03125 -11.90625 C 11.925781 -12.019531 11.875 -12.148438 11.875 -12.296875 L 11.875 -12.46875 C 11.875 -12.738281 11.785156 -12.96875 11.609375 -13.15625 C 11.429688 -13.34375 11.203125 -13.4375 10.921875 -13.4375 L 6.125 -13.4375 C 5.863281 -13.4375 5.640625 -13.34375 5.453125 -13.15625 C 5.265625 -12.96875 5.171875 -12.738281 5.171875 -12.46875 L 5.171875 -11.046875 C 5.171875 -10.765625 5.265625 -10.53125 5.453125 -10.34375 C 5.640625 -10.15625 5.863281 -10.0625 6.125 -10.0625 L 10.921875 -10.0625 C 11.503906 -10.0625 12.054688 -9.945312 12.578125 -9.71875 C 13.109375 -9.488281 13.566406 -9.175781 13.953125 -8.78125 C 14.347656 -8.394531 14.660156 -7.941406 14.890625 -7.421875 C 15.117188 -6.898438 15.234375 -6.34375 15.234375 -5.75 L 15.234375 -4.328125 C 15.234375 -3.722656 15.117188 -3.160156 14.890625 -2.640625 C 14.660156 -2.117188 14.347656 -1.660156 13.953125 -1.265625 C 13.566406 -0.878906 13.109375 -0.570312 12.578125 -0.34375 C 12.054688 -0.113281 11.503906 0 10.921875 0 L 6.125 0 C 5.53125 0 4.972656 -0.113281 4.453125 -0.34375 C 3.929688 -0.570312 3.472656 -0.878906 3.078125 -1.265625 C 2.691406 -1.660156 2.382812 -2.117188 2.15625 -2.640625 C 1.925781 -3.160156 1.8125 -3.722656 1.8125 -4.328125 L 1.8125 -4.5 C 1.8125 -4.644531 1.863281 -4.769531 1.96875 -4.875 C 2.070312 -4.988281 2.195312 -5.046875 2.34375 -5.046875 L 4.625 -5.046875 C 4.769531 -5.046875 4.894531 -4.988281 5 -4.875 C 5.113281 -4.769531 5.171875 -4.644531 5.171875 -4.5 L 5.171875 -4.328125 C 5.171875 -4.054688 5.265625 -3.828125 5.453125 -3.640625 C 5.640625 -3.453125 5.863281 -3.359375 6.125 -3.359375 L 10.921875 -3.359375 C 11.203125 -3.359375 11.429688 -3.453125 11.609375 -3.640625 C 11.785156 -3.828125 11.875 -4.054688 11.875 -4.328125 L 11.875 -5.75 C 11.875 -6.03125 11.785156 -6.257812 11.609375 -6.4375 C 11.429688 -6.613281 11.203125 -6.703125 10.921875 -6.703125 L 6.125 -6.703125 C 5.53125 -6.703125 4.972656 -6.816406 4.453125 -7.046875 C 3.929688 -7.273438 3.472656 -7.582031 3.078125 -7.96875 C 2.691406 -8.363281 2.382812 -8.828125 2.15625 -9.359375 C 1.925781 -9.890625 1.8125 -10.453125 1.8125 -11.046875 L 1.8125 -12.46875 C 1.8125 -13.070312 1.925781 -13.632812 2.15625 -14.15625 C 2.382812 -14.675781 2.691406 -15.128906 3.078125 -15.515625 C 3.472656 -15.910156 3.929688 -16.222656 4.453125 -16.453125 C 4.972656 -16.679688 5.53125 -16.796875 6.125 -16.796875 L 10.921875 -16.796875 C 11.503906 -16.796875 12.054688 -16.679688 12.578125 -16.453125 C 13.109375 -16.222656 13.566406 -15.910156 13.953125 -15.515625 C 14.347656 -15.128906 14.660156 -14.675781 14.890625 -14.15625 C 15.117188 -13.632812 15.234375 -13.070312 15.234375 -12.46875 L 15.234375 -12.296875 C 15.234375 -12.148438 15.179688 -12.019531 15.078125 -11.90625 C 14.984375 -11.800781 14.863281 -11.75 14.71875 -11.75 Z M 12.40625 -11.75 "/></g></g></g><g fill="#393be5" fill-opacity="1"><g transform="translate(293.471421, 39.165594)"><g><path d="M 15.0625 -0.46875 C 15.144531 -0.332031 15.15625 -0.21875 15.09375 -0.125 C 15.039062 -0.0390625 14.9375 0 14.78125 0 L 12 0 C 11.851562 0 11.707031 -0.0390625 11.5625 -0.125 C 11.414062 -0.21875 11.300781 -0.332031 11.21875 -0.46875 L 7.65625 -6.703125 L 5.28125 -6.703125 L 5.28125 -0.53125 C 5.28125 -0.382812 5.226562 -0.257812 5.125 -0.15625 C 5.019531 -0.0507812 4.894531 0 4.75 0 L 2.453125 0 C 2.304688 0 2.179688 -0.0507812 2.078125 -0.15625 C 1.984375 -0.257812 1.9375 -0.382812 1.9375 -0.53125 L 1.9375 -16.25 C 1.9375 -16.40625 1.984375 -16.535156 2.078125 -16.640625 C 2.179688 -16.742188 2.304688 -16.796875 2.453125 -16.796875 L 4.75 -16.796875 C 4.894531 -16.796875 5.019531 -16.742188 5.125 -16.640625 C 5.226562 -16.535156 5.28125 -16.40625 5.28125 -16.25 L 5.28125 -10.0625 L 7.65625 -10.0625 L 11.21875 -16.328125 C 11.300781 -16.460938 11.414062 -16.570312 11.5625 -16.65625 C 11.707031 -16.75 11.851562 -16.796875 12 -16.796875 L 14.78125 -16.796875 C 14.9375 -16.796875 15.039062 -16.75 15.09375 -16.65625 C 15.15625 -16.570312 15.144531 -16.460938 15.0625 -16.328125 L 10.578125 -8.390625 Z M 15.0625 -0.46875 "/></g></g></g><g fill="#393be5" fill-opacity="1"><g transform="translate(310.532933, 39.165594)"><g><path d="M 14.9375 -13.953125 C 14.9375 -13.804688 14.878906 -13.679688 14.765625 -13.578125 C 14.660156 -13.484375 14.535156 -13.4375 14.390625 -13.4375 L 10.203125 -13.4375 L 10.203125 -3.359375 L 14.390625 -3.359375 C 14.535156 -3.359375 14.660156 -3.300781 14.765625 -3.1875 C 14.878906 -3.082031 14.9375 -2.957031 14.9375 -2.8125 L 14.9375 -0.53125 C 14.9375 -0.382812 14.878906 -0.257812 14.765625 -0.15625 C 14.660156 -0.0507812 14.535156 0 14.390625 0 L 2.6875 0 C 2.539062 0 2.414062 -0.0507812 2.3125 -0.15625 C 2.207031 -0.257812 2.15625 -0.382812 2.15625 -0.53125 L 2.15625 -2.8125 C 2.15625 -2.957031 2.207031 -3.082031 2.3125 -3.1875 C 2.414062 -3.300781 2.539062 -3.359375 2.6875 -3.359375 L 6.859375 -3.359375 L 6.859375 -13.4375 L 2.6875 -13.4375 C 2.539062 -13.4375 2.414062 -13.484375 2.3125 -13.578125 C 2.207031 -13.679688 2.15625 -13.804688 2.15625 -13.953125 L 2.15625 -16.25 C 2.15625 -16.40625 2.207031 -16.535156 2.3125 -16.640625 C 2.414062 -16.742188 2.539062 -16.796875 2.6875 -16.796875 L 14.390625 -16.796875 C 14.535156 -16.796875 14.660156 -16.742188 14.765625 -16.640625 C 14.878906 -16.535156 14.9375 -16.40625 14.9375 -16.25 Z M 14.9375 -13.953125 "/></g></g></g><g fill="#393be5" fill-opacity="1"><g transform="translate(327.594445, 39.165594)"><g><path d="M 14.515625 0 L 3.0625 0 C 2.914062 0 2.785156 -0.0507812 2.671875 -0.15625 C 2.566406 -0.257812 2.515625 -0.382812 2.515625 -0.53125 L 2.515625 -16.25 C 2.515625 -16.40625 2.566406 -16.535156 2.671875 -16.640625 C 2.785156 -16.742188 2.914062 -16.796875 3.0625 -16.796875 L 5.34375 -16.796875 C 5.488281 -16.796875 5.613281 -16.742188 5.71875 -16.640625 C 5.820312 -16.535156 5.875 -16.40625 5.875 -16.25 L 5.875 -3.359375 L 14.515625 -3.359375 C 14.660156 -3.359375 14.78125 -3.300781 14.875 -3.1875 C 14.976562 -3.082031 15.03125 -2.957031 15.03125 -2.8125 L 15.03125 -0.53125 C 15.03125 -0.382812 14.976562 -0.257812 14.875 -0.15625 C 14.78125 -0.0507812 14.660156 0 14.515625 0 Z M 14.515625 0 "/></g></g></g><g fill="#393be5" fill-opacity="1"><g transform="translate(344.655958, 39.165594)"><g><path d="M 14.515625 0 L 3.0625 0 C 2.914062 0 2.785156 -0.0507812 2.671875 -0.15625 C 2.566406 -0.257812 2.515625 -0.382812 2.515625 -0.53125 L 2.515625 -16.25 C 2.515625 -16.40625 2.566406 -16.535156 2.671875 -16.640625 C 2.785156 -16.742188 2.914062 -16.796875 3.0625 -16.796875 L 5.34375 -16.796875 C 5.488281 -16.796875 5.613281 -16.742188 5.71875 -16.640625 C 5.820312 -16.535156 5.875 -16.40625 5.875 -16.25 L 5.875 -3.359375 L 14.515625 -3.359375 C 14.660156 -3.359375 14.78125 -3.300781 14.875 -3.1875 C 14.976562 -3.082031 15.03125 -2.957031 15.03125 -2.8125 L 15.03125 -0.53125 C 15.03125 -0.382812 14.976562 -0.257812 14.875 -0.15625 C 14.78125 -0.0507812 14.660156 0 14.515625 0 Z M 14.515625 0 "/></g></g></g><g fill="#393be5" fill-opacity="1"><g transform="translate(361.71747, 39.165594)"><g><path d="M 10.921875 -16.796875 C 11.523438 -16.796875 12.085938 -16.679688 12.609375 -16.453125 C 13.128906 -16.222656 13.582031 -15.910156 13.96875 -15.515625 C 14.363281 -15.128906 14.675781 -14.675781 14.90625 -14.15625 C 15.132812 -13.632812 15.25 -13.070312 15.25 -12.46875 L 15.25 -11.046875 C 15.25 -10.453125 15.132812 -9.890625 14.90625 -9.359375 C 14.675781 -8.828125 14.363281 -8.363281 13.96875 -7.96875 C 13.582031 -7.582031 13.128906 -7.273438 12.609375 -7.046875 C 12.085938 -6.816406 11.523438 -6.703125 10.921875 -6.703125 L 5.171875 -6.703125 L 5.171875 -0.53125 C 5.171875 -0.382812 5.117188 -0.257812 5.015625 -0.15625 C 4.921875 -0.0507812 4.800781 0 4.65625 0 L 2.34375 0 C 2.195312 0 2.070312 -0.0507812 1.96875 -0.15625 C 1.863281 -0.257812 1.8125 -0.382812 1.8125 -0.53125 L 1.8125 -16.25 C 1.8125 -16.40625 1.863281 -16.535156 1.96875 -16.640625 C 2.070312 -16.742188 2.195312 -16.796875 2.34375 -16.796875 Z M 11.90625 -12.46875 C 11.90625 -12.738281 11.8125 -12.96875 11.625 -13.15625 C 11.4375 -13.34375 11.203125 -13.4375 10.921875 -13.4375 L 5.171875 -13.4375 L 5.171875 -10.0625 L 10.921875 -10.0625 C 11.203125 -10.0625 11.4375 -10.15625 11.625 -10.34375 C 11.8125 -10.53125 11.90625 -10.765625 11.90625 -11.046875 Z M 11.90625 -12.46875 "/></g></g></g><g fill="#393be5" fill-opacity="1"><g transform="translate(378.778982, 39.165594)"><g><path d="M 14.515625 0 L 3.0625 0 C 2.914062 0 2.785156 -0.0507812 2.671875 -0.15625 C 2.566406 -0.257812 2.515625 -0.382812 2.515625 -0.53125 L 2.515625 -16.25 C 2.515625 -16.40625 2.566406 -16.535156 2.671875 -16.640625 C 2.785156 -16.742188 2.914062 -16.796875 3.0625 -16.796875 L 5.34375 -16.796875 C 5.488281 -16.796875 5.613281 -16.742188 5.71875 -16.640625 C 5.820312 -16.535156 5.875 -16.40625 5.875 -16.25 L 5.875 -3.359375 L 14.515625 -3.359375 C 14.660156 -3.359375 14.78125 -3.300781 14.875 -3.1875 C 14.976562 -3.082031 15.03125 -2.957031 15.03125 -2.8125 L 15.03125 -0.53125 C 15.03125 -0.382812 14.976562 -0.257812 14.875 -0.15625 C 14.78125 -0.0507812 14.660156 0 14.515625 0 Z M 14.515625 0 "/></g></g></g><g fill="#393be5" fill-opacity="1"><g transform="translate(395.840495, 39.165594)"><g><path d="M 10.828125 -16.796875 C 10.972656 -16.796875 11.113281 -16.742188 11.25 -16.640625 C 11.382812 -16.546875 11.476562 -16.4375 11.53125 -16.3125 L 15.0625 -7.546875 C 15.101562 -7.410156 15.144531 -7.238281 15.1875 -7.03125 C 15.226562 -6.832031 15.25 -6.660156 15.25 -6.515625 L 15.25 -0.53125 C 15.25 -0.382812 15.195312 -0.257812 15.09375 -0.15625 C 14.988281 -0.0507812 14.863281 0 14.71875 0 L 12.40625 0 C 12.257812 0 12.132812 -0.0507812 12.03125 -0.15625 C 11.925781 -0.257812 11.875 -0.382812 11.875 -0.53125 L 11.875 -3.359375 L 5.171875 -3.359375 L 5.171875 -0.53125 C 5.171875 -0.382812 5.113281 -0.257812 5 -0.15625 C 4.894531 -0.0507812 4.769531 0 4.625 0 L 2.34375 0 C 2.195312 0 2.070312 -0.0507812 1.96875 -0.15625 C 1.863281 -0.257812 1.8125 -0.382812 1.8125 -0.53125 L 1.8125 -6.515625 C 1.8125 -6.660156 1.832031 -6.832031 1.875 -7.03125 C 1.914062 -7.238281 1.957031 -7.410156 2 -7.546875 L 5.515625 -16.3125 C 5.578125 -16.4375 5.675781 -16.546875 5.8125 -16.640625 C 5.945312 -16.742188 6.09375 -16.796875 6.25 -16.796875 Z M 5.28125 -6.703125 L 11.75 -6.703125 L 9.0625 -13.4375 L 7.984375 -13.4375 Z M 5.28125 -6.703125 "/></g></g></g><g fill="#393be5" fill-opacity="1"><g transform="translate(412.902007, 39.165594)"><g><path d="M 11.875 -16.25 C 11.875 -16.40625 11.925781 -16.535156 12.03125 -16.640625 C 12.132812 -16.742188 12.257812 -16.796875 12.40625 -16.796875 L 14.71875 -16.796875 C 14.863281 -16.796875 14.988281 -16.742188 15.09375 -16.640625 C 15.195312 -16.535156 15.25 -16.40625 15.25 -16.25 L 15.25 -0.53125 C 15.25 -0.382812 15.195312 -0.257812 15.09375 -0.15625 C 14.988281 -0.0507812 14.863281 0 14.71875 0 L 12.40625 0 C 12.257812 0 12.132812 -0.0507812 12.03125 -0.15625 C 11.925781 -0.257812 11.875 -0.382812 11.875 -0.53125 L 11.875 -6.265625 L 5.171875 -12.296875 L 5.171875 -0.53125 C 5.171875 -0.382812 5.113281 -0.257812 5 -0.15625 C 4.894531 -0.0507812 4.769531 0 4.625 0 L 2.34375 0 C 2.195312 0 2.070312 -0.0507812 1.96875 -0.15625 C 1.863281 -0.257812 1.8125 -0.382812 1.8125 -0.53125 L 1.8125 -16.25 C 1.8125 -16.40625 1.863281 -16.535156 1.96875 -16.640625 C 2.070312 -16.742188 2.195312 -16.796875 2.34375 -16.796875 L 4.625 -16.796875 C 4.769531 -16.796875 4.929688 -16.757812 5.109375 -16.6875 C 5.296875 -16.613281 5.445312 -16.523438 5.5625 -16.421875 L 11.875 -10.765625 Z M 11.875 -16.25 "/></g></g></g><g fill="#393be5" fill-opacity="1"><g transform="translate(429.96352, 39.165594)"><g><path d="M 11.875 -16.25 C 11.875 -16.40625 11.925781 -16.535156 12.03125 -16.640625 C 12.132812 -16.742188 12.257812 -16.796875 12.40625 -16.796875 L 14.71875 -16.796875 C 14.863281 -16.796875 14.988281 -16.742188 15.09375 -16.640625 C 15.195312 -16.535156 15.25 -16.40625 15.25 -16.25 L 15.25 -0.53125 C 15.25 -0.382812 15.195312 -0.257812 15.09375 -0.15625 C 14.988281 -0.0507812 14.863281 0 14.71875 0 L 12.40625 0 C 12.257812 0 12.132812 -0.0507812 12.03125 -0.15625 C 11.925781 -0.257812 11.875 -0.382812 11.875 -0.53125 L 11.875 -6.265625 L 5.171875 -12.296875 L 5.171875 -0.53125 C 5.171875 -0.382812 5.113281 -0.257812 5 -0.15625 C 4.894531 -0.0507812 4.769531 0 4.625 0 L 2.34375 0 C 2.195312 0 2.070312 -0.0507812 1.96875 -0.15625 C 1.863281 -0.257812 1.8125 -0.382812 1.8125 -0.53125 L 1.8125 -16.25 C 1.8125 -16.40625 1.863281 -16.535156 1.96875 -16.640625 C 2.070312 -16.742188 2.195312 -16.796875 2.34375 -16.796875 L 4.625 -16.796875 C 4.769531 -16.796875 4.929688 -16.757812 5.109375 -16.6875 C 5.296875 -16.613281 5.445312 -16.523438 5.5625 -16.421875 L 11.875 -10.765625 Z M 11.875 -16.25 "/></g></g></g><g fill="#393be5" fill-opacity="1"><g transform="translate(447.025032, 39.165594)"><g><path d="M 14.984375 -13.953125 C 14.984375 -13.804688 14.929688 -13.679688 14.828125 -13.578125 C 14.734375 -13.484375 14.613281 -13.4375 14.46875 -13.4375 L 5.40625 -13.4375 L 5.40625 -10.0625 L 13.609375 -10.0625 C 13.753906 -10.0625 13.878906 -10.007812 13.984375 -9.90625 C 14.097656 -9.8125 14.15625 -9.691406 14.15625 -9.546875 L 14.15625 -7.25 C 14.15625 -7.101562 14.097656 -6.972656 13.984375 -6.859375 C 13.878906 -6.753906 13.753906 -6.703125 13.609375 -6.703125 L 5.40625 -6.703125 L 5.40625 -3.359375 L 14.46875 -3.359375 C 14.613281 -3.359375 14.734375 -3.300781 14.828125 -3.1875 C 14.929688 -3.082031 14.984375 -2.957031 14.984375 -2.8125 L 14.984375 -0.53125 C 14.984375 -0.382812 14.929688 -0.257812 14.828125 -0.15625 C 14.734375 -0.0507812 14.613281 0 14.46875 0 L 2.578125 0 C 2.421875 0 2.296875 -0.0507812 2.203125 -0.15625 C 2.109375 -0.257812 2.0625 -0.382812 2.0625 -0.53125 L 2.0625 -16.25 C 2.0625 -16.40625 2.109375 -16.535156 2.203125 -16.640625 C 2.296875 -16.742188 2.421875 -16.796875 2.578125 -16.796875 L 14.46875 -16.796875 C 14.613281 -16.796875 14.734375 -16.742188 14.828125 -16.640625 C 14.929688 -16.535156 14.984375 -16.40625 14.984375 -16.25 Z M 14.984375 -13.953125 "/></g></g></g><g fill="#393be5" fill-opacity="1"><g transform="translate(464.062074, 39.165594)"><g><path d="M 15.015625 -0.484375 C 15.078125 -0.359375 15.070312 -0.242188 15 -0.140625 C 14.9375 -0.046875 14.832031 0 14.6875 0 L 12.078125 0 C 11.921875 0 11.773438 -0.046875 11.640625 -0.140625 C 11.503906 -0.242188 11.40625 -0.359375 11.34375 -0.484375 L 8.515625 -6.703125 L 5.1875 -6.703125 L 5.1875 -0.53125 C 5.1875 -0.382812 5.132812 -0.257812 5.03125 -0.15625 C 4.925781 -0.0507812 4.800781 0 4.65625 0 L 2.34375 0 C 2.195312 0 2.070312 -0.0507812 1.96875 -0.15625 C 1.863281 -0.257812 1.8125 -0.382812 1.8125 -0.53125 L 1.8125 -16.25 C 1.8125 -16.40625 1.863281 -16.535156 1.96875 -16.640625 C 2.070312 -16.742188 2.195312 -16.796875 2.34375 -16.796875 L 10.921875 -16.796875 C 11.523438 -16.796875 12.085938 -16.679688 12.609375 -16.453125 C 13.128906 -16.222656 13.582031 -15.910156 13.96875 -15.515625 C 14.363281 -15.128906 14.675781 -14.675781 14.90625 -14.15625 C 15.132812 -13.632812 15.25 -13.070312 15.25 -12.46875 L 15.25 -11.046875 C 15.25 -10.554688 15.171875 -10.085938 15.015625 -9.640625 C 14.859375 -9.191406 14.640625 -8.78125 14.359375 -8.40625 C 14.085938 -8.039062 13.757812 -7.726562 13.375 -7.46875 C 13 -7.207031 12.582031 -7.007812 12.125 -6.875 Z M 10.921875 -10.0625 C 11.203125 -10.0625 11.4375 -10.15625 11.625 -10.34375 C 11.8125 -10.53125 11.90625 -10.765625 11.90625 -11.046875 L 11.90625 -12.46875 C 11.90625 -12.738281 11.8125 -12.96875 11.625 -13.15625 C 11.4375 -13.34375 11.203125 -13.4375 10.921875 -13.4375 L 5.1875 -13.4375 L 5.1875 -10.0625 Z M 10.921875 -10.0625 "/></g></g></g><g fill="#393be5" fill-opacity="1"><g transform="translate(481.123586, 39.165594)"><g/></g></g><g fill="#393be5" fill-opacity="1"><g transform="translate(498.160629, 39.165594)"><g><path d="M 12.4375 -11.75 C 12.289062 -11.75 12.164062 -11.800781 12.0625 -11.90625 C 11.957031 -12.019531 11.90625 -12.148438 11.90625 -12.296875 L 11.90625 -12.46875 C 11.90625 -12.738281 11.8125 -12.96875 11.625 -13.15625 C 11.4375 -13.34375 11.203125 -13.4375 10.921875 -13.4375 L 6.140625 -13.4375 C 5.867188 -13.4375 5.640625 -13.34375 5.453125 -13.15625 C 5.273438 -12.96875 5.1875 -12.738281 5.1875 -12.46875 L 5.1875 -4.328125 C 5.1875 -4.054688 5.273438 -3.828125 5.453125 -3.640625 C 5.640625 -3.453125 5.867188 -3.359375 6.140625 -3.359375 L 10.921875 -3.359375 C 11.203125 -3.359375 11.4375 -3.453125 11.625 -3.640625 C 11.8125 -3.828125 11.90625 -4.054688 11.90625 -4.328125 L 11.90625 -4.5 C 11.90625 -4.644531 11.957031 -4.769531 12.0625 -4.875 C 12.164062 -4.988281 12.289062 -5.046875 12.4375 -5.046875 L 14.71875 -5.046875 C 14.863281 -5.046875 14.988281 -4.988281 15.09375 -4.875 C 15.195312 -4.769531 15.25 -4.644531 15.25 -4.5 L 15.25 -4.328125 C 15.25 -3.722656 15.132812 -3.160156 14.90625 -2.640625 C 14.675781 -2.117188 14.363281 -1.660156 13.96875 -1.265625 C 13.582031 -0.878906 13.128906 -0.570312 12.609375 -0.34375 C 12.085938 -0.113281 11.523438 0 10.921875 0 L 6.140625 0 C 5.554688 0 5 -0.113281 4.46875 -0.34375 C 3.9375 -0.570312 3.472656 -0.878906 3.078125 -1.265625 C 2.691406 -1.660156 2.382812 -2.117188 2.15625 -2.640625 C 1.925781 -3.160156 1.8125 -3.722656 1.8125 -4.328125 L 1.8125 -12.46875 C 1.8125 -13.070312 1.925781 -13.632812 2.15625 -14.15625 C 2.382812 -14.675781 2.691406 -15.128906 3.078125 -15.515625 C 3.472656 -15.910156 3.9375 -16.222656 4.46875 -16.453125 C 5 -16.679688 5.554688 -16.796875 6.140625 -16.796875 L 10.921875 -16.796875 C 11.523438 -16.796875 12.085938 -16.679688 12.609375 -16.453125 C 13.128906 -16.222656 13.582031 -15.910156 13.96875 -15.515625 C 14.363281 -15.128906 14.675781 -14.675781 14.90625 -14.15625 C 15.132812 -13.632812 15.25 -13.070312 15.25 -12.46875 L 15.25 -12.296875 C 15.25 -12.148438 15.195312 -12.019531 15.09375 -11.90625 C 14.988281 -11.800781 14.863281 -11.75 14.71875 -11.75 Z M 12.4375 -11.75 "/></g></g></g><g fill="#393be5" fill-opacity="1"><g transform="translate(515.222141, 39.165594)"><g><path d="M 10.921875 -16.765625 C 11.523438 -16.765625 12.085938 -16.648438 12.609375 -16.421875 C 13.128906 -16.203125 13.582031 -15.894531 13.96875 -15.5 C 14.363281 -15.101562 14.675781 -14.644531 14.90625 -14.125 C 15.132812 -13.601562 15.25 -13.050781 15.25 -12.46875 L 15.25 -4.3125 C 15.25 -3.71875 15.132812 -3.160156 14.90625 -2.640625 C 14.675781 -2.117188 14.363281 -1.660156 13.96875 -1.265625 C 13.582031 -0.878906 13.128906 -0.570312 12.609375 -0.34375 C 12.085938 -0.113281 11.523438 0 10.921875 0 L 6.140625 0 C 5.535156 0 4.972656 -0.113281 4.453125 -0.34375 C 3.929688 -0.570312 3.472656 -0.878906 3.078125 -1.265625 C 2.691406 -1.660156 2.382812 -2.117188 2.15625 -2.640625 C 1.925781 -3.160156 1.8125 -3.71875 1.8125 -4.3125 L 1.8125 -12.46875 C 1.8125 -13.050781 1.925781 -13.601562 2.15625 -14.125 C 2.382812 -14.644531 2.691406 -15.101562 3.078125 -15.5 C 3.472656 -15.894531 3.929688 -16.203125 4.453125 -16.421875 C 4.972656 -16.648438 5.535156 -16.765625 6.140625 -16.765625 Z M 11.90625 -12.46875 C 11.90625 -12.738281 11.8125 -12.960938 11.625 -13.140625 C 11.4375 -13.328125 11.203125 -13.421875 10.921875 -13.421875 L 6.140625 -13.421875 C 5.867188 -13.421875 5.640625 -13.328125 5.453125 -13.140625 C 5.265625 -12.960938 5.171875 -12.738281 5.171875 -12.46875 L 5.171875 -4.3125 C 5.171875 -4.03125 5.265625 -3.800781 5.453125 -3.625 C 5.640625 -3.445312 5.867188 -3.359375 6.140625 -3.359375 L 10.921875 -3.359375 C 11.203125 -3.359375 11.4375 -3.445312 11.625 -3.625 C 11.8125 -3.800781 11.90625 -4.03125 11.90625 -4.3125 Z M 11.90625 -12.46875 "/></g></g></g><g fill="#393be5" fill-opacity="1"><g transform="translate(532.283653, 39.165594)"><g><path d="M 14.71875 -16.796875 C 14.863281 -16.796875 14.992188 -16.75 15.109375 -16.65625 C 15.203125 -16.539062 15.25 -16.40625 15.25 -16.25 L 15.25 -0.53125 C 15.25 -0.382812 15.203125 -0.265625 15.109375 -0.171875 C 14.992188 -0.0546875 14.863281 0 14.71875 0 L 12.4375 0 C 12.289062 0 12.171875 -0.0546875 12.078125 -0.171875 C 11.960938 -0.265625 11.90625 -0.382812 11.90625 -0.53125 L 11.90625 -11 L 9.890625 -7.8125 C 9.804688 -7.675781 9.691406 -7.5625 9.546875 -7.46875 C 9.378906 -7.382812 9.222656 -7.34375 9.078125 -7.34375 L 8 -7.34375 C 7.851562 -7.34375 7.703125 -7.382812 7.546875 -7.46875 C 7.398438 -7.5625 7.285156 -7.675781 7.203125 -7.8125 L 5.171875 -11.015625 L 5.171875 -0.53125 C 5.171875 -0.382812 5.117188 -0.265625 5.015625 -0.171875 C 4.898438 -0.0546875 4.769531 0 4.625 0 L 2.34375 0 C 2.195312 0 2.078125 -0.0546875 1.984375 -0.171875 C 1.867188 -0.265625 1.8125 -0.382812 1.8125 -0.53125 L 1.8125 -16.25 C 1.8125 -16.40625 1.867188 -16.539062 1.984375 -16.65625 C 2.078125 -16.75 2.195312 -16.796875 2.34375 -16.796875 L 4.625 -16.796875 L 4.796875 -16.765625 C 4.878906 -16.753906 4.960938 -16.71875 5.046875 -16.65625 C 5.203125 -16.570312 5.320312 -16.460938 5.40625 -16.328125 L 8.546875 -10.921875 L 11.671875 -16.328125 C 11.753906 -16.460938 11.867188 -16.570312 12.015625 -16.65625 L 12.21875 -16.75 C 12.28125 -16.78125 12.351562 -16.796875 12.4375 -16.796875 Z M 14.71875 -16.796875 "/></g></g></g><g fill="#393be5" fill-opacity="1"><g transform="translate(549.345166, 39.165594)"><g><path d="M 14.71875 -16.796875 C 14.863281 -16.796875 14.992188 -16.75 15.109375 -16.65625 C 15.203125 -16.539062 15.25 -16.40625 15.25 -16.25 L 15.25 -0.53125 C 15.25 -0.382812 15.203125 -0.265625 15.109375 -0.171875 C 14.992188 -0.0546875 14.863281 0 14.71875 0 L 12.4375 0 C 12.289062 0 12.171875 -0.0546875 12.078125 -0.171875 C 11.960938 -0.265625 11.90625 -0.382812 11.90625 -0.53125 L 11.90625 -11 L 9.890625 -7.8125 C 9.804688 -7.675781 9.691406 -7.5625 9.546875 -7.46875 C 9.378906 -7.382812 9.222656 -7.34375 9.078125 -7.34375 L 8 -7.34375 C 7.851562 -7.34375 7.703125 -7.382812 7.546875 -7.46875 C 7.398438 -7.5625 7.285156 -7.675781 7.203125 -7.8125 L 5.171875 -11.015625 L 5.171875 -0.53125 C 5.171875 -0.382812 5.117188 -0.265625 5.015625 -0.171875 C 4.898438 -0.0546875 4.769531 0 4.625 0 L 2.34375 0 C 2.195312 0 2.078125 -0.0546875 1.984375 -0.171875 C 1.867188 -0.265625 1.8125 -0.382812 1.8125 -0.53125 L 1.8125 -16.25 C 1.8125 -16.40625 1.867188 -16.539062 1.984375 -16.65625 C 2.078125 -16.75 2.195312 -16.796875 2.34375 -16.796875 L 4.625 -16.796875 L 4.796875 -16.765625 C 4.878906 -16.753906 4.960938 -16.71875 5.046875 -16.65625 C 5.203125 -16.570312 5.320312 -16.460938 5.40625 -16.328125 L 8.546875 -10.921875 L 11.671875 -16.328125 C 11.753906 -16.460938 11.867188 -16.570312 12.015625 -16.65625 L 12.21875 -16.75 C 12.28125 -16.78125 12.351562 -16.796875 12.4375 -16.796875 Z M 14.71875 -16.796875 "/></g></g></g><g fill="#393be5" fill-opacity="1"><g transform="translate(566.406678, 39.165594)"><g><path d="M 6.125 0 C 5.53125 0 4.972656 -0.113281 4.453125 -0.34375 C 3.929688 -0.570312 3.472656 -0.878906 3.078125 -1.265625 C 2.691406 -1.660156 2.382812 -2.117188 2.15625 -2.640625 C 1.925781 -3.160156 1.8125 -3.722656 1.8125 -4.328125 L 1.8125 -16.25 C 1.8125 -16.40625 1.863281 -16.535156 1.96875 -16.640625 C 2.070312 -16.742188 2.195312 -16.796875 2.34375 -16.796875 L 4.625 -16.796875 C 4.769531 -16.796875 4.894531 -16.742188 5 -16.640625 C 5.113281 -16.535156 5.171875 -16.40625 5.171875 -16.25 L 5.171875 -4.328125 C 5.171875 -4.054688 5.265625 -3.828125 5.453125 -3.640625 C 5.640625 -3.453125 5.863281 -3.359375 6.125 -3.359375 L 10.921875 -3.359375 C 11.203125 -3.359375 11.429688 -3.453125 11.609375 -3.640625 C 11.785156 -3.828125 11.875 -4.054688 11.875 -4.328125 L 11.875 -16.25 C 11.875 -16.40625 11.925781 -16.535156 12.03125 -16.640625 C 12.132812 -16.742188 12.257812 -16.796875 12.40625 -16.796875 L 14.71875 -16.796875 C 14.863281 -16.796875 14.988281 -16.742188 15.09375 -16.640625 C 15.195312 -16.535156 15.25 -16.40625 15.25 -16.25 L 15.25 -4.328125 C 15.25 -3.722656 15.132812 -3.160156 14.90625 -2.640625 C 14.675781 -2.117188 14.363281 -1.660156 13.96875 -1.265625 C 13.582031 -0.878906 13.125 -0.570312 12.59375 -0.34375 C 12.0625 -0.113281 11.503906 0 10.921875 0 Z M 6.125 0 "/></g></g></g><g fill="#393be5" fill-opacity="1"><g transform="translate(583.46819, 39.165594)"><g><path d="M 11.875 -16.25 C 11.875 -16.40625 11.925781 -16.535156 12.03125 -16.640625 C 12.132812 -16.742188 12.257812 -16.796875 12.40625 -16.796875 L 14.71875 -16.796875 C 14.863281 -16.796875 14.988281 -16.742188 15.09375 -16.640625 C 15.195312 -16.535156 15.25 -16.40625 15.25 -16.25 L 15.25 -0.53125 C 15.25 -0.382812 15.195312 -0.257812 15.09375 -0.15625 C 14.988281 -0.0507812 14.863281 0 14.71875 0 L 12.40625 0 C 12.257812 0 12.132812 -0.0507812 12.03125 -0.15625 C 11.925781 -0.257812 11.875 -0.382812 11.875 -0.53125 L 11.875 -6.265625 L 5.171875 -12.296875 L 5.171875 -0.53125 C 5.171875 -0.382812 5.113281 -0.257812 5 -0.15625 C 4.894531 -0.0507812 4.769531 0 4.625 0 L 2.34375 0 C 2.195312 0 2.070312 -0.0507812 1.96875 -0.15625 C 1.863281 -0.257812 1.8125 -0.382812 1.8125 -0.53125 L 1.8125 -16.25 C 1.8125 -16.40625 1.863281 -16.535156 1.96875 -16.640625 C 2.070312 -16.742188 2.195312 -16.796875 2.34375 -16.796875 L 4.625 -16.796875 C 4.769531 -16.796875 4.929688 -16.757812 5.109375 -16.6875 C 5.296875 -16.613281 5.445312 -16.523438 5.5625 -16.421875 L 11.875 -10.765625 Z M 11.875 -16.25 "/></g></g></g><g fill="#393be5" fill-opacity="1"><g transform="translate(600.529703, 39.165594)"><g><path d="M 14.9375 -13.953125 C 14.9375 -13.804688 14.878906 -13.679688 14.765625 -13.578125 C 14.660156 -13.484375 14.535156 -13.4375 14.390625 -13.4375 L 10.203125 -13.4375 L 10.203125 -3.359375 L 14.390625 -3.359375 C 14.535156 -3.359375 14.660156 -3.300781 14.765625 -3.1875 C 14.878906 -3.082031 14.9375 -2.957031 14.9375 -2.8125 L 14.9375 -0.53125 C 14.9375 -0.382812 14.878906 -0.257812 14.765625 -0.15625 C 14.660156 -0.0507812 14.535156 0 14.390625 0 L 2.6875 0 C 2.539062 0 2.414062 -0.0507812 2.3125 -0.15625 C 2.207031 -0.257812 2.15625 -0.382812 2.15625 -0.53125 L 2.15625 -2.8125 C 2.15625 -2.957031 2.207031 -3.082031 2.3125 -3.1875 C 2.414062 -3.300781 2.539062 -3.359375 2.6875 -3.359375 L 6.859375 -3.359375 L 6.859375 -13.4375 L 2.6875 -13.4375 C 2.539062 -13.4375 2.414062 -13.484375 2.3125 -13.578125 C 2.207031 -13.679688 2.15625 -13.804688 2.15625 -13.953125 L 2.15625 -16.25 C 2.15625 -16.40625 2.207031 -16.535156 2.3125 -16.640625 C 2.414062 -16.742188 2.539062 -16.796875 2.6875 -16.796875 L 14.390625 -16.796875 C 14.535156 -16.796875 14.660156 -16.742188 14.765625 -16.640625 C 14.878906 -16.535156 14.9375 -16.40625 14.9375 -16.25 Z M 14.9375 -13.953125 "/></g></g></g><g fill="#393be5" fill-opacity="1"><g transform="translate(617.591215, 39.165594)"><g><path d="M 14.71875 -16.796875 C 14.863281 -16.796875 14.988281 -16.742188 15.09375 -16.640625 C 15.195312 -16.535156 15.25 -16.40625 15.25 -16.25 L 15.25 -13.953125 C 15.25 -13.804688 15.195312 -13.679688 15.09375 -13.578125 C 14.988281 -13.484375 14.863281 -13.4375 14.71875 -13.4375 L 10.203125 -13.4375 L 10.203125 -0.53125 C 10.203125 -0.382812 10.148438 -0.257812 10.046875 -0.15625 C 9.941406 -0.0507812 9.816406 0 9.671875 0 L 7.375 0 C 7.226562 0 7.101562 -0.0507812 7 -0.15625 C 6.90625 -0.257812 6.859375 -0.382812 6.859375 -0.53125 L 6.859375 -13.4375 L 2.34375 -13.4375 C 2.195312 -13.4375 2.070312 -13.484375 1.96875 -13.578125 C 1.863281 -13.679688 1.8125 -13.804688 1.8125 -13.953125 L 1.8125 -16.25 C 1.8125 -16.40625 1.863281 -16.535156 1.96875 -16.640625 C 2.070312 -16.742188 2.195312 -16.796875 2.34375 -16.796875 Z M 14.71875 -16.796875 "/></g></g></g><g fill="#393be5" fill-opacity="1"><g transform="translate(634.652728, 39.165594)"><g><path d="M 14.71875 -16.796875 C 14.863281 -16.796875 14.984375 -16.742188 15.078125 -16.640625 C 15.179688 -16.535156 15.234375 -16.40625 15.234375 -16.25 L 15.234375 -12.484375 C 15.234375 -12.335938 15.195312 -12.175781 15.125 -12 C 15.0625 -11.820312 14.972656 -11.675781 14.859375 -11.5625 L 10.203125 -6.59375 L 10.203125 -0.515625 C 10.203125 -0.378906 10.148438 -0.257812 10.046875 -0.15625 C 9.941406 -0.0507812 9.816406 0 9.671875 0 L 7.375 0 C 7.226562 0 7.097656 -0.0507812 6.984375 -0.15625 C 6.878906 -0.257812 6.828125 -0.378906 6.828125 -0.515625 L 6.828125 -6.59375 L 2.171875 -11.5625 C 2.054688 -11.675781 1.96875 -11.820312 1.90625 -12 C 1.84375 -12.175781 1.8125 -12.335938 1.8125 -12.484375 L 1.8125 -16.25 C 1.8125 -16.40625 1.859375 -16.535156 1.953125 -16.640625 C 2.054688 -16.742188 2.179688 -16.796875 2.328125 -16.796875 L 4.625 -16.796875 C 4.769531 -16.796875 4.894531 -16.742188 5 -16.640625 C 5.113281 -16.535156 5.171875 -16.40625 5.171875 -16.25 L 5.171875 -13.8125 C 5.171875 -13.664062 5.207031 -13.5 5.28125 -13.3125 C 5.351562 -13.132812 5.4375 -13 5.53125 -12.90625 L 8.515625 -9.71875 L 11.5 -12.90625 C 11.601562 -13 11.691406 -13.132812 11.765625 -13.3125 C 11.835938 -13.5 11.875 -13.664062 11.875 -13.8125 L 11.875 -16.25 C 11.875 -16.40625 11.925781 -16.535156 12.03125 -16.640625 C 12.132812 -16.742188 12.257812 -16.796875 12.40625 -16.796875 Z M 14.71875 -16.796875 "/></g></g></g><g fill="#393be5" fill-opacity="1"><g transform="translate(651.692444, 39.165594)"><g/></g></g></svg>