<svg xmlns="http://www.w3.org/2000/svg" xmlns:xlink="http://www.w3.org/1999/xlink" width="76" zoomAndPan="magnify" viewBox="0 0 56.879997 42.75" height="57" preserveAspectRatio="xMidYMid meet" version="1.0"><defs><clipPath id="8a2b2979d4"><path d="M 11.84375 8.339844 L 44.652344 8.339844 L 44.652344 36.671875 L 11.84375 36.671875 Z M 11.84375 8.339844 " clip-rule="nonzero"/></clipPath></defs><g clip-path="url(#8a2b2979d4)"><path fill="#6a9dd4" d="M 40.746094 8.351562 L 16.03125 8.351562 C 13.722656 8.351562 11.84375 10.230469 11.84375 12.539062 L 11.84375 25.640625 C 11.84375 27.949219 13.722656 29.828125 16.03125 29.828125 L 19.335938 29.828125 L 19.335938 35.945312 C 19.335938 36.292969 19.542969 36.601562 19.863281 36.734375 C 19.96875 36.78125 20.082031 36.800781 20.191406 36.800781 C 20.414062 36.800781 20.632812 36.714844 20.796875 36.550781 L 27.519531 29.828125 L 40.746094 29.828125 C 43.054688 29.828125 44.929688 27.949219 44.929688 25.640625 L 44.929688 12.539062 C 44.929688 10.230469 43.054688 8.351562 40.746094 8.351562 Z M 43.21875 25.640625 C 43.21875 27.007812 42.109375 28.117188 40.746094 28.117188 L 27.164062 28.117188 C 26.9375 28.117188 26.71875 28.207031 26.558594 28.367188 L 21.046875 33.878906 L 21.046875 28.972656 C 21.046875 28.5 20.664062 28.117188 20.191406 28.117188 L 16.03125 28.117188 C 14.664062 28.117188 13.554688 27.007812 13.554688 25.640625 L 13.554688 12.539062 C 13.554688 11.175781 14.664062 10.066406 16.03125 10.066406 L 40.746094 10.066406 C 42.109375 10.066406 43.21875 11.175781 43.21875 12.539062 Z M 43.21875 25.640625 " fill-opacity="1" fill-rule="nonzero"/></g></svg>