<svg xmlns="http://www.w3.org/2000/svg" xmlns:xlink="http://www.w3.org/1999/xlink" width="1040" zoomAndPan="magnify" viewBox="0 0 780 79.499998" height="106" preserveAspectRatio="xMidYMid meet" version="1.2"><defs/><g id="b13840bd22"><path style=" stroke:none;fill-rule:nonzero;fill:#393be5;fill-opacity:1;" d="M 24.578125 16.273438 L 735.519531 16.273438 L 735.519531 62.296875 L 24.578125 62.296875 L 24.578125 16.273438 "/><g style="fill:#ffffff;fill-opacity:1;"><g transform="translate(37.068091, 49.350323)"><path style="stroke:none" d="M 1.65625 0 L 1.65625 -23.25 L 4.984375 -23.25 L 4.984375 -3.328125 L 18.265625 -3.328125 L 18.265625 0 Z M 1.65625 0 "/></g></g><g style="fill:#ffffff;fill-opacity:1;"><g transform="translate(61.986974, 49.350323)"><path style="stroke:none" d="M 1.65625 0 L 1.65625 -23.25 L 18.265625 -23.25 L 18.265625 -19.9375 L 4.984375 -19.9375 L 4.984375 -13.28125 L 14.953125 -13.28125 L 14.953125 -9.96875 L 4.984375 -9.96875 L 4.984375 -3.328125 L 18.234375 -3.328125 L 18.234375 0 Z M 1.65625 0 "/></g></g><g style="fill:#ffffff;fill-opacity:1;"><g transform="translate(86.905857, 49.350323)"><path style="stroke:none" d="M 1.65625 0 L 1.65625 -19.9375 L 4.984375 -19.9375 L 4.984375 -9.96875 L 14.953125 -9.96875 L 14.953125 -19.9375 L 18.265625 -19.9375 L 18.265625 0 L 14.953125 0 L 14.953125 -6.640625 L 4.984375 -6.640625 L 4.984375 0 Z M 4.984375 -19.9375 L 4.984375 -23.25 L 14.953125 -23.25 L 14.953125 -19.9375 Z M 4.984375 -19.9375 "/></g></g><g style="fill:#ffffff;fill-opacity:1;"><g transform="translate(111.82474, 49.350323)"><path style="stroke:none" d="M 1.65625 0 L 1.65625 -23.25 L 14.953125 -23.25 L 14.953125 -19.9375 L 4.984375 -19.9375 L 4.984375 -13.28125 L 14.953125 -13.28125 L 14.953125 -9.96875 L 11.625 -9.96875 L 11.625 -6.640625 L 8.3125 -6.640625 L 8.3125 -9.96875 L 4.984375 -9.96875 L 4.984375 0 Z M 11.625 -3.328125 L 11.625 -6.640625 L 14.953125 -6.640625 L 14.953125 -3.328125 Z M 14.953125 0 L 14.953125 -3.328125 L 18.265625 -3.328125 L 18.265625 0 Z M 14.953125 -13.28125 L 14.953125 -19.9375 L 18.265625 -19.9375 L 18.265625 -13.28125 Z M 14.953125 -13.28125 "/></g></g><g style="fill:#ffffff;fill-opacity:1;"><g transform="translate(136.743623, 49.350323)"><path style="stroke:none" d="M 14.953125 0 L 14.953125 -9.96875 L 11.625 -9.96875 L 11.625 -13.28125 L 14.953125 -13.28125 L 14.953125 -23.25 L 18.265625 -23.25 L 18.265625 0 Z M 1.65625 0 L 1.65625 -23.25 L 4.984375 -23.25 L 4.984375 -19.9375 L 8.3125 -19.9375 L 8.3125 -16.609375 L 4.984375 -16.609375 L 4.984375 0 Z M 8.3125 -13.28125 L 8.3125 -16.609375 L 11.625 -16.609375 L 11.625 -13.28125 Z M 8.3125 -13.28125 "/></g></g><g style="fill:#ffffff;fill-opacity:1;"><g transform="translate(161.662505, 49.350323)"><path style="stroke:none" d=""/></g></g><g style="fill:#ffffff;fill-opacity:1;"><g transform="translate(174.952781, 49.350323)"><path style="stroke:none" d="M 8.3125 0 L 8.3125 -19.9375 L 1.65625 -19.9375 L 1.65625 -23.25 L 18.265625 -23.25 L 18.265625 -19.9375 L 11.625 -19.9375 L 11.625 0 Z M 8.3125 0 "/></g></g><g style="fill:#ffffff;fill-opacity:1;"><g transform="translate(199.871664, 49.350323)"><path style="stroke:none" d="M 14.953125 -3.328125 L 14.953125 0 L 4.984375 0 L 4.984375 -3.328125 Z M 1.65625 -3.328125 L 1.65625 -19.9375 L 4.984375 -19.9375 L 4.984375 -3.328125 Z M 4.984375 -19.9375 L 4.984375 -23.25 L 14.953125 -23.25 L 14.953125 -19.9375 Z M 14.953125 -3.328125 L 14.953125 -19.9375 L 18.265625 -19.9375 L 18.265625 -3.328125 Z M 14.953125 -3.328125 "/></g></g><g style="fill:#ffffff;fill-opacity:1;"><g transform="translate(224.790547, 49.350323)"><path style="stroke:none" d="M 14.953125 -3.328125 L 14.953125 0 L 4.984375 0 L 4.984375 -3.328125 Z M 1.65625 -3.328125 L 1.65625 -19.9375 L 4.984375 -19.9375 L 4.984375 -3.328125 Z M 4.984375 -19.9375 L 4.984375 -23.25 L 14.953125 -23.25 L 14.953125 -19.9375 Z M 11.625 -9.96875 L 11.625 -13.28125 L 18.265625 -13.28125 L 18.265625 -3.328125 L 14.953125 -3.328125 L 14.953125 -9.96875 Z M 14.953125 -16.609375 L 14.953125 -19.9375 L 18.265625 -19.9375 L 18.265625 -16.609375 Z M 14.953125 -16.609375 "/></g></g><g style="fill:#ffffff;fill-opacity:1;"><g transform="translate(249.70943, 49.350323)"><path style="stroke:none" d="M 1.65625 0 L 1.65625 -23.25 L 18.265625 -23.25 L 18.265625 -19.9375 L 4.984375 -19.9375 L 4.984375 -13.28125 L 14.953125 -13.28125 L 14.953125 -9.96875 L 4.984375 -9.96875 L 4.984375 -3.328125 L 18.234375 -3.328125 L 18.234375 0 Z M 1.65625 0 "/></g></g><g style="fill:#ffffff;fill-opacity:1;"><g transform="translate(274.628313, 49.350323)"><path style="stroke:none" d="M 8.3125 0 L 8.3125 -19.9375 L 1.65625 -19.9375 L 1.65625 -23.25 L 18.265625 -23.25 L 18.265625 -19.9375 L 11.625 -19.9375 L 11.625 0 Z M 8.3125 0 "/></g></g><g style="fill:#ffffff;fill-opacity:1;"><g transform="translate(299.547196, 49.350323)"><path style="stroke:none" d="M 1.65625 0 L 1.65625 -23.25 L 4.984375 -23.25 L 4.984375 -13.28125 L 14.953125 -13.28125 L 14.953125 -23.25 L 18.265625 -23.25 L 18.265625 0 L 14.953125 0 L 14.953125 -9.96875 L 4.984375 -9.96875 L 4.984375 0 Z M 1.65625 0 "/></g></g><g style="fill:#ffffff;fill-opacity:1;"><g transform="translate(324.466079, 49.350323)"><path style="stroke:none" d="M 1.65625 0 L 1.65625 -23.25 L 18.265625 -23.25 L 18.265625 -19.9375 L 4.984375 -19.9375 L 4.984375 -13.28125 L 14.953125 -13.28125 L 14.953125 -9.96875 L 4.984375 -9.96875 L 4.984375 -3.328125 L 18.234375 -3.328125 L 18.234375 0 Z M 1.65625 0 "/></g></g><g style="fill:#ffffff;fill-opacity:1;"><g transform="translate(349.384961, 49.350323)"><path style="stroke:none" d="M 1.65625 0 L 1.65625 -23.25 L 14.953125 -23.25 L 14.953125 -19.9375 L 4.984375 -19.9375 L 4.984375 -13.28125 L 14.953125 -13.28125 L 14.953125 -9.96875 L 11.625 -9.96875 L 11.625 -6.640625 L 8.3125 -6.640625 L 8.3125 -9.96875 L 4.984375 -9.96875 L 4.984375 0 Z M 11.625 -3.328125 L 11.625 -6.640625 L 14.953125 -6.640625 L 14.953125 -3.328125 Z M 14.953125 0 L 14.953125 -3.328125 L 18.265625 -3.328125 L 18.265625 0 Z M 14.953125 -13.28125 L 14.953125 -19.9375 L 18.265625 -19.9375 L 18.265625 -13.28125 Z M 14.953125 -13.28125 "/></g></g><g style="fill:#ffffff;fill-opacity:1;"><g transform="translate(374.303844, 49.350323)"><path style="stroke:none" d="M 1.65625 0 L 1.65625 -3.328125 L 4.984375 -3.328125 L 4.984375 0 Z M 1.65625 0 "/></g></g><g style="fill:#ffffff;fill-opacity:1;"><g transform="translate(385.932907, 49.350323)"><path style="stroke:none" d=""/></g></g><g style="fill:#ffffff;fill-opacity:1;"><g transform="translate(399.223159, 49.350323)"><path style="stroke:none" d="M 14.953125 -3.328125 L 14.953125 0 L 4.984375 0 L 4.984375 -3.328125 Z M 1.65625 -3.328125 L 1.65625 -19.9375 L 4.984375 -19.9375 L 4.984375 -3.328125 Z M 4.984375 -19.9375 L 4.984375 -23.25 L 14.953125 -23.25 L 14.953125 -19.9375 Z M 11.625 -9.96875 L 11.625 -13.28125 L 18.265625 -13.28125 L 18.265625 -3.328125 L 14.953125 -3.328125 L 14.953125 -9.96875 Z M 14.953125 -16.609375 L 14.953125 -19.9375 L 18.265625 -19.9375 L 18.265625 -16.609375 Z M 14.953125 -16.609375 "/></g></g><g style="fill:#ffffff;fill-opacity:1;"><g transform="translate(424.142042, 49.350323)"><path style="stroke:none" d="M 1.65625 0 L 1.65625 -23.25 L 14.953125 -23.25 L 14.953125 -19.9375 L 4.984375 -19.9375 L 4.984375 -13.28125 L 14.953125 -13.28125 L 14.953125 -9.96875 L 11.625 -9.96875 L 11.625 -6.640625 L 8.3125 -6.640625 L 8.3125 -9.96875 L 4.984375 -9.96875 L 4.984375 0 Z M 11.625 -3.328125 L 11.625 -6.640625 L 14.953125 -6.640625 L 14.953125 -3.328125 Z M 14.953125 0 L 14.953125 -3.328125 L 18.265625 -3.328125 L 18.265625 0 Z M 14.953125 -13.28125 L 14.953125 -19.9375 L 18.265625 -19.9375 L 18.265625 -13.28125 Z M 14.953125 -13.28125 "/></g></g><g style="fill:#ffffff;fill-opacity:1;"><g transform="translate(449.060925, 49.350323)"><path style="stroke:none" d="M 14.953125 -3.328125 L 14.953125 0 L 4.984375 0 L 4.984375 -3.328125 Z M 1.65625 -3.328125 L 1.65625 -19.9375 L 4.984375 -19.9375 L 4.984375 -3.328125 Z M 4.984375 -19.9375 L 4.984375 -23.25 L 14.953125 -23.25 L 14.953125 -19.9375 Z M 14.953125 -3.328125 L 14.953125 -19.9375 L 18.265625 -19.9375 L 18.265625 -3.328125 Z M 14.953125 -3.328125 "/></g></g><g style="fill:#ffffff;fill-opacity:1;"><g transform="translate(473.979808, 49.350323)"><path style="stroke:none" d="M 14.953125 -3.328125 L 14.953125 0 L 11.625 0 L 11.625 -3.328125 Z M 1.65625 -3.328125 L 1.65625 -23.25 L 4.984375 -23.25 L 4.984375 -3.328125 Z M 4.984375 0 L 4.984375 -3.328125 L 8.3125 -3.328125 L 8.3125 0 Z M 8.3125 -3.328125 L 8.3125 -9.96875 L 11.625 -9.96875 L 11.625 -3.328125 Z M 14.953125 -3.328125 L 14.953125 -23.25 L 18.265625 -23.25 L 18.265625 -3.328125 Z M 14.953125 -3.328125 "/></g></g><g style="fill:#ffffff;fill-opacity:1;"><g transform="translate(498.898691, 49.350323)"><path style="stroke:none" d=""/></g></g><g style="fill:#ffffff;fill-opacity:1;"><g transform="translate(512.188989, 49.350323)"><path style="stroke:none" d="M 8.3125 0 L 8.3125 -19.9375 L 1.65625 -19.9375 L 1.65625 -23.25 L 18.265625 -23.25 L 18.265625 -19.9375 L 11.625 -19.9375 L 11.625 0 Z M 8.3125 0 "/></g></g><g style="fill:#ffffff;fill-opacity:1;"><g transform="translate(537.107872, 49.350323)"><path style="stroke:none" d="M 14.953125 -3.328125 L 14.953125 0 L 4.984375 0 L 4.984375 -3.328125 Z M 1.65625 -3.328125 L 1.65625 -19.9375 L 4.984375 -19.9375 L 4.984375 -3.328125 Z M 4.984375 -19.9375 L 4.984375 -23.25 L 14.953125 -23.25 L 14.953125 -19.9375 Z M 14.953125 -3.328125 L 14.953125 -19.9375 L 18.265625 -19.9375 L 18.265625 -3.328125 Z M 14.953125 -3.328125 "/></g></g><g style="fill:#ffffff;fill-opacity:1;"><g transform="translate(562.026755, 49.350323)"><path style="stroke:none" d="M 14.953125 -3.328125 L 14.953125 0 L 4.984375 0 L 4.984375 -3.328125 Z M 1.65625 -3.328125 L 1.65625 -19.9375 L 4.984375 -19.9375 L 4.984375 -3.328125 Z M 4.984375 -19.9375 L 4.984375 -23.25 L 14.953125 -23.25 L 14.953125 -19.9375 Z M 11.625 -9.96875 L 11.625 -13.28125 L 18.265625 -13.28125 L 18.265625 -3.328125 L 14.953125 -3.328125 L 14.953125 -9.96875 Z M 14.953125 -16.609375 L 14.953125 -19.9375 L 18.265625 -19.9375 L 18.265625 -16.609375 Z M 14.953125 -16.609375 "/></g></g><g style="fill:#ffffff;fill-opacity:1;"><g transform="translate(586.945638, 49.350323)"><path style="stroke:none" d="M 1.65625 0 L 1.65625 -23.25 L 18.265625 -23.25 L 18.265625 -19.9375 L 4.984375 -19.9375 L 4.984375 -13.28125 L 14.953125 -13.28125 L 14.953125 -9.96875 L 4.984375 -9.96875 L 4.984375 -3.328125 L 18.234375 -3.328125 L 18.234375 0 Z M 1.65625 0 "/></g></g><g style="fill:#ffffff;fill-opacity:1;"><g transform="translate(611.864521, 49.350323)"><path style="stroke:none" d="M 8.3125 0 L 8.3125 -19.9375 L 1.65625 -19.9375 L 1.65625 -23.25 L 18.265625 -23.25 L 18.265625 -19.9375 L 11.625 -19.9375 L 11.625 0 Z M 8.3125 0 "/></g></g><g style="fill:#ffffff;fill-opacity:1;"><g transform="translate(636.783404, 49.350323)"><path style="stroke:none" d="M 1.65625 0 L 1.65625 -23.25 L 4.984375 -23.25 L 4.984375 -13.28125 L 14.953125 -13.28125 L 14.953125 -23.25 L 18.265625 -23.25 L 18.265625 0 L 14.953125 0 L 14.953125 -9.96875 L 4.984375 -9.96875 L 4.984375 0 Z M 1.65625 0 "/></g></g><g style="fill:#ffffff;fill-opacity:1;"><g transform="translate(661.702286, 49.350323)"><path style="stroke:none" d="M 1.65625 0 L 1.65625 -23.25 L 18.265625 -23.25 L 18.265625 -19.9375 L 4.984375 -19.9375 L 4.984375 -13.28125 L 14.953125 -13.28125 L 14.953125 -9.96875 L 4.984375 -9.96875 L 4.984375 -3.328125 L 18.234375 -3.328125 L 18.234375 0 Z M 1.65625 0 "/></g></g><g style="fill:#ffffff;fill-opacity:1;"><g transform="translate(686.621169, 49.350323)"><path style="stroke:none" d="M 1.65625 0 L 1.65625 -23.25 L 14.953125 -23.25 L 14.953125 -19.9375 L 4.984375 -19.9375 L 4.984375 -13.28125 L 14.953125 -13.28125 L 14.953125 -9.96875 L 11.625 -9.96875 L 11.625 -6.640625 L 8.3125 -6.640625 L 8.3125 -9.96875 L 4.984375 -9.96875 L 4.984375 0 Z M 11.625 -3.328125 L 11.625 -6.640625 L 14.953125 -6.640625 L 14.953125 -3.328125 Z M 14.953125 0 L 14.953125 -3.328125 L 18.265625 -3.328125 L 18.265625 0 Z M 14.953125 -13.28125 L 14.953125 -19.9375 L 18.265625 -19.9375 L 18.265625 -13.28125 Z M 14.953125 -13.28125 "/></g></g><g style="fill:#ffffff;fill-opacity:1;"><g transform="translate(711.540052, 49.350323)"><path style="stroke:none" d="M 1.65625 0 L 1.65625 -3.328125 L 4.984375 -3.328125 L 4.984375 0 Z M 1.65625 0 "/></g></g><g style="fill:#ffffff;fill-opacity:1;"><g transform="translate(723.174779, 49.350323)"><path style="stroke:none" d=""/></g></g></g></svg>