<svg xmlns="http://www.w3.org/2000/svg" xmlns:xlink="http://www.w3.org/1999/xlink" width="75" zoomAndPan="magnify" viewBox="0 0 56.25 44.999999" height="60" preserveAspectRatio="xMidYMid meet" version="1.2"><defs><clipPath id="64b5f44b85"><path d="M 5.472656 0.296875 L 43 0.296875 L 43 43.964844 L 5.472656 43.964844 Z M 5.472656 0.296875 "/></clipPath></defs><g id="0318122aeb"><g clip-rule="nonzero" clip-path="url(#64b5f44b85)"><path style=" stroke:none;fill-rule:evenodd;fill:#000000;fill-opacity:1;" d="M 10.089844 26.652344 C 10.355469 26.902344 10.367188 27.320312 10.117188 27.585938 L 9.523438 28.214844 C 9.390625 28.355469 9.214844 28.421875 9.039062 28.421875 C 8.878906 28.421875 8.714844 28.367188 8.585938 28.242188 C 8.320312 27.992188 8.308594 27.578125 8.558594 27.316406 L 9.15625 26.679688 C 9.40625 26.421875 9.824219 26.402344 10.089844 26.652344 Z M 7.1875 30.949219 C 6.851562 30.804688 6.699219 30.417969 6.847656 30.082031 L 7.15625 29.382812 C 7.300781 29.050781 7.691406 28.898438 8.027344 29.042969 C 8.359375 29.1875 8.515625 29.578125 8.367188 29.910156 L 8.058594 30.609375 C 7.949219 30.859375 7.707031 31.003906 7.453125 31.003906 C 7.363281 31.003906 7.273438 30.988281 7.1875 30.949219 Z M 7.015625 33.757812 C 6.648438 33.757812 6.355469 33.460938 6.355469 33.09375 L 6.355469 32.367188 C 6.355469 32.007812 6.648438 31.710938 7.015625 31.710938 C 7.382812 31.710938 7.679688 32.007812 7.679688 32.367188 L 7.679688 33.09375 C 7.679688 33.460938 7.382812 33.757812 7.015625 33.757812 Z M 8.027344 36.417969 C 7.941406 36.457031 7.851562 36.476562 7.761719 36.476562 C 7.507812 36.476562 7.261719 36.332031 7.15625 36.082031 L 6.847656 35.378906 C 6.699219 35.046875 6.851562 34.65625 7.1875 34.511719 C 7.523438 34.367188 7.914062 34.519531 8.058594 34.851562 L 8.367188 35.550781 C 8.515625 35.886719 8.359375 36.273438 8.027344 36.417969 Z M 10.117188 37.882812 C 10.367188 38.140625 10.355469 38.558594 10.089844 38.808594 C 9.960938 38.929688 9.800781 38.988281 9.636719 38.988281 C 9.460938 38.988281 9.285156 38.921875 9.15625 38.78125 L 8.558594 38.152344 C 8.308594 37.886719 8.320312 37.46875 8.585938 37.21875 C 8.851562 36.976562 9.273438 36.984375 9.523438 37.246094 Z M 13.078125 40.804688 C 12.953125 41.011719 12.738281 41.121094 12.515625 41.121094 C 12.398438 41.121094 12.277344 41.089844 12.167969 41.019531 L 11.328125 40.511719 C 11.015625 40.320312 10.917969 39.914062 11.109375 39.605469 C 11.296875 39.292969 11.707031 39.199219 12.019531 39.386719 L 12.859375 39.898438 C 13.171875 40.085938 13.269531 40.492188 13.078125 40.804688 Z M 16.824219 42.28125 C 16.726562 42.554688 16.472656 42.722656 16.199219 42.722656 C 16.128906 42.722656 16.050781 42.710938 15.980469 42.683594 L 14.945312 42.320312 C 14.601562 42.199219 14.421875 41.828125 14.542969 41.484375 C 14.664062 41.136719 15.042969 40.960938 15.386719 41.082031 L 16.421875 41.445312 C 16.765625 41.566406 16.945312 41.945312 16.824219 42.28125 Z M 21.09375 43.140625 C 21.042969 43.460938 20.761719 43.6875 20.441406 43.6875 C 20.40625 43.6875 20.371094 43.6875 20.332031 43.683594 L 19.183594 43.496094 C 18.820312 43.433594 18.578125 43.09375 18.636719 42.738281 C 18.695312 42.378906 19.035156 42.136719 19.394531 42.195312 L 20.546875 42.382812 C 20.910156 42.445312 21.152344 42.785156 21.09375 43.140625 Z M 25.609375 43.285156 C 25.617188 43.648438 25.328125 43.949219 24.960938 43.957031 C 24.753906 43.960938 24.554688 43.960938 24.351562 43.960938 C 24.152344 43.960938 23.949219 43.960938 23.742188 43.957031 C 23.375 43.949219 23.085938 43.648438 23.09375 43.285156 C 23.101562 42.921875 23.40625 42.632812 23.769531 42.640625 C 24.167969 42.648438 24.539062 42.648438 24.933594 42.640625 C 25.300781 42.632812 25.601562 42.921875 25.609375 43.285156 Z M 30.066406 42.738281 C 30.128906 43.09375 29.882812 43.433594 29.523438 43.496094 L 28.371094 43.683594 C 28.335938 43.6875 28.296875 43.6875 28.261719 43.6875 C 27.945312 43.6875 27.664062 43.460938 27.609375 43.140625 C 27.550781 42.785156 27.796875 42.445312 28.15625 42.382812 L 29.308594 42.195312 C 29.667969 42.136719 30.007812 42.378906 30.066406 42.738281 Z M 34.160156 41.484375 C 34.28125 41.828125 34.101562 42.199219 33.757812 42.320312 L 32.726562 42.683594 C 32.652344 42.710938 32.578125 42.722656 32.503906 42.722656 C 32.230469 42.722656 31.976562 42.554688 31.878906 42.28125 C 31.757812 41.945312 31.9375 41.566406 32.285156 41.445312 L 33.316406 41.082031 C 33.660156 40.960938 34.039062 41.136719 34.160156 41.484375 Z M 37.597656 39.605469 C 37.789062 39.914062 37.691406 40.320312 37.378906 40.511719 L 36.535156 41.019531 C 36.425781 41.089844 36.308594 41.121094 36.191406 41.121094 C 35.96875 41.121094 35.75 41.011719 35.625 40.804688 C 35.433594 40.492188 35.53125 40.085938 35.84375 39.898438 L 36.6875 39.386719 C 36.996094 39.199219 37.40625 39.292969 37.597656 39.605469 Z M 40.117188 37.21875 C 40.382812 37.46875 40.394531 37.886719 40.144531 38.152344 L 39.550781 38.78125 C 39.417969 38.921875 39.242188 38.988281 39.066406 38.988281 C 38.90625 38.988281 38.742188 38.929688 38.613281 38.808594 C 38.347656 38.558594 38.335938 38.140625 38.585938 37.882812 L 39.183594 37.246094 C 39.433594 36.984375 39.851562 36.976562 40.117188 37.21875 Z M 41.859375 35.378906 L 41.550781 36.082031 C 41.441406 36.332031 41.199219 36.476562 40.941406 36.476562 C 40.855469 36.476562 40.765625 36.457031 40.679688 36.417969 C 40.34375 36.273438 40.191406 35.886719 40.335938 35.550781 L 40.644531 34.851562 C 40.792969 34.519531 41.183594 34.367188 41.515625 34.511719 C 41.851562 34.65625 42.003906 35.046875 41.859375 35.378906 Z M 42.351562 32.367188 L 42.351562 33.09375 C 42.351562 33.460938 42.054688 33.757812 41.6875 33.757812 C 41.324219 33.757812 41.027344 33.460938 41.027344 33.09375 L 41.027344 32.367188 C 41.027344 32.007812 41.324219 31.710938 41.6875 31.710938 C 42.054688 31.710938 42.351562 32.007812 42.351562 32.367188 Z M 40.335938 29.910156 C 40.191406 29.578125 40.34375 29.1875 40.679688 29.042969 C 41.011719 28.898438 41.402344 29.050781 41.550781 29.382812 L 41.859375 30.082031 C 42.003906 30.417969 41.851562 30.804688 41.515625 30.949219 C 41.429688 30.988281 41.339844 31.003906 41.253906 31.003906 C 40.996094 31.003906 40.753906 30.859375 40.644531 30.609375 Z M 40.144531 27.316406 C 40.394531 27.578125 40.382812 27.992188 40.117188 28.242188 C 39.988281 28.367188 39.828125 28.421875 39.664062 28.421875 C 39.488281 28.421875 39.3125 28.355469 39.183594 28.214844 L 38.585938 27.585938 C 38.335938 27.320312 38.347656 26.902344 38.613281 26.652344 C 38.878906 26.402344 39.296875 26.421875 39.550781 26.679688 Z M 41.628906 14.1875 C 41.722656 14.019531 41.671875 13.808594 41.507812 13.703125 L 41.433594 13.652344 C 41.265625 13.542969 41.035156 13.585938 40.921875 13.746094 C 40.101562 14.933594 39.1875 16.066406 38.203125 17.117188 C 37.234375 18.148438 36.078125 19.382812 34.539062 20 C 34.234375 20.15625 33.898438 20.261719 33.542969 20.300781 C 33.441406 20.324219 33.339844 20.339844 33.234375 20.351562 C 32.898438 20.402344 32.589844 20.421875 32.304688 20.421875 C 30.488281 20.421875 29.609375 19.539062 28.449219 18.382812 L 25.699219 15.648438 C 25.628906 15.578125 25.535156 15.539062 25.4375 15.539062 C 25.339844 15.539062 25.246094 15.578125 25.175781 15.648438 L 25.125 15.703125 C 25 15.828125 24.980469 16.003906 25.074219 16.15625 C 25.308594 16.53125 25.535156 16.886719 25.757812 17.234375 C 27.269531 19.574219 28.464844 21.421875 28.449219 24.8125 C 28.4375 27.4375 27.570312 31.003906 26.808594 34.15625 C 26.636719 34.867188 26.472656 35.546875 26.328125 36.179688 C 26.304688 36.273438 26.367188 36.375 26.460938 36.398438 L 26.601562 36.4375 C 26.6875 36.457031 26.765625 36.425781 26.808594 36.347656 L 30.679688 29.449219 C 30.800781 29.238281 31.023438 29.117188 31.257812 29.117188 C 31.332031 29.117188 31.402344 29.128906 31.472656 29.148438 C 31.777344 29.253906 31.960938 29.554688 31.914062 29.871094 L 30.890625 36.574219 C 30.875 36.679688 30.917969 36.753906 30.949219 36.785156 C 30.976562 36.824219 31.039062 36.878906 31.148438 36.890625 L 31.304688 36.902344 C 31.429688 36.910156 31.53125 36.847656 31.578125 36.730469 C 33.246094 32.667969 34.667969 28.4375 35.921875 23.792969 C 36.101562 23.125 36.359375 22.570312 36.753906 22 C 38.464844 19.535156 40.105469 16.90625 41.628906 14.1875 Z M 23.632812 16.15625 C 23.726562 16.003906 23.707031 15.828125 23.582031 15.703125 L 23.53125 15.648438 C 23.457031 15.578125 23.367188 15.539062 23.265625 15.539062 C 23.167969 15.539062 23.074219 15.578125 23.003906 15.648438 L 20.257812 18.382812 C 18.914062 19.722656 17.945312 20.691406 15.46875 20.351562 C 15.363281 20.339844 15.261719 20.324219 15.160156 20.300781 C 14.804688 20.261719 14.46875 20.15625 14.164062 20 C 12.628906 19.382812 11.46875 18.148438 10.5 17.117188 C 9.515625 16.066406 8.601562 14.933594 7.78125 13.746094 C 7.710938 13.648438 7.59375 13.59375 7.476562 13.59375 C 7.40625 13.59375 7.335938 13.609375 7.273438 13.652344 L 7.195312 13.703125 C 7.03125 13.808594 6.980469 14.019531 7.078125 14.1875 C 8.597656 16.90625 10.238281 19.535156 11.949219 22 C 12.34375 22.570312 12.601562 23.125 12.785156 23.792969 C 14.035156 28.4375 15.457031 32.667969 17.125 36.730469 C 17.171875 36.847656 17.273438 36.910156 17.402344 36.902344 L 17.558594 36.890625 C 17.664062 36.878906 17.730469 36.824219 17.757812 36.785156 C 17.785156 36.753906 17.828125 36.679688 17.8125 36.574219 L 16.792969 29.871094 C 16.742188 29.554688 16.929688 29.253906 17.230469 29.148438 C 17.535156 29.050781 17.867188 29.171875 18.023438 29.449219 L 21.894531 36.347656 C 21.941406 36.425781 22.019531 36.457031 22.105469 36.4375 L 22.242188 36.398438 C 22.339844 36.375 22.398438 36.273438 22.375 36.179688 C 22.230469 35.546875 22.066406 34.867188 21.894531 34.15625 C 21.132812 31.003906 20.269531 27.4375 20.257812 24.8125 C 20.242188 21.421875 21.433594 19.574219 22.945312 17.234375 C 23.167969 16.886719 23.398438 16.53125 23.632812 16.15625 Z M 8.300781 12.269531 C 9.496094 12.378906 10.511719 12.332031 11.40625 12.128906 C 13.945312 11.550781 14.546875 10.175781 15.308594 8.429688 C 15.425781 8.160156 15.546875 7.878906 15.683594 7.589844 L 17.285156 4.132812 C 17.453125 4.460938 17.621094 4.800781 17.792969 5.144531 C 16.875 8.601562 16.246094 11.445312 16.003906 14.449219 C 15.84375 14.414062 15.675781 14.402344 15.503906 14.402344 C 13.882812 14.402344 12.5625 15.699219 12.53125 17.304688 C 12.15625 16.949219 11.808594 16.578125 11.46875 16.214844 C 10.527344 15.210938 9.65625 14.132812 8.871094 13.003906 C 8.664062 12.703125 8.375 12.492188 8.050781 12.378906 C 8.0625 12.363281 8.070312 12.351562 8.082031 12.347656 C 8.113281 12.3125 8.1875 12.257812 8.300781 12.269531 Z M 11.667969 7.226562 C 10.757812 7.226562 10.019531 7.96875 10.019531 8.875 C 10.019531 9.773438 10.757812 10.511719 11.667969 10.511719 C 12.011719 10.511719 12.328125 10.40625 12.589844 10.234375 C 12.59375 10.230469 12.59375 10.230469 12.59375 10.230469 C 12.601562 10.222656 12.613281 10.21875 12.621094 10.210938 C 12.671875 10.175781 12.71875 10.136719 12.765625 10.097656 C 13.105469 9.796875 13.320312 9.355469 13.320312 8.875 C 13.320312 7.96875 12.578125 7.226562 11.667969 7.226562 Z M 17.292969 15 C 17.464844 12.371094 17.953125 9.878906 18.683594 6.976562 C 19.539062 8.800781 20.292969 10.636719 20.601562 12.21875 C 20.804688 13.253906 20.945312 14.414062 21.027344 15.753906 L 19.320312 17.457031 C 18.921875 17.851562 18.59375 18.171875 18.273438 18.433594 C 18.40625 18.101562 18.476562 17.738281 18.476562 17.359375 C 18.476562 16.398438 18.011719 15.539062 17.292969 15 Z M 14.710938 18.800781 C 14.199219 18.523438 13.851562 17.984375 13.851562 17.359375 C 13.851562 16.453125 14.59375 15.722656 15.503906 15.722656 C 16.414062 15.722656 17.152344 16.453125 17.152344 17.359375 C 17.152344 18.265625 16.414062 19.003906 15.503906 19.003906 C 15.453125 19.003906 15.40625 19 15.355469 18.996094 C 15.132812 18.949219 14.917969 18.882812 14.710938 18.800781 Z M 17.789062 1.960938 C 17.804688 1.914062 17.851562 1.835938 17.960938 1.804688 L 18.015625 1.785156 C 18.144531 1.742188 18.277344 1.792969 18.34375 1.914062 C 19.355469 3.714844 20.527344 5.167969 21.828125 6.214844 C 23.3125 7.421875 25.390625 7.421875 26.875 6.214844 C 28.179688 5.167969 29.351562 3.714844 30.359375 1.914062 C 30.414062 1.816406 30.503906 1.769531 30.625 1.777344 C 30.722656 1.78125 30.859375 1.832031 30.914062 1.960938 C 30.949219 2.042969 30.949219 2.109375 30.910156 2.1875 C 30.695312 2.625 30.46875 3.078125 30.238281 3.539062 C 28.863281 6.273438 27.308594 9.367188 26.800781 11.96875 C 26.644531 12.757812 26.527344 13.609375 26.441406 14.554688 C 26.152344 14.335938 25.804688 14.21875 25.4375 14.21875 C 25.4375 14.21875 25.433594 14.21875 25.433594 14.21875 C 25.035156 14.226562 24.65625 14.363281 24.351562 14.613281 C 24.046875 14.363281 23.671875 14.226562 23.269531 14.21875 C 22.902344 14.21875 22.554688 14.335938 22.261719 14.554688 C 22.175781 13.609375 22.058594 12.757812 21.902344 11.96875 C 21.394531 9.367188 19.839844 6.273438 18.46875 3.539062 C 18.234375 3.078125 18.007812 2.625 17.792969 2.1875 C 17.746094 2.085938 17.769531 2 17.789062 1.960938 Z M 24.351562 2.519531 C 23.441406 2.519531 22.703125 3.253906 22.703125 4.160156 C 22.703125 5.011719 23.351562 5.710938 24.183594 5.792969 C 24.296875 5.800781 24.410156 5.800781 24.523438 5.792969 C 25.351562 5.710938 26.003906 5.011719 26.003906 4.160156 C 26.003906 3.253906 25.261719 2.519531 24.351562 2.519531 Z M 30.019531 6.976562 C 30.75 9.878906 31.238281 12.371094 31.410156 15 C 30.691406 15.539062 30.226562 16.398438 30.226562 17.359375 C 30.226562 17.738281 30.300781 18.101562 30.429688 18.433594 C 30.109375 18.171875 29.78125 17.851562 29.386719 17.453125 L 27.675781 15.753906 C 27.757812 14.414062 27.898438 13.253906 28.101562 12.21875 C 28.410156 10.636719 29.164062 8.800781 30.019531 6.976562 Z M 33.347656 18.996094 C 33.300781 19 33.25 19.003906 33.203125 19.003906 C 32.292969 19.003906 31.550781 18.265625 31.550781 17.359375 C 31.550781 16.453125 32.292969 15.722656 33.203125 15.722656 C 34.113281 15.722656 34.851562 16.453125 34.851562 17.359375 C 34.851562 17.984375 34.503906 18.523438 33.992188 18.800781 C 33.785156 18.882812 33.570312 18.949219 33.347656 18.996094 Z M 33.398438 8.433594 C 33.832031 9.429688 34.226562 10.339844 35.015625 11.042969 C 35.132812 11.148438 35.253906 11.246094 35.386719 11.332031 C 35.871094 11.667969 36.488281 11.941406 37.300781 12.128906 C 38.191406 12.332031 39.207031 12.378906 40.402344 12.269531 C 40.515625 12.257812 40.589844 12.3125 40.625 12.347656 C 40.632812 12.351562 40.640625 12.363281 40.652344 12.378906 C 40.328125 12.492188 40.039062 12.703125 39.832031 13.003906 C 39.050781 14.132812 38.175781 15.210938 37.234375 16.214844 C 36.898438 16.578125 36.546875 16.949219 36.175781 17.304688 C 36.144531 15.699219 34.820312 14.402344 33.203125 14.402344 C 33.03125 14.402344 32.863281 14.414062 32.699219 14.449219 C 32.457031 11.445312 31.832031 8.605469 30.914062 5.144531 C 31.082031 4.800781 31.25 4.460938 31.417969 4.132812 L 33.023438 7.589844 C 33.15625 7.878906 33.28125 8.160156 33.398438 8.433594 Z M 37.035156 7.226562 C 36.125 7.226562 35.382812 7.96875 35.382812 8.875 C 35.382812 9.375 35.613281 9.824219 35.972656 10.125 C 35.980469 10.136719 35.988281 10.140625 35.996094 10.144531 C 36.277344 10.375 36.640625 10.511719 37.035156 10.511719 C 37.945312 10.511719 38.683594 9.773438 38.683594 8.875 C 38.683594 7.96875 37.945312 7.226562 37.035156 7.226562 Z M 42.242188 12.609375 L 42.164062 12.554688 C 42.121094 12.523438 42.074219 12.496094 42.03125 12.476562 C 42.011719 12.070312 41.839844 11.6875 41.546875 11.402344 C 41.210938 11.074219 40.75 10.914062 40.28125 10.957031 C 39.855469 10.996094 39.460938 11.011719 39.089844 11.007812 C 39.65625 10.46875 40.007812 9.710938 40.007812 8.875 C 40.007812 7.238281 38.675781 5.910156 37.035156 5.910156 C 35.90625 5.910156 34.921875 6.539062 34.417969 7.460938 C 34.355469 7.324219 34.292969 7.183594 34.222656 7.035156 L 32.167969 2.605469 C 32.304688 2.226562 32.296875 1.820312 32.132812 1.441406 C 31.894531 0.882812 31.328125 0.492188 30.695312 0.457031 C 30.074219 0.425781 29.503906 0.738281 29.203125 1.277344 C 28.625 2.304688 27.996094 3.203125 27.320312 3.964844 C 27.21875 2.425781 25.925781 1.203125 24.351562 1.203125 C 22.777344 1.203125 21.484375 2.425781 21.382812 3.964844 C 20.707031 3.203125 20.078125 2.304688 19.5 1.277344 C 19.125 0.601562 18.347656 0.296875 17.613281 0.53125 L 17.554688 0.546875 C 17.109375 0.691406 16.75 1.015625 16.570312 1.441406 C 16.410156 1.816406 16.402344 2.226562 16.535156 2.605469 L 14.480469 7.035156 C 14.410156 7.183594 14.347656 7.324219 14.285156 7.460938 C 13.78125 6.539062 12.796875 5.910156 11.667969 5.910156 C 10.03125 5.910156 8.695312 7.238281 8.695312 8.875 C 8.695312 9.710938 9.050781 10.46875 9.617188 11.007812 C 9.242188 11.011719 8.847656 10.996094 8.421875 10.957031 C 7.953125 10.914062 7.492188 11.074219 7.15625 11.402344 C 6.863281 11.6875 6.691406 12.070312 6.675781 12.476562 C 6.628906 12.496094 6.582031 12.523438 6.539062 12.554688 L 6.460938 12.609375 C 5.730469 13.09375 5.492188 14.066406 5.921875 14.832031 C 7.460938 17.582031 9.125 20.246094 10.859375 22.746094 C 11.171875 23.195312 11.363281 23.609375 11.503906 24.136719 C 12.773438 28.832031 14.210938 33.113281 15.898438 37.230469 C 16.144531 37.832031 16.734375 38.21875 17.378906 38.21875 C 17.417969 38.21875 17.457031 38.21875 17.496094 38.214844 L 17.648438 38.203125 C 18.097656 38.175781 18.511719 37.957031 18.789062 37.613281 C 19.070312 37.265625 19.1875 36.8125 19.121094 36.375 L 18.648438 33.261719 L 20.738281 36.984375 C 21.082031 37.59375 21.761719 37.886719 22.4375 37.707031 L 22.574219 37.675781 C 23.371094 37.46875 23.851562 36.679688 23.667969 35.886719 C 23.519531 35.242188 23.355469 34.5625 23.183594 33.84375 C 22.4375 30.765625 21.589844 27.277344 21.578125 24.808594 C 21.566406 21.808594 22.613281 20.183594 24.058594 17.945312 C 24.15625 17.792969 24.253906 17.644531 24.351562 17.488281 C 24.449219 17.644531 24.546875 17.792969 24.644531 17.945312 C 26.09375 20.183594 27.136719 21.808594 27.125 24.808594 C 27.113281 27.277344 26.269531 30.765625 25.523438 33.84375 C 25.347656 34.5625 25.183594 35.242188 25.035156 35.886719 C 24.851562 36.679688 25.332031 37.46875 26.128906 37.675781 L 26.265625 37.707031 C 26.941406 37.886719 27.625 37.589844 27.964844 36.984375 L 30.054688 33.261719 L 29.582031 36.375 C 29.515625 36.8125 29.636719 37.265625 29.914062 37.613281 C 30.191406 37.957031 30.609375 38.175781 31.054688 38.203125 L 31.210938 38.214844 C 31.25 38.21875 31.285156 38.21875 31.324219 38.21875 C 31.972656 38.21875 32.558594 37.832031 32.804688 37.230469 C 34.496094 33.113281 35.929688 28.832031 37.199219 24.136719 C 37.339844 23.609375 37.535156 23.195312 37.84375 22.746094 C 39.578125 20.246094 41.242188 17.582031 42.785156 14.832031 C 43.210938 14.066406 42.972656 13.09375 42.242188 12.609375 Z M 42.242188 12.609375 "/></g></g></svg>