<svg xmlns="http://www.w3.org/2000/svg" xmlns:xlink="http://www.w3.org/1999/xlink" width="89" zoomAndPan="magnify" viewBox="0 0 66.75 69.749998" height="93" preserveAspectRatio="xMidYMid meet" version="1.0"><defs><clipPath id="0fe7b385ac"><path d="M 9.410156 14 L 54 14 L 54 57.75 L 9.410156 57.75 Z M 9.410156 14 " clip-rule="nonzero"/></clipPath><clipPath id="987e6630d0"><path d="M 28 10 L 56.484375 10 L 56.484375 39 L 28 39 Z M 28 10 " clip-rule="nonzero"/></clipPath></defs><g clip-path="url(#0fe7b385ac)"><path fill="#7eb0e6" d="M 48.574219 57.828125 L 13.855469 57.828125 C 13.554688 57.828125 13.253906 57.796875 12.957031 57.738281 C 12.671875 57.679688 12.390625 57.59375 12.121094 57.480469 C 11.859375 57.371094 11.605469 57.230469 11.371094 57.070312 C 11.136719 56.914062 10.910156 56.730469 10.714844 56.527344 C 10.511719 56.324219 10.328125 56.105469 10.171875 55.871094 C 10.011719 55.636719 9.871094 55.382812 9.761719 55.117188 C 9.644531 54.851562 9.5625 54.566406 9.503906 54.285156 C 9.441406 53.992188 9.414062 53.691406 9.414062 53.390625 L 9.414062 18.664062 C 9.414062 18.363281 9.441406 18.0625 9.503906 17.769531 C 9.5625 17.480469 9.644531 17.203125 9.761719 16.933594 C 9.871094 16.671875 10.011719 16.417969 10.171875 16.179688 C 10.332031 15.945312 10.515625 15.722656 10.714844 15.523438 C 10.910156 15.324219 11.136719 15.140625 11.371094 14.984375 C 11.605469 14.820312 11.859375 14.683594 12.121094 14.570312 C 12.394531 14.457031 12.671875 14.375 12.957031 14.3125 C 13.25 14.253906 13.550781 14.226562 13.851562 14.226562 L 42.496094 14.226562 L 42.496094 15.496094 L 13.855469 15.496094 C 13.640625 15.496094 13.421875 15.515625 13.214844 15.558594 C 13.011719 15.601562 12.8125 15.664062 12.617188 15.746094 C 12.433594 15.824219 12.25 15.921875 12.082031 16.039062 C 11.910156 16.152344 11.753906 16.28125 11.609375 16.425781 C 11.464844 16.570312 11.335938 16.726562 11.222656 16.898438 C 11.105469 17.066406 11.007812 17.25 10.929688 17.433594 C 10.847656 17.625 10.785156 17.824219 10.742188 18.03125 C 10.699219 18.238281 10.679688 18.453125 10.679688 18.671875 L 10.679688 53.382812 C 10.679688 53.597656 10.699219 53.8125 10.742188 54.023438 C 10.785156 54.226562 10.847656 54.425781 10.929688 54.617188 C 11.007812 54.804688 11.105469 54.988281 11.222656 55.15625 C 11.335938 55.324219 11.464844 55.484375 11.609375 55.625 C 11.753906 55.769531 11.914062 55.902344 12.082031 56.015625 C 12.25 56.128906 12.433594 56.226562 12.617188 56.308594 C 12.808594 56.390625 13.007812 56.453125 13.210938 56.496094 C 13.421875 56.535156 13.640625 56.558594 13.851562 56.558594 L 48.574219 56.558594 C 48.789062 56.558594 49.007812 56.535156 49.214844 56.496094 C 49.417969 56.453125 49.617188 56.394531 49.808594 56.308594 C 49.996094 56.226562 50.179688 56.128906 50.347656 56.015625 C 50.519531 55.902344 50.675781 55.769531 50.820312 55.625 C 50.964844 55.484375 51.09375 55.324219 51.207031 55.15625 C 51.324219 54.988281 51.425781 54.804688 51.5 54.617188 C 51.582031 54.429688 51.644531 54.230469 51.6875 54.023438 C 51.730469 53.8125 51.75 53.597656 51.75 53.382812 L 51.75 23.003906 L 53.019531 23.003906 L 53.019531 53.382812 C 53.019531 53.683594 52.992188 53.984375 52.933594 54.277344 C 52.871094 54.5625 52.789062 54.84375 52.671875 55.109375 C 52.5625 55.371094 52.421875 55.625 52.261719 55.863281 C 52.105469 56.097656 51.925781 56.320312 51.722656 56.519531 C 51.519531 56.722656 51.296875 56.90625 51.066406 57.0625 C 50.828125 57.222656 50.574219 57.363281 50.308594 57.472656 C 50.039062 57.585938 49.757812 57.671875 49.472656 57.730469 C 49.179688 57.789062 48.878906 57.820312 48.578125 57.820312 Z M 48.574219 57.828125 " fill-opacity="1" fill-rule="nonzero"/></g><g clip-path="url(#987e6630d0)"><path fill="#7eb0e6" d="M 33.453125 38.011719 L 32.558594 37.113281 L 55.121094 14.550781 C 55.304688 14.367188 55.3125 14.132812 55.210938 14.03125 L 52.617188 11.4375 C 52.515625 11.335938 52.277344 11.351562 52.097656 11.527344 L 29.53125 34.085938 L 28.632812 33.191406 L 51.195312 10.625 C 51.859375 9.960938 52.898438 9.921875 53.515625 10.535156 L 56.109375 13.128906 C 56.722656 13.742188 56.683594 14.785156 56.019531 15.449219 Z M 33.453125 38.011719 " fill-opacity="1" fill-rule="nonzero"/></g><path fill="#7eb0e6" d="M 27.820312 38.824219 L 28.449219 33.566406 C 28.492188 33.21875 28.808594 32.972656 29.15625 33.011719 C 29.503906 33.054688 29.753906 33.371094 29.710938 33.71875 L 29.269531 37.375 L 32.925781 36.933594 C 33.277344 36.890625 33.589844 37.140625 33.632812 37.488281 C 33.675781 37.835938 33.425781 38.152344 33.078125 38.195312 L 27.816406 38.824219 Z M 27.820312 38.824219 " fill-opacity="1" fill-rule="nonzero"/></svg>