<svg xmlns="http://www.w3.org/2000/svg" xmlns:xlink="http://www.w3.org/1999/xlink" width="89" zoomAndPan="magnify" viewBox="0 0 66.75 69.749998" height="93" preserveAspectRatio="xMidYMid meet" version="1.0"><defs><clipPath id="4db7889e3e"><path d="M 19 11.777344 L 47 11.777344 L 47 27 L 19 27 Z M 19 11.777344 " clip-rule="nonzero"/></clipPath><clipPath id="e21b0f7654"><path d="M 10.121094 43 L 18 43 L 18 57.359375 L 10.121094 57.359375 Z M 10.121094 43 " clip-rule="nonzero"/></clipPath><clipPath id="3f89301470"><path d="M 22 42 L 45 42 L 45 57.359375 L 22 57.359375 Z M 22 42 " clip-rule="nonzero"/></clipPath><clipPath id="3dfeee646d"><path d="M 48 43 L 55.699219 43 L 55.699219 57.359375 L 48 57.359375 Z M 48 43 " clip-rule="nonzero"/></clipPath></defs><g clip-path="url(#4db7889e3e)"><path fill="#80b2e8" d="M 44.03125 22.261719 C 43.457031 18.640625 41.136719 15.609375 37.957031 14.042969 L 38.429688 19.644531 C 38.472656 20.128906 38.113281 20.550781 37.628906 20.589844 C 37.605469 20.59375 37.578125 20.59375 37.554688 20.59375 C 37.105469 20.59375 36.722656 20.25 36.683594 19.792969 L 36.042969 12.222656 C 34.035156 11.769531 32.078125 11.769531 30.066406 12.222656 L 29.429688 19.792969 C 29.386719 20.273438 28.964844 20.644531 28.480469 20.589844 C 28 20.550781 27.640625 20.128906 27.683594 19.644531 L 28.15625 14.042969 C 24.976562 15.609375 22.652344 18.640625 22.082031 22.261719 L 19.746094 22.261719 L 19.746094 25.777344 C 24.148438 26.140625 28.621094 26.332031 33.054688 26.332031 C 37.488281 26.332031 41.964844 26.140625 46.363281 25.777344 L 46.363281 22.261719 Z M 44.03125 22.261719 " fill-opacity="1" fill-rule="nonzero"/></g><path fill="#80b2e8" d="M 33.054688 28.75 C 29.6875 28.75 26.273438 28.640625 22.867188 28.429688 C 22.871094 28.832031 22.886719 29.226562 22.910156 29.597656 C 23.15625 33.035156 25.414062 38.109375 27.171875 40.917969 C 28.964844 43.785156 33.050781 43.753906 33.054688 43.753906 C 33.0625 43.753906 37.148438 43.785156 38.9375 40.917969 C 40.695312 38.109375 42.957031 33.035156 43.203125 29.597656 C 43.226562 29.226562 43.242188 28.832031 43.246094 28.429688 C 39.835938 28.640625 36.425781 28.75 33.054688 28.75 Z M 33.054688 28.75 " fill-opacity="1" fill-rule="nonzero"/><g clip-path="url(#e21b0f7654)"><path fill="#80b2e8" d="M 17.429688 43.867188 C 17.210938 43.9375 17 44.003906 16.78125 44.078125 C 14.25 44.941406 12.363281 47.230469 11.429688 49.796875 C 10.800781 51.527344 10.453125 53.175781 10.261719 54.472656 C 10.226562 54.71875 10.195312 54.953125 10.171875 55.171875 C 10.21875 56.261719 11.113281 57.132812 12.214844 57.132812 L 17.425781 57.132812 L 17.425781 43.867188 Z M 17.429688 43.867188 " fill-opacity="1" fill-rule="nonzero"/></g><g clip-path="url(#3f89301470)"><path fill="#80b2e8" d="M 44.046875 42.59375 C 42.933594 42.34375 41.933594 42.152344 41.101562 42.015625 C 41.066406 42.074219 41.027344 42.148438 40.992188 42.199219 C 38.578125 46.0625 33.621094 46.171875 33.0625 46.171875 C 33.058594 46.171875 33.058594 46.171875 33.054688 46.171875 C 33.054688 46.171875 33.050781 46.171875 33.050781 46.171875 C 32.492188 46.171875 27.53125 46.0625 25.121094 42.199219 C 25.085938 42.148438 25.046875 42.074219 25.011719 42.015625 C 24.179688 42.152344 23.179688 42.34375 22.066406 42.59375 L 22.066406 57.132812 L 44.046875 57.132812 Z M 44.046875 42.59375 " fill-opacity="1" fill-rule="nonzero"/></g><g clip-path="url(#3dfeee646d)"><path fill="#80b2e8" d="M 55.847656 54.472656 C 55.65625 53.175781 55.3125 51.527344 54.679688 49.796875 C 53.746094 47.230469 51.859375 44.941406 49.332031 44.078125 C 49.113281 44.003906 48.898438 43.9375 48.683594 43.867188 L 48.683594 57.132812 L 53.898438 57.132812 C 55 57.132812 55.890625 56.261719 55.941406 55.171875 C 55.914062 54.953125 55.882812 54.71875 55.847656 54.472656 Z M 55.847656 54.472656 " fill-opacity="1" fill-rule="nonzero"/></g></svg>