<svg xmlns="http://www.w3.org/2000/svg" xmlns:xlink="http://www.w3.org/1999/xlink" width="78" zoomAndPan="magnify" viewBox="0 0 58.5 48" height="64" preserveAspectRatio="xMidYMid meet" version="1.2"><defs><clipPath id="652b8ae565"><path d="M 9.375 11.816406 L 45.375 11.816406 L 45.375 39 L 9.375 39 Z M 9.375 11.816406 "/></clipPath></defs><g id="8eccb60b0e"><g clip-rule="nonzero" clip-path="url(#652b8ae565)"><path style=" stroke:none;fill-rule:nonzero;fill:#000000;fill-opacity:1;" d="M 43.367188 11.820312 L 14.453125 11.820312 C 13.351562 11.820312 12.457031 12.71875 12.457031 13.824219 L 12.457031 26.691406 C 10.613281 27.878906 9.390625 29.957031 9.390625 32.316406 C 9.390625 36.003906 12.375 39 16.039062 39 C 16.855469 39 17.640625 38.851562 18.363281 38.578125 L 43.367188 38.578125 C 44.46875 38.578125 45.363281 37.679688 45.363281 36.570312 L 45.363281 13.824219 C 45.363281 12.71875 44.464844 11.820312 43.367188 11.820312 Z M 10.285156 32.316406 C 10.285156 29.28125 12.628906 26.78125 15.589844 26.550781 L 15.589844 32.316406 C 15.589844 32.566406 15.792969 32.769531 16.039062 32.769531 L 21.773438 32.769531 C 21.546875 35.746094 19.0625 38.101562 16.039062 38.101562 C 12.867188 38.101562 10.285156 35.507812 10.285156 32.316406 Z M 44.464844 36.570312 C 44.464844 37.183594 43.972656 37.679688 43.367188 37.679688 L 20.003906 37.679688 C 21.632812 36.457031 22.6875 34.511719 22.6875 32.316406 C 22.6875 32.070312 22.488281 31.867188 22.242188 31.867188 L 16.488281 31.867188 L 16.488281 26.085938 C 16.488281 25.835938 16.285156 25.636719 16.039062 25.636719 C 15.082031 25.636719 14.175781 25.839844 13.351562 26.207031 L 13.351562 13.824219 C 13.351562 13.214844 13.847656 12.71875 14.453125 12.71875 L 43.367188 12.71875 C 43.972656 12.71875 44.46875 13.214844 44.46875 13.824219 L 44.46875 36.570312 Z M 30.117188 27.585938 L 26.417969 27.585938 C 26.171875 27.585938 25.96875 27.789062 25.96875 28.039062 L 25.96875 35.707031 C 25.96875 35.957031 26.171875 36.15625 26.417969 36.15625 L 30.117188 36.15625 C 30.363281 36.15625 30.5625 35.957031 30.5625 35.707031 L 30.5625 28.039062 C 30.5625 27.789062 30.363281 27.585938 30.117188 27.585938 Z M 29.667969 35.257812 L 26.867188 35.257812 L 26.867188 28.488281 L 29.667969 28.488281 Z M 36.230469 23.40625 L 32.535156 23.40625 C 32.285156 23.40625 32.085938 23.605469 32.085938 23.855469 L 32.085938 35.707031 C 32.085938 35.957031 32.285156 36.15625 32.535156 36.15625 L 36.230469 36.15625 C 36.480469 36.15625 36.679688 35.957031 36.679688 35.707031 L 36.679688 23.855469 C 36.679688 23.605469 36.480469 23.40625 36.230469 23.40625 Z M 35.785156 35.257812 L 32.980469 35.257812 L 32.980469 24.304688 L 35.785156 24.304688 Z M 42.347656 25.207031 L 38.648438 25.207031 C 38.402344 25.207031 38.203125 25.410156 38.203125 25.660156 L 38.203125 35.707031 C 38.203125 35.957031 38.402344 36.15625 38.648438 36.15625 L 42.347656 36.15625 C 42.59375 36.15625 42.796875 35.957031 42.796875 35.707031 L 42.796875 25.660156 C 42.796875 25.410156 42.59375 25.207031 42.347656 25.207031 Z M 41.898438 35.257812 L 39.097656 35.257812 L 39.097656 26.109375 L 41.898438 26.109375 Z M 15.703125 17.800781 L 18.363281 17.800781 C 18.613281 17.800781 18.8125 17.597656 18.8125 17.351562 L 18.8125 14.675781 C 18.8125 14.429688 18.613281 14.226562 18.363281 14.226562 L 15.703125 14.226562 C 15.457031 14.226562 15.257812 14.429688 15.257812 14.675781 L 15.257812 17.351562 C 15.257812 17.597656 15.457031 17.800781 15.703125 17.800781 Z M 16.152344 15.125 L 17.917969 15.125 L 17.917969 16.898438 L 16.152344 16.898438 Z M 19.851562 15.097656 C 19.851562 14.847656 20.050781 14.648438 20.296875 14.648438 L 26.933594 14.648438 C 27.179688 14.648438 27.382812 14.847656 27.382812 15.097656 C 27.382812 15.34375 27.179688 15.546875 26.933594 15.546875 L 20.296875 15.546875 C 20.050781 15.546875 19.851562 15.34375 19.851562 15.097656 Z M 19.851562 16.929688 C 19.851562 16.679688 20.050781 16.480469 20.296875 16.480469 L 25.542969 16.480469 C 25.789062 16.480469 25.992188 16.679688 25.992188 16.929688 C 25.992188 17.175781 25.789062 17.378906 25.542969 17.378906 L 20.296875 17.378906 C 20.050781 17.378906 19.851562 17.179688 19.851562 16.929688 Z M 18.8125 21.65625 L 18.8125 18.980469 C 18.8125 18.734375 18.613281 18.53125 18.363281 18.53125 L 15.703125 18.53125 C 15.457031 18.53125 15.257812 18.734375 15.257812 18.980469 L 15.257812 21.65625 C 15.257812 21.902344 15.457031 22.105469 15.703125 22.105469 L 18.363281 22.105469 C 18.613281 22.105469 18.8125 21.902344 18.8125 21.65625 Z M 17.917969 21.207031 L 16.152344 21.207031 L 16.152344 19.433594 L 17.917969 19.433594 Z M 19.851562 19.402344 C 19.851562 19.152344 20.050781 18.953125 20.296875 18.953125 L 26.933594 18.953125 C 27.179688 18.953125 27.382812 19.152344 27.382812 19.402344 C 27.382812 19.648438 27.179688 19.851562 26.933594 19.851562 L 20.296875 19.851562 C 20.050781 19.851562 19.851562 19.652344 19.851562 19.402344 Z M 25.992188 21.234375 C 25.992188 21.484375 25.789062 21.683594 25.542969 21.683594 L 20.296875 21.683594 C 20.050781 21.683594 19.851562 21.484375 19.851562 21.234375 C 19.851562 20.988281 20.050781 20.785156 20.296875 20.785156 L 25.542969 20.785156 C 25.792969 20.785156 25.992188 20.984375 25.992188 21.234375 Z M 17.832031 23.835938 C 17.582031 23.835938 17.382812 24.035156 17.382812 24.285156 L 17.382812 30.515625 C 17.382812 30.765625 17.582031 30.96875 17.832031 30.96875 L 24.03125 30.96875 C 24.277344 30.96875 24.480469 30.765625 24.480469 30.515625 C 24.480469 26.832031 21.496094 23.835938 17.832031 23.835938 Z M 18.277344 30.066406 L 18.277344 24.753906 C 21.09375 24.972656 23.347656 27.238281 23.566406 30.066406 Z M 18.277344 30.066406 "/></g></g></svg>