<svg xmlns="http://www.w3.org/2000/svg" xmlns:xlink="http://www.w3.org/1999/xlink" width="76" zoomAndPan="magnify" viewBox="0 0 56.879997 42.75" height="57" preserveAspectRatio="xMidYMid meet" version="1.0"><defs><clipPath id="0d950d14b4"><path d="M 8 4.140625 L 48 4.140625 L 48 37.695312 L 8 37.695312 Z M 8 4.140625 " clip-rule="nonzero"/></clipPath></defs><g clip-path="url(#0d950d14b4)"><path fill="#6a9dd4" d="M 28.386719 37.695312 C 28.1875 37.695312 27.992188 37.632812 27.824219 37.507812 L 27.113281 36.976562 C 22.960938 33.871094 14.328125 27.414062 10.320312 20.003906 C 7.894531 15.472656 8.417969 10.699219 11.722656 7.230469 C 13.613281 5.253906 16.128906 4.167969 18.800781 4.167969 C 18.800781 4.167969 18.804688 4.167969 18.808594 4.167969 C 21.476562 4.167969 23.988281 5.253906 25.871094 7.230469 L 28.390625 9.867188 L 30.902344 7.230469 C 32.785156 5.253906 35.292969 4.167969 37.964844 4.167969 C 37.964844 4.167969 37.96875 4.167969 37.972656 4.167969 C 40.644531 4.167969 43.15625 5.253906 45.046875 7.226562 C 48.355469 10.699219 48.878906 15.472656 46.453125 20.003906 C 42.457031 27.40625 33.820312 33.863281 29.671875 36.96875 L 28.945312 37.507812 C 28.78125 37.632812 28.582031 37.695312 28.386719 37.695312 Z M 18.800781 6.03125 C 16.640625 6.03125 14.605469 6.914062 13.070312 8.515625 C 10.351562 11.371094 9.933594 15.335938 11.960938 19.121094 C 15.769531 26.167969 24.183594 32.460938 28.226562 35.484375 L 28.386719 35.601562 L 28.558594 35.476562 C 32.597656 32.453125 41.011719 26.164062 44.8125 19.121094 C 46.835938 15.335938 46.421875 11.371094 43.699219 8.515625 C 42.167969 6.914062 40.132812 6.03125 37.972656 6.03125 C 37.96875 6.03125 37.96875 6.03125 37.964844 6.03125 C 35.808594 6.03125 33.777344 6.914062 32.25 8.515625 L 29.0625 11.859375 C 28.890625 12.042969 28.644531 12.148438 28.390625 12.148438 C 28.136719 12.148438 27.890625 12.042969 27.71875 11.859375 L 24.523438 8.515625 C 22.996094 6.914062 20.964844 6.03125 18.804688 6.03125 C 18.804688 6.03125 18.800781 6.03125 18.800781 6.03125 " fill-opacity="1" fill-rule="nonzero"/></g></svg>