<svg xmlns="http://www.w3.org/2000/svg" xmlns:xlink="http://www.w3.org/1999/xlink" width="934" zoomAndPan="magnify" viewBox="0 0 700.5 51.749998" height="69" preserveAspectRatio="xMidYMid meet" version="1.2"><defs/><g id="df625d4bcb"><path style=" stroke:none;fill-rule:nonzero;fill:#393be5;fill-opacity:1;" d="M 29.1875 14.089844 L 679.710938 14.089844 L 679.710938 38.644531 L 29.1875 38.644531 L 29.1875 14.089844 "/><g style="fill:#ffffff;fill-opacity:1;"><g transform="translate(35.836538, 31.595638)"><path style="stroke:none" d="M 0.890625 0 L 0.890625 -10.609375 L 2.65625 -10.609375 L 2.65625 -5.3125 L 7.953125 -5.3125 L 7.953125 -10.609375 L 9.734375 -10.609375 L 9.734375 0 L 7.953125 0 L 7.953125 -3.53125 L 2.65625 -3.53125 L 2.65625 0 Z M 2.65625 -10.609375 L 2.65625 -12.375 L 7.953125 -12.375 L 7.953125 -10.609375 Z M 2.65625 -10.609375 "/></g></g><g style="fill:#ffffff;fill-opacity:1;"><g transform="translate(49.099112, 31.595638)"><path style="stroke:none" d="M 0.890625 0 L 0.890625 -12.375 L 7.953125 -12.375 L 7.953125 -10.609375 L 2.65625 -10.609375 L 2.65625 -1.765625 L 7.953125 -1.765625 L 7.953125 0 Z M 7.953125 -1.765625 L 7.953125 -10.609375 L 9.734375 -10.609375 L 9.734375 -1.765625 Z M 7.953125 -1.765625 "/></g></g><g style="fill:#ffffff;fill-opacity:1;"><g transform="translate(62.361685, 31.595638)"><path style="stroke:none" d="M 0.890625 0 L 0.890625 -12.375 L 7.953125 -12.375 L 7.953125 -10.609375 L 2.65625 -10.609375 L 2.65625 -1.765625 L 7.953125 -1.765625 L 7.953125 0 Z M 7.953125 -1.765625 L 7.953125 -10.609375 L 9.734375 -10.609375 L 9.734375 -1.765625 Z M 7.953125 -1.765625 "/></g></g><g style="fill:#ffffff;fill-opacity:1;"><g transform="translate(75.624259, 31.595638)"><path style="stroke:none" d=""/></g></g><g style="fill:#ffffff;fill-opacity:1;"><g transform="translate(82.69874, 31.595638)"><path style="stroke:none" d="M 7.953125 0 L 7.953125 -8.84375 L 6.1875 -8.84375 L 6.1875 -10.609375 L 7.953125 -10.609375 L 7.953125 -12.375 L 9.734375 -12.375 L 9.734375 0 Z M 0.890625 0 L 0.890625 -12.375 L 2.65625 -12.375 L 2.65625 -10.609375 L 4.421875 -10.609375 L 4.421875 -8.84375 L 2.65625 -8.84375 L 2.65625 0 Z M 4.421875 -7.078125 L 4.421875 -8.84375 L 6.1875 -8.84375 L 6.1875 -7.078125 Z M 4.421875 -7.078125 "/></g></g><g style="fill:#ffffff;fill-opacity:1;"><g transform="translate(95.961314, 31.595638)"><path style="stroke:none" d="M 0.890625 0 L 0.890625 -12.375 L 2.65625 -12.375 L 2.65625 0 Z M 0.890625 0 "/></g></g><g style="fill:#ffffff;fill-opacity:1;"><g transform="translate(102.151775, 31.595638)"><path style="stroke:none" d="M 0.890625 0 L 0.890625 -12.375 L 2.65625 -12.375 L 2.65625 -1.765625 L 9.734375 -1.765625 L 9.734375 0 Z M 0.890625 0 "/></g></g><g style="fill:#ffffff;fill-opacity:1;"><g transform="translate(115.414349, 31.595638)"><path style="stroke:none" d="M 0.890625 0 L 0.890625 -12.375 L 9.734375 -12.375 L 9.734375 -10.609375 L 2.65625 -10.609375 L 2.65625 -7.078125 L 7.953125 -7.078125 L 7.953125 -5.3125 L 2.65625 -5.3125 L 2.65625 -1.765625 L 9.703125 -1.765625 L 9.703125 0 Z M 0.890625 0 "/></g></g><g style="fill:#ffffff;fill-opacity:1;"><g transform="translate(128.676922, 31.595638)"><path style="stroke:none" d="M 2.65625 -10.609375 L 2.65625 -7.078125 L 0.890625 -7.078125 L 0.890625 -10.609375 Z M 0.890625 -1.765625 L 0.890625 -3.53125 L 2.65625 -3.53125 L 2.65625 -1.765625 Z M 2.65625 0 L 2.65625 -1.765625 L 7.953125 -1.765625 L 7.953125 0 Z M 2.65625 -5.3125 L 2.65625 -7.078125 L 7.953125 -7.078125 L 7.953125 -5.3125 Z M 2.65625 -10.609375 L 2.65625 -12.375 L 7.953125 -12.375 L 7.953125 -10.609375 Z M 7.953125 -1.765625 L 7.953125 -5.3125 L 9.734375 -5.3125 L 9.734375 -1.765625 Z M 7.953125 -8.84375 L 7.953125 -10.609375 L 9.734375 -10.609375 L 9.734375 -8.84375 Z M 7.953125 -8.84375 "/></g></g><g style="fill:#ffffff;fill-opacity:1;"><g transform="translate(141.939496, 31.595638)"><path style="stroke:none" d="M 4.421875 0 L 4.421875 -10.609375 L 0.890625 -10.609375 L 0.890625 -12.375 L 9.734375 -12.375 L 9.734375 -10.609375 L 6.1875 -10.609375 L 6.1875 0 Z M 4.421875 0 "/></g></g><g style="fill:#ffffff;fill-opacity:1;"><g transform="translate(155.20207, 31.595638)"><path style="stroke:none" d="M 7.953125 -1.765625 L 7.953125 0 L 2.65625 0 L 2.65625 -1.765625 Z M 0.890625 -1.765625 L 0.890625 -10.609375 L 2.65625 -10.609375 L 2.65625 -1.765625 Z M 2.65625 -10.609375 L 2.65625 -12.375 L 7.953125 -12.375 L 7.953125 -10.609375 Z M 7.953125 -1.765625 L 7.953125 -10.609375 L 9.734375 -10.609375 L 9.734375 -1.765625 Z M 7.953125 -1.765625 "/></g></g><g style="fill:#ffffff;fill-opacity:1;"><g transform="translate(168.464643, 31.595638)"><path style="stroke:none" d="M 7.953125 0 L 7.953125 -5.3125 L 6.1875 -5.3125 L 6.1875 -7.078125 L 7.953125 -7.078125 L 7.953125 -12.375 L 9.734375 -12.375 L 9.734375 0 Z M 0.890625 0 L 0.890625 -12.375 L 2.65625 -12.375 L 2.65625 -10.609375 L 4.421875 -10.609375 L 4.421875 -8.84375 L 2.65625 -8.84375 L 2.65625 0 Z M 4.421875 -7.078125 L 4.421875 -8.84375 L 6.1875 -8.84375 L 6.1875 -7.078125 Z M 4.421875 -7.078125 "/></g></g><g style="fill:#ffffff;fill-opacity:1;"><g transform="translate(181.727217, 31.595638)"><path style="stroke:none" d="M 0.890625 0 L 0.890625 -12.375 L 9.734375 -12.375 L 9.734375 -10.609375 L 2.65625 -10.609375 L 2.65625 -7.078125 L 7.953125 -7.078125 L 7.953125 -5.3125 L 2.65625 -5.3125 L 2.65625 -1.765625 L 9.703125 -1.765625 L 9.703125 0 Z M 0.890625 0 "/></g></g><g style="fill:#ffffff;fill-opacity:1;"><g transform="translate(194.98979, 31.595638)"><path style="stroke:none" d=""/></g></g><g style="fill:#ffffff;fill-opacity:1;"><g transform="translate(202.064272, 31.595638)"><path style="stroke:none" d="M 7.953125 -1.765625 L 7.953125 0 L 2.65625 0 L 2.65625 -1.765625 Z M 0.890625 -1.765625 L 0.890625 -10.609375 L 2.65625 -10.609375 L 2.65625 -1.765625 Z M 2.65625 -10.609375 L 2.65625 -12.375 L 7.953125 -12.375 L 7.953125 -10.609375 Z M 6.1875 -5.3125 L 6.1875 -7.078125 L 9.734375 -7.078125 L 9.734375 -1.765625 L 7.953125 -1.765625 L 7.953125 -5.3125 Z M 7.953125 -8.84375 L 7.953125 -10.609375 L 9.734375 -10.609375 L 9.734375 -8.84375 Z M 7.953125 -8.84375 "/></g></g><g style="fill:#ffffff;fill-opacity:1;"><g transform="translate(215.326845, 31.595638)"><path style="stroke:none" d="M 7.953125 -1.765625 L 7.953125 0 L 2.65625 0 L 2.65625 -1.765625 Z M 0.890625 -1.765625 L 0.890625 -10.609375 L 2.65625 -10.609375 L 2.65625 -1.765625 Z M 2.65625 -10.609375 L 2.65625 -12.375 L 7.953125 -12.375 L 7.953125 -10.609375 Z M 7.953125 -1.765625 L 7.953125 -10.609375 L 9.734375 -10.609375 L 9.734375 -1.765625 Z M 7.953125 -1.765625 "/></g></g><g style="fill:#ffffff;fill-opacity:1;"><g transform="translate(228.589419, 31.595638)"><path style="stroke:none" d="M 0.890625 0 L 0.890625 -10.609375 L 2.65625 -10.609375 L 2.65625 -5.3125 L 7.953125 -5.3125 L 7.953125 -10.609375 L 9.734375 -10.609375 L 9.734375 0 L 7.953125 0 L 7.953125 -3.53125 L 2.65625 -3.53125 L 2.65625 0 Z M 2.65625 -10.609375 L 2.65625 -12.375 L 7.953125 -12.375 L 7.953125 -10.609375 Z M 2.65625 -10.609375 "/></g></g><g style="fill:#ffffff;fill-opacity:1;"><g transform="translate(241.851993, 31.595638)"><path style="stroke:none" d="M 0.890625 0 L 0.890625 -12.375 L 2.65625 -12.375 L 2.65625 -1.765625 L 9.734375 -1.765625 L 9.734375 0 Z M 0.890625 0 "/></g></g><g style="fill:#ffffff;fill-opacity:1;"><g transform="translate(255.114566, 31.595638)"><path style="stroke:none" d="M 2.65625 -10.609375 L 2.65625 -7.078125 L 0.890625 -7.078125 L 0.890625 -10.609375 Z M 0.890625 -1.765625 L 0.890625 -3.53125 L 2.65625 -3.53125 L 2.65625 -1.765625 Z M 2.65625 0 L 2.65625 -1.765625 L 7.953125 -1.765625 L 7.953125 0 Z M 2.65625 -5.3125 L 2.65625 -7.078125 L 7.953125 -7.078125 L 7.953125 -5.3125 Z M 2.65625 -10.609375 L 2.65625 -12.375 L 7.953125 -12.375 L 7.953125 -10.609375 Z M 7.953125 -1.765625 L 7.953125 -5.3125 L 9.734375 -5.3125 L 9.734375 -1.765625 Z M 7.953125 -8.84375 L 7.953125 -10.609375 L 9.734375 -10.609375 L 9.734375 -8.84375 Z M 7.953125 -8.84375 "/></g></g><g style="fill:#ffffff;fill-opacity:1;"><g transform="translate(268.37714, 31.595638)"><path style="stroke:none" d="M 0.890625 1.765625 L 0.890625 -1.765625 L 2.65625 -1.765625 L 2.65625 1.765625 Z M 0.890625 1.765625 "/></g></g><g style="fill:#ffffff;fill-opacity:1;"><g transform="translate(274.567601, 31.595638)"><path style="stroke:none" d=""/></g></g><g style="fill:#ffffff;fill-opacity:1;"><g transform="translate(281.642082, 31.595638)"><path style="stroke:none" d="M 2.65625 -10.609375 L 2.65625 -7.078125 L 0.890625 -7.078125 L 0.890625 -10.609375 Z M 0.890625 -1.765625 L 0.890625 -3.53125 L 2.65625 -3.53125 L 2.65625 -1.765625 Z M 2.65625 0 L 2.65625 -1.765625 L 7.953125 -1.765625 L 7.953125 0 Z M 2.65625 -5.3125 L 2.65625 -7.078125 L 7.953125 -7.078125 L 7.953125 -5.3125 Z M 2.65625 -10.609375 L 2.65625 -12.375 L 7.953125 -12.375 L 7.953125 -10.609375 Z M 7.953125 -1.765625 L 7.953125 -5.3125 L 9.734375 -5.3125 L 9.734375 -1.765625 Z M 7.953125 -8.84375 L 7.953125 -10.609375 L 9.734375 -10.609375 L 9.734375 -8.84375 Z M 7.953125 -8.84375 "/></g></g><g style="fill:#ffffff;fill-opacity:1;"><g transform="translate(294.904656, 31.595638)"><path style="stroke:none" d="M 0.890625 0 L 0.890625 -12.375 L 9.734375 -12.375 L 9.734375 -10.609375 L 2.65625 -10.609375 L 2.65625 -7.078125 L 7.953125 -7.078125 L 7.953125 -5.3125 L 2.65625 -5.3125 L 2.65625 -1.765625 L 9.703125 -1.765625 L 9.703125 0 Z M 0.890625 0 "/></g></g><g style="fill:#ffffff;fill-opacity:1;"><g transform="translate(308.16723, 31.595638)"><path style="stroke:none" d="M 4.421875 0 L 4.421875 -10.609375 L 0.890625 -10.609375 L 0.890625 -12.375 L 9.734375 -12.375 L 9.734375 -10.609375 L 6.1875 -10.609375 L 6.1875 0 Z M 4.421875 0 "/></g></g><g style="fill:#ffffff;fill-opacity:1;"><g transform="translate(321.429803, 31.595638)"><path style="stroke:none" d=""/></g></g><g style="fill:#ffffff;fill-opacity:1;"><g transform="translate(328.504284, 31.595638)"><path style="stroke:none" d="M 0.890625 0 L 0.890625 -12.375 L 7.953125 -12.375 L 7.953125 -10.609375 L 2.65625 -10.609375 L 2.65625 -1.765625 L 7.953125 -1.765625 L 7.953125 0 Z M 7.953125 -1.765625 L 7.953125 -10.609375 L 9.734375 -10.609375 L 9.734375 -1.765625 Z M 7.953125 -1.765625 "/></g></g><g style="fill:#ffffff;fill-opacity:1;"><g transform="translate(341.766858, 31.595638)"><path style="stroke:none" d="M 0.890625 0 L 0.890625 -12.375 L 9.734375 -12.375 L 9.734375 -10.609375 L 2.65625 -10.609375 L 2.65625 -7.078125 L 7.953125 -7.078125 L 7.953125 -5.3125 L 2.65625 -5.3125 L 2.65625 -1.765625 L 9.703125 -1.765625 L 9.703125 0 Z M 0.890625 0 "/></g></g><g style="fill:#ffffff;fill-opacity:1;"><g transform="translate(355.029432, 31.595638)"><path style="stroke:none" d="M 0.890625 0 L 0.890625 -10.609375 L 2.65625 -10.609375 L 2.65625 -5.3125 L 7.953125 -5.3125 L 7.953125 -10.609375 L 9.734375 -10.609375 L 9.734375 0 L 7.953125 0 L 7.953125 -3.53125 L 2.65625 -3.53125 L 2.65625 0 Z M 2.65625 -10.609375 L 2.65625 -12.375 L 7.953125 -12.375 L 7.953125 -10.609375 Z M 2.65625 -10.609375 "/></g></g><g style="fill:#ffffff;fill-opacity:1;"><g transform="translate(368.292005, 31.595638)"><path style="stroke:none" d="M 0.890625 0 L 0.890625 -12.375 L 7.953125 -12.375 L 7.953125 -10.609375 L 2.65625 -10.609375 L 2.65625 -1.765625 L 7.953125 -1.765625 L 7.953125 0 Z M 7.953125 -1.765625 L 7.953125 -10.609375 L 9.734375 -10.609375 L 9.734375 -1.765625 Z M 7.953125 -1.765625 "/></g></g><g style="fill:#ffffff;fill-opacity:1;"><g transform="translate(381.554579, 31.595638)"><path style="stroke:none" d="M 0.890625 0 L 0.890625 -12.375 L 2.65625 -12.375 L 2.65625 -1.765625 L 9.734375 -1.765625 L 9.734375 0 Z M 0.890625 0 "/></g></g><g style="fill:#ffffff;fill-opacity:1;"><g transform="translate(394.817153, 31.595638)"><path style="stroke:none" d="M 0.890625 0 L 0.890625 -12.375 L 2.65625 -12.375 L 2.65625 0 Z M 0.890625 0 "/></g></g><g style="fill:#ffffff;fill-opacity:1;"><g transform="translate(401.007614, 31.595638)"><path style="stroke:none" d="M 7.953125 0 L 7.953125 -5.3125 L 6.1875 -5.3125 L 6.1875 -7.078125 L 7.953125 -7.078125 L 7.953125 -12.375 L 9.734375 -12.375 L 9.734375 0 Z M 0.890625 0 L 0.890625 -12.375 L 2.65625 -12.375 L 2.65625 -10.609375 L 4.421875 -10.609375 L 4.421875 -8.84375 L 2.65625 -8.84375 L 2.65625 0 Z M 4.421875 -7.078125 L 4.421875 -8.84375 L 6.1875 -8.84375 L 6.1875 -7.078125 Z M 4.421875 -7.078125 "/></g></g><g style="fill:#ffffff;fill-opacity:1;"><g transform="translate(414.270188, 31.595638)"><path style="stroke:none" d="M 0.890625 0 L 0.890625 -12.375 L 9.734375 -12.375 L 9.734375 -10.609375 L 2.65625 -10.609375 L 2.65625 -7.078125 L 7.953125 -7.078125 L 7.953125 -5.3125 L 2.65625 -5.3125 L 2.65625 -1.765625 L 9.703125 -1.765625 L 9.703125 0 Z M 0.890625 0 "/></g></g><g style="fill:#ffffff;fill-opacity:1;"><g transform="translate(427.532761, 31.595638)"><path style="stroke:none" d="M 2.65625 -10.609375 L 2.65625 -7.078125 L 0.890625 -7.078125 L 0.890625 -10.609375 Z M 0.890625 -1.765625 L 0.890625 -3.53125 L 2.65625 -3.53125 L 2.65625 -1.765625 Z M 2.65625 0 L 2.65625 -1.765625 L 7.953125 -1.765625 L 7.953125 0 Z M 2.65625 -5.3125 L 2.65625 -7.078125 L 7.953125 -7.078125 L 7.953125 -5.3125 Z M 2.65625 -10.609375 L 2.65625 -12.375 L 7.953125 -12.375 L 7.953125 -10.609375 Z M 7.953125 -1.765625 L 7.953125 -5.3125 L 9.734375 -5.3125 L 9.734375 -1.765625 Z M 7.953125 -8.84375 L 7.953125 -10.609375 L 9.734375 -10.609375 L 9.734375 -8.84375 Z M 7.953125 -8.84375 "/></g></g><g style="fill:#ffffff;fill-opacity:1;"><g transform="translate(440.795335, 31.595638)"><path style="stroke:none" d=""/></g></g><g style="fill:#ffffff;fill-opacity:1;"><g transform="translate(447.869816, 31.595638)"><path style="stroke:none" d="M 0.890625 0 L 0.890625 -10.609375 L 2.65625 -10.609375 L 2.65625 -5.3125 L 7.953125 -5.3125 L 7.953125 -10.609375 L 9.734375 -10.609375 L 9.734375 0 L 7.953125 0 L 7.953125 -3.53125 L 2.65625 -3.53125 L 2.65625 0 Z M 2.65625 -10.609375 L 2.65625 -12.375 L 7.953125 -12.375 L 7.953125 -10.609375 Z M 2.65625 -10.609375 "/></g></g><g style="fill:#ffffff;fill-opacity:1;"><g transform="translate(461.13239, 31.595638)"><path style="stroke:none" d="M 7.953125 0 L 7.953125 -5.3125 L 6.1875 -5.3125 L 6.1875 -7.078125 L 7.953125 -7.078125 L 7.953125 -12.375 L 9.734375 -12.375 L 9.734375 0 Z M 0.890625 0 L 0.890625 -12.375 L 2.65625 -12.375 L 2.65625 -10.609375 L 4.421875 -10.609375 L 4.421875 -8.84375 L 2.65625 -8.84375 L 2.65625 0 Z M 4.421875 -7.078125 L 4.421875 -8.84375 L 6.1875 -8.84375 L 6.1875 -7.078125 Z M 4.421875 -7.078125 "/></g></g><g style="fill:#ffffff;fill-opacity:1;"><g transform="translate(474.394963, 31.595638)"><path style="stroke:none" d="M 0.890625 0 L 0.890625 -12.375 L 7.953125 -12.375 L 7.953125 -10.609375 L 2.65625 -10.609375 L 2.65625 -1.765625 L 7.953125 -1.765625 L 7.953125 0 Z M 7.953125 -1.765625 L 7.953125 -10.609375 L 9.734375 -10.609375 L 9.734375 -1.765625 Z M 7.953125 -1.765625 "/></g></g><g style="fill:#ffffff;fill-opacity:1;"><g transform="translate(487.657537, 31.595638)"><path style="stroke:none" d=""/></g></g><g style="fill:#ffffff;fill-opacity:1;"><g transform="translate(494.732018, 31.595638)"><path style="stroke:none" d="M 2.65625 -10.609375 L 2.65625 -7.078125 L 0.890625 -7.078125 L 0.890625 -10.609375 Z M 0.890625 -1.765625 L 0.890625 -3.53125 L 2.65625 -3.53125 L 2.65625 -1.765625 Z M 2.65625 0 L 2.65625 -1.765625 L 7.953125 -1.765625 L 7.953125 0 Z M 2.65625 -5.3125 L 2.65625 -7.078125 L 7.953125 -7.078125 L 7.953125 -5.3125 Z M 2.65625 -10.609375 L 2.65625 -12.375 L 7.953125 -12.375 L 7.953125 -10.609375 Z M 7.953125 -1.765625 L 7.953125 -5.3125 L 9.734375 -5.3125 L 9.734375 -1.765625 Z M 7.953125 -8.84375 L 7.953125 -10.609375 L 9.734375 -10.609375 L 9.734375 -8.84375 Z M 7.953125 -8.84375 "/></g></g><g style="fill:#ffffff;fill-opacity:1;"><g transform="translate(507.994592, 31.595638)"><path style="stroke:none" d="M 4.421875 0 L 4.421875 -10.609375 L 0.890625 -10.609375 L 0.890625 -12.375 L 9.734375 -12.375 L 9.734375 -10.609375 L 6.1875 -10.609375 L 6.1875 0 Z M 4.421875 0 "/></g></g><g style="fill:#ffffff;fill-opacity:1;"><g transform="translate(521.257165, 31.595638)"><path style="stroke:none" d="M 0.890625 0 L 0.890625 -10.609375 L 2.65625 -10.609375 L 2.65625 -5.3125 L 7.953125 -5.3125 L 7.953125 -10.609375 L 9.734375 -10.609375 L 9.734375 0 L 7.953125 0 L 7.953125 -3.53125 L 2.65625 -3.53125 L 2.65625 0 Z M 2.65625 -10.609375 L 2.65625 -12.375 L 7.953125 -12.375 L 7.953125 -10.609375 Z M 2.65625 -10.609375 "/></g></g><g style="fill:#ffffff;fill-opacity:1;"><g transform="translate(534.519739, 31.595638)"><path style="stroke:none" d="M 0.890625 0 L 0.890625 -12.375 L 7.953125 -12.375 L 7.953125 -10.609375 L 2.65625 -10.609375 L 2.65625 -7.078125 L 7.953125 -7.078125 L 7.953125 -5.3125 L 6.1875 -5.3125 L 6.1875 -3.53125 L 4.421875 -3.53125 L 4.421875 -5.3125 L 2.65625 -5.3125 L 2.65625 0 Z M 6.1875 -1.765625 L 6.1875 -3.53125 L 7.953125 -3.53125 L 7.953125 -1.765625 Z M 7.953125 0 L 7.953125 -1.765625 L 9.734375 -1.765625 L 9.734375 0 Z M 7.953125 -7.078125 L 7.953125 -10.609375 L 9.734375 -10.609375 L 9.734375 -7.078125 Z M 7.953125 -7.078125 "/></g></g><g style="fill:#ffffff;fill-opacity:1;"><g transform="translate(547.782313, 31.595638)"><path style="stroke:none" d="M 4.421875 0 L 4.421875 -10.609375 L 0.890625 -10.609375 L 0.890625 -12.375 L 9.734375 -12.375 L 9.734375 -10.609375 L 6.1875 -10.609375 L 6.1875 0 Z M 4.421875 0 "/></g></g><g style="fill:#ffffff;fill-opacity:1;"><g transform="translate(561.044886, 31.595638)"><path style="stroke:none" d=""/></g></g><g style="fill:#ffffff;fill-opacity:1;"><g transform="translate(568.119367, 31.595638)"><path style="stroke:none" d="M 0.890625 0 L 0.890625 -12.375 L 2.65625 -12.375 L 2.65625 -1.765625 L 9.734375 -1.765625 L 9.734375 0 Z M 0.890625 0 "/></g></g><g style="fill:#ffffff;fill-opacity:1;"><g transform="translate(581.381941, 31.595638)"><path style="stroke:none" d="M 0.890625 0 L 0.890625 -12.375 L 9.734375 -12.375 L 9.734375 -10.609375 L 2.65625 -10.609375 L 2.65625 -7.078125 L 7.953125 -7.078125 L 7.953125 -5.3125 L 2.65625 -5.3125 L 2.65625 -1.765625 L 9.703125 -1.765625 L 9.703125 0 Z M 0.890625 0 "/></g></g><g style="fill:#ffffff;fill-opacity:1;"><g transform="translate(594.644515, 31.595638)"><path style="stroke:none" d="M 0.890625 0 L 0.890625 -10.609375 L 2.65625 -10.609375 L 2.65625 -5.3125 L 7.953125 -5.3125 L 7.953125 -10.609375 L 9.734375 -10.609375 L 9.734375 0 L 7.953125 0 L 7.953125 -3.53125 L 2.65625 -3.53125 L 2.65625 0 Z M 2.65625 -10.609375 L 2.65625 -12.375 L 7.953125 -12.375 L 7.953125 -10.609375 Z M 2.65625 -10.609375 "/></g></g><g style="fill:#ffffff;fill-opacity:1;"><g transform="translate(607.907088, 31.595638)"><path style="stroke:none" d="M 0.890625 0 L 0.890625 -12.375 L 7.953125 -12.375 L 7.953125 -10.609375 L 2.65625 -10.609375 L 2.65625 -7.078125 L 7.953125 -7.078125 L 7.953125 -5.3125 L 6.1875 -5.3125 L 6.1875 -3.53125 L 4.421875 -3.53125 L 4.421875 -5.3125 L 2.65625 -5.3125 L 2.65625 0 Z M 6.1875 -1.765625 L 6.1875 -3.53125 L 7.953125 -3.53125 L 7.953125 -1.765625 Z M 7.953125 0 L 7.953125 -1.765625 L 9.734375 -1.765625 L 9.734375 0 Z M 7.953125 -7.078125 L 7.953125 -10.609375 L 9.734375 -10.609375 L 9.734375 -7.078125 Z M 7.953125 -7.078125 "/></g></g><g style="fill:#ffffff;fill-opacity:1;"><g transform="translate(621.169662, 31.595638)"><path style="stroke:none" d="M 7.953125 0 L 7.953125 -5.3125 L 6.1875 -5.3125 L 6.1875 -7.078125 L 7.953125 -7.078125 L 7.953125 -12.375 L 9.734375 -12.375 L 9.734375 0 Z M 0.890625 0 L 0.890625 -12.375 L 2.65625 -12.375 L 2.65625 -10.609375 L 4.421875 -10.609375 L 4.421875 -8.84375 L 2.65625 -8.84375 L 2.65625 0 Z M 4.421875 -7.078125 L 4.421875 -8.84375 L 6.1875 -8.84375 L 6.1875 -7.078125 Z M 4.421875 -7.078125 "/></g></g><g style="fill:#ffffff;fill-opacity:1;"><g transform="translate(634.432236, 31.595638)"><path style="stroke:none" d="M 0.890625 0 L 0.890625 -12.375 L 2.65625 -12.375 L 2.65625 0 Z M 0.890625 0 "/></g></g><g style="fill:#ffffff;fill-opacity:1;"><g transform="translate(640.622697, 31.595638)"><path style="stroke:none" d="M 7.953125 0 L 7.953125 -5.3125 L 6.1875 -5.3125 L 6.1875 -7.078125 L 7.953125 -7.078125 L 7.953125 -12.375 L 9.734375 -12.375 L 9.734375 0 Z M 0.890625 0 L 0.890625 -12.375 L 2.65625 -12.375 L 2.65625 -10.609375 L 4.421875 -10.609375 L 4.421875 -8.84375 L 2.65625 -8.84375 L 2.65625 0 Z M 4.421875 -7.078125 L 4.421875 -8.84375 L 6.1875 -8.84375 L 6.1875 -7.078125 Z M 4.421875 -7.078125 "/></g></g><g style="fill:#ffffff;fill-opacity:1;"><g transform="translate(653.885271, 31.595638)"><path style="stroke:none" d="M 7.953125 -1.765625 L 7.953125 0 L 2.65625 0 L 2.65625 -1.765625 Z M 0.890625 -1.765625 L 0.890625 -10.609375 L 2.65625 -10.609375 L 2.65625 -1.765625 Z M 2.65625 -10.609375 L 2.65625 -12.375 L 7.953125 -12.375 L 7.953125 -10.609375 Z M 6.1875 -5.3125 L 6.1875 -7.078125 L 9.734375 -7.078125 L 9.734375 -1.765625 L 7.953125 -1.765625 L 7.953125 -5.3125 Z M 7.953125 -8.84375 L 7.953125 -10.609375 L 9.734375 -10.609375 L 9.734375 -8.84375 Z M 7.953125 -8.84375 "/></g></g><g style="fill:#ffffff;fill-opacity:1;"><g transform="translate(667.147844, 31.595638)"><path style="stroke:none" d="M 0.890625 -3.53125 L 0.890625 -12.375 L 2.65625 -12.375 L 2.65625 -3.53125 Z M 0.890625 0 L 0.890625 -1.765625 L 2.65625 -1.765625 L 2.65625 0 Z M 0.890625 0 "/></g></g><g style="fill:#ffffff;fill-opacity:1;"><g transform="translate(673.338807, 31.595638)"><path style="stroke:none" d=""/></g></g></g></svg>