<svg xmlns="http://www.w3.org/2000/svg" xmlns:xlink="http://www.w3.org/1999/xlink" width="58" zoomAndPan="magnify" viewBox="0 0 43.5 49.499998" height="66" preserveAspectRatio="xMidYMid meet" version="1.2"><defs><clipPath id="cf206067d3"><path d="M 0 0.0351562 L 42.6875 0.0351562 L 42.6875 48.726562 L 0 48.726562 Z M 0 0.0351562 "/></clipPath><clipPath id="90eb73536f"><path d="M 42.6875 8.191406 L 42.6875 40.523438 C 42.6875 45.027344 39.039062 48.679688 34.535156 48.679688 L 8.15625 48.679688 C 3.652344 48.679688 0 45.027344 0 40.523438 L 0 8.191406 C 0 3.683594 3.652344 0.0351562 8.15625 0.0351562 L 34.535156 0.0351562 C 39.039062 0.0351562 42.6875 3.683594 42.6875 8.191406 Z M 42.6875 8.191406 "/></clipPath><clipPath id="cc1568fc4d"><path d="M 11.878906 12.703125 L 31.15625 12.703125 L 31.15625 35.6875 L 11.878906 35.6875 Z M 11.878906 12.703125 "/></clipPath></defs><g id="564cb95dc1"><g clip-rule="nonzero" clip-path="url(#cf206067d3)"><g clip-rule="nonzero" clip-path="url(#90eb73536f)"><path style=" stroke:none;fill-rule:nonzero;fill:#ffffff;fill-opacity:1;" d="M 0 0.0351562 L 42.6875 0.0351562 L 42.6875 48.726562 L 0 48.726562 Z M 0 0.0351562 "/></g></g><g clip-rule="nonzero" clip-path="url(#cc1568fc4d)"><path style=" stroke:none;fill-rule:nonzero;fill:#040606;fill-opacity:1;" d="M 13.609375 22.542969 L 13.609375 28.332031 C 13.609375 28.753906 13.507812 29.175781 13.3125 29.554688 L 11.976562 32.144531 C 11.890625 32.3125 11.898438 32.515625 12 32.675781 C 12.105469 32.835938 12.285156 32.9375 12.480469 32.9375 L 18.179688 32.9375 C 18.449219 34.484375 19.839844 35.671875 21.515625 35.671875 C 22.417969 35.671875 23.269531 35.332031 23.917969 34.710938 C 24.417969 34.21875 24.738281 33.601562 24.855469 32.9375 L 30.550781 32.9375 C 30.746094 32.9375 30.929688 32.835938 31.03125 32.675781 C 31.136719 32.515625 31.144531 32.3125 31.058594 32.144531 L 29.71875 29.554688 C 29.527344 29.175781 29.421875 28.753906 29.421875 28.332031 L 29.421875 22.542969 C 29.421875 20.496094 28.601562 18.574219 27.105469 17.128906 C 26.164062 16.214844 25.011719 15.554688 23.738281 15.191406 C 23.753906 15.089844 23.773438 14.988281 23.773438 14.882812 C 23.773438 13.675781 22.761719 12.695312 21.515625 12.695312 C 20.269531 12.695312 19.257812 13.675781 19.257812 14.882812 C 19.257812 14.988281 19.277344 15.089844 19.292969 15.191406 C 15.96875 16.136719 13.609375 19.140625 13.609375 22.542969 Z M 23.117188 33.9375 C 22.6875 34.351562 22.117188 34.578125 21.515625 34.578125 C 20.464844 34.578125 19.582031 33.878906 19.328125 32.9375 L 23.703125 32.9375 C 23.605469 33.3125 23.40625 33.65625 23.117188 33.9375 Z M 21.515625 13.789062 C 22.140625 13.789062 22.644531 14.28125 22.644531 14.882812 C 22.644531 14.910156 22.644531 14.933594 22.644531 14.960938 C 22.574219 14.949219 22.507812 14.945312 22.441406 14.9375 C 22.378906 14.933594 22.316406 14.925781 22.253906 14.921875 C 22.007812 14.898438 21.761719 14.882812 21.515625 14.882812 C 21.269531 14.882812 21.023438 14.898438 20.777344 14.921875 C 20.71875 14.925781 20.65625 14.933594 20.597656 14.9375 C 20.527344 14.945312 20.457031 14.949219 20.390625 14.960938 C 20.386719 14.933594 20.386719 14.910156 20.386719 14.882812 C 20.386719 14.28125 20.894531 13.789062 21.515625 13.789062 Z M 20.101562 16.117188 C 20.804688 15.976562 21.519531 15.941406 22.226562 16.011719 C 22.460938 16.035156 22.695312 16.070312 22.929688 16.117188 C 24.214844 16.386719 25.378906 17.003906 26.304688 17.902344 C 27.585938 19.140625 28.292969 20.789062 28.292969 22.542969 L 28.292969 28.332031 C 28.292969 28.921875 28.4375 29.515625 28.710938 30.042969 L 29.636719 31.84375 L 13.394531 31.84375 L 14.324219 30.042969 C 14.59375 29.515625 14.742188 28.921875 14.742188 28.332031 L 14.742188 22.542969 C 14.742188 19.460938 16.996094 16.757812 20.101562 16.117188 "/></g></g></svg>