<svg xmlns="http://www.w3.org/2000/svg" xmlns:xlink="http://www.w3.org/1999/xlink" width="926" zoomAndPan="magnify" viewBox="0 0 694.5 97.5" height="130" preserveAspectRatio="xMidYMid meet" version="1.2"><defs/><g id="3c83dc2f8f"><path style=" stroke:none;fill-rule:nonzero;fill:#393be5;fill-opacity:1;" d="M 26.691406 25.609375 L 587.261719 25.609375 L 587.261719 71.695312 L 26.691406 71.695312 L 26.691406 25.609375 "/><g style="fill:#ffffff;fill-opacity:1;"><g transform="translate(39.199624, 58.726822)"><path style="stroke:none" d="M 8.3125 0 L 8.3125 -19.953125 L 1.65625 -19.953125 L 1.65625 -23.28125 L 18.296875 -23.28125 L 18.296875 -19.953125 L 11.640625 -19.953125 L 11.640625 0 Z M 8.3125 0 "/></g></g><g style="fill:#ffffff;fill-opacity:1;"><g transform="translate(64.147294, 58.726822)"><path style="stroke:none" d="M 14.96875 -3.328125 L 14.96875 0 L 4.984375 0 L 4.984375 -3.328125 Z M 1.65625 -3.328125 L 1.65625 -23.28125 L 4.984375 -23.28125 L 4.984375 -3.328125 Z M 14.96875 -3.328125 L 14.96875 -23.28125 L 18.296875 -23.28125 L 18.296875 -3.328125 Z M 14.96875 -3.328125 "/></g></g><g style="fill:#ffffff;fill-opacity:1;"><g transform="translate(89.094963, 58.726822)"><path style="stroke:none" d="M 1.65625 0 L 1.65625 -23.28125 L 14.96875 -23.28125 L 14.96875 -19.953125 L 4.984375 -19.953125 L 4.984375 -13.3125 L 14.96875 -13.3125 L 14.96875 -9.984375 L 11.640625 -9.984375 L 11.640625 -6.65625 L 8.3125 -6.65625 L 8.3125 -9.984375 L 4.984375 -9.984375 L 4.984375 0 Z M 11.640625 -3.328125 L 11.640625 -6.65625 L 14.96875 -6.65625 L 14.96875 -3.328125 Z M 14.96875 0 L 14.96875 -3.328125 L 18.296875 -3.328125 L 18.296875 0 Z M 14.96875 -13.3125 L 14.96875 -19.953125 L 18.296875 -19.953125 L 18.296875 -13.3125 Z M 14.96875 -13.3125 "/></g></g><g style="fill:#ffffff;fill-opacity:1;"><g transform="translate(114.042633, 58.726822)"><path style="stroke:none" d="M 14.96875 0 L 14.96875 -9.984375 L 11.640625 -9.984375 L 11.640625 -13.3125 L 14.96875 -13.3125 L 14.96875 -23.28125 L 18.296875 -23.28125 L 18.296875 0 Z M 1.65625 0 L 1.65625 -23.28125 L 4.984375 -23.28125 L 4.984375 -19.953125 L 8.3125 -19.953125 L 8.3125 -16.625 L 4.984375 -16.625 L 4.984375 0 Z M 8.3125 -13.3125 L 8.3125 -16.625 L 11.640625 -16.625 L 11.640625 -13.3125 Z M 8.3125 -13.3125 "/></g></g><g style="fill:#ffffff;fill-opacity:1;"><g transform="translate(138.990302, 58.726822)"><path style="stroke:none" d=""/></g></g><g style="fill:#ffffff;fill-opacity:1;"><g transform="translate(152.295931, 58.726822)"><path style="stroke:none" d="M 1.65625 0 L 1.65625 -19.953125 L 4.984375 -19.953125 L 4.984375 -9.984375 L 14.96875 -9.984375 L 14.96875 -19.953125 L 18.296875 -19.953125 L 18.296875 0 L 14.96875 0 L 14.96875 -6.65625 L 4.984375 -6.65625 L 4.984375 0 Z M 4.984375 -19.953125 L 4.984375 -23.28125 L 14.96875 -23.28125 L 14.96875 -19.953125 Z M 4.984375 -19.953125 "/></g></g><g style="fill:#ffffff;fill-opacity:1;"><g transform="translate(177.2436, 58.726822)"><path style="stroke:none" d="M 14.96875 0 L 14.96875 -16.625 L 11.640625 -16.625 L 11.640625 -19.953125 L 14.96875 -19.953125 L 14.96875 -23.28125 L 18.296875 -23.28125 L 18.296875 0 Z M 1.65625 0 L 1.65625 -23.28125 L 4.984375 -23.28125 L 4.984375 -19.953125 L 8.3125 -19.953125 L 8.3125 -16.625 L 4.984375 -16.625 L 4.984375 0 Z M 8.3125 -13.3125 L 8.3125 -16.625 L 11.640625 -16.625 L 11.640625 -13.3125 Z M 8.3125 -13.3125 "/></g></g><g style="fill:#ffffff;fill-opacity:1;"><g transform="translate(202.19127, 58.726822)"><path style="stroke:none" d="M 1.65625 0 L 1.65625 -23.28125 L 14.96875 -23.28125 L 14.96875 -19.953125 L 4.984375 -19.953125 L 4.984375 -13.3125 L 14.96875 -13.3125 L 14.96875 -9.984375 L 4.984375 -9.984375 L 4.984375 -3.328125 L 14.96875 -3.328125 L 14.96875 0 Z M 14.96875 -3.328125 L 14.96875 -9.984375 L 18.296875 -9.984375 L 18.296875 -3.328125 Z M 14.96875 -13.3125 L 14.96875 -19.953125 L 18.296875 -19.953125 L 18.296875 -13.3125 Z M 14.96875 -13.3125 "/></g></g><g style="fill:#ffffff;fill-opacity:1;"><g transform="translate(227.138939, 58.726822)"><path style="stroke:none" d="M 1.65625 0 L 1.65625 -23.28125 L 4.984375 -23.28125 L 4.984375 0 Z M 1.65625 0 "/></g></g><g style="fill:#ffffff;fill-opacity:1;"><g transform="translate(238.781436, 58.726822)"><path style="stroke:none" d="M 8.3125 0 L 8.3125 -19.953125 L 1.65625 -19.953125 L 1.65625 -23.28125 L 18.296875 -23.28125 L 18.296875 -19.953125 L 11.640625 -19.953125 L 11.640625 0 Z M 8.3125 0 "/></g></g><g style="fill:#ffffff;fill-opacity:1;"><g transform="translate(263.729105, 58.726822)"><path style="stroke:none" d="M 1.65625 0 L 1.65625 -23.28125 L 4.984375 -23.28125 L 4.984375 0 Z M 1.65625 0 "/></g></g><g style="fill:#ffffff;fill-opacity:1;"><g transform="translate(275.371578, 58.726822)"><path style="stroke:none" d="M 14.96875 -3.328125 L 14.96875 0 L 4.984375 0 L 4.984375 -3.328125 Z M 1.65625 -3.328125 L 1.65625 -19.953125 L 4.984375 -19.953125 L 4.984375 -3.328125 Z M 4.984375 -19.953125 L 4.984375 -23.28125 L 14.96875 -23.28125 L 14.96875 -19.953125 Z M 14.96875 -3.328125 L 14.96875 -19.953125 L 18.296875 -19.953125 L 18.296875 -3.328125 Z M 14.96875 -3.328125 "/></g></g><g style="fill:#ffffff;fill-opacity:1;"><g transform="translate(300.319248, 58.726822)"><path style="stroke:none" d="M 14.96875 0 L 14.96875 -9.984375 L 11.640625 -9.984375 L 11.640625 -13.3125 L 14.96875 -13.3125 L 14.96875 -23.28125 L 18.296875 -23.28125 L 18.296875 0 Z M 1.65625 0 L 1.65625 -23.28125 L 4.984375 -23.28125 L 4.984375 -19.953125 L 8.3125 -19.953125 L 8.3125 -16.625 L 4.984375 -16.625 L 4.984375 0 Z M 8.3125 -13.3125 L 8.3125 -16.625 L 11.640625 -16.625 L 11.640625 -13.3125 Z M 8.3125 -13.3125 "/></g></g><g style="fill:#ffffff;fill-opacity:1;"><g transform="translate(325.266917, 58.726822)"><path style="stroke:none" d=""/></g></g><g style="fill:#ffffff;fill-opacity:1;"><g transform="translate(338.572546, 58.726822)"><path style="stroke:none" d="M 1.65625 0 L 1.65625 -23.28125 L 4.984375 -23.28125 L 4.984375 0 Z M 1.65625 0 "/></g></g><g style="fill:#ffffff;fill-opacity:1;"><g transform="translate(350.215043, 58.726822)"><path style="stroke:none" d="M 14.96875 0 L 14.96875 -9.984375 L 11.640625 -9.984375 L 11.640625 -13.3125 L 14.96875 -13.3125 L 14.96875 -23.28125 L 18.296875 -23.28125 L 18.296875 0 Z M 1.65625 0 L 1.65625 -23.28125 L 4.984375 -23.28125 L 4.984375 -19.953125 L 8.3125 -19.953125 L 8.3125 -16.625 L 4.984375 -16.625 L 4.984375 0 Z M 8.3125 -13.3125 L 8.3125 -16.625 L 11.640625 -16.625 L 11.640625 -13.3125 Z M 8.3125 -13.3125 "/></g></g><g style="fill:#ffffff;fill-opacity:1;"><g transform="translate(375.162712, 58.726822)"><path style="stroke:none" d="M 8.3125 0 L 8.3125 -19.953125 L 1.65625 -19.953125 L 1.65625 -23.28125 L 18.296875 -23.28125 L 18.296875 -19.953125 L 11.640625 -19.953125 L 11.640625 0 Z M 8.3125 0 "/></g></g><g style="fill:#ffffff;fill-opacity:1;"><g transform="translate(400.110381, 58.726822)"><path style="stroke:none" d="M 14.96875 -3.328125 L 14.96875 0 L 4.984375 0 L 4.984375 -3.328125 Z M 1.65625 -3.328125 L 1.65625 -19.953125 L 4.984375 -19.953125 L 4.984375 -3.328125 Z M 4.984375 -19.953125 L 4.984375 -23.28125 L 14.96875 -23.28125 L 14.96875 -19.953125 Z M 14.96875 -3.328125 L 14.96875 -19.953125 L 18.296875 -19.953125 L 18.296875 -3.328125 Z M 14.96875 -3.328125 "/></g></g><g style="fill:#ffffff;fill-opacity:1;"><g transform="translate(425.058051, 58.726822)"><path style="stroke:none" d=""/></g></g><g style="fill:#ffffff;fill-opacity:1;"><g transform="translate(438.363657, 58.726822)"><path style="stroke:none" d="M 1.65625 0 L 1.65625 -19.953125 L 4.984375 -19.953125 L 4.984375 -9.984375 L 14.96875 -9.984375 L 14.96875 -19.953125 L 18.296875 -19.953125 L 18.296875 0 L 14.96875 0 L 14.96875 -6.65625 L 4.984375 -6.65625 L 4.984375 0 Z M 4.984375 -19.953125 L 4.984375 -23.28125 L 14.96875 -23.28125 L 14.96875 -19.953125 Z M 4.984375 -19.953125 "/></g></g><g style="fill:#ffffff;fill-opacity:1;"><g transform="translate(463.311326, 58.726822)"><path style="stroke:none" d="M 1.65625 -3.328125 L 1.65625 -19.953125 L 4.984375 -19.953125 L 4.984375 -3.328125 Z M 4.984375 0 L 4.984375 -3.328125 L 14.96875 -3.328125 L 14.96875 0 Z M 4.984375 -19.953125 L 4.984375 -23.28125 L 14.96875 -23.28125 L 14.96875 -19.953125 Z M 14.96875 -3.328125 L 14.96875 -6.65625 L 18.296875 -6.65625 L 18.296875 -3.328125 Z M 14.96875 -16.625 L 14.96875 -19.953125 L 18.296875 -19.953125 L 18.296875 -16.625 Z M 14.96875 -16.625 "/></g></g><g style="fill:#ffffff;fill-opacity:1;"><g transform="translate(488.258996, 58.726822)"><path style="stroke:none" d="M 8.3125 0 L 8.3125 -19.953125 L 1.65625 -19.953125 L 1.65625 -23.28125 L 18.296875 -23.28125 L 18.296875 -19.953125 L 11.640625 -19.953125 L 11.640625 0 Z M 8.3125 0 "/></g></g><g style="fill:#ffffff;fill-opacity:1;"><g transform="translate(513.206665, 58.726822)"><path style="stroke:none" d="M 1.65625 0 L 1.65625 -23.28125 L 4.984375 -23.28125 L 4.984375 0 Z M 1.65625 0 "/></g></g><g style="fill:#ffffff;fill-opacity:1;"><g transform="translate(524.849138, 58.726822)"><path style="stroke:none" d="M 14.96875 -3.328125 L 14.96875 0 L 4.984375 0 L 4.984375 -3.328125 Z M 1.65625 -3.328125 L 1.65625 -19.953125 L 4.984375 -19.953125 L 4.984375 -3.328125 Z M 4.984375 -19.953125 L 4.984375 -23.28125 L 14.96875 -23.28125 L 14.96875 -19.953125 Z M 14.96875 -3.328125 L 14.96875 -19.953125 L 18.296875 -19.953125 L 18.296875 -3.328125 Z M 14.96875 -3.328125 "/></g></g><g style="fill:#ffffff;fill-opacity:1;"><g transform="translate(549.796853, 58.726822)"><path style="stroke:none" d="M 14.96875 0 L 14.96875 -9.984375 L 11.640625 -9.984375 L 11.640625 -13.3125 L 14.96875 -13.3125 L 14.96875 -23.28125 L 18.296875 -23.28125 L 18.296875 0 Z M 1.65625 0 L 1.65625 -23.28125 L 4.984375 -23.28125 L 4.984375 -19.953125 L 8.3125 -19.953125 L 8.3125 -16.625 L 4.984375 -16.625 L 4.984375 0 Z M 8.3125 -13.3125 L 8.3125 -16.625 L 11.640625 -16.625 L 11.640625 -13.3125 Z M 8.3125 -13.3125 "/></g></g><g style="fill:#ffffff;fill-opacity:1;"><g transform="translate(574.753954, 58.726822)"><path style="stroke:none" d=""/></g></g></g></svg>