<svg xmlns="http://www.w3.org/2000/svg" xmlns:xlink="http://www.w3.org/1999/xlink" width="815" zoomAndPan="magnify" viewBox="0 0 611.25 68.999997" height="92" preserveAspectRatio="xMidYMid meet" version="1.2"><defs/><g id="55fa6e5442"><path style=" stroke:none;fill-rule:nonzero;fill:#393be5;fill-opacity:1;" d="M 7.984375 31.625 L 581.804688 31.625 L 581.804688 58.316406 L 7.984375 58.316406 L 7.984375 31.625 "/><g style="fill:#ffffff;fill-opacity:1;"><g transform="translate(15.41371, 50.157567)"><path style="stroke:none" d="M 0.984375 -1.96875 L 0.984375 -11.84375 L 2.96875 -11.84375 L 2.96875 -1.96875 Z M 2.96875 0 L 2.96875 -1.96875 L 8.890625 -1.96875 L 8.890625 0 Z M 2.96875 -11.84375 L 2.96875 -13.828125 L 8.890625 -13.828125 L 8.890625 -11.84375 Z M 8.890625 -1.96875 L 8.890625 -3.953125 L 10.859375 -3.953125 L 10.859375 -1.96875 Z M 8.890625 -9.875 L 8.890625 -11.84375 L 10.859375 -11.84375 L 10.859375 -9.875 Z M 8.890625 -9.875 "/></g></g><g style="fill:#ffffff;fill-opacity:1;"><g transform="translate(30.226991, 50.157567)"><path style="stroke:none" d="M 0.984375 0 L 0.984375 -13.828125 L 2.96875 -13.828125 L 2.96875 -7.90625 L 8.890625 -7.90625 L 8.890625 -13.828125 L 10.859375 -13.828125 L 10.859375 0 L 8.890625 0 L 8.890625 -5.921875 L 2.96875 -5.921875 L 2.96875 0 Z M 0.984375 0 "/></g></g><g style="fill:#ffffff;fill-opacity:1;"><g transform="translate(45.040271, 50.157567)"><path style="stroke:none" d="M 8.890625 -1.96875 L 8.890625 0 L 2.96875 0 L 2.96875 -1.96875 Z M 0.984375 -1.96875 L 0.984375 -11.84375 L 2.96875 -11.84375 L 2.96875 -1.96875 Z M 2.96875 -11.84375 L 2.96875 -13.828125 L 8.890625 -13.828125 L 8.890625 -11.84375 Z M 8.890625 -1.96875 L 8.890625 -11.84375 L 10.859375 -11.84375 L 10.859375 -1.96875 Z M 8.890625 -1.96875 "/></g></g><g style="fill:#ffffff;fill-opacity:1;"><g transform="translate(59.853552, 50.157567)"><path style="stroke:none" d="M 8.890625 -1.96875 L 8.890625 0 L 2.96875 0 L 2.96875 -1.96875 Z M 0.984375 -1.96875 L 0.984375 -11.84375 L 2.96875 -11.84375 L 2.96875 -1.96875 Z M 2.96875 -11.84375 L 2.96875 -13.828125 L 8.890625 -13.828125 L 8.890625 -11.84375 Z M 8.890625 -1.96875 L 8.890625 -11.84375 L 10.859375 -11.84375 L 10.859375 -1.96875 Z M 8.890625 -1.96875 "/></g></g><g style="fill:#ffffff;fill-opacity:1;"><g transform="translate(74.666832, 50.157567)"><path style="stroke:none" d="M 2.96875 -11.84375 L 2.96875 -7.90625 L 0.984375 -7.90625 L 0.984375 -11.84375 Z M 0.984375 -1.96875 L 0.984375 -3.953125 L 2.96875 -3.953125 L 2.96875 -1.96875 Z M 2.96875 0 L 2.96875 -1.96875 L 8.890625 -1.96875 L 8.890625 0 Z M 2.96875 -5.921875 L 2.96875 -7.90625 L 8.890625 -7.90625 L 8.890625 -5.921875 Z M 2.96875 -11.84375 L 2.96875 -13.828125 L 8.890625 -13.828125 L 8.890625 -11.84375 Z M 8.890625 -1.96875 L 8.890625 -5.921875 L 10.859375 -5.921875 L 10.859375 -1.96875 Z M 8.890625 -9.875 L 8.890625 -11.84375 L 10.859375 -11.84375 L 10.859375 -9.875 Z M 8.890625 -9.875 "/></g></g><g style="fill:#ffffff;fill-opacity:1;"><g transform="translate(89.480113, 50.157567)"><path style="stroke:none" d="M 0.984375 0 L 0.984375 -13.828125 L 10.859375 -13.828125 L 10.859375 -11.84375 L 2.96875 -11.84375 L 2.96875 -7.90625 L 8.890625 -7.90625 L 8.890625 -5.921875 L 2.96875 -5.921875 L 2.96875 -1.96875 L 10.84375 -1.96875 L 10.84375 0 Z M 0.984375 0 "/></g></g><g style="fill:#ffffff;fill-opacity:1;"><g transform="translate(104.293393, 50.157567)"><path style="stroke:none" d=""/></g></g><g style="fill:#ffffff;fill-opacity:1;"><g transform="translate(112.194348, 50.157567)"><path style="stroke:none" d="M 0.984375 0 L 0.984375 -11.84375 L 2.96875 -11.84375 L 2.96875 -5.921875 L 8.890625 -5.921875 L 8.890625 -11.84375 L 10.859375 -11.84375 L 10.859375 0 L 8.890625 0 L 8.890625 -3.953125 L 2.96875 -3.953125 L 2.96875 0 Z M 2.96875 -11.84375 L 2.96875 -13.828125 L 8.890625 -13.828125 L 8.890625 -11.84375 Z M 2.96875 -11.84375 "/></g></g><g style="fill:#ffffff;fill-opacity:1;"><g transform="translate(127.007628, 50.157567)"><path style="stroke:none" d=""/></g></g><g style="fill:#ffffff;fill-opacity:1;"><g transform="translate(134.908583, 50.157567)"><path style="stroke:none" d="M 8.890625 -1.96875 L 8.890625 0 L 2.96875 0 L 2.96875 -1.96875 Z M 0.984375 -1.96875 L 0.984375 -11.84375 L 2.96875 -11.84375 L 2.96875 -1.96875 Z M 2.96875 -11.84375 L 2.96875 -13.828125 L 8.890625 -13.828125 L 8.890625 -11.84375 Z M 6.90625 -5.921875 L 6.90625 -7.90625 L 10.859375 -7.90625 L 10.859375 -1.96875 L 8.890625 -1.96875 L 8.890625 -5.921875 Z M 8.890625 -9.875 L 8.890625 -11.84375 L 10.859375 -11.84375 L 10.859375 -9.875 Z M 8.890625 -9.875 "/></g></g><g style="fill:#ffffff;fill-opacity:1;"><g transform="translate(149.721863, 50.157567)"><path style="stroke:none" d="M 8.890625 -1.96875 L 8.890625 0 L 2.96875 0 L 2.96875 -1.96875 Z M 0.984375 -1.96875 L 0.984375 -11.84375 L 2.96875 -11.84375 L 2.96875 -1.96875 Z M 2.96875 -11.84375 L 2.96875 -13.828125 L 8.890625 -13.828125 L 8.890625 -11.84375 Z M 8.890625 -1.96875 L 8.890625 -11.84375 L 10.859375 -11.84375 L 10.859375 -1.96875 Z M 8.890625 -1.96875 "/></g></g><g style="fill:#ffffff;fill-opacity:1;"><g transform="translate(164.535144, 50.157567)"><path style="stroke:none" d="M 0.984375 0 L 0.984375 -11.84375 L 2.96875 -11.84375 L 2.96875 -5.921875 L 8.890625 -5.921875 L 8.890625 -11.84375 L 10.859375 -11.84375 L 10.859375 0 L 8.890625 0 L 8.890625 -3.953125 L 2.96875 -3.953125 L 2.96875 0 Z M 2.96875 -11.84375 L 2.96875 -13.828125 L 8.890625 -13.828125 L 8.890625 -11.84375 Z M 2.96875 -11.84375 "/></g></g><g style="fill:#ffffff;fill-opacity:1;"><g transform="translate(179.348425, 50.157567)"><path style="stroke:none" d="M 0.984375 0 L 0.984375 -13.828125 L 2.96875 -13.828125 L 2.96875 -1.96875 L 10.859375 -1.96875 L 10.859375 0 Z M 0.984375 0 "/></g></g><g style="fill:#ffffff;fill-opacity:1;"><g transform="translate(194.161705, 50.157567)"><path style="stroke:none" d=""/></g></g><g style="fill:#ffffff;fill-opacity:1;"><g transform="translate(202.06266, 50.157567)"><path style="stroke:none" d="M 0.984375 0 L 0.984375 -11.84375 L 2.96875 -11.84375 L 2.96875 -5.921875 L 8.890625 -5.921875 L 8.890625 -11.84375 L 10.859375 -11.84375 L 10.859375 0 L 8.890625 0 L 8.890625 -3.953125 L 2.96875 -3.953125 L 2.96875 0 Z M 2.96875 -11.84375 L 2.96875 -13.828125 L 8.890625 -13.828125 L 8.890625 -11.84375 Z M 2.96875 -11.84375 "/></g></g><g style="fill:#ffffff;fill-opacity:1;"><g transform="translate(216.87594, 50.157567)"><path style="stroke:none" d="M 8.890625 0 L 8.890625 -5.921875 L 6.90625 -5.921875 L 6.90625 -7.90625 L 8.890625 -7.90625 L 8.890625 -13.828125 L 10.859375 -13.828125 L 10.859375 0 Z M 0.984375 0 L 0.984375 -13.828125 L 2.96875 -13.828125 L 2.96875 -11.84375 L 4.9375 -11.84375 L 4.9375 -9.875 L 2.96875 -9.875 L 2.96875 0 Z M 4.9375 -7.90625 L 4.9375 -9.875 L 6.90625 -9.875 L 6.90625 -7.90625 Z M 4.9375 -7.90625 "/></g></g><g style="fill:#ffffff;fill-opacity:1;"><g transform="translate(231.68921, 50.157567)"><path style="stroke:none" d="M 0.984375 0 L 0.984375 -13.828125 L 8.890625 -13.828125 L 8.890625 -11.84375 L 2.96875 -11.84375 L 2.96875 -1.96875 L 8.890625 -1.96875 L 8.890625 0 Z M 8.890625 -1.96875 L 8.890625 -11.84375 L 10.859375 -11.84375 L 10.859375 -1.96875 Z M 8.890625 -1.96875 "/></g></g><g style="fill:#ffffff;fill-opacity:1;"><g transform="translate(246.502501, 50.157567)"><path style="stroke:none" d=""/></g></g><g style="fill:#ffffff;fill-opacity:1;"><g transform="translate(254.403456, 50.157567)"><path style="stroke:none" d="M 0.984375 -1.96875 L 0.984375 -11.84375 L 2.96875 -11.84375 L 2.96875 -1.96875 Z M 2.96875 0 L 2.96875 -1.96875 L 8.890625 -1.96875 L 8.890625 0 Z M 2.96875 -11.84375 L 2.96875 -13.828125 L 8.890625 -13.828125 L 8.890625 -11.84375 Z M 8.890625 -1.96875 L 8.890625 -3.953125 L 10.859375 -3.953125 L 10.859375 -1.96875 Z M 8.890625 -9.875 L 8.890625 -11.84375 L 10.859375 -11.84375 L 10.859375 -9.875 Z M 8.890625 -9.875 "/></g></g><g style="fill:#ffffff;fill-opacity:1;"><g transform="translate(269.216725, 50.157567)"><path style="stroke:none" d="M 0.984375 0 L 0.984375 -13.828125 L 8.890625 -13.828125 L 8.890625 -11.84375 L 2.96875 -11.84375 L 2.96875 -7.90625 L 8.890625 -7.90625 L 8.890625 -5.921875 L 6.90625 -5.921875 L 6.90625 -3.953125 L 4.9375 -3.953125 L 4.9375 -5.921875 L 2.96875 -5.921875 L 2.96875 0 Z M 6.90625 -1.96875 L 6.90625 -3.953125 L 8.890625 -3.953125 L 8.890625 -1.96875 Z M 8.890625 0 L 8.890625 -1.96875 L 10.859375 -1.96875 L 10.859375 0 Z M 8.890625 -7.90625 L 8.890625 -11.84375 L 10.859375 -11.84375 L 10.859375 -7.90625 Z M 8.890625 -7.90625 "/></g></g><g style="fill:#ffffff;fill-opacity:1;"><g transform="translate(284.030017, 50.157567)"><path style="stroke:none" d="M 0.984375 0 L 0.984375 -13.828125 L 10.859375 -13.828125 L 10.859375 -11.84375 L 2.96875 -11.84375 L 2.96875 -7.90625 L 8.890625 -7.90625 L 8.890625 -5.921875 L 2.96875 -5.921875 L 2.96875 -1.96875 L 10.84375 -1.96875 L 10.84375 0 Z M 0.984375 0 "/></g></g><g style="fill:#ffffff;fill-opacity:1;"><g transform="translate(298.843309, 50.157567)"><path style="stroke:none" d="M 0.984375 0 L 0.984375 -11.84375 L 2.96875 -11.84375 L 2.96875 -5.921875 L 8.890625 -5.921875 L 8.890625 -11.84375 L 10.859375 -11.84375 L 10.859375 0 L 8.890625 0 L 8.890625 -3.953125 L 2.96875 -3.953125 L 2.96875 0 Z M 2.96875 -11.84375 L 2.96875 -13.828125 L 8.890625 -13.828125 L 8.890625 -11.84375 Z M 2.96875 -11.84375 "/></g></g><g style="fill:#ffffff;fill-opacity:1;"><g transform="translate(313.656578, 50.157567)"><path style="stroke:none" d="M 4.9375 0 L 4.9375 -11.84375 L 0.984375 -11.84375 L 0.984375 -13.828125 L 10.859375 -13.828125 L 10.859375 -11.84375 L 6.90625 -11.84375 L 6.90625 0 Z M 4.9375 0 "/></g></g><g style="fill:#ffffff;fill-opacity:1;"><g transform="translate(328.469847, 50.157567)"><path style="stroke:none" d="M 0.984375 0 L 0.984375 -13.828125 L 10.859375 -13.828125 L 10.859375 -11.84375 L 2.96875 -11.84375 L 2.96875 -7.90625 L 8.890625 -7.90625 L 8.890625 -5.921875 L 2.96875 -5.921875 L 2.96875 -1.96875 L 10.84375 -1.96875 L 10.84375 0 Z M 0.984375 0 "/></g></g><g style="fill:#ffffff;fill-opacity:1;"><g transform="translate(343.283139, 50.157567)"><path style="stroke:none" d=""/></g></g><g style="fill:#ffffff;fill-opacity:1;"><g transform="translate(351.184094, 50.157567)"><path style="stroke:none" d="M 4.9375 0 L 4.9375 -5.921875 L 6.90625 -5.921875 L 6.90625 0 Z M 0.984375 -9.875 L 0.984375 -13.828125 L 2.96875 -13.828125 L 2.96875 -9.875 Z M 2.96875 -5.921875 L 2.96875 -9.875 L 4.9375 -9.875 L 4.9375 -5.921875 Z M 6.90625 -5.921875 L 6.90625 -9.875 L 8.890625 -9.875 L 8.890625 -5.921875 Z M 8.890625 -9.875 L 8.890625 -13.828125 L 10.859375 -13.828125 L 10.859375 -9.875 Z M 8.890625 -9.875 "/></g></g><g style="fill:#ffffff;fill-opacity:1;"><g transform="translate(365.997363, 50.157567)"><path style="stroke:none" d="M 8.890625 -1.96875 L 8.890625 0 L 2.96875 0 L 2.96875 -1.96875 Z M 0.984375 -1.96875 L 0.984375 -11.84375 L 2.96875 -11.84375 L 2.96875 -1.96875 Z M 2.96875 -11.84375 L 2.96875 -13.828125 L 8.890625 -13.828125 L 8.890625 -11.84375 Z M 8.890625 -1.96875 L 8.890625 -11.84375 L 10.859375 -11.84375 L 10.859375 -1.96875 Z M 8.890625 -1.96875 "/></g></g><g style="fill:#ffffff;fill-opacity:1;"><g transform="translate(380.810655, 50.157567)"><path style="stroke:none" d="M 8.890625 -1.96875 L 8.890625 0 L 2.96875 0 L 2.96875 -1.96875 Z M 0.984375 -1.96875 L 0.984375 -13.828125 L 2.96875 -13.828125 L 2.96875 -1.96875 Z M 8.890625 -1.96875 L 8.890625 -13.828125 L 10.859375 -13.828125 L 10.859375 -1.96875 Z M 8.890625 -1.96875 "/></g></g><g style="fill:#ffffff;fill-opacity:1;"><g transform="translate(395.623946, 50.157567)"><path style="stroke:none" d="M 0.984375 0 L 0.984375 -13.828125 L 8.890625 -13.828125 L 8.890625 -11.84375 L 2.96875 -11.84375 L 2.96875 -7.90625 L 8.890625 -7.90625 L 8.890625 -5.921875 L 6.90625 -5.921875 L 6.90625 -3.953125 L 4.9375 -3.953125 L 4.9375 -5.921875 L 2.96875 -5.921875 L 2.96875 0 Z M 6.90625 -1.96875 L 6.90625 -3.953125 L 8.890625 -3.953125 L 8.890625 -1.96875 Z M 8.890625 0 L 8.890625 -1.96875 L 10.859375 -1.96875 L 10.859375 0 Z M 8.890625 -7.90625 L 8.890625 -11.84375 L 10.859375 -11.84375 L 10.859375 -7.90625 Z M 8.890625 -7.90625 "/></g></g><g style="fill:#ffffff;fill-opacity:1;"><g transform="translate(410.437238, 50.157567)"><path style="stroke:none" d=""/></g></g><g style="fill:#ffffff;fill-opacity:1;"><g transform="translate(418.33817, 50.157567)"><path style="stroke:none" d="M 8.890625 -1.96875 L 8.890625 0 L 2.96875 0 L 2.96875 -1.96875 Z M 0.984375 -1.96875 L 0.984375 -11.84375 L 2.96875 -11.84375 L 2.96875 -1.96875 Z M 2.96875 -11.84375 L 2.96875 -13.828125 L 8.890625 -13.828125 L 8.890625 -11.84375 Z M 8.890625 -1.96875 L 8.890625 -11.84375 L 10.859375 -11.84375 L 10.859375 -1.96875 Z M 8.890625 -1.96875 "/></g></g><g style="fill:#ffffff;fill-opacity:1;"><g transform="translate(433.151462, 50.157567)"><path style="stroke:none" d="M 8.890625 -1.96875 L 8.890625 0 L 6.90625 0 L 6.90625 -1.96875 Z M 0.984375 -1.96875 L 0.984375 -13.828125 L 2.96875 -13.828125 L 2.96875 -1.96875 Z M 2.96875 0 L 2.96875 -1.96875 L 4.9375 -1.96875 L 4.9375 0 Z M 4.9375 -1.96875 L 4.9375 -5.921875 L 6.90625 -5.921875 L 6.90625 -1.96875 Z M 8.890625 -1.96875 L 8.890625 -13.828125 L 10.859375 -13.828125 L 10.859375 -1.96875 Z M 8.890625 -1.96875 "/></g></g><g style="fill:#ffffff;fill-opacity:1;"><g transform="translate(447.964708, 50.157567)"><path style="stroke:none" d="M 8.890625 0 L 8.890625 -5.921875 L 6.90625 -5.921875 L 6.90625 -7.90625 L 8.890625 -7.90625 L 8.890625 -13.828125 L 10.859375 -13.828125 L 10.859375 0 Z M 0.984375 0 L 0.984375 -13.828125 L 2.96875 -13.828125 L 2.96875 -11.84375 L 4.9375 -11.84375 L 4.9375 -9.875 L 2.96875 -9.875 L 2.96875 0 Z M 4.9375 -7.90625 L 4.9375 -9.875 L 6.90625 -9.875 L 6.90625 -7.90625 Z M 4.9375 -7.90625 "/></g></g><g style="fill:#ffffff;fill-opacity:1;"><g transform="translate(462.778, 50.157567)"><path style="stroke:none" d=""/></g></g><g style="fill:#ffffff;fill-opacity:1;"><g transform="translate(470.678977, 50.157567)"><path style="stroke:none" d="M 0.984375 0 L 0.984375 -13.828125 L 8.890625 -13.828125 L 8.890625 -11.84375 L 2.96875 -11.84375 L 2.96875 -7.90625 L 8.890625 -7.90625 L 8.890625 -5.921875 L 6.90625 -5.921875 L 6.90625 -3.953125 L 4.9375 -3.953125 L 4.9375 -5.921875 L 2.96875 -5.921875 L 2.96875 0 Z M 6.90625 -1.96875 L 6.90625 -3.953125 L 8.890625 -3.953125 L 8.890625 -1.96875 Z M 8.890625 0 L 8.890625 -1.96875 L 10.859375 -1.96875 L 10.859375 0 Z M 8.890625 -7.90625 L 8.890625 -11.84375 L 10.859375 -11.84375 L 10.859375 -7.90625 Z M 8.890625 -7.90625 "/></g></g><g style="fill:#ffffff;fill-opacity:1;"><g transform="translate(485.492268, 50.157567)"><path style="stroke:none" d="M 8.890625 -1.96875 L 8.890625 0 L 2.96875 0 L 2.96875 -1.96875 Z M 0.984375 -1.96875 L 0.984375 -11.84375 L 2.96875 -11.84375 L 2.96875 -1.96875 Z M 2.96875 -11.84375 L 2.96875 -13.828125 L 8.890625 -13.828125 L 8.890625 -11.84375 Z M 8.890625 -1.96875 L 8.890625 -11.84375 L 10.859375 -11.84375 L 10.859375 -1.96875 Z M 8.890625 -1.96875 "/></g></g><g style="fill:#ffffff;fill-opacity:1;"><g transform="translate(500.305515, 50.157567)"><path style="stroke:none" d="M 0.984375 0 L 0.984375 -11.84375 L 2.96875 -11.84375 L 2.96875 -5.921875 L 8.890625 -5.921875 L 8.890625 -11.84375 L 10.859375 -11.84375 L 10.859375 0 L 8.890625 0 L 8.890625 -3.953125 L 2.96875 -3.953125 L 2.96875 0 Z M 2.96875 -11.84375 L 2.96875 -13.828125 L 8.890625 -13.828125 L 8.890625 -11.84375 Z M 2.96875 -11.84375 "/></g></g><g style="fill:#ffffff;fill-opacity:1;"><g transform="translate(515.118807, 50.157567)"><path style="stroke:none" d="M 0.984375 0 L 0.984375 -13.828125 L 8.890625 -13.828125 L 8.890625 -11.84375 L 2.96875 -11.84375 L 2.96875 -1.96875 L 8.890625 -1.96875 L 8.890625 0 Z M 8.890625 -1.96875 L 8.890625 -11.84375 L 10.859375 -11.84375 L 10.859375 -1.96875 Z M 8.890625 -1.96875 "/></g></g><g style="fill:#ffffff;fill-opacity:1;"><g transform="translate(529.932098, 50.157567)"><path style="stroke:none" d="M 8.890625 0 L 8.890625 -9.875 L 6.90625 -9.875 L 6.90625 -11.84375 L 8.890625 -11.84375 L 8.890625 -13.828125 L 10.859375 -13.828125 L 10.859375 0 Z M 0.984375 0 L 0.984375 -13.828125 L 2.96875 -13.828125 L 2.96875 -11.84375 L 4.9375 -11.84375 L 4.9375 -9.875 L 2.96875 -9.875 L 2.96875 0 Z M 4.9375 -7.90625 L 4.9375 -9.875 L 6.90625 -9.875 L 6.90625 -7.90625 Z M 4.9375 -7.90625 "/></g></g><g style="fill:#ffffff;fill-opacity:1;"><g transform="translate(544.745345, 50.157567)"><path style="stroke:none" d="M 0.984375 0 L 0.984375 -11.84375 L 2.96875 -11.84375 L 2.96875 -5.921875 L 8.890625 -5.921875 L 8.890625 -11.84375 L 10.859375 -11.84375 L 10.859375 0 L 8.890625 0 L 8.890625 -3.953125 L 2.96875 -3.953125 L 2.96875 0 Z M 2.96875 -11.84375 L 2.96875 -13.828125 L 8.890625 -13.828125 L 8.890625 -11.84375 Z M 2.96875 -11.84375 "/></g></g><g style="fill:#ffffff;fill-opacity:1;"><g transform="translate(559.558636, 50.157567)"><path style="stroke:none" d="M 0.984375 0 L 0.984375 -13.828125 L 8.890625 -13.828125 L 8.890625 -11.84375 L 2.96875 -11.84375 L 2.96875 -7.90625 L 8.890625 -7.90625 L 8.890625 -5.921875 L 2.96875 -5.921875 L 2.96875 0 Z M 8.890625 -7.90625 L 8.890625 -11.84375 L 10.859375 -11.84375 L 10.859375 -7.90625 Z M 8.890625 -7.90625 "/></g></g><g style="fill:#ffffff;fill-opacity:1;"><g transform="translate(574.374556, 50.157567)"><path style="stroke:none" d=""/></g></g><path style=" stroke:none;fill-rule:nonzero;fill:#ffffff;fill-opacity:1;" d="M 198.125 4.738281 L 299.207031 4.738281 L 299.207031 29.335938 L 198.125 29.335938 L 198.125 4.738281 "/><g style="fill:#393be5;fill-opacity:1;"><g transform="translate(200.496902, 22.96393)"><path style="stroke:none" d="M 8.8125 -13.546875 C 9.300781 -13.546875 9.753906 -13.453125 10.171875 -13.265625 C 10.585938 -13.085938 10.953125 -12.835938 11.265625 -12.515625 C 11.585938 -12.203125 11.835938 -11.832031 12.015625 -11.40625 C 12.203125 -10.988281 12.296875 -10.535156 12.296875 -10.046875 L 12.296875 -8.90625 C 12.296875 -8.4375 12.203125 -7.984375 12.015625 -7.546875 C 11.835938 -7.117188 11.585938 -6.75 11.265625 -6.4375 C 10.953125 -6.125 10.585938 -5.875 10.171875 -5.6875 C 9.753906 -5.5 9.300781 -5.40625 8.8125 -5.40625 L 4.171875 -5.40625 L 4.171875 -0.4375 C 4.171875 -0.3125 4.128906 -0.207031 4.046875 -0.125 C 3.972656 -0.0390625 3.875 0 3.75 0 L 1.890625 0 C 1.773438 0 1.675781 -0.0390625 1.59375 -0.125 C 1.507812 -0.207031 1.46875 -0.3125 1.46875 -0.4375 L 1.46875 -13.109375 C 1.46875 -13.234375 1.507812 -13.335938 1.59375 -13.421875 C 1.675781 -13.503906 1.773438 -13.546875 1.890625 -13.546875 Z M 9.59375 -10.046875 C 9.59375 -10.273438 9.515625 -10.460938 9.359375 -10.609375 C 9.210938 -10.765625 9.03125 -10.84375 8.8125 -10.84375 L 4.171875 -10.84375 L 4.171875 -8.125 L 8.8125 -8.125 C 9.03125 -8.125 9.210938 -8.195312 9.359375 -8.34375 C 9.515625 -8.5 9.59375 -8.6875 9.59375 -8.90625 Z M 9.59375 -10.046875 "/></g></g><g style="fill:#393be5;fill-opacity:1;"><g transform="translate(214.262281, 22.96393)"><path style="stroke:none" d="M 11.71875 0 L 2.46875 0 C 2.351562 0 2.25 -0.0390625 2.15625 -0.125 C 2.070312 -0.207031 2.03125 -0.3125 2.03125 -0.4375 L 2.03125 -13.109375 C 2.03125 -13.234375 2.070312 -13.335938 2.15625 -13.421875 C 2.25 -13.503906 2.351562 -13.546875 2.46875 -13.546875 L 4.3125 -13.546875 C 4.425781 -13.546875 4.523438 -13.503906 4.609375 -13.421875 C 4.691406 -13.335938 4.734375 -13.234375 4.734375 -13.109375 L 4.734375 -2.703125 L 11.71875 -2.703125 C 11.832031 -2.703125 11.925781 -2.660156 12 -2.578125 C 12.082031 -2.492188 12.125 -2.390625 12.125 -2.265625 L 12.125 -0.4375 C 12.125 -0.3125 12.082031 -0.207031 12 -0.125 C 11.925781 -0.0390625 11.832031 0 11.71875 0 Z M 11.71875 0 "/></g></g><g style="fill:#393be5;fill-opacity:1;"><g transform="translate(228.02766, 22.96393)"><path style="stroke:none" d="M 8.734375 -13.546875 C 8.847656 -13.546875 8.960938 -13.503906 9.078125 -13.421875 C 9.191406 -13.347656 9.265625 -13.257812 9.296875 -13.15625 L 12.140625 -6.078125 C 12.179688 -5.972656 12.21875 -5.835938 12.25 -5.671875 C 12.28125 -5.515625 12.296875 -5.375 12.296875 -5.25 L 12.296875 -0.4375 C 12.296875 -0.3125 12.253906 -0.207031 12.171875 -0.125 C 12.085938 -0.0390625 11.988281 0 11.875 0 L 10.015625 0 C 9.890625 0 9.785156 -0.0390625 9.703125 -0.125 C 9.617188 -0.207031 9.578125 -0.3125 9.578125 -0.4375 L 9.578125 -2.703125 L 4.171875 -2.703125 L 4.171875 -0.4375 C 4.171875 -0.3125 4.125 -0.207031 4.03125 -0.125 C 3.945312 -0.0390625 3.847656 0 3.734375 0 L 1.890625 0 C 1.773438 0 1.675781 -0.0390625 1.59375 -0.125 C 1.507812 -0.207031 1.46875 -0.3125 1.46875 -0.4375 L 1.46875 -5.25 C 1.46875 -5.375 1.484375 -5.515625 1.515625 -5.671875 C 1.546875 -5.835938 1.582031 -5.972656 1.625 -6.078125 L 4.4375 -13.15625 C 4.488281 -13.257812 4.570312 -13.347656 4.6875 -13.421875 C 4.800781 -13.503906 4.914062 -13.546875 5.03125 -13.546875 Z M 4.265625 -5.40625 L 9.484375 -5.40625 L 7.3125 -10.84375 L 6.4375 -10.84375 Z M 4.265625 -5.40625 "/></g></g><g style="fill:#393be5;fill-opacity:1;"><g transform="translate(241.793039, 22.96393)"><path style="stroke:none" d="M 9.578125 -13.109375 C 9.578125 -13.234375 9.617188 -13.335938 9.703125 -13.421875 C 9.785156 -13.503906 9.890625 -13.546875 10.015625 -13.546875 L 11.875 -13.546875 C 11.988281 -13.546875 12.085938 -13.503906 12.171875 -13.421875 C 12.253906 -13.335938 12.296875 -13.234375 12.296875 -13.109375 L 12.296875 -0.4375 C 12.296875 -0.3125 12.253906 -0.207031 12.171875 -0.125 C 12.085938 -0.0390625 11.988281 0 11.875 0 L 10.015625 0 C 9.890625 0 9.785156 -0.0390625 9.703125 -0.125 C 9.617188 -0.207031 9.578125 -0.3125 9.578125 -0.4375 L 9.578125 -5.0625 L 4.171875 -9.921875 L 4.171875 -0.4375 C 4.171875 -0.3125 4.125 -0.207031 4.03125 -0.125 C 3.945312 -0.0390625 3.847656 0 3.734375 0 L 1.890625 0 C 1.773438 0 1.675781 -0.0390625 1.59375 -0.125 C 1.507812 -0.207031 1.46875 -0.3125 1.46875 -0.4375 L 1.46875 -13.109375 C 1.46875 -13.234375 1.507812 -13.335938 1.59375 -13.421875 C 1.675781 -13.503906 1.773438 -13.546875 1.890625 -13.546875 L 3.734375 -13.546875 C 3.847656 -13.546875 3.976562 -13.515625 4.125 -13.453125 C 4.269531 -13.398438 4.390625 -13.332031 4.484375 -13.25 L 9.578125 -8.6875 Z M 9.578125 -13.109375 "/></g></g><g style="fill:#393be5;fill-opacity:1;"><g transform="translate(255.558418, 22.96393)"><path style="stroke:none" d="M 9.578125 -13.109375 C 9.578125 -13.234375 9.617188 -13.335938 9.703125 -13.421875 C 9.785156 -13.503906 9.890625 -13.546875 10.015625 -13.546875 L 11.875 -13.546875 C 11.988281 -13.546875 12.085938 -13.503906 12.171875 -13.421875 C 12.253906 -13.335938 12.296875 -13.234375 12.296875 -13.109375 L 12.296875 -0.4375 C 12.296875 -0.3125 12.253906 -0.207031 12.171875 -0.125 C 12.085938 -0.0390625 11.988281 0 11.875 0 L 10.015625 0 C 9.890625 0 9.785156 -0.0390625 9.703125 -0.125 C 9.617188 -0.207031 9.578125 -0.3125 9.578125 -0.4375 L 9.578125 -5.0625 L 4.171875 -9.921875 L 4.171875 -0.4375 C 4.171875 -0.3125 4.125 -0.207031 4.03125 -0.125 C 3.945312 -0.0390625 3.847656 0 3.734375 0 L 1.890625 0 C 1.773438 0 1.675781 -0.0390625 1.59375 -0.125 C 1.507812 -0.207031 1.46875 -0.3125 1.46875 -0.4375 L 1.46875 -13.109375 C 1.46875 -13.234375 1.507812 -13.335938 1.59375 -13.421875 C 1.675781 -13.503906 1.773438 -13.546875 1.890625 -13.546875 L 3.734375 -13.546875 C 3.847656 -13.546875 3.976562 -13.515625 4.125 -13.453125 C 4.269531 -13.398438 4.390625 -13.332031 4.484375 -13.25 L 9.578125 -8.6875 Z M 9.578125 -13.109375 "/></g></g><g style="fill:#393be5;fill-opacity:1;"><g transform="translate(269.323797, 22.96393)"><path style="stroke:none" d="M 12.09375 -11.25 C 12.09375 -11.132812 12.050781 -11.035156 11.96875 -10.953125 C 11.882812 -10.878906 11.785156 -10.84375 11.671875 -10.84375 L 4.359375 -10.84375 L 4.359375 -8.125 L 10.984375 -8.125 C 11.097656 -8.125 11.195312 -8.082031 11.28125 -8 C 11.375 -7.914062 11.421875 -7.816406 11.421875 -7.703125 L 11.421875 -5.84375 C 11.421875 -5.726562 11.375 -5.625 11.28125 -5.53125 C 11.195312 -5.445312 11.097656 -5.40625 10.984375 -5.40625 L 4.359375 -5.40625 L 4.359375 -2.703125 L 11.671875 -2.703125 C 11.785156 -2.703125 11.882812 -2.660156 11.96875 -2.578125 C 12.050781 -2.492188 12.09375 -2.390625 12.09375 -2.265625 L 12.09375 -0.4375 C 12.09375 -0.3125 12.050781 -0.207031 11.96875 -0.125 C 11.882812 -0.0390625 11.785156 0 11.671875 0 L 2.078125 0 C 1.953125 0 1.847656 -0.0390625 1.765625 -0.125 C 1.691406 -0.207031 1.65625 -0.3125 1.65625 -0.4375 L 1.65625 -13.109375 C 1.65625 -13.234375 1.691406 -13.335938 1.765625 -13.421875 C 1.847656 -13.503906 1.953125 -13.546875 2.078125 -13.546875 L 11.671875 -13.546875 C 11.785156 -13.546875 11.882812 -13.503906 11.96875 -13.421875 C 12.050781 -13.335938 12.09375 -13.234375 12.09375 -13.109375 Z M 12.09375 -11.25 "/></g></g><g style="fill:#393be5;fill-opacity:1;"><g transform="translate(283.069437, 22.96393)"><path style="stroke:none" d="M 12.109375 -0.390625 C 12.160156 -0.285156 12.160156 -0.191406 12.109375 -0.109375 C 12.054688 -0.0351562 11.96875 0 11.84375 0 L 9.734375 0 C 9.617188 0 9.503906 -0.0351562 9.390625 -0.109375 C 9.273438 -0.191406 9.191406 -0.285156 9.140625 -0.390625 L 6.875 -5.40625 L 4.1875 -5.40625 L 4.1875 -0.4375 C 4.1875 -0.3125 4.144531 -0.207031 4.0625 -0.125 C 3.976562 -0.0390625 3.875 0 3.75 0 L 1.890625 0 C 1.773438 0 1.675781 -0.0390625 1.59375 -0.125 C 1.507812 -0.207031 1.46875 -0.3125 1.46875 -0.4375 L 1.46875 -13.109375 C 1.46875 -13.234375 1.507812 -13.335938 1.59375 -13.421875 C 1.675781 -13.503906 1.773438 -13.546875 1.890625 -13.546875 L 8.8125 -13.546875 C 9.300781 -13.546875 9.753906 -13.453125 10.171875 -13.265625 C 10.585938 -13.085938 10.953125 -12.835938 11.265625 -12.515625 C 11.585938 -12.203125 11.835938 -11.832031 12.015625 -11.40625 C 12.203125 -10.988281 12.296875 -10.535156 12.296875 -10.046875 L 12.296875 -8.90625 C 12.296875 -8.507812 12.234375 -8.128906 12.109375 -7.765625 C 11.984375 -7.410156 11.804688 -7.082031 11.578125 -6.78125 C 11.359375 -6.488281 11.09375 -6.234375 10.78125 -6.015625 C 10.476562 -5.804688 10.144531 -5.648438 9.78125 -5.546875 Z M 8.8125 -8.125 C 9.03125 -8.125 9.210938 -8.195312 9.359375 -8.34375 C 9.515625 -8.5 9.59375 -8.6875 9.59375 -8.90625 L 9.59375 -10.046875 C 9.59375 -10.273438 9.515625 -10.460938 9.359375 -10.609375 C 9.210938 -10.765625 9.03125 -10.84375 8.8125 -10.84375 L 4.1875 -10.84375 L 4.1875 -8.125 Z M 8.8125 -8.125 "/></g></g><g style="fill:#393be5;fill-opacity:1;"><g transform="translate(296.836728, 22.96393)"><path style="stroke:none" d=""/></g></g></g></svg>