<svg xmlns="http://www.w3.org/2000/svg" xmlns:xlink="http://www.w3.org/1999/xlink" width="66" zoomAndPan="magnify" viewBox="0 0 49.5 44.999999" height="60" preserveAspectRatio="xMidYMid meet" version="1.2"><defs><clipPath id="2c014b2cec"><path d="M 16 6.472656 L 32 6.472656 L 32 16 L 16 16 Z M 16 6.472656 "/></clipPath><clipPath id="8b0fdedbbd"><path d="M 10.292969 25 L 15 25 L 15 33.945312 L 10.292969 33.945312 Z M 10.292969 25 "/></clipPath><clipPath id="917f30f4fd"><path d="M 17 24 L 31 24 L 31 33.945312 L 17 33.945312 Z M 17 24 "/></clipPath><clipPath id="7ae81b0109"><path d="M 33 25 L 37.765625 25 L 37.765625 33.945312 L 33 33.945312 Z M 33 25 "/></clipPath></defs><g id="a8b2a89f11"><g clip-rule="nonzero" clip-path="url(#2c014b2cec)"><path style=" stroke:none;fill-rule:nonzero;fill:#80b2e8;fill-opacity:1;" d="M 30.601562 12.75 C 30.257812 10.582031 28.867188 8.765625 26.964844 7.828125 L 27.246094 11.183594 C 27.273438 11.472656 27.054688 11.726562 26.769531 11.75 C 26.753906 11.753906 26.738281 11.753906 26.722656 11.753906 C 26.453125 11.753906 26.226562 11.546875 26.203125 11.273438 L 25.820312 6.738281 C 24.613281 6.46875 23.445312 6.46875 22.238281 6.738281 L 21.855469 11.273438 C 21.832031 11.558594 21.578125 11.78125 21.289062 11.75 C 21 11.726562 20.785156 11.472656 20.8125 11.183594 L 21.09375 7.828125 C 19.191406 8.765625 17.800781 10.582031 17.457031 12.75 L 16.058594 12.75 L 16.058594 14.855469 C 18.695312 15.074219 21.375 15.1875 24.027344 15.1875 C 26.683594 15.1875 29.363281 15.074219 32 14.855469 L 32 12.75 Z M 30.601562 12.75 "/></g><path style=" stroke:none;fill-rule:nonzero;fill:#80b2e8;fill-opacity:1;" d="M 24.027344 16.636719 C 22.011719 16.636719 19.96875 16.570312 17.925781 16.445312 C 17.929688 16.6875 17.9375 16.921875 17.953125 17.144531 C 18.101562 19.203125 19.453125 22.242188 20.503906 23.921875 C 21.578125 25.640625 24.023438 25.621094 24.027344 25.621094 C 24.03125 25.621094 26.480469 25.640625 27.550781 23.921875 C 28.605469 22.242188 29.957031 19.203125 30.105469 17.144531 C 30.121094 16.921875 30.128906 16.6875 30.132812 16.445312 C 28.089844 16.570312 26.046875 16.636719 24.027344 16.636719 Z M 24.027344 16.636719 "/><g clip-rule="nonzero" clip-path="url(#8b0fdedbbd)"><path style=" stroke:none;fill-rule:nonzero;fill:#80b2e8;fill-opacity:1;" d="M 14.671875 25.691406 C 14.539062 25.730469 14.414062 25.769531 14.28125 25.816406 C 12.765625 26.332031 11.636719 27.703125 11.078125 29.238281 C 10.699219 30.277344 10.492188 31.261719 10.378906 32.039062 C 10.359375 32.1875 10.339844 32.328125 10.324219 32.457031 C 10.351562 33.109375 10.886719 33.632812 11.546875 33.632812 L 14.671875 33.632812 Z M 14.671875 25.691406 "/></g><g clip-rule="nonzero" clip-path="url(#917f30f4fd)"><path style=" stroke:none;fill-rule:nonzero;fill:#80b2e8;fill-opacity:1;" d="M 30.609375 24.925781 C 29.945312 24.777344 29.34375 24.664062 28.847656 24.582031 C 28.824219 24.613281 28.800781 24.660156 28.78125 24.691406 C 27.335938 27.003906 24.367188 27.070312 24.03125 27.070312 C 24.03125 27.070312 24.03125 27.070312 24.027344 27.070312 C 24.027344 27.070312 24.027344 27.070312 24.023438 27.070312 C 23.691406 27.070312 20.722656 27.003906 19.277344 24.691406 C 19.257812 24.660156 19.234375 24.613281 19.210938 24.582031 C 18.714844 24.664062 18.113281 24.777344 17.449219 24.925781 L 17.449219 33.632812 L 30.609375 33.632812 Z M 30.609375 24.925781 "/></g><g clip-rule="nonzero" clip-path="url(#7ae81b0109)"><path style=" stroke:none;fill-rule:nonzero;fill:#80b2e8;fill-opacity:1;" d="M 37.679688 32.039062 C 37.5625 31.261719 37.355469 30.277344 36.980469 29.238281 C 36.421875 27.703125 35.289062 26.332031 33.773438 25.816406 C 33.644531 25.773438 33.515625 25.730469 33.386719 25.691406 L 33.386719 33.632812 L 36.507812 33.632812 C 37.167969 33.632812 37.703125 33.109375 37.734375 32.457031 C 37.71875 32.328125 37.699219 32.1875 37.679688 32.039062 Z M 37.679688 32.039062 "/></g></g></svg>