<svg xmlns="http://www.w3.org/2000/svg" xmlns:xlink="http://www.w3.org/1999/xlink" width="78" zoomAndPan="magnify" viewBox="0 0 58.5 50.249999" height="67" preserveAspectRatio="xMidYMid meet" version="1.2"><g id="87cb054a76"><path style=" stroke:none;fill-rule:nonzero;fill:#80b2e8;fill-opacity:1;" d="M 38.847656 7.957031 C 39.3125 8.175781 39.757812 8.421875 40.191406 8.691406 C 40.625 8.964844 41.042969 9.261719 41.445312 9.585938 C 41.84375 9.910156 42.226562 10.261719 42.59375 10.632812 C 42.957031 11.007812 43.300781 11.402344 43.625 11.824219 C 43.949219 12.242188 44.253906 12.683594 44.535156 13.144531 C 44.816406 13.605469 45.078125 14.085938 45.3125 14.582031 C 45.546875 15.082031 45.761719 15.59375 45.949219 16.125 C 46.136719 16.65625 46.300781 17.199219 46.4375 17.757812 C 46.578125 18.316406 46.6875 18.882812 46.777344 19.464844 C 46.863281 20.042969 46.925781 20.632812 46.960938 21.226562 C 46.996094 21.824219 47.003906 22.425781 46.988281 23.03125 C 46.96875 23.640625 46.925781 24.25 46.859375 24.859375 C 46.789062 25.472656 46.695312 26.082031 46.574219 26.691406 C 46.453125 27.300781 46.308594 27.910156 46.136719 28.511719 C 45.964844 29.117188 45.769531 29.710938 45.550781 30.304688 C 45.332031 30.894531 45.085938 31.476562 44.820312 32.046875 C 44.554688 32.617188 44.265625 33.179688 43.957031 33.726562 C 43.648438 34.273438 43.316406 34.808594 42.964844 35.328125 C 42.613281 35.84375 42.246094 36.347656 41.855469 36.832031 C 41.46875 37.316406 41.0625 37.78125 40.640625 38.226562 C 40.214844 38.671875 39.777344 39.09375 39.328125 39.496094 C 38.875 39.898438 38.410156 40.277344 37.929688 40.632812 C 37.453125 40.988281 36.964844 41.316406 36.464844 41.621094 C 35.96875 41.925781 35.460938 42.203125 34.945312 42.457031 C 34.433594 42.707031 33.910156 42.929688 33.386719 43.125 C 32.859375 43.320312 32.332031 43.484375 31.800781 43.625 C 31.269531 43.761719 30.734375 43.867188 30.203125 43.945312 C 29.671875 44.023438 29.140625 44.074219 28.609375 44.089844 C 28.082031 44.109375 27.558594 44.097656 27.039062 44.058594 C 26.519531 44.015625 26.007812 43.945312 25.503906 43.84375 C 25 43.742188 24.503906 43.609375 24.019531 43.453125 C 23.53125 43.292969 23.058594 43.101562 22.597656 42.886719 C 22.136719 42.667969 21.6875 42.425781 21.253906 42.152344 C 20.820312 41.878906 20.402344 41.582031 20.003906 41.257812 C 19.601562 40.933594 19.21875 40.585938 18.855469 40.210938 C 18.492188 39.835938 18.144531 39.441406 17.820312 39.023438 C 17.496094 38.601562 17.191406 38.164062 16.910156 37.703125 C 16.628906 37.242188 16.371094 36.761719 16.132812 36.261719 C 15.898438 35.765625 15.6875 35.25 15.5 34.71875 C 15.308594 34.1875 15.148438 33.644531 15.007812 33.085938 C 14.871094 32.527344 14.757812 31.960938 14.671875 31.378906 C 14.582031 30.800781 14.523438 30.210938 14.488281 29.617188 C 14.453125 29.019531 14.441406 28.417969 14.460938 27.8125 C 14.476562 27.207031 14.519531 26.597656 14.589844 25.984375 C 14.65625 25.375 14.753906 24.761719 14.875 24.152344 C 14.992188 23.542969 15.140625 22.9375 15.3125 22.332031 C 15.480469 21.730469 15.675781 21.132812 15.894531 20.542969 C 16.117188 19.953125 16.359375 19.371094 16.625 18.796875 C 16.890625 18.226562 17.179688 17.667969 17.488281 17.117188 C 17.800781 16.570312 18.128906 16.035156 18.480469 15.519531 C 18.832031 15 19.203125 14.5 19.589844 14.015625 C 19.980469 13.53125 20.386719 13.066406 20.808594 12.621094 C 21.230469 12.175781 21.667969 11.75 22.121094 11.347656 C 22.574219 10.945312 23.039062 10.566406 23.515625 10.210938 C 23.992188 9.855469 24.480469 9.527344 24.980469 9.222656 C 25.480469 8.917969 25.984375 8.640625 26.5 8.390625 C 27.015625 8.136719 27.535156 7.914062 28.0625 7.71875 C 28.585938 7.523438 29.117188 7.359375 29.648438 7.222656 C 30.179688 7.085938 30.710938 6.976562 31.242188 6.898438 C 31.777344 6.820312 32.308594 6.773438 32.835938 6.753906 C 33.363281 6.734375 33.886719 6.746094 34.40625 6.789062 C 34.925781 6.828125 35.4375 6.902344 35.941406 7.003906 C 36.449219 7.101562 36.941406 7.234375 37.429688 7.394531 C 37.914062 7.554688 38.386719 7.742188 38.847656 7.957031 Z M 38.847656 7.957031 "/><path style=" stroke:none;fill-rule:nonzero;fill:#d2edff;fill-opacity:1;" d="M 36.015625 6.628906 C 36.476562 6.84375 36.925781 7.089844 37.359375 7.359375 C 37.792969 7.632812 38.210938 7.929688 38.609375 8.253906 C 39.011719 8.578125 39.394531 8.929688 39.757812 9.300781 C 40.121094 9.675781 40.46875 10.074219 40.792969 10.492188 C 41.117188 10.910156 41.421875 11.351562 41.703125 11.8125 C 41.984375 12.273438 42.242188 12.753906 42.480469 13.25 C 42.714844 13.75 42.925781 14.265625 43.113281 14.792969 C 43.304688 15.324219 43.464844 15.867188 43.605469 16.425781 C 43.742188 16.984375 43.855469 17.554688 43.941406 18.132812 C 44.03125 18.714844 44.089844 19.300781 44.125 19.898438 C 44.160156 20.492188 44.171875 21.09375 44.152344 21.703125 C 44.136719 22.308594 44.09375 22.917969 44.023438 23.527344 C 43.957031 24.140625 43.859375 24.75 43.738281 25.359375 C 43.621094 25.972656 43.472656 26.578125 43.300781 27.179688 C 43.132812 27.785156 42.9375 28.382812 42.714844 28.972656 C 42.496094 29.5625 42.253906 30.144531 41.988281 30.714844 C 41.722656 31.289062 41.433594 31.847656 41.125 32.394531 C 40.8125 32.945312 40.484375 33.476562 40.132812 33.996094 C 39.78125 34.515625 39.410156 35.015625 39.023438 35.5 C 38.632812 35.984375 38.226562 36.449219 37.804688 36.894531 C 37.382812 37.339844 36.945312 37.761719 36.492188 38.164062 C 36.039062 38.566406 35.574219 38.945312 35.097656 39.300781 C 34.621094 39.65625 34.132812 39.984375 33.632812 40.289062 C 33.132812 40.59375 32.628906 40.871094 32.113281 41.125 C 31.597656 41.375 31.078125 41.597656 30.550781 41.792969 C 30.027344 41.988281 29.496094 42.15625 28.964844 42.292969 C 28.433594 42.429688 27.902344 42.539062 27.371094 42.617188 C 26.835938 42.695312 26.304688 42.742188 25.777344 42.761719 C 25.25 42.777344 24.726562 42.765625 24.207031 42.726562 C 23.6875 42.683594 23.175781 42.613281 22.671875 42.511719 C 22.164062 42.410156 21.671875 42.28125 21.183594 42.121094 C 20.699219 41.960938 20.226562 41.773438 19.765625 41.554688 C 19.300781 41.335938 18.855469 41.09375 18.421875 40.820312 C 17.988281 40.550781 17.570312 40.25 17.167969 39.925781 C 16.769531 39.601562 16.386719 39.253906 16.019531 38.878906 C 15.65625 38.507812 15.3125 38.109375 14.988281 37.691406 C 14.664062 37.269531 14.359375 36.832031 14.078125 36.371094 C 13.796875 35.910156 13.535156 35.429688 13.300781 34.929688 C 13.066406 34.433594 12.851562 33.917969 12.664062 33.386719 C 12.476562 32.859375 12.3125 32.3125 12.175781 31.753906 C 12.035156 31.199219 11.921875 30.628906 11.835938 30.050781 C 11.75 29.46875 11.6875 28.882812 11.652344 28.285156 C 11.617188 27.6875 11.609375 27.089844 11.625 26.480469 C 11.644531 25.875 11.6875 25.265625 11.753906 24.652344 C 11.824219 24.042969 11.917969 23.433594 12.039062 22.820312 C 12.160156 22.210938 12.304688 21.605469 12.476562 21 C 12.648438 20.398438 12.84375 19.800781 13.0625 19.210938 C 13.28125 18.621094 13.523438 18.039062 13.792969 17.46875 C 14.058594 16.894531 14.34375 16.335938 14.65625 15.785156 C 14.964844 15.238281 15.296875 14.707031 15.648438 14.1875 C 16 13.667969 16.367188 13.167969 16.757812 12.683594 C 17.144531 12.199219 17.550781 11.734375 17.972656 11.289062 C 18.398438 10.84375 18.835938 10.417969 19.285156 10.015625 C 19.738281 9.613281 20.203125 9.234375 20.683594 8.882812 C 21.160156 8.527344 21.648438 8.195312 22.148438 7.890625 C 22.644531 7.585938 23.152344 7.308594 23.667969 7.058594 C 24.179688 6.808594 24.703125 6.585938 25.226562 6.390625 C 25.753906 6.195312 26.28125 6.027344 26.8125 5.890625 C 27.34375 5.753906 27.878906 5.644531 28.410156 5.566406 C 28.941406 5.488281 29.472656 5.441406 30 5.421875 C 30.53125 5.402344 31.054688 5.414062 31.574219 5.457031 C 32.09375 5.5 32.605469 5.570312 33.109375 5.671875 C 33.613281 5.773438 34.109375 5.902344 34.59375 6.0625 C 35.082031 6.222656 35.554688 6.410156 36.015625 6.628906 Z M 36.015625 6.628906 "/><path style=" stroke:none;fill-rule:nonzero;fill:#312f84;fill-opacity:1;" d="M 34.175781 10.582031 C 34.890625 10.921875 35.558594 11.339844 36.179688 11.84375 C 36.804688 12.347656 37.367188 12.921875 37.871094 13.574219 C 38.371094 14.222656 38.808594 14.933594 39.175781 15.707031 C 39.539062 16.480469 39.832031 17.296875 40.042969 18.164062 C 40.257812 19.027344 40.394531 19.921875 40.449219 20.847656 C 40.503906 21.773438 40.476562 22.707031 40.371094 23.65625 C 40.261719 24.605469 40.074219 25.546875 39.8125 26.480469 C 39.546875 27.417969 39.207031 28.328125 38.792969 29.214844 C 38.382812 30.101562 37.902344 30.949219 37.359375 31.75 C 36.8125 32.554688 36.214844 33.304688 35.558594 33.992188 C 34.902344 34.683594 34.207031 35.304688 33.464844 35.855469 C 32.722656 36.40625 31.953125 36.875 31.15625 37.265625 C 30.359375 37.65625 29.546875 37.957031 28.722656 38.167969 C 27.898438 38.382812 27.074219 38.503906 26.257812 38.53125 C 25.4375 38.558594 24.636719 38.496094 23.851562 38.339844 C 23.070312 38.183594 22.320312 37.933594 21.605469 37.597656 C 20.890625 37.261719 20.21875 36.84375 19.597656 36.339844 C 18.976562 35.835938 18.414062 35.261719 17.910156 34.609375 C 17.40625 33.960938 16.972656 33.25 16.605469 32.476562 C 16.238281 31.703125 15.949219 30.882812 15.734375 30.019531 C 15.519531 29.152344 15.386719 28.257812 15.332031 27.335938 C 15.277344 26.410156 15.300781 25.476562 15.410156 24.527344 C 15.515625 23.578125 15.703125 22.636719 15.96875 21.699219 C 16.234375 20.765625 16.574219 19.855469 16.984375 18.96875 C 17.398438 18.082031 17.875 17.234375 18.421875 16.429688 C 18.964844 15.625 19.566406 14.878906 20.21875 14.1875 C 20.875 13.496094 21.574219 12.878906 22.316406 12.328125 C 23.054688 11.777344 23.824219 11.304688 24.625 10.917969 C 25.421875 10.527344 26.234375 10.226562 27.058594 10.011719 C 27.882812 9.800781 28.703125 9.679688 29.523438 9.652344 C 30.34375 9.621094 31.144531 9.6875 31.925781 9.84375 C 32.710938 10 33.457031 10.246094 34.175781 10.582031 Z M 34.175781 10.582031 "/><path style=" stroke:none;fill-rule:nonzero;fill:#d2edff;fill-opacity:1;" d="M 32.136719 14.96875 C 32.617188 15.195312 33.070312 15.476562 33.492188 15.816406 C 33.910156 16.15625 34.289062 16.546875 34.628906 16.988281 C 34.972656 17.425781 35.265625 17.90625 35.511719 18.429688 C 35.757812 18.949219 35.953125 19.503906 36.101562 20.085938 C 36.246094 20.671875 36.335938 21.277344 36.371094 21.898438 C 36.410156 22.523438 36.390625 23.15625 36.320312 23.796875 C 36.246094 24.4375 36.121094 25.074219 35.941406 25.707031 C 35.761719 26.335938 35.535156 26.953125 35.253906 27.550781 C 34.976562 28.152344 34.652344 28.722656 34.285156 29.265625 C 33.917969 29.808594 33.511719 30.3125 33.070312 30.78125 C 32.628906 31.246094 32.15625 31.664062 31.65625 32.039062 C 31.15625 32.410156 30.636719 32.726562 30.097656 32.988281 C 29.558594 33.253906 29.007812 33.457031 28.453125 33.601562 C 27.894531 33.742188 27.339844 33.824219 26.785156 33.84375 C 26.234375 33.863281 25.691406 33.820312 25.164062 33.714844 C 24.632812 33.609375 24.128906 33.441406 23.644531 33.214844 C 23.160156 32.988281 22.710938 32.703125 22.289062 32.363281 C 21.867188 32.023438 21.488281 31.636719 21.148438 31.195312 C 20.808594 30.757812 20.515625 30.277344 20.269531 29.753906 C 20.019531 29.234375 19.824219 28.679688 19.679688 28.09375 C 19.535156 27.511719 19.445312 26.90625 19.40625 26.28125 C 19.371094 25.65625 19.386719 25.027344 19.460938 24.386719 C 19.53125 23.746094 19.660156 23.109375 19.835938 22.476562 C 20.015625 21.84375 20.246094 21.230469 20.523438 20.628906 C 20.804688 20.03125 21.125 19.460938 21.492188 18.917969 C 21.863281 18.375 22.265625 17.867188 22.710938 17.402344 C 23.152344 16.9375 23.625 16.515625 24.125 16.144531 C 24.625 15.773438 25.144531 15.457031 25.683594 15.191406 C 26.222656 14.929688 26.769531 14.726562 27.328125 14.582031 C 27.882812 14.4375 28.441406 14.355469 28.992188 14.335938 C 29.546875 14.320312 30.085938 14.363281 30.617188 14.46875 C 31.144531 14.574219 31.652344 14.742188 32.136719 14.96875 Z M 32.136719 14.96875 "/><path style=" stroke:none;fill-rule:nonzero;fill:#312f84;fill-opacity:1;" d="M 29.796875 19.992188 C 30.015625 20.09375 30.21875 20.222656 30.40625 20.375 C 30.59375 20.527344 30.765625 20.703125 30.917969 20.898438 C 31.070312 21.097656 31.203125 21.3125 31.3125 21.546875 C 31.425781 21.78125 31.511719 22.03125 31.578125 22.292969 C 31.644531 22.554688 31.683594 22.828125 31.699219 23.105469 C 31.714844 23.386719 31.707031 23.671875 31.675781 23.960938 C 31.644531 24.246094 31.585938 24.53125 31.507812 24.816406 C 31.425781 25.101562 31.324219 25.375 31.199219 25.644531 C 31.074219 25.914062 30.929688 26.171875 30.761719 26.414062 C 30.597656 26.660156 30.414062 26.886719 30.214844 27.097656 C 30.019531 27.304688 29.804688 27.492188 29.582031 27.660156 C 29.355469 27.828125 29.121094 27.96875 28.878906 28.089844 C 28.636719 28.207031 28.390625 28.296875 28.140625 28.363281 C 27.890625 28.425781 27.640625 28.464844 27.394531 28.472656 C 27.144531 28.480469 26.902344 28.460938 26.664062 28.414062 C 26.425781 28.367188 26.199219 28.292969 25.984375 28.191406 C 25.765625 28.089844 25.5625 27.960938 25.375 27.808594 C 25.183594 27.65625 25.015625 27.480469 24.863281 27.28125 C 24.707031 27.085938 24.578125 26.871094 24.464844 26.636719 C 24.355469 26.402344 24.265625 26.152344 24.203125 25.890625 C 24.136719 25.628906 24.097656 25.355469 24.078125 25.074219 C 24.0625 24.796875 24.070312 24.511719 24.101562 24.222656 C 24.136719 23.9375 24.191406 23.648438 24.273438 23.367188 C 24.351562 23.082031 24.457031 22.804688 24.582031 22.535156 C 24.707031 22.265625 24.851562 22.011719 25.015625 21.765625 C 25.183594 21.523438 25.363281 21.296875 25.5625 21.085938 C 25.761719 20.875 25.972656 20.6875 26.199219 20.523438 C 26.421875 20.355469 26.65625 20.210938 26.898438 20.09375 C 27.140625 19.976562 27.386719 19.882812 27.636719 19.820312 C 27.886719 19.753906 28.136719 19.71875 28.386719 19.710938 C 28.632812 19.699219 28.878906 19.71875 29.113281 19.769531 C 29.351562 19.816406 29.578125 19.890625 29.796875 19.992188 Z M 29.796875 19.992188 "/><path style=" stroke:none;fill-rule:nonzero;fill:#8282db;fill-opacity:1;" d="M 17.164062 16.835938 C 17.164062 16.835938 14.339844 7.53125 11.472656 6.109375 C 8.605469 4.6875 9.535156 13.25 9.535156 13.25 Z M 17.164062 16.835938 "/><path style=" stroke:none;fill-rule:nonzero;fill:#8282db;fill-opacity:1;" d="M 15.652344 19.707031 C 15.652344 19.707031 7.226562 22.203125 6.070312 19.996094 C 4.914062 17.789062 7.863281 16.835938 7.863281 16.835938 Z M 15.652344 19.707031 "/><path style=" stroke:none;fill-rule:nonzero;fill:#5656bf;fill-opacity:1;" d="M 11.425781 14.359375 C 11.292969 14.359375 11.21875 14.292969 11.207031 14.160156 L 10.695312 8.375 C 10.691406 8.238281 10.757812 8.160156 10.894531 8.148438 C 11.03125 8.136719 11.109375 8.199219 11.132812 8.335938 L 11.644531 14.121094 C 11.65625 14.265625 11.589844 14.34375 11.445312 14.359375 Z M 11.425781 14.359375 "/><path style=" stroke:none;fill-rule:nonzero;fill:#5656bf;fill-opacity:1;" d="M 13.101562 15.148438 C 12.964844 15.148438 12.894531 15.078125 12.882812 14.941406 L 12.632812 11.410156 C 12.625 11.347656 12.640625 11.292969 12.679688 11.242188 C 12.71875 11.195312 12.769531 11.167969 12.832031 11.164062 C 12.894531 11.160156 12.949219 11.175781 12.996094 11.21875 C 13.042969 11.261719 13.066406 11.316406 13.070312 11.378906 L 13.316406 14.910156 C 13.324219 15.058594 13.257812 15.136719 13.113281 15.148438 Z M 13.101562 15.148438 "/><path style=" stroke:none;fill-rule:nonzero;fill:#5656bf;fill-opacity:1;" d="M 7.933594 19.503906 C 7.804688 19.507812 7.734375 19.441406 7.714844 19.316406 C 7.699219 19.1875 7.75 19.105469 7.875 19.074219 L 11.367188 18.097656 C 11.507812 18.054688 11.597656 18.105469 11.636719 18.246094 C 11.679688 18.386719 11.628906 18.480469 11.488281 18.519531 L 7.992188 19.496094 C 7.972656 19.503906 7.953125 19.503906 7.933594 19.503906 Z M 7.933594 19.503906 "/><path style=" stroke:none;fill-rule:nonzero;fill:#5656bf;fill-opacity:1;" d="M 28.433594 23.664062 L 28.410156 23.675781 C 28.230469 23.78125 28.042969 23.800781 27.84375 23.734375 L 8.777344 17.433594 C 8.339844 17.289062 7.984375 17.027344 7.714844 16.652344 C 7.445312 16.273438 7.308594 15.855469 7.308594 15.390625 C 7.308594 15.160156 7.34375 14.933594 7.417969 14.714844 C 7.515625 14.421875 7.671875 14.160156 7.882812 13.933594 C 8.09375 13.707031 8.339844 13.535156 8.625 13.414062 C 8.910156 13.296875 9.207031 13.242188 9.511719 13.25 C 9.820312 13.261719 10.113281 13.335938 10.390625 13.472656 L 28.398438 22.421875 C 28.523438 22.484375 28.621094 22.574219 28.6875 22.695312 C 28.789062 22.863281 28.8125 23.042969 28.761719 23.234375 C 28.710938 23.421875 28.601562 23.566406 28.433594 23.664062 Z M 28.433594 23.664062 "/></g></svg>