<svg xmlns="http://www.w3.org/2000/svg" xmlns:xlink="http://www.w3.org/1999/xlink" width="78" zoomAndPan="magnify" viewBox="0 0 58.5 48" height="64" preserveAspectRatio="xMidYMid meet" version="1.2"><defs><clipPath id="60efb2c129"><path d="M 12.0625 8.277344 L 42 8.277344 L 42 41.335938 L 12.0625 41.335938 Z M 12.0625 8.277344 "/></clipPath></defs><g id="82b35c6645"><g clip-rule="nonzero" clip-path="url(#60efb2c129)"><path style=" stroke:none;fill-rule:evenodd;fill:#000000;fill-opacity:1;" d="M 24.078125 21.457031 C 22.1875 22.902344 21.832031 25.613281 23.28125 27.496094 C 23.984375 28.410156 25 28.996094 26.144531 29.144531 C 27.289062 29.292969 28.421875 28.992188 29.335938 28.289062 C 31.226562 26.84375 31.582031 24.132812 30.132812 22.25 C 29.429688 21.335938 28.414062 20.753906 27.269531 20.601562 C 26.128906 20.453125 24.992188 20.757812 24.078125 21.457031 Z M 27.996094 15.734375 L 27.242188 19.757812 C 27.289062 19.761719 27.335938 19.769531 27.378906 19.773438 C 27.609375 19.804688 27.835938 19.847656 28.054688 19.90625 L 28.804688 15.886719 C 28.8125 15.886719 28.820312 15.886719 28.824219 15.886719 C 29.324219 15.886719 29.824219 15.730469 30.25 15.402344 C 31.273438 14.617188 31.46875 13.148438 30.683594 12.125 C 29.894531 11.105469 28.421875 10.910156 27.394531 11.695312 C 26.371094 12.480469 26.175781 13.953125 26.964844 14.972656 C 27.238281 15.332031 27.601562 15.585938 27.996094 15.734375 Z M 23.878906 20.574219 C 23.773438 20.640625 23.667969 20.714844 23.566406 20.792969 C 23.449219 20.882812 23.335938 20.980469 23.226562 21.078125 L 17.746094 14.039062 C 17.273438 14.3125 16.742188 14.457031 16.195312 14.457031 C 16.058594 14.457031 15.921875 14.449219 15.785156 14.429688 C 14.964844 14.320312 14.238281 13.902344 13.734375 13.25 C 13.230469 12.59375 13.011719 11.785156 13.121094 10.96875 C 13.230469 10.152344 13.648438 9.425781 14.304688 8.921875 C 14.84375 8.507812 15.488281 8.289062 16.15625 8.285156 L 16.214844 8.285156 C 16.339844 8.285156 16.464844 8.292969 16.59375 8.308594 C 17.410156 8.417969 18.140625 8.835938 18.644531 9.492188 C 19.59375 10.726562 19.460938 12.453125 18.394531 13.53125 Z M 21.578125 24.371094 L 18.628906 24.320312 C 18.566406 23.785156 18.363281 23.257812 18.007812 22.800781 C 17.503906 22.144531 16.777344 21.726562 15.957031 21.621094 C 15.140625 21.511719 14.328125 21.730469 13.671875 22.230469 C 12.316406 23.269531 12.0625 25.207031 13.101562 26.558594 C 13.605469 27.210938 14.332031 27.632812 15.152344 27.738281 C 15.289062 27.757812 15.425781 27.765625 15.5625 27.765625 C 16.238281 27.765625 16.894531 27.546875 17.441406 27.128906 C 18.097656 26.621094 18.496094 25.90625 18.613281 25.144531 L 21.5625 25.195312 C 21.546875 24.921875 21.550781 24.644531 21.578125 24.371094 Z M 25.824219 29.941406 L 25.199219 36.664062 C 24.769531 36.699219 24.339844 36.855469 23.972656 37.136719 C 22.945312 37.921875 22.753906 39.390625 23.539062 40.414062 C 24 41.011719 24.699219 41.328125 25.402344 41.328125 C 25.898438 41.328125 26.402344 41.171875 26.828125 40.84375 C 27.324219 40.464844 27.640625 39.914062 27.722656 39.296875 C 27.804688 38.675781 27.640625 38.0625 27.257812 37.566406 C 26.9375 37.148438 26.496094 36.867188 26.023438 36.738281 L 26.644531 30.019531 C 26.441406 30.015625 26.238281 30 26.035156 29.972656 C 25.964844 29.964844 25.894531 29.953125 25.824219 29.941406 Z M 30.480469 28.378906 C 30.671875 28.175781 30.84375 27.960938 30.992188 27.734375 L 35.910156 31.621094 C 35.992188 31.539062 36.078125 31.464844 36.171875 31.394531 C 36.828125 30.890625 37.640625 30.675781 38.460938 30.78125 C 39.28125 30.886719 40.007812 31.308594 40.511719 31.960938 C 41.550781 33.3125 41.296875 35.253906 39.941406 36.289062 C 39.394531 36.707031 38.742188 36.925781 38.0625 36.925781 C 37.929688 36.925781 37.792969 36.917969 37.652344 36.898438 C 36.835938 36.792969 36.105469 36.371094 35.601562 35.71875 C 34.808594 34.691406 34.773438 33.316406 35.398438 32.265625 Z M 31.640625 23.378906 C 31.5625 23.121094 31.464844 22.863281 31.339844 22.613281 L 35.6875 20.910156 C 35.40625 19.757812 35.808594 18.492188 36.808594 17.726562 C 38.164062 16.6875 40.109375 16.945312 41.148438 18.292969 C 42.1875 19.644531 41.929688 21.585938 40.578125 22.621094 C 40.015625 23.050781 39.355469 23.257812 38.695312 23.257812 C 37.765625 23.257812 36.847656 22.84375 36.238281 22.050781 C 36.144531 21.929688 36.0625 21.804688 35.992188 21.675781 Z M 31.640625 23.378906 "/></g></g></svg>