<svg xmlns="http://www.w3.org/2000/svg" xmlns:xlink="http://www.w3.org/1999/xlink" width="911" zoomAndPan="magnify" viewBox="0 0 683.25 87.749997" height="117" preserveAspectRatio="xMidYMid meet" version="1.2"><defs/><g id="b07535f4e1"><path style=" stroke:none;fill-rule:nonzero;fill:#393be5;fill-opacity:1;" d="M 13.933594 20.441406 L 615.777344 20.441406 L 615.777344 66.632812 L 13.933594 66.632812 L 13.933594 20.441406 "/><g style="fill:#ffffff;fill-opacity:1;"><g transform="translate(26.46967, 53.6337)"><path style="stroke:none" d="M 1.671875 0 L 1.671875 -23.34375 L 5 -23.34375 L 5 -3.328125 L 18.34375 -3.328125 L 18.34375 0 Z M 1.671875 0 "/></g></g><g style="fill:#ffffff;fill-opacity:1;"><g transform="translate(51.474038, 53.6337)"><path style="stroke:none" d="M 1.671875 0 L 1.671875 -23.34375 L 18.34375 -23.34375 L 18.34375 -20 L 5 -20 L 5 -13.34375 L 15 -13.34375 L 15 -10 L 5 -10 L 5 -3.328125 L 18.3125 -3.328125 L 18.3125 0 Z M 1.671875 0 "/></g></g><g style="fill:#ffffff;fill-opacity:1;"><g transform="translate(76.478406, 53.6337)"><path style="stroke:none" d="M 1.671875 0 L 1.671875 -20 L 5 -20 L 5 -10 L 15 -10 L 15 -20 L 18.34375 -20 L 18.34375 0 L 15 0 L 15 -6.671875 L 5 -6.671875 L 5 0 Z M 5 -20 L 5 -23.34375 L 15 -23.34375 L 15 -20 Z M 5 -20 "/></g></g><g style="fill:#ffffff;fill-opacity:1;"><g transform="translate(101.482774, 53.6337)"><path style="stroke:none" d="M 1.671875 0 L 1.671875 -23.34375 L 15 -23.34375 L 15 -20 L 5 -20 L 5 -13.34375 L 15 -13.34375 L 15 -10 L 11.671875 -10 L 11.671875 -6.671875 L 8.34375 -6.671875 L 8.34375 -10 L 5 -10 L 5 0 Z M 11.671875 -3.328125 L 11.671875 -6.671875 L 15 -6.671875 L 15 -3.328125 Z M 15 0 L 15 -3.328125 L 18.34375 -3.328125 L 18.34375 0 Z M 15 -13.34375 L 15 -20 L 18.34375 -20 L 18.34375 -13.34375 Z M 15 -13.34375 "/></g></g><g style="fill:#ffffff;fill-opacity:1;"><g transform="translate(126.487141, 53.6337)"><path style="stroke:none" d="M 15 0 L 15 -10 L 11.671875 -10 L 11.671875 -13.34375 L 15 -13.34375 L 15 -23.34375 L 18.34375 -23.34375 L 18.34375 0 Z M 1.671875 0 L 1.671875 -23.34375 L 5 -23.34375 L 5 -20 L 8.34375 -20 L 8.34375 -16.671875 L 5 -16.671875 L 5 0 Z M 8.34375 -13.34375 L 8.34375 -16.671875 L 11.671875 -16.671875 L 11.671875 -13.34375 Z M 8.34375 -13.34375 "/></g></g><g style="fill:#ffffff;fill-opacity:1;"><g transform="translate(151.491509, 53.6337)"><path style="stroke:none" d=""/></g></g><g style="fill:#ffffff;fill-opacity:1;"><g transform="translate(164.827378, 53.6337)"><path style="stroke:none" d="M 5 -20 L 5 -13.34375 L 1.671875 -13.34375 L 1.671875 -20 Z M 1.671875 -3.328125 L 1.671875 -6.671875 L 5 -6.671875 L 5 -3.328125 Z M 5 0 L 5 -3.328125 L 15 -3.328125 L 15 0 Z M 5 -10 L 5 -13.34375 L 15 -13.34375 L 15 -10 Z M 5 -20 L 5 -23.34375 L 15 -23.34375 L 15 -20 Z M 15 -3.328125 L 15 -10 L 18.34375 -10 L 18.34375 -3.328125 Z M 15 -16.671875 L 15 -20 L 18.34375 -20 L 18.34375 -16.671875 Z M 15 -16.671875 "/></g></g><g style="fill:#ffffff;fill-opacity:1;"><g transform="translate(189.831745, 53.6337)"><path style="stroke:none" d="M 15 0 L 15 -16.671875 L 11.671875 -16.671875 L 11.671875 -20 L 15 -20 L 15 -23.34375 L 18.34375 -23.34375 L 18.34375 0 Z M 1.671875 0 L 1.671875 -23.34375 L 5 -23.34375 L 5 -20 L 8.34375 -20 L 8.34375 -16.671875 L 5 -16.671875 L 5 0 Z M 8.34375 -13.34375 L 8.34375 -16.671875 L 11.671875 -16.671875 L 11.671875 -13.34375 Z M 8.34375 -13.34375 "/></g></g><g style="fill:#ffffff;fill-opacity:1;"><g transform="translate(214.836113, 53.6337)"><path style="stroke:none" d="M 1.671875 0 L 1.671875 -20 L 5 -20 L 5 -10 L 15 -10 L 15 -20 L 18.34375 -20 L 18.34375 0 L 15 0 L 15 -6.671875 L 5 -6.671875 L 5 0 Z M 5 -20 L 5 -23.34375 L 15 -23.34375 L 15 -20 Z M 5 -20 "/></g></g><g style="fill:#ffffff;fill-opacity:1;"><g transform="translate(239.840481, 53.6337)"><path style="stroke:none" d="M 1.671875 0 L 1.671875 -23.34375 L 15 -23.34375 L 15 -20 L 5 -20 L 5 -13.34375 L 15 -13.34375 L 15 -10 L 11.671875 -10 L 11.671875 -6.671875 L 8.34375 -6.671875 L 8.34375 -10 L 5 -10 L 5 0 Z M 11.671875 -3.328125 L 11.671875 -6.671875 L 15 -6.671875 L 15 -3.328125 Z M 15 0 L 15 -3.328125 L 18.34375 -3.328125 L 18.34375 0 Z M 15 -13.34375 L 15 -20 L 18.34375 -20 L 18.34375 -13.34375 Z M 15 -13.34375 "/></g></g><g style="fill:#ffffff;fill-opacity:1;"><g transform="translate(264.844849, 53.6337)"><path style="stroke:none" d="M 8.34375 0 L 8.34375 -20 L 1.671875 -20 L 1.671875 -23.34375 L 18.34375 -23.34375 L 18.34375 -20 L 11.671875 -20 L 11.671875 0 Z M 8.34375 0 "/></g></g><g style="fill:#ffffff;fill-opacity:1;"><g transform="translate(289.849216, 53.6337)"><path style="stroke:none" d="M 1.671875 0 L 1.671875 -23.34375 L 18.34375 -23.34375 L 18.34375 -20 L 5 -20 L 5 -13.34375 L 15 -13.34375 L 15 -10 L 5 -10 L 5 -3.328125 L 18.3125 -3.328125 L 18.3125 0 Z M 1.671875 0 "/></g></g><g style="fill:#ffffff;fill-opacity:1;"><g transform="translate(314.853584, 53.6337)"><path style="stroke:none" d="M 1.671875 0 L 1.671875 -23.34375 L 15 -23.34375 L 15 -20 L 5 -20 L 5 -13.34375 L 15 -13.34375 L 15 -10 L 11.671875 -10 L 11.671875 -6.671875 L 8.34375 -6.671875 L 8.34375 -10 L 5 -10 L 5 0 Z M 11.671875 -3.328125 L 11.671875 -6.671875 L 15 -6.671875 L 15 -3.328125 Z M 15 0 L 15 -3.328125 L 18.34375 -3.328125 L 18.34375 0 Z M 15 -13.34375 L 15 -20 L 18.34375 -20 L 18.34375 -13.34375 Z M 15 -13.34375 "/></g></g><g style="fill:#ffffff;fill-opacity:1;"><g transform="translate(339.857952, 53.6337)"><path style="stroke:none" d="M 1.671875 3.328125 L 1.671875 -3.328125 L 5 -3.328125 L 5 3.328125 Z M 1.671875 3.328125 "/></g></g><g style="fill:#ffffff;fill-opacity:1;"><g transform="translate(351.526908, 53.6337)"><path style="stroke:none" d=""/></g></g><g style="fill:#ffffff;fill-opacity:1;"><g transform="translate(364.862753, 53.6337)"><path style="stroke:none" d="M 15 0 L 15 -10 L 11.671875 -10 L 11.671875 -13.34375 L 15 -13.34375 L 15 -23.34375 L 18.34375 -23.34375 L 18.34375 0 Z M 1.671875 0 L 1.671875 -23.34375 L 5 -23.34375 L 5 -20 L 8.34375 -20 L 8.34375 -16.671875 L 5 -16.671875 L 5 0 Z M 8.34375 -13.34375 L 8.34375 -16.671875 L 11.671875 -16.671875 L 11.671875 -13.34375 Z M 8.34375 -13.34375 "/></g></g><g style="fill:#ffffff;fill-opacity:1;"><g transform="translate(389.867121, 53.6337)"><path style="stroke:none" d="M 15 -3.328125 L 15 0 L 5 0 L 5 -3.328125 Z M 1.671875 -3.328125 L 1.671875 -20 L 5 -20 L 5 -3.328125 Z M 5 -20 L 5 -23.34375 L 15 -23.34375 L 15 -20 Z M 15 -3.328125 L 15 -20 L 18.34375 -20 L 18.34375 -3.328125 Z M 15 -3.328125 "/></g></g><g style="fill:#ffffff;fill-opacity:1;"><g transform="translate(414.871489, 53.6337)"><path style="stroke:none" d="M 8.34375 0 L 8.34375 -20 L 1.671875 -20 L 1.671875 -23.34375 L 18.34375 -23.34375 L 18.34375 -20 L 11.671875 -20 L 11.671875 0 Z M 8.34375 0 "/></g></g><g style="fill:#ffffff;fill-opacity:1;"><g transform="translate(439.875856, 53.6337)"><path style="stroke:none" d=""/></g></g><g style="fill:#ffffff;fill-opacity:1;"><g transform="translate(453.211747, 53.6337)"><path style="stroke:none" d="M 1.671875 0 L 1.671875 -23.34375 L 5 -23.34375 L 5 -13.34375 L 15 -13.34375 L 15 -23.34375 L 18.34375 -23.34375 L 18.34375 0 L 15 0 L 15 -10 L 5 -10 L 5 0 Z M 1.671875 0 "/></g></g><g style="fill:#ffffff;fill-opacity:1;"><g transform="translate(478.216115, 53.6337)"><path style="stroke:none" d="M 1.671875 0 L 1.671875 -20 L 5 -20 L 5 -10 L 15 -10 L 15 -20 L 18.34375 -20 L 18.34375 0 L 15 0 L 15 -6.671875 L 5 -6.671875 L 5 0 Z M 5 -20 L 5 -23.34375 L 15 -23.34375 L 15 -20 Z M 5 -20 "/></g></g><g style="fill:#ffffff;fill-opacity:1;"><g transform="translate(503.220483, 53.6337)"><path style="stroke:none" d="M 1.671875 0 L 1.671875 -23.34375 L 15 -23.34375 L 15 -20 L 5 -20 L 5 -13.34375 L 15 -13.34375 L 15 -10 L 11.671875 -10 L 11.671875 -6.671875 L 8.34375 -6.671875 L 8.34375 -10 L 5 -10 L 5 0 Z M 11.671875 -3.328125 L 11.671875 -6.671875 L 15 -6.671875 L 15 -3.328125 Z M 15 0 L 15 -3.328125 L 18.34375 -3.328125 L 18.34375 0 Z M 15 -13.34375 L 15 -20 L 18.34375 -20 L 18.34375 -13.34375 Z M 15 -13.34375 "/></g></g><g style="fill:#ffffff;fill-opacity:1;"><g transform="translate(528.224851, 53.6337)"><path style="stroke:none" d="M 1.671875 0 L 1.671875 -23.34375 L 15 -23.34375 L 15 -20 L 5 -20 L 5 -3.328125 L 15 -3.328125 L 15 0 Z M 15 -3.328125 L 15 -20 L 18.34375 -20 L 18.34375 -3.328125 Z M 15 -3.328125 "/></g></g><g style="fill:#ffffff;fill-opacity:1;"><g transform="translate(553.229218, 53.6337)"><path style="stroke:none" d="M 1.671875 0 L 1.671875 -23.34375 L 18.34375 -23.34375 L 18.34375 -20 L 5 -20 L 5 -13.34375 L 15 -13.34375 L 15 -10 L 5 -10 L 5 -3.328125 L 18.3125 -3.328125 L 18.3125 0 Z M 1.671875 0 "/></g></g><g style="fill:#ffffff;fill-opacity:1;"><g transform="translate(578.233586, 53.6337)"><path style="stroke:none" d="M 1.671875 0 L 1.671875 -23.34375 L 15 -23.34375 L 15 -20 L 5 -20 L 5 -13.34375 L 15 -13.34375 L 15 -10 L 11.671875 -10 L 11.671875 -6.671875 L 8.34375 -6.671875 L 8.34375 -10 L 5 -10 L 5 0 Z M 11.671875 -3.328125 L 11.671875 -6.671875 L 15 -6.671875 L 15 -3.328125 Z M 15 0 L 15 -3.328125 L 18.34375 -3.328125 L 18.34375 0 Z M 15 -13.34375 L 15 -20 L 18.34375 -20 L 18.34375 -13.34375 Z M 15 -13.34375 "/></g></g><g style="fill:#ffffff;fill-opacity:1;"><g transform="translate(603.240465, 53.6337)"><path style="stroke:none" d=""/></g></g></g></svg>