<svg xmlns="http://www.w3.org/2000/svg" xmlns:xlink="http://www.w3.org/1999/xlink" width="75" zoomAndPan="magnify" viewBox="0 0 56.25 42" height="56" preserveAspectRatio="xMidYMid meet" version="1.2"><defs><clipPath id="bce512521d"><path d="M 7.230469 6.195312 L 47.523438 6.195312 L 47.523438 36.230469 L 7.230469 36.230469 Z M 7.230469 6.195312 "/></clipPath></defs><g id="8630db45ee"><g clip-rule="nonzero" clip-path="url(#bce512521d)"><path style=" stroke:none;fill-rule:nonzero;fill:#231f20;fill-opacity:1;" d="M 46.539062 6.195312 C 46.507812 6.195312 46.472656 6.199219 46.4375 6.199219 L 27.355469 8.203125 L 8.324219 6.222656 C 8.289062 6.222656 8.257812 6.21875 8.222656 6.21875 C 7.984375 6.21875 7.753906 6.308594 7.574219 6.46875 C 7.371094 6.65625 7.253906 6.917969 7.253906 7.195312 L 7.253906 33.257812 C 7.253906 33.757812 7.628906 34.175781 8.125 34.230469 L 27.15625 36.207031 C 27.210938 36.21875 27.265625 36.222656 27.324219 36.222656 L 27.328125 36.222656 C 27.359375 36.226562 27.394531 36.230469 27.425781 36.230469 C 27.519531 36.230469 27.605469 36.214844 27.695312 36.191406 L 46.640625 34.207031 C 47.136719 34.152344 47.511719 33.734375 47.511719 33.234375 L 47.511719 7.171875 C 47.511719 6.894531 47.394531 6.632812 47.191406 6.445312 C 47.011719 6.285156 46.777344 6.195312 46.539062 6.195312 Z M 46.539062 7.171875 L 46.539062 33.234375 L 27.425781 35.238281 L 27.425781 35.253906 L 27.355469 35.246094 L 27.335938 35.25 L 27.335938 35.246094 L 8.222656 33.257812 L 8.222656 7.195312 L 27.355469 9.183594 L 46.539062 7.171875 "/></g><path style=" stroke:none;fill-rule:nonzero;fill:#dfe2e0;fill-opacity:1;" d="M 27.425781 35.253906 L 8.222656 33.257812 L 8.222656 7.195312 L 27.425781 9.191406 L 27.425781 35.253906 "/><path style=" stroke:none;fill-rule:nonzero;fill:#989da0;fill-opacity:1;" d="M 26.621094 18.800781 L 9.027344 16.972656 L 9.027344 9.347656 L 26.621094 11.175781 L 26.621094 18.800781 "/><path style=" stroke:none;fill-rule:nonzero;fill:#989da0;fill-opacity:1;" d="M 26.621094 19.464844 L 20.949219 18.875 L 20.949219 19.324219 L 26.621094 19.914062 L 26.621094 19.464844 "/><path style=" stroke:none;fill-rule:nonzero;fill:#989da0;fill-opacity:1;" d="M 20.636719 18.84375 L 9.027344 17.636719 L 9.027344 18.085938 L 20.636719 19.289062 L 20.636719 18.84375 "/><path style=" stroke:none;fill-rule:nonzero;fill:#989da0;fill-opacity:1;" d="M 26.621094 20.492188 L 20.949219 19.902344 L 20.949219 20.351562 L 26.621094 20.941406 L 26.621094 20.492188 "/><path style=" stroke:none;fill-rule:nonzero;fill:#989da0;fill-opacity:1;" d="M 20.636719 19.871094 L 9.027344 18.664062 L 9.027344 19.113281 L 20.636719 20.316406 L 20.636719 19.871094 "/><path style=" stroke:none;fill-rule:nonzero;fill:#989da0;fill-opacity:1;" d="M 26.621094 21.519531 L 20.949219 20.933594 L 20.949219 21.378906 L 26.621094 21.96875 L 26.621094 21.519531 "/><path style=" stroke:none;fill-rule:nonzero;fill:#989da0;fill-opacity:1;" d="M 20.636719 20.898438 L 9.027344 19.695312 L 9.027344 20.140625 L 20.636719 21.34375 L 20.636719 20.898438 "/><path style=" stroke:none;fill-rule:nonzero;fill:#989da0;fill-opacity:1;" d="M 26.621094 22.550781 L 20.949219 21.960938 L 20.949219 22.40625 L 26.621094 22.996094 L 26.621094 22.550781 "/><path style=" stroke:none;fill-rule:nonzero;fill:#989da0;fill-opacity:1;" d="M 20.636719 21.925781 L 9.027344 20.722656 L 9.027344 21.167969 L 20.636719 22.375 L 20.636719 21.925781 "/><path style=" stroke:none;fill-rule:nonzero;fill:#989da0;fill-opacity:1;" d="M 26.621094 23.578125 L 20.949219 22.988281 L 20.949219 23.433594 L 26.621094 24.023438 L 26.621094 23.578125 "/><path style=" stroke:none;fill-rule:nonzero;fill:#989da0;fill-opacity:1;" d="M 20.636719 22.953125 L 9.027344 21.75 L 9.027344 22.195312 L 20.636719 23.402344 L 20.636719 22.953125 "/><path style=" stroke:none;fill-rule:nonzero;fill:#989da0;fill-opacity:1;" d="M 26.621094 24.605469 L 20.949219 24.015625 L 20.949219 24.460938 L 26.621094 25.050781 L 26.621094 24.605469 "/><path style=" stroke:none;fill-rule:nonzero;fill:#989da0;fill-opacity:1;" d="M 20.636719 23.980469 L 9.027344 22.777344 L 9.027344 23.222656 L 20.636719 24.429688 L 20.636719 23.980469 "/><path style=" stroke:none;fill-rule:nonzero;fill:#989da0;fill-opacity:1;" d="M 26.621094 25.632812 L 20.949219 25.042969 L 20.949219 25.488281 L 26.621094 26.078125 L 26.621094 25.632812 "/><path style=" stroke:none;fill-rule:nonzero;fill:#989da0;fill-opacity:1;" d="M 20.636719 25.007812 L 9.027344 23.804688 L 9.027344 24.25 L 20.636719 25.457031 L 20.636719 25.007812 "/><path style=" stroke:none;fill-rule:nonzero;fill:#989da0;fill-opacity:1;" d="M 26.621094 26.9375 L 21.027344 26.355469 L 21.027344 25.933594 L 26.621094 26.511719 L 26.621094 26.9375 "/><path style=" stroke:none;fill-rule:nonzero;fill:#989da0;fill-opacity:1;" d="M 26.621094 27.707031 L 21.027344 27.125 L 21.027344 26.703125 L 26.621094 27.285156 L 26.621094 27.707031 "/><path style=" stroke:none;fill-rule:nonzero;fill:#989da0;fill-opacity:1;" d="M 26.621094 28.476562 L 21.027344 27.894531 L 21.027344 27.472656 L 26.621094 28.054688 L 26.621094 28.476562 "/><path style=" stroke:none;fill-rule:nonzero;fill:#989da0;fill-opacity:1;" d="M 26.621094 29.25 L 21.027344 28.667969 L 21.027344 28.242188 L 26.621094 28.824219 L 26.621094 29.25 "/><path style=" stroke:none;fill-rule:nonzero;fill:#989da0;fill-opacity:1;" d="M 26.621094 30.019531 L 21.027344 29.4375 L 21.027344 29.015625 L 26.621094 29.59375 L 26.621094 30.019531 "/><path style=" stroke:none;fill-rule:nonzero;fill:#989da0;fill-opacity:1;" d="M 26.621094 30.789062 L 21.027344 30.207031 L 21.027344 29.785156 L 26.621094 30.367188 L 26.621094 30.789062 "/><path style=" stroke:none;fill-rule:nonzero;fill:#989da0;fill-opacity:1;" d="M 26.621094 31.558594 L 21.027344 30.980469 L 21.027344 30.554688 L 26.621094 31.136719 L 26.621094 31.558594 "/><path style=" stroke:none;fill-rule:nonzero;fill:#989da0;fill-opacity:1;" d="M 26.621094 32.332031 L 21.027344 31.75 L 21.027344 31.328125 L 26.621094 31.90625 L 26.621094 32.332031 "/><path style=" stroke:none;fill-rule:nonzero;fill:#989da0;fill-opacity:1;" d="M 26.621094 33.101562 L 21.027344 32.519531 L 21.027344 32.097656 L 26.621094 32.679688 L 26.621094 33.101562 "/><path style=" stroke:none;fill-rule:nonzero;fill:#989da0;fill-opacity:1;" d="M 20.621094 26.3125 L 15.027344 25.730469 L 15.027344 25.308594 L 20.621094 25.890625 L 20.621094 26.3125 "/><path style=" stroke:none;fill-rule:nonzero;fill:#989da0;fill-opacity:1;" d="M 20.621094 27.082031 L 15.027344 26.503906 L 15.027344 26.078125 L 20.621094 26.660156 L 20.621094 27.082031 "/><path style=" stroke:none;fill-rule:nonzero;fill:#989da0;fill-opacity:1;" d="M 20.621094 27.855469 L 15.027344 27.273438 L 15.027344 26.851562 L 20.621094 27.429688 L 20.621094 27.855469 "/><path style=" stroke:none;fill-rule:nonzero;fill:#989da0;fill-opacity:1;" d="M 20.621094 28.625 L 15.027344 28.042969 L 15.027344 27.621094 L 20.621094 28.203125 L 20.621094 28.625 "/><path style=" stroke:none;fill-rule:nonzero;fill:#989da0;fill-opacity:1;" d="M 20.621094 29.394531 L 15.027344 28.8125 L 15.027344 28.390625 L 20.621094 28.972656 L 20.621094 29.394531 "/><path style=" stroke:none;fill-rule:nonzero;fill:#989da0;fill-opacity:1;" d="M 20.621094 30.167969 L 15.027344 29.585938 L 15.027344 29.160156 L 20.621094 29.742188 L 20.621094 30.167969 "/><path style=" stroke:none;fill-rule:nonzero;fill:#989da0;fill-opacity:1;" d="M 20.621094 30.9375 L 15.027344 30.355469 L 15.027344 29.933594 L 20.621094 30.511719 L 20.621094 30.9375 "/><path style=" stroke:none;fill-rule:nonzero;fill:#989da0;fill-opacity:1;" d="M 20.621094 31.707031 L 15.027344 31.125 L 15.027344 30.703125 L 20.621094 31.285156 L 20.621094 31.707031 "/><path style=" stroke:none;fill-rule:nonzero;fill:#989da0;fill-opacity:1;" d="M 20.621094 32.476562 L 15.027344 31.898438 L 15.027344 31.472656 L 20.621094 32.054688 L 20.621094 32.476562 "/><path style=" stroke:none;fill-rule:nonzero;fill:#989da0;fill-opacity:1;" d="M 14.621094 31.855469 L 9.027344 31.273438 L 9.027344 24.683594 L 14.621094 25.265625 L 14.621094 31.855469 "/><path style=" stroke:none;fill-rule:nonzero;fill:#ffffff;fill-opacity:1;" d="M 46.539062 7.171875 L 27.335938 9.183594 L 27.335938 35.25 L 46.539062 33.234375 L 46.539062 7.171875 "/><path style=" stroke:none;fill-rule:nonzero;fill:#adb2b3;fill-opacity:1;" d="M 45.734375 23.625 L 28.140625 25.46875 L 28.140625 33.09375 L 45.734375 31.25 L 45.734375 23.625 "/><path style=" stroke:none;fill-rule:nonzero;fill:#c5c9c8;fill-opacity:1;" d="M 45.734375 22.960938 L 40.058594 23.554688 L 40.058594 23.109375 L 45.734375 22.515625 L 45.734375 22.960938 "/><path style=" stroke:none;fill-rule:nonzero;fill:#c5c9c8;fill-opacity:1;" d="M 39.75 23.585938 L 28.140625 24.804688 L 28.140625 24.359375 L 39.75 23.140625 L 39.75 23.585938 "/><path style=" stroke:none;fill-rule:nonzero;fill:#c5c9c8;fill-opacity:1;" d="M 45.734375 21.933594 L 40.058594 22.527344 L 40.058594 22.082031 L 45.734375 21.484375 L 45.734375 21.933594 "/><path style=" stroke:none;fill-rule:nonzero;fill:#c5c9c8;fill-opacity:1;" d="M 39.75 22.558594 L 28.140625 23.777344 L 28.140625 23.332031 L 39.75 22.113281 L 39.75 22.558594 "/><path style=" stroke:none;fill-rule:nonzero;fill:#c5c9c8;fill-opacity:1;" d="M 45.734375 20.90625 L 40.058594 21.5 L 40.058594 21.054688 L 45.734375 20.457031 L 45.734375 20.90625 "/><path style=" stroke:none;fill-rule:nonzero;fill:#c5c9c8;fill-opacity:1;" d="M 39.75 21.53125 L 28.140625 22.75 L 28.140625 22.300781 L 39.75 21.085938 L 39.75 21.53125 "/><path style=" stroke:none;fill-rule:nonzero;fill:#c5c9c8;fill-opacity:1;" d="M 45.734375 19.875 L 40.058594 20.472656 L 40.058594 20.027344 L 45.734375 19.429688 L 45.734375 19.875 "/><path style=" stroke:none;fill-rule:nonzero;fill:#c5c9c8;fill-opacity:1;" d="M 39.75 20.503906 L 28.140625 21.722656 L 28.140625 21.277344 L 39.75 20.058594 L 39.75 20.503906 "/><path style=" stroke:none;fill-rule:nonzero;fill:#c5c9c8;fill-opacity:1;" d="M 45.734375 18.847656 L 40.058594 19.445312 L 40.058594 18.996094 L 45.734375 18.402344 L 45.734375 18.847656 "/><path style=" stroke:none;fill-rule:nonzero;fill:#c5c9c8;fill-opacity:1;" d="M 39.75 19.476562 L 28.140625 20.695312 L 28.140625 20.246094 L 39.75 19.03125 L 39.75 19.476562 "/><path style=" stroke:none;fill-rule:nonzero;fill:#c5c9c8;fill-opacity:1;" d="M 45.734375 17.820312 L 40.058594 18.417969 L 40.058594 17.972656 L 45.734375 17.375 L 45.734375 17.820312 "/><path style=" stroke:none;fill-rule:nonzero;fill:#c5c9c8;fill-opacity:1;" d="M 39.75 18.449219 L 28.140625 19.667969 L 28.140625 19.21875 L 39.75 18.003906 L 39.75 18.449219 "/><path style=" stroke:none;fill-rule:nonzero;fill:#c5c9c8;fill-opacity:1;" d="M 45.734375 16.792969 L 40.058594 17.390625 L 40.058594 16.941406 L 45.734375 16.347656 L 45.734375 16.792969 "/><path style=" stroke:none;fill-rule:nonzero;fill:#c5c9c8;fill-opacity:1;" d="M 39.75 17.421875 L 28.140625 18.640625 L 28.140625 18.191406 L 39.75 16.976562 L 39.75 17.421875 "/><path style=" stroke:none;fill-rule:nonzero;fill:#c5c9c8;fill-opacity:1;" d="M 45.734375 15.488281 L 40.140625 16.074219 L 40.140625 16.5 L 45.734375 15.914062 L 45.734375 15.488281 "/><path style=" stroke:none;fill-rule:nonzero;fill:#c5c9c8;fill-opacity:1;" d="M 45.734375 14.71875 L 40.140625 15.304688 L 40.140625 15.726562 L 45.734375 15.140625 L 45.734375 14.71875 "/><path style=" stroke:none;fill-rule:nonzero;fill:#c5c9c8;fill-opacity:1;" d="M 45.734375 13.949219 L 40.140625 14.535156 L 40.140625 14.957031 L 45.734375 14.371094 L 45.734375 13.949219 "/><path style=" stroke:none;fill-rule:nonzero;fill:#c5c9c8;fill-opacity:1;" d="M 45.734375 13.175781 L 40.140625 13.765625 L 40.140625 14.1875 L 45.734375 13.601562 L 45.734375 13.175781 "/><path style=" stroke:none;fill-rule:nonzero;fill:#c5c9c8;fill-opacity:1;" d="M 45.734375 12.40625 L 40.140625 12.992188 L 40.140625 13.417969 L 45.734375 12.828125 L 45.734375 12.40625 "/><path style=" stroke:none;fill-rule:nonzero;fill:#c5c9c8;fill-opacity:1;" d="M 45.734375 11.636719 L 40.140625 12.222656 L 40.140625 12.644531 L 45.734375 12.058594 L 45.734375 11.636719 "/><path style=" stroke:none;fill-rule:nonzero;fill:#c5c9c8;fill-opacity:1;" d="M 45.734375 10.867188 L 40.140625 11.453125 L 40.140625 11.875 L 45.734375 11.289062 L 45.734375 10.867188 "/><path style=" stroke:none;fill-rule:nonzero;fill:#c5c9c8;fill-opacity:1;" d="M 45.734375 10.09375 L 40.140625 10.679688 L 40.140625 11.105469 L 45.734375 10.519531 L 45.734375 10.09375 "/><path style=" stroke:none;fill-rule:nonzero;fill:#c5c9c8;fill-opacity:1;" d="M 45.734375 9.324219 L 40.140625 9.910156 L 40.140625 10.335938 L 45.734375 9.746094 L 45.734375 9.324219 "/><path style=" stroke:none;fill-rule:nonzero;fill:#c5c9c8;fill-opacity:1;" d="M 39.734375 16.117188 L 34.140625 16.707031 L 34.140625 17.128906 L 39.734375 16.542969 L 39.734375 16.117188 "/><path style=" stroke:none;fill-rule:nonzero;fill:#c5c9c8;fill-opacity:1;" d="M 39.734375 15.347656 L 34.140625 15.933594 L 34.140625 16.359375 L 39.734375 15.769531 L 39.734375 15.347656 "/><path style=" stroke:none;fill-rule:nonzero;fill:#c5c9c8;fill-opacity:1;" d="M 39.734375 14.578125 L 34.140625 15.164062 L 34.140625 15.585938 L 39.734375 15 L 39.734375 14.578125 "/><path style=" stroke:none;fill-rule:nonzero;fill:#c5c9c8;fill-opacity:1;" d="M 39.734375 13.808594 L 34.140625 14.394531 L 34.140625 14.816406 L 39.734375 14.230469 L 39.734375 13.808594 "/><path style=" stroke:none;fill-rule:nonzero;fill:#c5c9c8;fill-opacity:1;" d="M 39.734375 13.035156 L 34.140625 13.625 L 34.140625 14.046875 L 39.734375 13.460938 L 39.734375 13.035156 "/><path style=" stroke:none;fill-rule:nonzero;fill:#c5c9c8;fill-opacity:1;" d="M 39.734375 12.265625 L 34.140625 12.851562 L 34.140625 13.273438 L 39.734375 12.6875 L 39.734375 12.265625 "/><path style=" stroke:none;fill-rule:nonzero;fill:#c5c9c8;fill-opacity:1;" d="M 39.734375 11.496094 L 34.140625 12.082031 L 34.140625 12.503906 L 39.734375 11.917969 L 39.734375 11.496094 "/><path style=" stroke:none;fill-rule:nonzero;fill:#c5c9c8;fill-opacity:1;" d="M 39.734375 10.722656 L 34.140625 11.3125 L 34.140625 11.734375 L 39.734375 11.148438 L 39.734375 10.722656 "/><path style=" stroke:none;fill-rule:nonzero;fill:#c5c9c8;fill-opacity:1;" d="M 39.734375 9.953125 L 34.140625 10.539062 L 34.140625 10.964844 L 39.734375 10.375 L 39.734375 9.953125 "/><path style=" stroke:none;fill-rule:nonzero;fill:#c5c9c8;fill-opacity:1;" d="M 33.734375 10.582031 L 28.140625 11.167969 L 28.140625 17.757812 L 33.734375 17.171875 L 33.734375 10.582031 "/></g></svg>