<svg xmlns="http://www.w3.org/2000/svg" xmlns:xlink="http://www.w3.org/1999/xlink" width="91" zoomAndPan="magnify" viewBox="0 0 68.25 77.25" height="103" preserveAspectRatio="xMidYMid meet" version="1.2"><defs><clipPath id="02cfb3bec1"><path d="M 7.664062 11.980469 L 59.59375 11.980469 L 59.59375 63.910156 L 7.664062 63.910156 Z M 7.664062 11.980469 "/></clipPath></defs><g id="eee28b7efc"><g clip-rule="nonzero" clip-path="url(#02cfb3bec1)"><path style=" stroke:none;fill-rule:nonzero;fill:#312f84;fill-opacity:1;" d="M 46.074219 35.050781 C 46.074219 28.195312 40.496094 22.621094 33.640625 22.621094 C 33.234375 22.621094 32.90625 22.949219 32.90625 23.355469 L 32.90625 26.996094 L 32.550781 26.996094 C 31.230469 26.996094 30.15625 28.070312 30.15625 29.390625 C 30.15625 30.710938 31.230469 31.785156 32.550781 31.785156 L 32.90625 31.785156 L 32.90625 34.316406 L 29.640625 34.316406 C 29.234375 34.316406 28.902344 34.644531 28.902344 35.050781 L 28.902344 36.140625 C 28.902344 36.652344 28.488281 37.066406 27.980469 37.066406 C 27.46875 37.066406 27.054688 36.652344 27.054688 36.140625 L 27.054688 35.050781 C 27.054688 34.644531 26.726562 34.316406 26.320312 34.316406 L 21.945312 34.316406 C 21.539062 34.316406 21.207031 34.644531 21.207031 35.050781 C 21.207031 38.507812 22.300781 40.203125 23.460938 41.992188 C 24.664062 43.855469 26.023438 45.957031 26.5 50.746094 C 25.355469 51.046875 24.507812 52.089844 24.507812 53.328125 L 24.507812 57.5 C 24.507812 58.972656 25.707031 60.171875 27.179688 60.171875 L 28.429688 60.171875 L 28.429688 61.375 C 28.429688 62.785156 29.578125 63.933594 30.988281 63.933594 L 36.292969 63.933594 C 37.703125 63.933594 38.851562 62.785156 38.851562 61.375 L 38.851562 60.171875 L 40.105469 60.171875 C 41.574219 60.171875 42.773438 58.972656 42.773438 57.5 L 42.773438 53.328125 C 42.773438 52.089844 41.925781 51.046875 40.78125 50.746094 C 41.261719 45.957031 42.617188 43.855469 43.820312 41.992188 C 44.980469 40.203125 46.074219 38.511719 46.074219 35.050781 Z M 41.300781 53.328125 L 41.300781 57.5 C 41.300781 58.160156 40.765625 58.699219 40.105469 58.699219 L 38.117188 58.699219 C 37.710938 58.699219 37.378906 59.027344 37.378906 59.433594 L 37.378906 61.375 C 37.378906 61.972656 36.890625 62.460938 36.292969 62.460938 L 30.988281 62.460938 C 30.390625 62.460938 29.902344 61.972656 29.902344 61.375 L 29.902344 59.433594 C 29.902344 59.027344 29.574219 58.699219 29.164062 58.699219 L 27.179688 58.699219 C 26.519531 58.699219 25.980469 58.160156 25.980469 57.5 L 25.980469 53.328125 C 25.980469 52.667969 26.519531 52.128906 27.179688 52.128906 L 40.105469 52.128906 C 40.765625 52.128906 41.300781 52.667969 41.300781 53.328125 Z M 39.3125 50.65625 L 27.972656 50.65625 C 27.464844 45.480469 26 43.207031 24.695312 41.191406 C 23.667969 39.597656 22.832031 38.3125 22.699219 35.789062 L 25.582031 35.789062 L 25.582031 36.140625 C 25.582031 37.460938 26.65625 38.539062 27.980469 38.539062 C 29.300781 38.539062 30.375 37.460938 30.375 36.140625 L 30.375 35.789062 L 33.640625 35.789062 C 34.046875 35.789062 34.378906 35.457031 34.378906 35.050781 L 34.378906 31.050781 C 34.378906 30.644531 34.046875 30.3125 33.640625 30.3125 L 32.550781 30.3125 C 32.042969 30.3125 31.628906 29.898438 31.628906 29.390625 C 31.628906 28.882812 32.042969 28.464844 32.550781 28.464844 L 33.640625 28.464844 C 34.046875 28.464844 34.378906 28.136719 34.378906 27.730469 L 34.378906 24.117188 C 40.078125 24.496094 44.601562 29.257812 44.601562 35.050781 C 44.601562 38.074219 43.710938 39.453125 42.585938 41.191406 C 41.285156 43.207031 39.816406 45.480469 39.3125 50.65625 Z M 25.117188 30.882812 L 25.117188 30.53125 L 28.382812 30.53125 C 28.789062 30.53125 29.117188 30.199219 29.117188 29.792969 L 29.117188 25.792969 C 29.117188 25.386719 28.789062 25.054688 28.382812 25.054688 L 27.292969 25.054688 C 26.785156 25.054688 26.371094 24.640625 26.371094 24.132812 C 26.371094 23.621094 26.785156 23.207031 27.292969 23.207031 L 28.382812 23.207031 C 28.789062 23.207031 29.117188 22.878906 29.117188 22.472656 L 29.117188 18.097656 C 29.117188 17.902344 29.042969 17.714844 28.902344 17.578125 C 28.765625 17.4375 28.578125 17.359375 28.382812 17.359375 C 21.527344 17.359375 15.949219 22.9375 15.949219 29.792969 C 15.949219 30.199219 16.28125 30.53125 16.6875 30.53125 L 20.324219 30.53125 L 20.324219 30.882812 C 20.324219 32.203125 21.398438 33.277344 22.722656 33.277344 C 24.042969 33.277344 25.117188 32.203125 25.117188 30.882812 Z M 21.796875 30.882812 L 21.796875 29.792969 C 21.796875 29.386719 21.46875 29.058594 21.0625 29.058594 L 17.445312 29.058594 C 17.8125 23.597656 22.1875 19.222656 27.644531 18.859375 L 27.644531 21.734375 L 27.292969 21.734375 C 25.972656 21.734375 24.898438 22.8125 24.898438 24.132812 C 24.898438 25.453125 25.972656 26.527344 27.292969 26.527344 L 27.644531 26.527344 L 27.644531 29.058594 L 24.382812 29.058594 C 23.972656 29.058594 23.644531 29.386719 23.644531 29.792969 L 23.644531 30.882812 C 23.644531 31.390625 23.230469 31.808594 22.722656 31.808594 C 22.210938 31.808594 21.796875 31.390625 21.796875 30.882812 Z M 17.878906 48.308594 C 17.878906 48.714844 17.546875 49.046875 17.140625 49.046875 L 14.847656 49.046875 C 14.441406 49.046875 14.109375 48.714844 14.109375 48.308594 C 14.109375 47.902344 14.441406 47.574219 14.847656 47.574219 L 17.140625 47.574219 C 17.546875 47.574219 17.878906 47.902344 17.878906 48.308594 Z M 13.507812 43.941406 L 13.507812 46.234375 C 13.507812 46.640625 13.175781 46.972656 12.769531 46.972656 C 12.363281 46.972656 12.035156 46.640625 12.035156 46.234375 L 12.035156 43.941406 C 12.035156 43.535156 12.363281 43.203125 12.769531 43.203125 C 13.175781 43.203125 13.507812 43.535156 13.507812 43.941406 Z M 11.433594 48.308594 C 11.433594 48.714844 11.101562 49.046875 10.695312 49.046875 L 8.402344 49.046875 C 7.996094 49.046875 7.664062 48.714844 7.664062 48.308594 C 7.664062 47.902344 7.996094 47.574219 8.402344 47.574219 L 10.695312 47.574219 C 11.101562 47.574219 11.433594 47.902344 11.433594 48.308594 Z M 13.507812 50.386719 L 13.507812 52.679688 C 13.507812 53.085938 13.175781 53.417969 12.769531 53.417969 C 12.363281 53.417969 12.035156 53.085938 12.035156 52.679688 L 12.035156 50.386719 C 12.035156 49.980469 12.363281 49.648438 12.769531 49.648438 C 13.175781 49.648438 13.507812 49.980469 13.507812 50.386719 Z M 13.507812 19.164062 L 13.507812 21.457031 C 13.507812 21.863281 13.175781 22.191406 12.769531 22.191406 C 12.363281 22.191406 12.035156 21.863281 12.035156 21.457031 L 12.035156 19.164062 C 12.035156 18.753906 12.363281 18.425781 12.769531 18.425781 C 13.175781 18.425781 13.507812 18.753906 13.507812 19.164062 Z M 14.109375 17.085938 C 14.109375 16.679688 14.441406 16.351562 14.847656 16.351562 L 17.140625 16.351562 C 17.546875 16.351562 17.878906 16.679688 17.878906 17.085938 C 17.878906 17.492188 17.546875 17.824219 17.140625 17.824219 L 14.847656 17.824219 C 14.441406 17.824219 14.109375 17.492188 14.109375 17.085938 Z M 13.507812 12.71875 L 13.507812 15.011719 C 13.507812 15.417969 13.175781 15.746094 12.769531 15.746094 C 12.363281 15.746094 12.035156 15.417969 12.035156 15.011719 L 12.035156 12.71875 C 12.035156 12.308594 12.363281 11.980469 12.769531 11.980469 C 13.175781 11.980469 13.507812 12.308594 13.507812 12.71875 Z M 11.433594 17.085938 C 11.433594 17.492188 11.101562 17.824219 10.695312 17.824219 L 8.402344 17.824219 C 7.996094 17.824219 7.664062 17.492188 7.664062 17.085938 C 7.664062 16.679688 7.996094 16.351562 8.402344 16.351562 L 10.695312 16.351562 C 11.101562 16.351562 11.433594 16.679688 11.433594 17.085938 Z M 53.171875 58.828125 C 53.171875 59.234375 52.84375 59.5625 52.4375 59.5625 L 50.140625 59.5625 C 49.734375 59.5625 49.40625 59.234375 49.40625 58.828125 C 49.40625 58.421875 49.734375 58.089844 50.140625 58.089844 L 52.4375 58.089844 C 52.84375 58.089844 53.171875 58.421875 53.171875 58.828125 Z M 59.617188 58.828125 C 59.617188 59.234375 59.289062 59.5625 58.882812 59.5625 L 56.585938 59.5625 C 56.179688 59.5625 55.851562 59.234375 55.851562 58.828125 C 55.851562 58.421875 56.179688 58.089844 56.585938 58.089844 L 58.882812 58.089844 C 59.289062 58.089844 59.617188 58.421875 59.617188 58.828125 Z M 55.246094 54.457031 L 55.246094 56.75 C 55.246094 57.160156 54.917969 57.488281 54.511719 57.488281 C 54.105469 57.488281 53.773438 57.160156 53.773438 56.75 L 53.773438 54.457031 C 53.773438 54.050781 54.105469 53.722656 54.511719 53.722656 C 54.917969 53.722656 55.246094 54.050781 55.246094 54.457031 Z M 55.246094 60.902344 L 55.246094 63.195312 C 55.246094 63.605469 54.917969 63.933594 54.511719 63.933594 C 54.105469 63.933594 53.773438 63.605469 53.773438 63.195312 L 53.773438 60.902344 C 53.773438 60.496094 54.105469 60.167969 54.511719 60.167969 C 54.917969 60.167969 55.246094 60.496094 55.246094 60.902344 Z M 44.15625 24.539062 C 43.867188 24.25 43.867188 23.785156 44.15625 23.496094 L 48.914062 18.738281 C 49.199219 18.449219 49.667969 18.449219 49.953125 18.738281 C 50.242188 19.027344 50.242188 19.492188 49.953125 19.78125 L 45.195312 24.539062 C 45.050781 24.683594 44.863281 24.753906 44.675781 24.753906 C 44.488281 24.753906 44.296875 24.683594 44.15625 24.539062 Z M 49.433594 51.582031 C 49.246094 51.582031 49.058594 51.507812 48.914062 51.367188 L 44.15625 46.605469 C 43.867188 46.320312 43.867188 45.851562 44.15625 45.566406 C 44.441406 45.277344 44.910156 45.277344 45.195312 45.566406 L 49.953125 50.324219 C 50.242188 50.613281 50.242188 51.078125 49.953125 51.367188 C 49.8125 51.507812 49.621094 51.582031 49.433594 51.582031 Z M 49.246094 34.316406 L 55.976562 34.316406 C 56.382812 34.316406 56.710938 34.644531 56.710938 35.050781 C 56.710938 35.457031 56.382812 35.789062 55.976562 35.789062 L 49.246094 35.789062 C 48.839844 35.789062 48.507812 35.457031 48.507812 35.050781 C 48.507812 34.644531 48.839844 34.316406 49.246094 34.316406 Z M 32.90625 19.449219 L 32.90625 12.71875 C 32.90625 12.308594 33.234375 11.980469 33.640625 11.980469 C 34.046875 11.980469 34.378906 12.308594 34.378906 12.71875 L 34.378906 19.449219 C 34.378906 19.855469 34.046875 20.183594 33.640625 20.183594 C 33.234375 20.183594 32.90625 19.855469 32.90625 19.449219 Z M 32.90625 19.449219 "/></g></g></svg>