<svg xmlns="http://www.w3.org/2000/svg" xmlns:xlink="http://www.w3.org/1999/xlink" width="118" zoomAndPan="magnify" viewBox="0 0 88.5 65.249999" height="87" preserveAspectRatio="xMidYMid meet" version="1.2"><defs><clipPath id="fc08d16ab6"><path d="M 9.585938 0 L 78.542969 0 L 78.542969 64.507812 L 9.585938 64.507812 Z M 9.585938 0 "/></clipPath></defs><g id="2bb3554dda"><g clip-rule="nonzero" clip-path="url(#fc08d16ab6)"><path style=" stroke:none;fill-rule:nonzero;fill:#312f84;fill-opacity:1;" d="M 76.664062 64.394531 C 77.574219 64.394531 78.273438 63.695312 78.273438 62.78125 L 78.273438 57.417969 C 78.273438 56.503906 77.574219 55.808594 76.664062 55.808594 L 74.515625 55.808594 L 74.515625 6.4375 L 76.664062 6.4375 C 77.574219 6.4375 78.273438 5.742188 78.273438 4.828125 L 78.273438 1.609375 C 78.273438 0.699219 77.574219 0 76.664062 0 L 11.195312 0 C 10.285156 0 9.585938 0.699219 9.585938 1.609375 L 9.585938 4.828125 C 9.585938 5.742188 10.285156 6.4375 11.195312 6.4375 L 13.34375 6.4375 L 13.34375 55.808594 L 11.195312 55.808594 C 10.285156 55.808594 9.585938 56.503906 9.585938 57.417969 L 9.585938 62.78125 C 9.585938 63.695312 10.285156 64.394531 11.195312 64.394531 Z M 11.195312 5.367188 C 10.875 5.367188 10.660156 5.152344 10.660156 4.828125 L 10.660156 1.609375 C 10.660156 1.289062 10.875 1.074219 11.195312 1.074219 L 76.664062 1.074219 C 76.984375 1.074219 77.199219 1.289062 77.199219 1.609375 L 77.199219 4.828125 C 77.199219 5.152344 76.984375 5.367188 76.664062 5.367188 Z M 51.441406 40.246094 L 73.441406 40.246094 L 73.441406 55.808594 L 44.464844 55.808594 L 44.464844 40.246094 Z M 47.6875 39.171875 L 47.6875 27.367188 L 50.90625 27.367188 L 50.90625 39.171875 Z M 54.125 39.171875 L 54.125 27.367188 L 57.34375 27.367188 L 57.34375 39.171875 Z M 60.566406 39.171875 L 60.566406 27.367188 L 63.785156 27.367188 L 63.785156 39.171875 Z M 67.003906 39.171875 L 67.003906 27.367188 L 70.222656 27.367188 L 70.222656 39.171875 Z M 71.296875 39.171875 L 71.296875 26.832031 C 71.296875 26.507812 71.082031 26.292969 70.761719 26.292969 L 66.46875 26.292969 C 66.144531 26.292969 65.929688 26.507812 65.929688 26.832031 L 65.929688 39.171875 L 64.855469 39.171875 L 64.855469 26.832031 C 64.855469 26.507812 64.644531 26.292969 64.320312 26.292969 L 60.027344 26.292969 C 59.707031 26.292969 59.492188 26.507812 59.492188 26.832031 L 59.492188 39.171875 L 58.417969 39.171875 L 58.417969 26.832031 C 58.417969 26.507812 58.203125 26.292969 57.882812 26.292969 L 53.589844 26.292969 C 53.265625 26.292969 53.050781 26.507812 53.050781 26.832031 L 53.050781 39.171875 L 51.980469 39.171875 L 51.980469 26.832031 C 51.980469 26.507812 51.765625 26.292969 51.441406 26.292969 L 47.148438 26.292969 C 46.828125 26.292969 46.613281 26.507812 46.613281 26.832031 L 46.613281 39.171875 L 44.464844 39.171875 L 44.464844 23.074219 L 73.441406 23.074219 L 73.441406 39.171875 Z M 46.613281 22 L 46.613281 19.855469 L 59.492188 19.855469 L 59.492188 22 Z M 64.535156 21.679688 L 60.992188 9.285156 L 63.03125 8.691406 L 66.574219 21.089844 Z M 69.363281 21.679688 L 65.824219 9.285156 L 67.863281 8.691406 L 71.402344 21.089844 Z M 72.15625 22 L 72.261719 21.945312 C 72.421875 21.894531 72.53125 21.839844 72.585938 21.679688 C 72.636719 21.570312 72.691406 21.410156 72.636719 21.25 L 68.773438 7.835938 C 68.667969 7.566406 68.398438 7.40625 68.128906 7.457031 L 65.019531 8.371094 C 64.855469 8.425781 64.75 8.476562 64.695312 8.640625 C 64.644531 8.746094 64.589844 8.90625 64.644531 9.070312 L 68.34375 22 L 67.324219 22 L 67.433594 21.945312 C 67.59375 21.894531 67.703125 21.839844 67.753906 21.679688 C 67.808594 21.570312 67.863281 21.410156 67.808594 21.25 L 63.945312 7.835938 C 63.835938 7.566406 63.570312 7.40625 63.300781 7.457031 L 60.1875 8.371094 C 60.027344 8.425781 59.921875 8.476562 59.867188 8.640625 C 59.8125 8.746094 59.757812 8.90625 59.8125 9.070312 L 59.8125 9.121094 L 46.078125 9.121094 C 45.753906 9.121094 45.539062 9.335938 45.539062 9.660156 L 45.539062 12.878906 C 45.539062 13.199219 45.753906 13.414062 46.078125 13.414062 L 60.027344 13.414062 C 60.351562 13.414062 60.566406 13.199219 60.566406 12.878906 L 60.566406 11.75 L 63.515625 22 L 60.566406 22 L 60.566406 19.316406 C 60.566406 18.996094 60.351562 18.78125 60.027344 18.78125 L 46.078125 18.78125 C 45.753906 18.78125 45.539062 18.996094 45.539062 19.316406 L 45.539062 22 L 44.464844 22 L 44.464844 6.4375 L 73.441406 6.4375 L 73.441406 22 Z M 59.492188 10.195312 L 59.492188 12.34375 L 46.613281 12.34375 L 46.613281 10.195312 Z M 41.785156 42.929688 L 37.492188 42.929688 C 37.167969 42.929688 36.953125 43.144531 36.953125 43.464844 L 36.953125 55.808594 L 35.878906 55.808594 L 35.878906 43.464844 C 35.878906 43.144531 35.667969 42.929688 35.34375 42.929688 L 31.050781 42.929688 C 30.730469 42.929688 30.515625 43.144531 30.515625 43.464844 L 30.515625 55.808594 L 14.417969 55.808594 L 14.417969 40.246094 L 43.394531 40.246094 L 43.394531 55.808594 L 42.320312 55.808594 L 42.320312 43.464844 C 42.320312 43.144531 42.105469 42.929688 41.785156 42.929688 Z M 41.246094 44 L 41.246094 55.808594 L 38.027344 55.808594 L 38.027344 44 Z M 34.808594 44 L 34.808594 55.808594 L 31.585938 55.808594 L 31.585938 44 Z M 16.5625 39.171875 L 16.5625 35.953125 L 31.585938 35.953125 L 31.585938 39.171875 Z M 38.242188 39.171875 L 40.765625 38.097656 C 40.871094 38.046875 40.976562 37.9375 41.03125 37.832031 C 41.085938 37.722656 41.085938 37.5625 41.03125 37.402344 L 36.042969 25.542969 C 35.933594 25.273438 35.613281 25.167969 35.34375 25.273438 L 31.375 26.9375 C 31.265625 26.992188 31.160156 27.097656 31.105469 27.207031 C 31.050781 27.3125 31.050781 27.472656 31.105469 27.636719 L 31.425781 28.441406 L 16.027344 28.441406 C 15.703125 28.441406 15.488281 28.65625 15.488281 28.976562 L 15.488281 33.269531 C 15.488281 33.589844 15.703125 33.804688 16.027344 33.804688 L 32.125 33.804688 C 32.445312 33.804688 32.660156 33.589844 32.660156 33.269531 L 32.660156 31.335938 L 35.933594 39.171875 L 32.660156 39.171875 L 32.660156 35.414062 C 32.660156 35.09375 32.445312 34.878906 32.125 34.878906 L 16.027344 34.878906 C 15.703125 34.878906 15.488281 35.09375 15.488281 35.414062 L 15.488281 39.171875 L 14.417969 39.171875 L 14.417969 23.074219 L 43.394531 23.074219 L 43.394531 39.171875 Z M 36.898438 38.582031 L 32.339844 27.6875 L 35.289062 26.453125 L 39.851562 37.347656 Z M 31.585938 29.511719 L 31.585938 32.734375 L 16.5625 32.734375 L 16.5625 29.511719 Z M 16.5625 22 L 16.5625 10.195312 L 19.78125 10.195312 L 19.78125 22 Z M 23.003906 22 L 23.003906 10.195312 L 26.222656 10.195312 L 26.222656 22 Z M 29.441406 22 L 29.441406 10.195312 L 32.660156 10.195312 L 32.660156 22 Z M 37.8125 22 L 33.734375 22 L 33.734375 12.289062 Z M 34.269531 10.730469 L 37.222656 9.496094 L 41.785156 20.390625 L 38.832031 21.625 Z M 40.710938 22 L 42.695312 21.140625 C 42.964844 21.035156 43.070312 20.714844 42.964844 20.445312 L 37.972656 8.585938 C 37.917969 8.476562 37.8125 8.371094 37.707031 8.316406 C 37.597656 8.265625 37.4375 8.265625 37.277344 8.316406 L 33.734375 9.820312 L 33.734375 9.660156 C 33.734375 9.335938 33.519531 9.121094 33.199219 9.121094 L 28.90625 9.121094 C 28.582031 9.121094 28.367188 9.335938 28.367188 9.660156 L 28.367188 22 L 27.296875 22 L 27.296875 9.660156 C 27.296875 9.335938 27.082031 9.121094 26.757812 9.121094 L 22.464844 9.121094 C 22.144531 9.121094 21.929688 9.335938 21.929688 9.660156 L 21.929688 22 L 20.855469 22 L 20.855469 9.660156 C 20.855469 9.335938 20.640625 9.121094 20.320312 9.121094 L 16.027344 9.121094 C 15.703125 9.121094 15.488281 9.335938 15.488281 9.660156 L 15.488281 22 L 14.417969 22 L 14.417969 6.4375 L 43.394531 6.4375 L 43.394531 22 Z M 10.660156 62.78125 L 10.660156 57.417969 C 10.660156 57.09375 10.875 56.878906 11.195312 56.878906 L 76.664062 56.878906 C 76.984375 56.878906 77.199219 57.09375 77.199219 57.417969 L 77.199219 62.78125 C 77.199219 63.105469 76.984375 63.320312 76.664062 63.320312 L 11.195312 63.320312 C 10.875 63.320312 10.660156 63.105469 10.660156 62.78125 Z M 10.660156 62.78125 "/></g><path style=" stroke:none;fill-rule:nonzero;fill:#312f84;fill-opacity:1;" d="M 18.710938 11.269531 L 17.636719 11.269531 C 17.3125 11.269531 17.097656 11.484375 17.097656 11.804688 C 17.097656 12.128906 17.3125 12.34375 17.636719 12.34375 L 18.710938 12.34375 C 19.03125 12.34375 19.246094 12.128906 19.246094 11.804688 C 19.246094 11.484375 19.03125 11.269531 18.710938 11.269531 Z M 18.710938 11.269531 "/><path style=" stroke:none;fill-rule:nonzero;fill:#312f84;fill-opacity:1;" d="M 18.710938 13.414062 L 17.636719 13.414062 C 17.3125 13.414062 17.097656 13.628906 17.097656 13.953125 C 17.097656 14.273438 17.3125 14.488281 17.636719 14.488281 L 18.710938 14.488281 C 19.03125 14.488281 19.246094 14.273438 19.246094 13.953125 C 19.246094 13.628906 19.03125 13.414062 18.710938 13.414062 Z M 18.710938 13.414062 "/><path style=" stroke:none;fill-rule:nonzero;fill:#312f84;fill-opacity:1;" d="M 25.148438 11.269531 L 24.074219 11.269531 C 23.753906 11.269531 23.539062 11.484375 23.539062 11.804688 C 23.539062 12.128906 23.753906 12.34375 24.074219 12.34375 L 25.148438 12.34375 C 25.46875 12.34375 25.683594 12.128906 25.683594 11.804688 C 25.683594 11.484375 25.46875 11.269531 25.148438 11.269531 Z M 25.148438 11.269531 "/><path style=" stroke:none;fill-rule:nonzero;fill:#312f84;fill-opacity:1;" d="M 25.148438 13.414062 L 24.074219 13.414062 C 23.753906 13.414062 23.539062 13.628906 23.539062 13.953125 C 23.539062 14.273438 23.753906 14.488281 24.074219 14.488281 L 25.148438 14.488281 C 25.46875 14.488281 25.683594 14.273438 25.683594 13.953125 C 25.683594 13.628906 25.46875 13.414062 25.148438 13.414062 Z M 25.148438 13.414062 "/><path style=" stroke:none;fill-rule:nonzero;fill:#312f84;fill-opacity:1;" d="M 31.585938 11.269531 L 30.515625 11.269531 C 30.191406 11.269531 29.976562 11.484375 29.976562 11.804688 C 29.976562 12.128906 30.191406 12.34375 30.515625 12.34375 L 31.585938 12.34375 C 31.910156 12.34375 32.125 12.128906 32.125 11.804688 C 32.125 11.484375 31.910156 11.269531 31.585938 11.269531 Z M 31.585938 11.269531 "/><path style=" stroke:none;fill-rule:nonzero;fill:#312f84;fill-opacity:1;" d="M 31.585938 13.414062 L 30.515625 13.414062 C 30.191406 13.414062 29.976562 13.628906 29.976562 13.953125 C 29.976562 14.273438 30.191406 14.488281 30.515625 14.488281 L 31.585938 14.488281 C 31.910156 14.488281 32.125 14.273438 32.125 13.953125 C 32.125 13.628906 31.910156 13.414062 31.585938 13.414062 Z M 31.585938 13.414062 "/><path style=" stroke:none;fill-rule:nonzero;fill:#312f84;fill-opacity:1;" d="M 37.382812 11.109375 C 37.277344 10.839844 36.953125 10.730469 36.6875 10.839844 L 35.667969 11.269531 C 35.398438 11.375 35.289062 11.699219 35.398438 11.964844 C 35.503906 12.179688 35.667969 12.289062 35.878906 12.289062 C 35.933594 12.289062 36.042969 12.289062 36.09375 12.234375 L 37.0625 11.804688 C 37.382812 11.699219 37.492188 11.375 37.382812 11.109375 Z M 37.382812 11.109375 "/><path style=" stroke:none;fill-rule:nonzero;fill:#312f84;fill-opacity:1;" d="M 37.492188 12.824219 L 36.523438 13.253906 C 36.257812 13.363281 36.148438 13.683594 36.257812 13.953125 C 36.363281 14.167969 36.523438 14.273438 36.738281 14.273438 C 36.792969 14.273438 36.898438 14.273438 36.953125 14.21875 L 37.917969 13.789062 C 38.1875 13.683594 38.296875 13.363281 38.1875 13.09375 C 38.082031 12.824219 37.757812 12.664062 37.492188 12.824219 Z M 37.492188 12.824219 "/><path style=" stroke:none;fill-rule:nonzero;fill:#312f84;fill-opacity:1;" d="M 21.390625 30.585938 L 22.464844 30.585938 L 22.464844 31.660156 L 21.390625 31.660156 Z M 21.390625 30.585938 "/><path style=" stroke:none;fill-rule:nonzero;fill:#312f84;fill-opacity:1;" d="M 21.390625 37.027344 L 22.464844 37.027344 L 22.464844 38.097656 L 21.390625 38.097656 Z M 21.390625 37.027344 "/><path style=" stroke:none;fill-rule:nonzero;fill:#312f84;fill-opacity:1;" d="M 23.539062 30.585938 L 24.613281 30.585938 L 24.613281 31.660156 L 23.539062 31.660156 Z M 23.539062 30.585938 "/><path style=" stroke:none;fill-rule:nonzero;fill:#312f84;fill-opacity:1;" d="M 23.539062 37.027344 L 24.613281 37.027344 L 24.613281 38.097656 L 23.539062 38.097656 Z M 23.539062 37.027344 "/><path style=" stroke:none;fill-rule:nonzero;fill:#312f84;fill-opacity:1;" d="M 25.683594 30.585938 L 26.757812 30.585938 L 26.757812 31.660156 L 25.683594 31.660156 Z M 25.683594 30.585938 "/><path style=" stroke:none;fill-rule:nonzero;fill:#312f84;fill-opacity:1;" d="M 25.683594 37.027344 L 26.757812 37.027344 L 26.757812 38.097656 L 25.683594 38.097656 Z M 25.683594 37.027344 "/><path style=" stroke:none;fill-rule:nonzero;fill:#312f84;fill-opacity:1;" d="M 45.539062 17.707031 C 45.539062 18.03125 45.753906 18.246094 46.078125 18.246094 L 60.027344 18.246094 C 60.351562 18.246094 60.566406 18.03125 60.566406 17.707031 L 60.566406 14.488281 C 60.566406 14.167969 60.351562 13.953125 60.027344 13.953125 L 46.078125 13.953125 C 45.753906 13.953125 45.539062 14.167969 45.539062 14.488281 Z M 46.613281 15.023438 L 59.492188 15.023438 L 59.492188 17.171875 L 46.613281 17.171875 Z M 46.613281 15.023438 "/><path style=" stroke:none;fill-rule:nonzero;fill:#312f84;fill-opacity:1;" d="M 51.441406 16.097656 C 51.441406 16.246094 51.390625 16.371094 51.285156 16.476562 C 51.179688 16.582031 51.054688 16.636719 50.90625 16.636719 C 50.757812 16.636719 50.632812 16.582031 50.527344 16.476562 C 50.421875 16.371094 50.367188 16.246094 50.367188 16.097656 C 50.367188 15.949219 50.421875 15.824219 50.527344 15.71875 C 50.632812 15.613281 50.757812 15.5625 50.90625 15.5625 C 51.054688 15.5625 51.179688 15.613281 51.285156 15.71875 C 51.390625 15.824219 51.441406 15.949219 51.441406 16.097656 Z M 51.441406 16.097656 "/><path style=" stroke:none;fill-rule:nonzero;fill:#312f84;fill-opacity:1;" d="M 51.441406 20.925781 C 51.441406 21.074219 51.390625 21.203125 51.285156 21.308594 C 51.179688 21.410156 51.054688 21.464844 50.90625 21.464844 C 50.757812 21.464844 50.632812 21.410156 50.527344 21.308594 C 50.421875 21.203125 50.367188 21.074219 50.367188 20.925781 C 50.367188 20.78125 50.421875 20.652344 50.527344 20.546875 C 50.632812 20.445312 50.757812 20.390625 50.90625 20.390625 C 51.054688 20.390625 51.179688 20.445312 51.285156 20.546875 C 51.390625 20.652344 51.441406 20.78125 51.441406 20.925781 Z M 51.441406 20.925781 "/><path style=" stroke:none;fill-rule:nonzero;fill:#312f84;fill-opacity:1;" d="M 53.589844 16.097656 C 53.589844 16.246094 53.535156 16.371094 53.429688 16.476562 C 53.328125 16.582031 53.199219 16.636719 53.050781 16.636719 C 52.902344 16.636719 52.777344 16.582031 52.671875 16.476562 C 52.566406 16.371094 52.515625 16.246094 52.515625 16.097656 C 52.515625 15.949219 52.566406 15.824219 52.671875 15.71875 C 52.777344 15.613281 52.902344 15.5625 53.050781 15.5625 C 53.199219 15.5625 53.328125 15.613281 53.429688 15.71875 C 53.535156 15.824219 53.589844 15.949219 53.589844 16.097656 Z M 53.589844 16.097656 "/><path style=" stroke:none;fill-rule:nonzero;fill:#312f84;fill-opacity:1;" d="M 53.589844 20.925781 C 53.589844 21.074219 53.535156 21.203125 53.429688 21.308594 C 53.328125 21.410156 53.199219 21.464844 53.050781 21.464844 C 52.902344 21.464844 52.777344 21.410156 52.671875 21.308594 C 52.566406 21.203125 52.515625 21.074219 52.515625 20.925781 C 52.515625 20.78125 52.566406 20.652344 52.671875 20.546875 C 52.777344 20.445312 52.902344 20.390625 53.050781 20.390625 C 53.199219 20.390625 53.328125 20.445312 53.429688 20.546875 C 53.535156 20.652344 53.589844 20.78125 53.589844 20.925781 Z M 53.589844 20.925781 "/><path style=" stroke:none;fill-rule:nonzero;fill:#312f84;fill-opacity:1;" d="M 55.734375 16.097656 C 55.734375 16.246094 55.683594 16.371094 55.578125 16.476562 C 55.472656 16.582031 55.347656 16.636719 55.199219 16.636719 C 55.050781 16.636719 54.921875 16.582031 54.820312 16.476562 C 54.714844 16.371094 54.660156 16.246094 54.660156 16.097656 C 54.660156 15.949219 54.714844 15.824219 54.820312 15.71875 C 54.921875 15.613281 55.050781 15.5625 55.199219 15.5625 C 55.347656 15.5625 55.472656 15.613281 55.578125 15.71875 C 55.683594 15.824219 55.734375 15.949219 55.734375 16.097656 Z M 55.734375 16.097656 "/><path style=" stroke:none;fill-rule:nonzero;fill:#312f84;fill-opacity:1;" d="M 51.441406 11.269531 C 51.441406 11.417969 51.390625 11.542969 51.285156 11.648438 C 51.179688 11.753906 51.054688 11.804688 50.90625 11.804688 C 50.757812 11.804688 50.632812 11.753906 50.527344 11.648438 C 50.421875 11.542969 50.367188 11.417969 50.367188 11.269531 C 50.367188 11.121094 50.421875 10.992188 50.527344 10.890625 C 50.632812 10.785156 50.757812 10.730469 50.90625 10.730469 C 51.054688 10.730469 51.179688 10.785156 51.285156 10.890625 C 51.390625 10.992188 51.441406 11.121094 51.441406 11.269531 Z M 51.441406 11.269531 "/><path style=" stroke:none;fill-rule:nonzero;fill:#312f84;fill-opacity:1;" d="M 53.589844 11.269531 C 53.589844 11.417969 53.535156 11.542969 53.429688 11.648438 C 53.328125 11.753906 53.199219 11.804688 53.050781 11.804688 C 52.902344 11.804688 52.777344 11.753906 52.671875 11.648438 C 52.566406 11.542969 52.515625 11.417969 52.515625 11.269531 C 52.515625 11.121094 52.566406 10.992188 52.671875 10.890625 C 52.777344 10.785156 52.902344 10.730469 53.050781 10.730469 C 53.199219 10.730469 53.328125 10.785156 53.429688 10.890625 C 53.535156 10.992188 53.589844 11.121094 53.589844 11.269531 Z M 53.589844 11.269531 "/><path style=" stroke:none;fill-rule:nonzero;fill:#312f84;fill-opacity:1;" d="M 55.734375 11.269531 C 55.734375 11.417969 55.683594 11.542969 55.578125 11.648438 C 55.472656 11.753906 55.347656 11.804688 55.199219 11.804688 C 55.050781 11.804688 54.921875 11.753906 54.820312 11.648438 C 54.714844 11.542969 54.660156 11.417969 54.660156 11.269531 C 54.660156 11.121094 54.714844 10.992188 54.820312 10.890625 C 54.921875 10.785156 55.050781 10.730469 55.199219 10.730469 C 55.347656 10.730469 55.472656 10.785156 55.578125 10.890625 C 55.683594 10.992188 55.734375 11.121094 55.734375 11.269531 Z M 55.734375 11.269531 "/><path style=" stroke:none;fill-rule:nonzero;fill:#312f84;fill-opacity:1;" d="M 63.714844 12.996094 C 63.753906 13.136719 63.738281 13.273438 63.667969 13.402344 C 63.597656 13.535156 63.488281 13.617188 63.347656 13.660156 C 63.203125 13.699219 63.066406 13.683594 62.9375 13.613281 C 62.808594 13.542969 62.722656 13.433594 62.683594 13.292969 C 62.640625 13.148438 62.65625 13.015625 62.726562 12.882812 C 62.800781 12.753906 62.90625 12.667969 63.050781 12.628906 C 63.191406 12.585938 63.328125 12.601562 63.457031 12.675781 C 63.585938 12.746094 63.671875 12.851562 63.714844 12.996094 Z M 63.714844 12.996094 "/><path style=" stroke:none;fill-rule:nonzero;fill:#312f84;fill-opacity:1;" d="M 64.296875 15.035156 C 64.339844 15.179688 64.324219 15.316406 64.25 15.445312 C 64.179688 15.574219 64.074219 15.660156 63.929688 15.699219 C 63.789062 15.742188 63.652344 15.726562 63.523438 15.65625 C 63.394531 15.582031 63.308594 15.476562 63.265625 15.332031 C 63.226562 15.191406 63.242188 15.054688 63.3125 14.925781 C 63.382812 14.796875 63.492188 14.710938 63.632812 14.667969 C 63.777344 14.628906 63.910156 14.644531 64.042969 14.714844 C 64.171875 14.789062 64.257812 14.894531 64.296875 15.035156 Z M 64.296875 15.035156 "/><path style=" stroke:none;fill-rule:nonzero;fill:#312f84;fill-opacity:1;" d="M 64.894531 17.128906 C 64.9375 17.273438 64.921875 17.40625 64.851562 17.539062 C 64.777344 17.667969 64.671875 17.753906 64.527344 17.792969 C 64.386719 17.835938 64.25 17.820312 64.121094 17.746094 C 63.992188 17.675781 63.90625 17.570312 63.863281 17.425781 C 63.824219 17.285156 63.839844 17.148438 63.910156 17.019531 C 63.984375 16.886719 64.089844 16.804688 64.230469 16.761719 C 64.375 16.722656 64.511719 16.738281 64.640625 16.808594 C 64.769531 16.878906 64.855469 16.988281 64.894531 17.128906 Z M 64.894531 17.128906 "/><path style=" stroke:none;fill-rule:nonzero;fill:#312f84;fill-opacity:1;" d="M 67.488281 13.308594 C 67.59375 13.574219 67.863281 13.738281 68.128906 13.683594 C 68.398438 13.574219 68.558594 13.308594 68.507812 13.039062 C 68.398438 12.769531 68.128906 12.609375 67.863281 12.664062 C 67.59375 12.71875 67.433594 12.984375 67.488281 13.308594 Z M 67.488281 13.308594 "/><path style=" stroke:none;fill-rule:nonzero;fill:#312f84;fill-opacity:1;" d="M 69.128906 15.035156 C 69.167969 15.179688 69.152344 15.316406 69.082031 15.445312 C 69.007812 15.574219 68.902344 15.660156 68.761719 15.699219 C 68.617188 15.742188 68.480469 15.726562 68.351562 15.65625 C 68.222656 15.582031 68.136719 15.476562 68.097656 15.332031 C 68.054688 15.191406 68.070312 15.054688 68.140625 14.925781 C 68.214844 14.796875 68.320312 14.710938 68.464844 14.667969 C 68.605469 14.628906 68.742188 14.644531 68.871094 14.714844 C 69 14.785156 69.085938 14.894531 69.128906 15.035156 Z M 69.128906 15.035156 "/><path style=" stroke:none;fill-rule:nonzero;fill:#312f84;fill-opacity:1;" d="M 68.667969 17.386719 C 68.773438 17.65625 69.042969 17.816406 69.3125 17.761719 C 69.578125 17.65625 69.742188 17.386719 69.6875 17.117188 C 69.578125 16.847656 69.3125 16.6875 69.042969 16.742188 C 68.773438 16.847656 68.613281 17.117188 68.667969 17.386719 Z M 68.667969 17.386719 "/><path style=" stroke:none;fill-rule:nonzero;fill:#312f84;fill-opacity:1;" d="M 55.734375 20.925781 C 55.734375 21.074219 55.683594 21.203125 55.578125 21.308594 C 55.472656 21.410156 55.347656 21.464844 55.199219 21.464844 C 55.050781 21.464844 54.921875 21.410156 54.820312 21.308594 C 54.714844 21.203125 54.660156 21.074219 54.660156 20.925781 C 54.660156 20.78125 54.714844 20.652344 54.820312 20.546875 C 54.921875 20.445312 55.050781 20.390625 55.199219 20.390625 C 55.347656 20.390625 55.472656 20.445312 55.578125 20.546875 C 55.683594 20.652344 55.734375 20.78125 55.734375 20.925781 Z M 55.734375 20.925781 "/><path style=" stroke:none;fill-rule:nonzero;fill:#312f84;fill-opacity:1;" d="M 34.488281 30.316406 L 35.46875 29.882812 L 35.902344 30.863281 L 34.921875 31.296875 Z M 34.488281 30.316406 "/><path style=" stroke:none;fill-rule:nonzero;fill:#312f84;fill-opacity:1;" d="M 35.335938 32.253906 L 36.316406 31.820312 L 36.75 32.800781 L 35.769531 33.234375 Z M 35.335938 32.253906 "/><path style=" stroke:none;fill-rule:nonzero;fill:#312f84;fill-opacity:1;" d="M 36.25 34.21875 L 37.234375 33.785156 L 37.667969 34.765625 L 36.683594 35.199219 Z M 36.25 34.21875 "/><path style=" stroke:none;fill-rule:nonzero;fill:#312f84;fill-opacity:1;" d="M 17.097656 47.222656 L 15.488281 47.222656 L 15.488281 50.441406 L 17.097656 50.441406 L 17.097656 51.515625 L 15.488281 51.515625 L 15.488281 54.734375 L 27.296875 54.734375 L 27.296875 52.585938 L 28.90625 52.585938 L 28.90625 49.367188 L 27.296875 49.367188 L 27.296875 48.292969 L 28.90625 48.292969 L 28.90625 45.074219 L 17.097656 45.074219 Z M 16.5625 49.367188 L 16.5625 48.292969 L 26.222656 48.292969 L 26.222656 49.367188 Z M 26.222656 53.660156 L 16.5625 53.660156 L 16.5625 52.585938 L 26.222656 52.585938 Z M 27.832031 50.441406 L 27.832031 51.515625 L 18.171875 51.515625 L 18.171875 50.441406 Z M 18.171875 46.148438 L 27.832031 46.148438 L 27.832031 47.222656 L 18.171875 47.222656 Z M 18.171875 46.148438 "/><path style=" stroke:none;fill-rule:nonzero;fill:#312f84;fill-opacity:1;" d="M 46.613281 47.222656 L 45.003906 47.222656 L 45.003906 50.441406 L 46.613281 50.441406 L 46.613281 51.515625 L 45.003906 51.515625 L 45.003906 54.734375 L 56.808594 54.734375 L 56.808594 52.585938 L 58.417969 52.585938 L 58.417969 49.367188 L 56.808594 49.367188 L 56.808594 48.292969 L 58.417969 48.292969 L 58.417969 45.074219 L 46.613281 45.074219 Z M 46.078125 49.367188 L 46.078125 48.292969 L 55.734375 48.292969 L 55.734375 49.367188 Z M 55.734375 53.660156 L 46.078125 53.660156 L 46.078125 52.585938 L 55.734375 52.585938 Z M 57.34375 50.441406 L 57.34375 51.515625 L 47.6875 51.515625 L 47.6875 50.441406 Z M 47.6875 46.148438 L 57.34375 46.148438 L 57.34375 47.222656 L 47.6875 47.222656 Z M 47.6875 46.148438 "/><path style=" stroke:none;fill-rule:nonzero;fill:#312f84;fill-opacity:1;" d="M 71.296875 52.585938 L 72.90625 52.585938 L 72.90625 49.367188 L 71.296875 49.367188 L 71.296875 48.292969 L 72.90625 48.292969 L 72.90625 45.074219 L 61.101562 45.074219 L 61.101562 47.222656 L 59.492188 47.222656 L 59.492188 50.441406 L 61.101562 50.441406 L 61.101562 51.515625 L 59.492188 51.515625 L 59.492188 54.734375 L 71.296875 54.734375 Z M 71.832031 50.441406 L 71.832031 51.515625 L 62.175781 51.515625 L 62.175781 50.441406 Z M 62.175781 46.148438 L 71.832031 46.148438 L 71.832031 47.222656 L 62.175781 47.222656 Z M 60.566406 49.367188 L 60.566406 48.292969 L 70.222656 48.292969 L 70.222656 49.367188 Z M 70.222656 53.660156 L 60.566406 53.660156 L 60.566406 52.585938 L 70.222656 52.585938 Z M 70.222656 53.660156 "/><path style=" stroke:none;fill-rule:nonzero;fill:#312f84;fill-opacity:1;" d="M 62.710938 28.441406 L 61.636719 28.441406 C 61.316406 28.441406 61.101562 28.65625 61.101562 28.976562 C 61.101562 29.296875 61.316406 29.511719 61.636719 29.511719 L 62.710938 29.511719 C 63.03125 29.511719 63.246094 29.296875 63.246094 28.976562 C 63.246094 28.65625 63.03125 28.441406 62.710938 28.441406 Z M 62.710938 28.441406 "/><path style=" stroke:none;fill-rule:nonzero;fill:#312f84;fill-opacity:1;" d="M 62.710938 30.585938 L 61.636719 30.585938 C 61.316406 30.585938 61.101562 30.800781 61.101562 31.125 C 61.101562 31.445312 61.316406 31.660156 61.636719 31.660156 L 62.710938 31.660156 C 63.03125 31.660156 63.246094 31.445312 63.246094 31.125 C 63.246094 30.800781 63.03125 30.585938 62.710938 30.585938 Z M 62.710938 30.585938 "/><path style=" stroke:none;fill-rule:nonzero;fill:#312f84;fill-opacity:1;" d="M 69.148438 28.441406 L 68.078125 28.441406 C 67.753906 28.441406 67.539062 28.65625 67.539062 28.976562 C 67.539062 29.296875 67.753906 29.511719 68.078125 29.511719 L 69.148438 29.511719 C 69.472656 29.511719 69.6875 29.296875 69.6875 28.976562 C 69.6875 28.65625 69.472656 28.441406 69.148438 28.441406 Z M 69.148438 28.441406 "/><path style=" stroke:none;fill-rule:nonzero;fill:#312f84;fill-opacity:1;" d="M 69.148438 30.585938 L 68.078125 30.585938 C 67.753906 30.585938 67.539062 30.800781 67.539062 31.125 C 67.539062 31.445312 67.753906 31.660156 68.078125 31.660156 L 69.148438 31.660156 C 69.472656 31.660156 69.6875 31.445312 69.6875 31.125 C 69.6875 30.800781 69.472656 30.585938 69.148438 30.585938 Z M 69.148438 30.585938 "/><path style=" stroke:none;fill-rule:nonzero;fill:#312f84;fill-opacity:1;" d="M 49.832031 28.441406 L 48.757812 28.441406 C 48.4375 28.441406 48.222656 28.65625 48.222656 28.976562 C 48.222656 29.296875 48.4375 29.511719 48.757812 29.511719 L 49.832031 29.511719 C 50.15625 29.511719 50.367188 29.296875 50.367188 28.976562 C 50.367188 28.65625 50.15625 28.441406 49.832031 28.441406 Z M 49.832031 28.441406 "/><path style=" stroke:none;fill-rule:nonzero;fill:#312f84;fill-opacity:1;" d="M 49.832031 30.585938 L 48.757812 30.585938 C 48.4375 30.585938 48.222656 30.800781 48.222656 31.125 C 48.222656 31.445312 48.4375 31.660156 48.757812 31.660156 L 49.832031 31.660156 C 50.15625 31.660156 50.367188 31.445312 50.367188 31.125 C 50.367188 30.800781 50.15625 30.585938 49.832031 30.585938 Z M 49.832031 30.585938 "/><path style=" stroke:none;fill-rule:nonzero;fill:#312f84;fill-opacity:1;" d="M 56.273438 28.441406 L 55.199219 28.441406 C 54.875 28.441406 54.660156 28.65625 54.660156 28.976562 C 54.660156 29.296875 54.875 29.511719 55.199219 29.511719 L 56.273438 29.511719 C 56.59375 29.511719 56.808594 29.296875 56.808594 28.976562 C 56.808594 28.65625 56.59375 28.441406 56.273438 28.441406 Z M 56.273438 28.441406 "/><path style=" stroke:none;fill-rule:nonzero;fill:#312f84;fill-opacity:1;" d="M 56.273438 30.585938 L 55.199219 30.585938 C 54.875 30.585938 54.660156 30.800781 54.660156 31.125 C 54.660156 31.445312 54.875 31.660156 55.199219 31.660156 L 56.273438 31.660156 C 56.59375 31.660156 56.808594 31.445312 56.808594 31.125 C 56.808594 30.800781 56.59375 30.585938 56.273438 30.585938 Z M 56.273438 30.585938 "/><path style=" stroke:none;fill-rule:nonzero;fill:#312f84;fill-opacity:1;" d="M 32.660156 46.148438 L 33.734375 46.148438 C 34.054688 46.148438 34.269531 45.933594 34.269531 45.613281 C 34.269531 45.289062 34.054688 45.074219 33.734375 45.074219 L 32.660156 45.074219 C 32.339844 45.074219 32.125 45.289062 32.125 45.613281 C 32.125 45.933594 32.339844 46.148438 32.660156 46.148438 Z M 32.660156 46.148438 "/><path style=" stroke:none;fill-rule:nonzero;fill:#312f84;fill-opacity:1;" d="M 32.660156 48.292969 L 33.734375 48.292969 C 34.054688 48.292969 34.269531 48.078125 34.269531 47.757812 C 34.269531 47.4375 34.054688 47.222656 33.734375 47.222656 L 32.660156 47.222656 C 32.339844 47.222656 32.125 47.4375 32.125 47.757812 C 32.125 48.078125 32.339844 48.292969 32.660156 48.292969 Z M 32.660156 48.292969 "/><path style=" stroke:none;fill-rule:nonzero;fill:#312f84;fill-opacity:1;" d="M 39.101562 46.148438 L 40.171875 46.148438 C 40.496094 46.148438 40.710938 45.933594 40.710938 45.613281 C 40.710938 45.289062 40.496094 45.074219 40.171875 45.074219 L 39.101562 45.074219 C 38.777344 45.074219 38.5625 45.289062 38.5625 45.613281 C 38.5625 45.933594 38.777344 46.148438 39.101562 46.148438 Z M 39.101562 46.148438 "/><path style=" stroke:none;fill-rule:nonzero;fill:#312f84;fill-opacity:1;" d="M 39.101562 48.292969 L 40.171875 48.292969 C 40.496094 48.292969 40.710938 48.078125 40.710938 47.757812 C 40.710938 47.4375 40.496094 47.222656 40.171875 47.222656 L 39.101562 47.222656 C 38.777344 47.222656 38.5625 47.4375 38.5625 47.757812 C 38.5625 48.078125 38.777344 48.292969 39.101562 48.292969 Z M 39.101562 48.292969 "/></g></svg>