<svg xmlns="http://www.w3.org/2000/svg" xmlns:xlink="http://www.w3.org/1999/xlink" width="401" zoomAndPan="magnify" viewBox="0 0 300.75 67.499998" height="90" preserveAspectRatio="xMidYMid meet" version="1.2"><defs><clipPath id="caac334838"><path d="M 1 0.722656 L 250 0.722656 L 250 37 L 1 37 Z M 1 0.722656 "/></clipPath><clipPath id="678e2b44a8"><rect x="0" width="250" y="0" height="38"/></clipPath></defs><g id="f69aac0ce6"><g transform="matrix(1,0,0,1,24,15)"><g clip-path="url(#678e2b44a8)"><g clip-rule="nonzero" clip-path="url(#caac334838)"><path style=" stroke:none;fill-rule:nonzero;fill:#ffffff;fill-opacity:1;" d="M 1.03125 0.984375 L 249.402344 0.984375 L 249.402344 36.226562 L 1.03125 36.226562 L 1.03125 0.984375 "/></g><g style="fill:#393be5;fill-opacity:1;"><g transform="translate(4.497955, 26.822825)"><path style="stroke:none" d="M 17.703125 -0.578125 C 17.785156 -0.421875 17.785156 -0.285156 17.703125 -0.171875 C 17.628906 -0.0546875 17.503906 0 17.328125 0 L 14.25 0 C 14.070312 0 13.898438 -0.0546875 13.734375 -0.171875 C 13.566406 -0.285156 13.445312 -0.421875 13.375 -0.578125 L 10.046875 -7.921875 L 6.125 -7.921875 L 6.125 -0.640625 C 6.125 -0.460938 6.0625 -0.3125 5.9375 -0.1875 C 5.8125 -0.0625 5.660156 0 5.484375 0 L 2.78125 0 C 2.601562 0 2.453125 -0.0625 2.328125 -0.1875 C 2.203125 -0.3125 2.140625 -0.460938 2.140625 -0.640625 L 2.140625 -19.1875 C 2.140625 -19.351562 2.203125 -19.5 2.328125 -19.625 C 2.453125 -19.75 2.601562 -19.8125 2.78125 -19.8125 L 12.890625 -19.8125 C 13.597656 -19.8125 14.257812 -19.675781 14.875 -19.40625 C 15.488281 -19.144531 16.023438 -18.78125 16.484375 -18.3125 C 16.953125 -17.851562 17.320312 -17.316406 17.59375 -16.703125 C 17.863281 -16.085938 18 -15.421875 18 -14.703125 L 18 -13.03125 C 18 -12.445312 17.90625 -11.890625 17.71875 -11.359375 C 17.539062 -10.835938 17.285156 -10.359375 16.953125 -9.921875 C 16.628906 -9.492188 16.238281 -9.125 15.78125 -8.8125 C 15.332031 -8.5 14.835938 -8.269531 14.296875 -8.125 Z M 12.890625 -11.875 C 13.210938 -11.875 13.484375 -11.984375 13.703125 -12.203125 C 13.929688 -12.421875 14.046875 -12.695312 14.046875 -13.03125 L 14.046875 -14.703125 C 14.046875 -15.035156 13.929688 -15.3125 13.703125 -15.53125 C 13.484375 -15.75 13.210938 -15.859375 12.890625 -15.859375 L 6.125 -15.859375 L 6.125 -11.875 Z M 12.890625 -11.875 "/></g></g><g style="fill:#393be5;fill-opacity:1;"><g transform="translate(24.629043, 26.822825)"><path style="stroke:none" d="M 17.6875 -16.46875 C 17.6875 -16.289062 17.625 -16.144531 17.5 -16.03125 C 17.382812 -15.914062 17.242188 -15.859375 17.078125 -15.859375 L 6.390625 -15.859375 L 6.390625 -11.875 L 16.0625 -11.875 C 16.238281 -11.875 16.390625 -11.816406 16.515625 -11.703125 C 16.640625 -11.585938 16.703125 -11.441406 16.703125 -11.265625 L 16.703125 -8.546875 C 16.703125 -8.378906 16.640625 -8.234375 16.515625 -8.109375 C 16.390625 -7.984375 16.238281 -7.921875 16.0625 -7.921875 L 6.390625 -7.921875 L 6.390625 -3.953125 L 17.078125 -3.953125 C 17.242188 -3.953125 17.382812 -3.890625 17.5 -3.765625 C 17.625 -3.640625 17.6875 -3.492188 17.6875 -3.328125 L 17.6875 -0.640625 C 17.6875 -0.460938 17.625 -0.3125 17.5 -0.1875 C 17.382812 -0.0625 17.242188 0 17.078125 0 L 3.03125 0 C 2.863281 0 2.71875 -0.0625 2.59375 -0.1875 C 2.476562 -0.3125 2.421875 -0.460938 2.421875 -0.640625 L 2.421875 -19.1875 C 2.421875 -19.351562 2.476562 -19.5 2.59375 -19.625 C 2.71875 -19.75 2.863281 -19.8125 3.03125 -19.8125 L 17.078125 -19.8125 C 17.242188 -19.8125 17.382812 -19.75 17.5 -19.625 C 17.625 -19.5 17.6875 -19.351562 17.6875 -19.1875 Z M 17.6875 -16.46875 "/></g></g><g style="fill:#393be5;fill-opacity:1;"><g transform="translate(44.731241, 26.822825)"><path style="stroke:none" d="M 14.640625 -13.875 C 14.472656 -13.875 14.328125 -13.9375 14.203125 -14.0625 C 14.078125 -14.1875 14.015625 -14.332031 14.015625 -14.5 L 14.015625 -14.703125 C 14.015625 -15.035156 13.90625 -15.3125 13.6875 -15.53125 C 13.476562 -15.75 13.210938 -15.859375 12.890625 -15.859375 L 7.21875 -15.859375 C 6.914062 -15.859375 6.648438 -15.75 6.421875 -15.53125 C 6.203125 -15.3125 6.09375 -15.035156 6.09375 -14.703125 L 6.09375 -13.03125 C 6.09375 -12.695312 6.203125 -12.421875 6.421875 -12.203125 C 6.648438 -11.984375 6.914062 -11.875 7.21875 -11.875 L 12.890625 -11.875 C 13.578125 -11.875 14.226562 -11.738281 14.84375 -11.46875 C 15.46875 -11.195312 16.007812 -10.828125 16.46875 -10.359375 C 16.925781 -9.898438 17.289062 -9.363281 17.5625 -8.75 C 17.832031 -8.132812 17.96875 -7.484375 17.96875 -6.796875 L 17.96875 -5.109375 C 17.96875 -4.398438 17.832031 -3.738281 17.5625 -3.125 C 17.289062 -2.507812 16.925781 -1.96875 16.46875 -1.5 C 16.007812 -1.039062 15.46875 -0.675781 14.84375 -0.40625 C 14.226562 -0.132812 13.578125 0 12.890625 0 L 7.21875 0 C 6.53125 0 5.875 -0.132812 5.25 -0.40625 C 4.632812 -0.675781 4.097656 -1.039062 3.640625 -1.5 C 3.179688 -1.96875 2.816406 -2.507812 2.546875 -3.125 C 2.273438 -3.738281 2.140625 -4.398438 2.140625 -5.109375 L 2.140625 -5.3125 C 2.140625 -5.488281 2.203125 -5.640625 2.328125 -5.765625 C 2.453125 -5.890625 2.601562 -5.953125 2.78125 -5.953125 L 5.453125 -5.953125 C 5.628906 -5.953125 5.78125 -5.890625 5.90625 -5.765625 C 6.03125 -5.640625 6.09375 -5.488281 6.09375 -5.3125 L 6.09375 -5.109375 C 6.09375 -4.785156 6.203125 -4.507812 6.421875 -4.28125 C 6.648438 -4.0625 6.914062 -3.953125 7.21875 -3.953125 L 12.890625 -3.953125 C 13.210938 -3.953125 13.476562 -4.0625 13.6875 -4.28125 C 13.90625 -4.507812 14.015625 -4.785156 14.015625 -5.109375 L 14.015625 -6.796875 C 14.015625 -7.117188 13.90625 -7.382812 13.6875 -7.59375 C 13.476562 -7.8125 13.210938 -7.921875 12.890625 -7.921875 L 7.21875 -7.921875 C 6.53125 -7.921875 5.875 -8.050781 5.25 -8.3125 C 4.632812 -8.582031 4.097656 -8.945312 3.640625 -9.40625 C 3.179688 -9.875 2.816406 -10.421875 2.546875 -11.046875 C 2.273438 -11.671875 2.140625 -12.332031 2.140625 -13.03125 L 2.140625 -14.703125 C 2.140625 -15.421875 2.273438 -16.085938 2.546875 -16.703125 C 2.816406 -17.316406 3.179688 -17.851562 3.640625 -18.3125 C 4.097656 -18.78125 4.632812 -19.144531 5.25 -19.40625 C 5.875 -19.675781 6.53125 -19.8125 7.21875 -19.8125 L 12.890625 -19.8125 C 13.578125 -19.8125 14.226562 -19.675781 14.84375 -19.40625 C 15.46875 -19.144531 16.007812 -18.78125 16.46875 -18.3125 C 16.925781 -17.851562 17.289062 -17.316406 17.5625 -16.703125 C 17.832031 -16.085938 17.96875 -15.421875 17.96875 -14.703125 L 17.96875 -14.5 C 17.96875 -14.332031 17.910156 -14.1875 17.796875 -14.0625 C 17.679688 -13.9375 17.535156 -13.875 17.359375 -13.875 Z M 14.640625 -13.875 "/></g></g><g style="fill:#393be5;fill-opacity:1;"><g transform="translate(64.86233, 26.822825)"><path style="stroke:none" d="M 12.890625 -19.796875 C 13.597656 -19.796875 14.257812 -19.660156 14.875 -19.390625 C 15.488281 -19.117188 16.023438 -18.75 16.484375 -18.28125 C 16.953125 -17.820312 17.320312 -17.285156 17.59375 -16.671875 C 17.863281 -16.054688 18 -15.398438 18 -14.703125 L 18 -5.078125 C 18 -4.390625 17.863281 -3.738281 17.59375 -3.125 C 17.320312 -2.507812 16.953125 -1.96875 16.484375 -1.5 C 16.023438 -1.039062 15.488281 -0.675781 14.875 -0.40625 C 14.257812 -0.132812 13.597656 0 12.890625 0 L 7.25 0 C 6.539062 0 5.875 -0.132812 5.25 -0.40625 C 4.632812 -0.675781 4.097656 -1.039062 3.640625 -1.5 C 3.179688 -1.96875 2.816406 -2.507812 2.546875 -3.125 C 2.273438 -3.738281 2.140625 -4.390625 2.140625 -5.078125 L 2.140625 -14.703125 C 2.140625 -15.398438 2.273438 -16.054688 2.546875 -16.671875 C 2.816406 -17.285156 3.179688 -17.820312 3.640625 -18.28125 C 4.097656 -18.75 4.632812 -19.117188 5.25 -19.390625 C 5.875 -19.660156 6.539062 -19.796875 7.25 -19.796875 Z M 14.046875 -14.703125 C 14.046875 -15.035156 13.929688 -15.304688 13.703125 -15.515625 C 13.484375 -15.722656 13.210938 -15.828125 12.890625 -15.828125 L 7.25 -15.828125 C 6.925781 -15.828125 6.648438 -15.722656 6.421875 -15.515625 C 6.203125 -15.304688 6.09375 -15.035156 6.09375 -14.703125 L 6.09375 -5.078125 C 6.09375 -4.753906 6.203125 -4.484375 6.421875 -4.265625 C 6.648438 -4.054688 6.925781 -3.953125 7.25 -3.953125 L 12.890625 -3.953125 C 13.210938 -3.953125 13.484375 -4.054688 13.703125 -4.265625 C 13.929688 -4.484375 14.046875 -4.753906 14.046875 -5.078125 Z M 14.046875 -14.703125 "/></g></g><g style="fill:#393be5;fill-opacity:1;"><g transform="translate(84.993419, 26.822825)"><path style="stroke:none" d="M 7.21875 0 C 6.53125 0 5.875 -0.132812 5.25 -0.40625 C 4.632812 -0.675781 4.097656 -1.039062 3.640625 -1.5 C 3.179688 -1.96875 2.816406 -2.507812 2.546875 -3.125 C 2.273438 -3.738281 2.140625 -4.398438 2.140625 -5.109375 L 2.140625 -19.1875 C 2.140625 -19.351562 2.203125 -19.5 2.328125 -19.625 C 2.453125 -19.75 2.601562 -19.8125 2.78125 -19.8125 L 5.453125 -19.8125 C 5.628906 -19.8125 5.78125 -19.75 5.90625 -19.625 C 6.03125 -19.5 6.09375 -19.351562 6.09375 -19.1875 L 6.09375 -5.109375 C 6.09375 -4.785156 6.203125 -4.507812 6.421875 -4.28125 C 6.648438 -4.0625 6.914062 -3.953125 7.21875 -3.953125 L 12.890625 -3.953125 C 13.210938 -3.953125 13.476562 -4.0625 13.6875 -4.28125 C 13.90625 -4.507812 14.015625 -4.785156 14.015625 -5.109375 L 14.015625 -19.1875 C 14.015625 -19.351562 14.078125 -19.5 14.203125 -19.625 C 14.328125 -19.75 14.472656 -19.8125 14.640625 -19.8125 L 17.359375 -19.8125 C 17.535156 -19.8125 17.6875 -19.75 17.8125 -19.625 C 17.9375 -19.5 18 -19.351562 18 -19.1875 L 18 -5.109375 C 18 -4.398438 17.863281 -3.738281 17.59375 -3.125 C 17.320312 -2.507812 16.953125 -1.96875 16.484375 -1.5 C 16.023438 -1.039062 15.484375 -0.675781 14.859375 -0.40625 C 14.234375 -0.132812 13.578125 0 12.890625 0 Z M 7.21875 0 "/></g></g><g style="fill:#393be5;fill-opacity:1;"><g transform="translate(105.124508, 26.822825)"><path style="stroke:none" d="M 17.703125 -0.578125 C 17.785156 -0.421875 17.785156 -0.285156 17.703125 -0.171875 C 17.628906 -0.0546875 17.503906 0 17.328125 0 L 14.25 0 C 14.070312 0 13.898438 -0.0546875 13.734375 -0.171875 C 13.566406 -0.285156 13.445312 -0.421875 13.375 -0.578125 L 10.046875 -7.921875 L 6.125 -7.921875 L 6.125 -0.640625 C 6.125 -0.460938 6.0625 -0.3125 5.9375 -0.1875 C 5.8125 -0.0625 5.660156 0 5.484375 0 L 2.78125 0 C 2.601562 0 2.453125 -0.0625 2.328125 -0.1875 C 2.203125 -0.3125 2.140625 -0.460938 2.140625 -0.640625 L 2.140625 -19.1875 C 2.140625 -19.351562 2.203125 -19.5 2.328125 -19.625 C 2.453125 -19.75 2.601562 -19.8125 2.78125 -19.8125 L 12.890625 -19.8125 C 13.597656 -19.8125 14.257812 -19.675781 14.875 -19.40625 C 15.488281 -19.144531 16.023438 -18.78125 16.484375 -18.3125 C 16.953125 -17.851562 17.320312 -17.316406 17.59375 -16.703125 C 17.863281 -16.085938 18 -15.421875 18 -14.703125 L 18 -13.03125 C 18 -12.445312 17.90625 -11.890625 17.71875 -11.359375 C 17.539062 -10.835938 17.285156 -10.359375 16.953125 -9.921875 C 16.628906 -9.492188 16.238281 -9.125 15.78125 -8.8125 C 15.332031 -8.5 14.835938 -8.269531 14.296875 -8.125 Z M 12.890625 -11.875 C 13.210938 -11.875 13.484375 -11.984375 13.703125 -12.203125 C 13.929688 -12.421875 14.046875 -12.695312 14.046875 -13.03125 L 14.046875 -14.703125 C 14.046875 -15.035156 13.929688 -15.3125 13.703125 -15.53125 C 13.484375 -15.75 13.210938 -15.859375 12.890625 -15.859375 L 6.125 -15.859375 L 6.125 -11.875 Z M 12.890625 -11.875 "/></g></g><g style="fill:#393be5;fill-opacity:1;"><g transform="translate(125.255596, 26.822825)"><path style="stroke:none" d="M 14.671875 -13.875 C 14.503906 -13.875 14.359375 -13.9375 14.234375 -14.0625 C 14.109375 -14.1875 14.046875 -14.332031 14.046875 -14.5 L 14.046875 -14.703125 C 14.046875 -15.035156 13.929688 -15.3125 13.703125 -15.53125 C 13.484375 -15.75 13.210938 -15.859375 12.890625 -15.859375 L 7.25 -15.859375 C 6.925781 -15.859375 6.65625 -15.75 6.4375 -15.53125 C 6.226562 -15.3125 6.125 -15.035156 6.125 -14.703125 L 6.125 -5.109375 C 6.125 -4.785156 6.226562 -4.507812 6.4375 -4.28125 C 6.65625 -4.0625 6.925781 -3.953125 7.25 -3.953125 L 12.890625 -3.953125 C 13.210938 -3.953125 13.484375 -4.0625 13.703125 -4.28125 C 13.929688 -4.507812 14.046875 -4.785156 14.046875 -5.109375 L 14.046875 -5.3125 C 14.046875 -5.488281 14.109375 -5.640625 14.234375 -5.765625 C 14.359375 -5.890625 14.503906 -5.953125 14.671875 -5.953125 L 17.359375 -5.953125 C 17.535156 -5.953125 17.6875 -5.890625 17.8125 -5.765625 C 17.9375 -5.640625 18 -5.488281 18 -5.3125 L 18 -5.109375 C 18 -4.398438 17.863281 -3.738281 17.59375 -3.125 C 17.320312 -2.507812 16.953125 -1.96875 16.484375 -1.5 C 16.023438 -1.039062 15.488281 -0.675781 14.875 -0.40625 C 14.257812 -0.132812 13.597656 0 12.890625 0 L 7.25 0 C 6.5625 0 5.898438 -0.132812 5.265625 -0.40625 C 4.640625 -0.675781 4.097656 -1.039062 3.640625 -1.5 C 3.179688 -1.96875 2.816406 -2.507812 2.546875 -3.125 C 2.273438 -3.738281 2.140625 -4.398438 2.140625 -5.109375 L 2.140625 -14.703125 C 2.140625 -15.421875 2.273438 -16.085938 2.546875 -16.703125 C 2.816406 -17.316406 3.179688 -17.851562 3.640625 -18.3125 C 4.097656 -18.78125 4.640625 -19.144531 5.265625 -19.40625 C 5.898438 -19.675781 6.5625 -19.8125 7.25 -19.8125 L 12.890625 -19.8125 C 13.597656 -19.8125 14.257812 -19.675781 14.875 -19.40625 C 15.488281 -19.144531 16.023438 -18.78125 16.484375 -18.3125 C 16.953125 -17.851562 17.320312 -17.316406 17.59375 -16.703125 C 17.863281 -16.085938 18 -15.421875 18 -14.703125 L 18 -14.5 C 18 -14.332031 17.9375 -14.1875 17.8125 -14.0625 C 17.6875 -13.9375 17.535156 -13.875 17.359375 -13.875 Z M 14.671875 -13.875 "/></g></g><g style="fill:#393be5;fill-opacity:1;"><g transform="translate(145.386685, 26.822825)"><path style="stroke:none" d="M 17.6875 -16.46875 C 17.6875 -16.289062 17.625 -16.144531 17.5 -16.03125 C 17.382812 -15.914062 17.242188 -15.859375 17.078125 -15.859375 L 6.390625 -15.859375 L 6.390625 -11.875 L 16.0625 -11.875 C 16.238281 -11.875 16.390625 -11.816406 16.515625 -11.703125 C 16.640625 -11.585938 16.703125 -11.441406 16.703125 -11.265625 L 16.703125 -8.546875 C 16.703125 -8.378906 16.640625 -8.234375 16.515625 -8.109375 C 16.390625 -7.984375 16.238281 -7.921875 16.0625 -7.921875 L 6.390625 -7.921875 L 6.390625 -3.953125 L 17.078125 -3.953125 C 17.242188 -3.953125 17.382812 -3.890625 17.5 -3.765625 C 17.625 -3.640625 17.6875 -3.492188 17.6875 -3.328125 L 17.6875 -0.640625 C 17.6875 -0.460938 17.625 -0.3125 17.5 -0.1875 C 17.382812 -0.0625 17.242188 0 17.078125 0 L 3.03125 0 C 2.863281 0 2.71875 -0.0625 2.59375 -0.1875 C 2.476562 -0.3125 2.421875 -0.460938 2.421875 -0.640625 L 2.421875 -19.1875 C 2.421875 -19.351562 2.476562 -19.5 2.59375 -19.625 C 2.71875 -19.75 2.863281 -19.8125 3.03125 -19.8125 L 17.078125 -19.8125 C 17.242188 -19.8125 17.382812 -19.75 17.5 -19.625 C 17.625 -19.5 17.6875 -19.351562 17.6875 -19.1875 Z M 17.6875 -16.46875 "/></g></g><g style="fill:#393be5;fill-opacity:1;"><g transform="translate(165.488883, 26.822825)"><path style="stroke:none" d=""/></g></g><g style="fill:#393be5;fill-opacity:1;"><g transform="translate(185.591081, 26.822825)"><path style="stroke:none" d="M 14.015625 -19.1875 C 14.015625 -19.351562 14.078125 -19.5 14.203125 -19.625 C 14.328125 -19.75 14.472656 -19.8125 14.640625 -19.8125 L 17.359375 -19.8125 C 17.535156 -19.8125 17.679688 -19.75 17.796875 -19.625 C 17.910156 -19.5 17.96875 -19.351562 17.96875 -19.1875 L 17.96875 -0.640625 C 17.96875 -0.460938 17.910156 -0.3125 17.796875 -0.1875 C 17.679688 -0.0625 17.535156 0 17.359375 0 L 14.640625 0 C 14.472656 0 14.328125 -0.0625 14.203125 -0.1875 C 14.078125 -0.3125 14.015625 -0.460938 14.015625 -0.640625 L 14.015625 -7.921875 L 6.09375 -7.921875 L 6.09375 -0.640625 C 6.09375 -0.460938 6.03125 -0.3125 5.90625 -0.1875 C 5.78125 -0.0625 5.628906 0 5.453125 0 L 2.75 0 C 2.570312 0 2.425781 -0.0625 2.3125 -0.1875 C 2.195312 -0.3125 2.140625 -0.460938 2.140625 -0.640625 L 2.140625 -19.1875 C 2.140625 -19.351562 2.195312 -19.5 2.3125 -19.625 C 2.425781 -19.75 2.570312 -19.8125 2.75 -19.8125 L 5.453125 -19.8125 C 5.628906 -19.8125 5.78125 -19.75 5.90625 -19.625 C 6.03125 -19.5 6.09375 -19.351562 6.09375 -19.1875 L 6.09375 -11.875 L 14.015625 -11.875 Z M 14.015625 -19.1875 "/></g></g><g style="fill:#393be5;fill-opacity:1;"><g transform="translate(205.693278, 26.822825)"><path style="stroke:none" d="M 7.21875 0 C 6.53125 0 5.875 -0.132812 5.25 -0.40625 C 4.632812 -0.675781 4.097656 -1.039062 3.640625 -1.5 C 3.179688 -1.96875 2.816406 -2.507812 2.546875 -3.125 C 2.273438 -3.738281 2.140625 -4.398438 2.140625 -5.109375 L 2.140625 -19.1875 C 2.140625 -19.351562 2.203125 -19.5 2.328125 -19.625 C 2.453125 -19.75 2.601562 -19.8125 2.78125 -19.8125 L 5.453125 -19.8125 C 5.628906 -19.8125 5.78125 -19.75 5.90625 -19.625 C 6.03125 -19.5 6.09375 -19.351562 6.09375 -19.1875 L 6.09375 -5.109375 C 6.09375 -4.785156 6.203125 -4.507812 6.421875 -4.28125 C 6.648438 -4.0625 6.914062 -3.953125 7.21875 -3.953125 L 12.890625 -3.953125 C 13.210938 -3.953125 13.476562 -4.0625 13.6875 -4.28125 C 13.90625 -4.507812 14.015625 -4.785156 14.015625 -5.109375 L 14.015625 -19.1875 C 14.015625 -19.351562 14.078125 -19.5 14.203125 -19.625 C 14.328125 -19.75 14.472656 -19.8125 14.640625 -19.8125 L 17.359375 -19.8125 C 17.535156 -19.8125 17.6875 -19.75 17.8125 -19.625 C 17.9375 -19.5 18 -19.351562 18 -19.1875 L 18 -5.109375 C 18 -4.398438 17.863281 -3.738281 17.59375 -3.125 C 17.320312 -2.507812 16.953125 -1.96875 16.484375 -1.5 C 16.023438 -1.039062 15.484375 -0.675781 14.859375 -0.40625 C 14.234375 -0.132812 13.578125 0 12.890625 0 Z M 7.21875 0 "/></g></g><g style="fill:#393be5;fill-opacity:1;"><g transform="translate(225.824367, 26.822825)"><path style="stroke:none" d="M 12.890625 -19.8125 C 13.578125 -19.8125 14.226562 -19.675781 14.84375 -19.40625 C 15.46875 -19.144531 16.007812 -18.78125 16.46875 -18.3125 C 16.925781 -17.851562 17.289062 -17.316406 17.5625 -16.703125 C 17.832031 -16.085938 17.96875 -15.421875 17.96875 -14.703125 L 17.96875 -13.03125 C 17.96875 -12.4375 17.867188 -11.878906 17.671875 -11.359375 C 17.484375 -10.835938 17.226562 -10.351562 16.90625 -9.90625 C 17.226562 -9.46875 17.484375 -8.988281 17.671875 -8.46875 C 17.867188 -7.945312 17.96875 -7.390625 17.96875 -6.796875 L 17.96875 -5.109375 C 17.96875 -4.398438 17.832031 -3.738281 17.5625 -3.125 C 17.289062 -2.507812 16.925781 -1.96875 16.46875 -1.5 C 16.007812 -1.039062 15.46875 -0.675781 14.84375 -0.40625 C 14.226562 -0.132812 13.578125 0 12.890625 0 L 2.75 0 C 2.570312 0 2.425781 -0.0625 2.3125 -0.1875 C 2.195312 -0.3125 2.140625 -0.460938 2.140625 -0.640625 L 2.140625 -19.1875 C 2.140625 -19.351562 2.195312 -19.5 2.3125 -19.625 C 2.425781 -19.75 2.570312 -19.8125 2.75 -19.8125 Z M 6.09375 -11.90625 L 12.890625 -11.90625 C 13.191406 -11.90625 13.453125 -12.007812 13.671875 -12.21875 C 13.898438 -12.425781 14.015625 -12.695312 14.015625 -13.03125 L 14.015625 -14.703125 C 14.015625 -15.035156 13.898438 -15.3125 13.671875 -15.53125 C 13.453125 -15.75 13.191406 -15.859375 12.890625 -15.859375 L 6.09375 -15.859375 Z M 14.015625 -6.796875 C 14.015625 -7.117188 13.898438 -7.382812 13.671875 -7.59375 C 13.453125 -7.8125 13.191406 -7.921875 12.890625 -7.921875 L 6.09375 -7.921875 L 6.09375 -3.953125 L 12.890625 -3.953125 C 13.191406 -3.953125 13.453125 -4.0625 13.671875 -4.28125 C 13.898438 -4.507812 14.015625 -4.785156 14.015625 -5.109375 Z M 14.015625 -6.796875 "/></g></g><g style="fill:#393be5;fill-opacity:1;"><g transform="translate(245.933316, 26.822825)"><path style="stroke:none" d=""/></g></g></g></g></g></svg>