<svg xmlns="http://www.w3.org/2000/svg" xmlns:xlink="http://www.w3.org/1999/xlink" width="991" zoomAndPan="magnify" viewBox="0 0 743.25 67.499998" height="90" preserveAspectRatio="xMidYMid meet" version="1.2"><defs><clipPath id="4ec5e4c0de"><path d="M 1 1 L 715 1 L 715 37.933594 L 1 37.933594 Z M 1 1 "/></clipPath><clipPath id="964338911a"><rect x="0" width="716" y="0" height="38"/></clipPath></defs><g id="fde3a3726b"><g transform="matrix(1,0,0,1,13,14)"><g clip-path="url(#964338911a)"><g clip-rule="nonzero" clip-path="url(#4ec5e4c0de)"><path style=" stroke:none;fill-rule:nonzero;fill:#393be5;fill-opacity:1;" d="M 1.808594 1.167969 L 714.488281 1.167969 L 714.488281 37.234375 L 1.808594 37.234375 L 1.808594 1.167969 "/></g><g style="fill:#ffffff;fill-opacity:1;"><g transform="translate(13.524163, 26.870152)"><path style="stroke:none" d="M 6.5 0 L 6.5 -7.796875 L 9.09375 -7.796875 L 9.09375 0 Z M 1.296875 -12.984375 L 1.296875 -18.171875 L 3.890625 -18.171875 L 3.890625 -12.984375 Z M 3.890625 -7.796875 L 3.890625 -12.984375 L 6.5 -12.984375 L 6.5 -7.796875 Z M 9.09375 -7.796875 L 9.09375 -12.984375 L 11.6875 -12.984375 L 11.6875 -7.796875 Z M 11.6875 -12.984375 L 11.6875 -18.171875 L 14.28125 -18.171875 L 14.28125 -12.984375 Z M 11.6875 -12.984375 "/></g></g><g style="fill:#ffffff;fill-opacity:1;"><g transform="translate(32.993883, 26.870152)"><path style="stroke:none" d="M 11.6875 -2.59375 L 11.6875 0 L 3.890625 0 L 3.890625 -2.59375 Z M 1.296875 -2.59375 L 1.296875 -15.578125 L 3.890625 -15.578125 L 3.890625 -2.59375 Z M 3.890625 -15.578125 L 3.890625 -18.171875 L 11.6875 -18.171875 L 11.6875 -15.578125 Z M 11.6875 -2.59375 L 11.6875 -15.578125 L 14.28125 -15.578125 L 14.28125 -2.59375 Z M 11.6875 -2.59375 "/></g></g><g style="fill:#ffffff;fill-opacity:1;"><g transform="translate(52.463603, 26.870152)"><path style="stroke:none" d="M 11.6875 -2.59375 L 11.6875 0 L 3.890625 0 L 3.890625 -2.59375 Z M 1.296875 -2.59375 L 1.296875 -18.171875 L 3.890625 -18.171875 L 3.890625 -2.59375 Z M 11.6875 -2.59375 L 11.6875 -18.171875 L 14.28125 -18.171875 L 14.28125 -2.59375 Z M 11.6875 -2.59375 "/></g></g><g style="fill:#ffffff;fill-opacity:1;"><g transform="translate(71.933323, 26.870152)"><path style="stroke:none" d="M 1.296875 0 L 1.296875 -18.171875 L 11.6875 -18.171875 L 11.6875 -15.578125 L 3.890625 -15.578125 L 3.890625 -10.390625 L 11.6875 -10.390625 L 11.6875 -7.796875 L 9.09375 -7.796875 L 9.09375 -5.1875 L 6.5 -5.1875 L 6.5 -7.796875 L 3.890625 -7.796875 L 3.890625 0 Z M 9.09375 -2.59375 L 9.09375 -5.1875 L 11.6875 -5.1875 L 11.6875 -2.59375 Z M 11.6875 0 L 11.6875 -2.59375 L 14.28125 -2.59375 L 14.28125 0 Z M 11.6875 -10.390625 L 11.6875 -15.578125 L 14.28125 -15.578125 L 14.28125 -10.390625 Z M 11.6875 -10.390625 "/></g></g><g style="fill:#ffffff;fill-opacity:1;"><g transform="translate(91.403043, 26.870152)"><path style="stroke:none" d=""/></g></g><g style="fill:#ffffff;fill-opacity:1;"><g transform="translate(101.788521, 26.870152)"><path style="stroke:none" d="M 1.296875 0 L 1.296875 -18.171875 L 11.6875 -18.171875 L 11.6875 -15.578125 L 3.890625 -15.578125 L 3.890625 -10.390625 L 11.6875 -10.390625 L 11.6875 -7.796875 L 3.890625 -7.796875 L 3.890625 0 Z M 11.6875 -10.390625 L 11.6875 -15.578125 L 14.28125 -15.578125 L 14.28125 -10.390625 Z M 11.6875 -10.390625 "/></g></g><g style="fill:#ffffff;fill-opacity:1;"><g transform="translate(121.258241, 26.870152)"><path style="stroke:none" d="M 1.296875 0 L 1.296875 -18.171875 L 14.28125 -18.171875 L 14.28125 -15.578125 L 3.890625 -15.578125 L 3.890625 -10.390625 L 11.6875 -10.390625 L 11.6875 -7.796875 L 3.890625 -7.796875 L 3.890625 -2.59375 L 14.25 -2.59375 L 14.25 0 Z M 1.296875 0 "/></g></g><g style="fill:#ffffff;fill-opacity:1;"><g transform="translate(140.727961, 26.870152)"><path style="stroke:none" d="M 1.296875 0 L 1.296875 -18.171875 L 11.6875 -18.171875 L 11.6875 -15.578125 L 3.890625 -15.578125 L 3.890625 -10.390625 L 11.6875 -10.390625 L 11.6875 -7.796875 L 9.09375 -7.796875 L 9.09375 -5.1875 L 6.5 -5.1875 L 6.5 -7.796875 L 3.890625 -7.796875 L 3.890625 0 Z M 9.09375 -2.59375 L 9.09375 -5.1875 L 11.6875 -5.1875 L 11.6875 -2.59375 Z M 11.6875 0 L 11.6875 -2.59375 L 14.28125 -2.59375 L 14.28125 0 Z M 11.6875 -10.390625 L 11.6875 -15.578125 L 14.28125 -15.578125 L 14.28125 -10.390625 Z M 11.6875 -10.390625 "/></g></g><g style="fill:#ffffff;fill-opacity:1;"><g transform="translate(160.197681, 26.870152)"><path style="stroke:none" d="M 3.890625 -15.578125 L 3.890625 -10.390625 L 1.296875 -10.390625 L 1.296875 -15.578125 Z M 1.296875 -2.59375 L 1.296875 -5.1875 L 3.890625 -5.1875 L 3.890625 -2.59375 Z M 3.890625 0 L 3.890625 -2.59375 L 11.6875 -2.59375 L 11.6875 0 Z M 3.890625 -7.796875 L 3.890625 -10.390625 L 11.6875 -10.390625 L 11.6875 -7.796875 Z M 3.890625 -15.578125 L 3.890625 -18.171875 L 11.6875 -18.171875 L 11.6875 -15.578125 Z M 11.6875 -2.59375 L 11.6875 -7.796875 L 14.28125 -7.796875 L 14.28125 -2.59375 Z M 11.6875 -12.984375 L 11.6875 -15.578125 L 14.28125 -15.578125 L 14.28125 -12.984375 Z M 11.6875 -12.984375 "/></g></g><g style="fill:#ffffff;fill-opacity:1;"><g transform="translate(179.667401, 26.870152)"><path style="stroke:none" d="M 11.6875 -2.59375 L 11.6875 0 L 3.890625 0 L 3.890625 -2.59375 Z M 1.296875 -2.59375 L 1.296875 -15.578125 L 3.890625 -15.578125 L 3.890625 -2.59375 Z M 3.890625 -15.578125 L 3.890625 -18.171875 L 11.6875 -18.171875 L 11.6875 -15.578125 Z M 11.6875 -2.59375 L 11.6875 -15.578125 L 14.28125 -15.578125 L 14.28125 -2.59375 Z M 11.6875 -2.59375 "/></g></g><g style="fill:#ffffff;fill-opacity:1;"><g transform="translate(199.137121, 26.870152)"><path style="stroke:none" d="M 11.6875 0 L 11.6875 -7.796875 L 9.09375 -7.796875 L 9.09375 -10.390625 L 11.6875 -10.390625 L 11.6875 -18.171875 L 14.28125 -18.171875 L 14.28125 0 Z M 1.296875 0 L 1.296875 -18.171875 L 3.890625 -18.171875 L 3.890625 -15.578125 L 6.5 -15.578125 L 6.5 -12.984375 L 3.890625 -12.984375 L 3.890625 0 Z M 6.5 -10.390625 L 6.5 -12.984375 L 9.09375 -12.984375 L 9.09375 -10.390625 Z M 6.5 -10.390625 "/></g></g><g style="fill:#ffffff;fill-opacity:1;"><g transform="translate(218.606841, 26.870152)"><path style="stroke:none" d="M 1.296875 0 L 1.296875 -15.578125 L 3.890625 -15.578125 L 3.890625 -7.796875 L 11.6875 -7.796875 L 11.6875 -15.578125 L 14.28125 -15.578125 L 14.28125 0 L 11.6875 0 L 11.6875 -5.1875 L 3.890625 -5.1875 L 3.890625 0 Z M 3.890625 -15.578125 L 3.890625 -18.171875 L 11.6875 -18.171875 L 11.6875 -15.578125 Z M 3.890625 -15.578125 "/></g></g><g style="fill:#ffffff;fill-opacity:1;"><g transform="translate(238.076561, 26.870152)"><path style="stroke:none" d="M 1.296875 0 L 1.296875 -18.171875 L 3.890625 -18.171875 L 3.890625 -2.59375 L 14.28125 -2.59375 L 14.28125 0 Z M 1.296875 0 "/></g></g><g style="fill:#ffffff;fill-opacity:1;"><g transform="translate(257.546281, 26.870152)"><path style="stroke:none" d=""/></g></g><g style="fill:#ffffff;fill-opacity:1;"><g transform="translate(267.931759, 26.870152)"><path style="stroke:none" d="M 1.296875 0 L 1.296875 -18.171875 L 3.890625 -18.171875 L 3.890625 -2.59375 L 14.28125 -2.59375 L 14.28125 0 Z M 1.296875 0 "/></g></g><g style="fill:#ffffff;fill-opacity:1;"><g transform="translate(287.401479, 26.870152)"><path style="stroke:none" d="M 1.296875 0 L 1.296875 -18.171875 L 3.890625 -18.171875 L 3.890625 0 Z M 1.296875 0 "/></g></g><g style="fill:#ffffff;fill-opacity:1;"><g transform="translate(296.489199, 26.870152)"><path style="stroke:none" d="M 1.296875 0 L 1.296875 -18.171875 L 11.6875 -18.171875 L 11.6875 -15.578125 L 3.890625 -15.578125 L 3.890625 -10.390625 L 11.6875 -10.390625 L 11.6875 -7.796875 L 3.890625 -7.796875 L 3.890625 -2.59375 L 11.6875 -2.59375 L 11.6875 0 Z M 11.6875 -2.59375 L 11.6875 -7.796875 L 14.28125 -7.796875 L 14.28125 -2.59375 Z M 11.6875 -10.390625 L 11.6875 -15.578125 L 14.28125 -15.578125 L 14.28125 -10.390625 Z M 11.6875 -10.390625 "/></g></g><g style="fill:#ffffff;fill-opacity:1;"><g transform="translate(315.958919, 26.870152)"><path style="stroke:none" d="M 1.296875 0 L 1.296875 -18.171875 L 11.6875 -18.171875 L 11.6875 -15.578125 L 3.890625 -15.578125 L 3.890625 -10.390625 L 11.6875 -10.390625 L 11.6875 -7.796875 L 9.09375 -7.796875 L 9.09375 -5.1875 L 6.5 -5.1875 L 6.5 -7.796875 L 3.890625 -7.796875 L 3.890625 0 Z M 9.09375 -2.59375 L 9.09375 -5.1875 L 11.6875 -5.1875 L 11.6875 -2.59375 Z M 11.6875 0 L 11.6875 -2.59375 L 14.28125 -2.59375 L 14.28125 0 Z M 11.6875 -10.390625 L 11.6875 -15.578125 L 14.28125 -15.578125 L 14.28125 -10.390625 Z M 11.6875 -10.390625 "/></g></g><g style="fill:#ffffff;fill-opacity:1;"><g transform="translate(335.428639, 26.870152)"><path style="stroke:none" d="M 1.296875 0 L 1.296875 -15.578125 L 3.890625 -15.578125 L 3.890625 -7.796875 L 11.6875 -7.796875 L 11.6875 -15.578125 L 14.28125 -15.578125 L 14.28125 0 L 11.6875 0 L 11.6875 -5.1875 L 3.890625 -5.1875 L 3.890625 0 Z M 3.890625 -15.578125 L 3.890625 -18.171875 L 11.6875 -18.171875 L 11.6875 -15.578125 Z M 3.890625 -15.578125 "/></g></g><g style="fill:#ffffff;fill-opacity:1;"><g transform="translate(354.898359, 26.870152)"><path style="stroke:none" d="M 1.296875 0 L 1.296875 -18.171875 L 11.6875 -18.171875 L 11.6875 -15.578125 L 3.890625 -15.578125 L 3.890625 -10.390625 L 11.6875 -10.390625 L 11.6875 -7.796875 L 9.09375 -7.796875 L 9.09375 -5.1875 L 6.5 -5.1875 L 6.5 -7.796875 L 3.890625 -7.796875 L 3.890625 0 Z M 9.09375 -2.59375 L 9.09375 -5.1875 L 11.6875 -5.1875 L 11.6875 -2.59375 Z M 11.6875 0 L 11.6875 -2.59375 L 14.28125 -2.59375 L 14.28125 0 Z M 11.6875 -10.390625 L 11.6875 -15.578125 L 14.28125 -15.578125 L 14.28125 -10.390625 Z M 11.6875 -10.390625 "/></g></g><g style="fill:#ffffff;fill-opacity:1;"><g transform="translate(374.368079, 26.870152)"><path style="stroke:none" d="M 6.5 0 L 6.5 -7.796875 L 9.09375 -7.796875 L 9.09375 0 Z M 1.296875 -12.984375 L 1.296875 -18.171875 L 3.890625 -18.171875 L 3.890625 -12.984375 Z M 3.890625 -7.796875 L 3.890625 -12.984375 L 6.5 -12.984375 L 6.5 -7.796875 Z M 9.09375 -7.796875 L 9.09375 -12.984375 L 11.6875 -12.984375 L 11.6875 -7.796875 Z M 11.6875 -12.984375 L 11.6875 -18.171875 L 14.28125 -18.171875 L 14.28125 -12.984375 Z M 11.6875 -12.984375 "/></g></g><g style="fill:#ffffff;fill-opacity:1;"><g transform="translate(393.837799, 26.870152)"><path style="stroke:none" d=""/></g></g><g style="fill:#ffffff;fill-opacity:1;"><g transform="translate(404.223277, 26.870152)"><path style="stroke:none" d="M 1.296875 0 L 1.296875 -18.171875 L 14.28125 -18.171875 L 14.28125 -15.578125 L 3.890625 -15.578125 L 3.890625 -10.390625 L 11.6875 -10.390625 L 11.6875 -7.796875 L 3.890625 -7.796875 L 3.890625 0 Z M 1.296875 0 "/></g></g><g style="fill:#ffffff;fill-opacity:1;"><g transform="translate(423.692997, 26.870152)"><path style="stroke:none" d="M 11.6875 -2.59375 L 11.6875 0 L 3.890625 0 L 3.890625 -2.59375 Z M 1.296875 -2.59375 L 1.296875 -15.578125 L 3.890625 -15.578125 L 3.890625 -2.59375 Z M 3.890625 -15.578125 L 3.890625 -18.171875 L 11.6875 -18.171875 L 11.6875 -15.578125 Z M 11.6875 -2.59375 L 11.6875 -15.578125 L 14.28125 -15.578125 L 14.28125 -2.59375 Z M 11.6875 -2.59375 "/></g></g><g style="fill:#ffffff;fill-opacity:1;"><g transform="translate(443.162717, 26.870152)"><path style="stroke:none" d="M 1.296875 0 L 1.296875 -18.171875 L 11.6875 -18.171875 L 11.6875 -15.578125 L 3.890625 -15.578125 L 3.890625 -10.390625 L 11.6875 -10.390625 L 11.6875 -7.796875 L 9.09375 -7.796875 L 9.09375 -5.1875 L 6.5 -5.1875 L 6.5 -7.796875 L 3.890625 -7.796875 L 3.890625 0 Z M 9.09375 -2.59375 L 9.09375 -5.1875 L 11.6875 -5.1875 L 11.6875 -2.59375 Z M 11.6875 0 L 11.6875 -2.59375 L 14.28125 -2.59375 L 14.28125 0 Z M 11.6875 -10.390625 L 11.6875 -15.578125 L 14.28125 -15.578125 L 14.28125 -10.390625 Z M 11.6875 -10.390625 "/></g></g><g style="fill:#ffffff;fill-opacity:1;"><g transform="translate(462.632437, 26.870152)"><path style="stroke:none" d=""/></g></g><g style="fill:#ffffff;fill-opacity:1;"><g transform="translate(473.017915, 26.870152)"><path style="stroke:none" d="M 3.890625 -15.578125 L 3.890625 -10.390625 L 1.296875 -10.390625 L 1.296875 -15.578125 Z M 1.296875 -2.59375 L 1.296875 -5.1875 L 3.890625 -5.1875 L 3.890625 -2.59375 Z M 3.890625 0 L 3.890625 -2.59375 L 11.6875 -2.59375 L 11.6875 0 Z M 3.890625 -7.796875 L 3.890625 -10.390625 L 11.6875 -10.390625 L 11.6875 -7.796875 Z M 3.890625 -15.578125 L 3.890625 -18.171875 L 11.6875 -18.171875 L 11.6875 -15.578125 Z M 11.6875 -2.59375 L 11.6875 -7.796875 L 14.28125 -7.796875 L 14.28125 -2.59375 Z M 11.6875 -12.984375 L 11.6875 -15.578125 L 14.28125 -15.578125 L 14.28125 -12.984375 Z M 11.6875 -12.984375 "/></g></g><g style="fill:#ffffff;fill-opacity:1;"><g transform="translate(492.487635, 26.870152)"><path style="stroke:none" d="M 1.296875 0 L 1.296875 -18.171875 L 3.890625 -18.171875 L 3.890625 -10.390625 L 9.09375 -10.390625 L 9.09375 -7.796875 L 3.890625 -7.796875 L 3.890625 0 Z M 9.09375 -5.1875 L 9.09375 -7.796875 L 11.6875 -7.796875 L 11.6875 -5.1875 Z M 9.09375 -10.390625 L 9.09375 -12.984375 L 11.6875 -12.984375 L 11.6875 -10.390625 Z M 11.6875 0 L 11.6875 -5.1875 L 14.28125 -5.1875 L 14.28125 0 Z M 11.6875 -12.984375 L 11.6875 -18.171875 L 14.28125 -18.171875 L 14.28125 -12.984375 Z M 11.6875 -12.984375 "/></g></g><g style="fill:#ffffff;fill-opacity:1;"><g transform="translate(511.957355, 26.870152)"><path style="stroke:none" d="M 1.296875 0 L 1.296875 -18.171875 L 3.890625 -18.171875 L 3.890625 0 Z M 1.296875 0 "/></g></g><g style="fill:#ffffff;fill-opacity:1;"><g transform="translate(521.045075, 26.870152)"><path style="stroke:none" d="M 1.296875 0 L 1.296875 -18.171875 L 3.890625 -18.171875 L 3.890625 -2.59375 L 14.28125 -2.59375 L 14.28125 0 Z M 1.296875 0 "/></g></g><g style="fill:#ffffff;fill-opacity:1;"><g transform="translate(540.514795, 26.870152)"><path style="stroke:none" d="M 1.296875 0 L 1.296875 -18.171875 L 3.890625 -18.171875 L 3.890625 -2.59375 L 14.28125 -2.59375 L 14.28125 0 Z M 1.296875 0 "/></g></g><g style="fill:#ffffff;fill-opacity:1;"><g transform="translate(559.984515, 26.870152)"><path style="stroke:none" d=""/></g></g><g style="fill:#ffffff;fill-opacity:1;"><g transform="translate(570.369993, 26.870152)"><path style="stroke:none" d="M 11.6875 0 L 11.6875 -12.984375 L 9.09375 -12.984375 L 9.09375 -15.578125 L 11.6875 -15.578125 L 11.6875 -18.171875 L 14.28125 -18.171875 L 14.28125 0 Z M 1.296875 0 L 1.296875 -18.171875 L 3.890625 -18.171875 L 3.890625 -15.578125 L 6.5 -15.578125 L 6.5 -12.984375 L 3.890625 -12.984375 L 3.890625 0 Z M 6.5 -10.390625 L 6.5 -12.984375 L 9.09375 -12.984375 L 9.09375 -10.390625 Z M 6.5 -10.390625 "/></g></g><g style="fill:#ffffff;fill-opacity:1;"><g transform="translate(589.839713, 26.870152)"><path style="stroke:none" d="M 1.296875 0 L 1.296875 -15.578125 L 3.890625 -15.578125 L 3.890625 -7.796875 L 11.6875 -7.796875 L 11.6875 -15.578125 L 14.28125 -15.578125 L 14.28125 0 L 11.6875 0 L 11.6875 -5.1875 L 3.890625 -5.1875 L 3.890625 0 Z M 3.890625 -15.578125 L 3.890625 -18.171875 L 11.6875 -18.171875 L 11.6875 -15.578125 Z M 3.890625 -15.578125 "/></g></g><g style="fill:#ffffff;fill-opacity:1;"><g transform="translate(609.309433, 26.870152)"><path style="stroke:none" d="M 3.890625 -15.578125 L 3.890625 -10.390625 L 1.296875 -10.390625 L 1.296875 -15.578125 Z M 1.296875 -2.59375 L 1.296875 -5.1875 L 3.890625 -5.1875 L 3.890625 -2.59375 Z M 3.890625 0 L 3.890625 -2.59375 L 11.6875 -2.59375 L 11.6875 0 Z M 3.890625 -7.796875 L 3.890625 -10.390625 L 11.6875 -10.390625 L 11.6875 -7.796875 Z M 3.890625 -15.578125 L 3.890625 -18.171875 L 11.6875 -18.171875 L 11.6875 -15.578125 Z M 11.6875 -2.59375 L 11.6875 -7.796875 L 14.28125 -7.796875 L 14.28125 -2.59375 Z M 11.6875 -12.984375 L 11.6875 -15.578125 L 14.28125 -15.578125 L 14.28125 -12.984375 Z M 11.6875 -12.984375 "/></g></g><g style="fill:#ffffff;fill-opacity:1;"><g transform="translate(628.779153, 26.870152)"><path style="stroke:none" d="M 6.5 0 L 6.5 -15.578125 L 1.296875 -15.578125 L 1.296875 -18.171875 L 14.28125 -18.171875 L 14.28125 -15.578125 L 9.09375 -15.578125 L 9.09375 0 Z M 6.5 0 "/></g></g><g style="fill:#ffffff;fill-opacity:1;"><g transform="translate(648.248873, 26.870152)"><path style="stroke:none" d="M 1.296875 0 L 1.296875 -18.171875 L 14.28125 -18.171875 L 14.28125 -15.578125 L 3.890625 -15.578125 L 3.890625 -10.390625 L 11.6875 -10.390625 L 11.6875 -7.796875 L 3.890625 -7.796875 L 3.890625 -2.59375 L 14.25 -2.59375 L 14.25 0 Z M 1.296875 0 "/></g></g><g style="fill:#ffffff;fill-opacity:1;"><g transform="translate(667.718593, 26.870152)"><path style="stroke:none" d="M 1.296875 0 L 1.296875 -18.171875 L 11.6875 -18.171875 L 11.6875 -15.578125 L 3.890625 -15.578125 L 3.890625 -10.390625 L 11.6875 -10.390625 L 11.6875 -7.796875 L 9.09375 -7.796875 L 9.09375 -5.1875 L 6.5 -5.1875 L 6.5 -7.796875 L 3.890625 -7.796875 L 3.890625 0 Z M 9.09375 -2.59375 L 9.09375 -5.1875 L 11.6875 -5.1875 L 11.6875 -2.59375 Z M 11.6875 0 L 11.6875 -2.59375 L 14.28125 -2.59375 L 14.28125 0 Z M 11.6875 -10.390625 L 11.6875 -15.578125 L 14.28125 -15.578125 L 14.28125 -10.390625 Z M 11.6875 -10.390625 "/></g></g><g style="fill:#ffffff;fill-opacity:1;"><g transform="translate(687.188313, 26.870152)"><path style="stroke:none" d="M 6.5 0 L 6.5 -7.796875 L 9.09375 -7.796875 L 9.09375 0 Z M 1.296875 -12.984375 L 1.296875 -18.171875 L 3.890625 -18.171875 L 3.890625 -12.984375 Z M 3.890625 -7.796875 L 3.890625 -12.984375 L 6.5 -12.984375 L 6.5 -7.796875 Z M 9.09375 -7.796875 L 9.09375 -12.984375 L 11.6875 -12.984375 L 11.6875 -7.796875 Z M 11.6875 -12.984375 L 11.6875 -18.171875 L 14.28125 -18.171875 L 14.28125 -12.984375 Z M 11.6875 -12.984375 "/></g></g><g style="fill:#ffffff;fill-opacity:1;"><g transform="translate(706.670674, 26.870152)"><path style="stroke:none" d=""/></g></g></g></g></g></svg>