<svg xmlns="http://www.w3.org/2000/svg" xmlns:xlink="http://www.w3.org/1999/xlink" width="71" zoomAndPan="magnify" viewBox="0 0 53.25 65.25" height="87" preserveAspectRatio="xMidYMid meet" version="1.2"><defs><clipPath id="3709239f1f"><path d="M 1 6.175781 L 51 6.175781 L 51 57.945312 L 1 57.945312 Z M 1 6.175781 "/></clipPath></defs><g id="bd701d2424"><g clip-rule="nonzero" clip-path="url(#3709239f1f)"><path style=" stroke:none;fill-rule:evenodd;fill:#312f84;fill-opacity:1;" d="M 21.214844 9.375 C 23.523438 6.1875 28.273438 6.1875 30.582031 9.375 C 30.8125 9.691406 31.238281 9.789062 31.582031 9.601562 C 35.046875 7.734375 39.324219 9.792969 40.023438 13.667969 C 40.089844 14.050781 40.433594 14.324219 40.824219 14.308594 C 44.753906 14.125 47.714844 17.835938 46.664062 21.628906 C 46.558594 22.007812 46.75 22.402344 47.109375 22.554688 C 50.730469 24.097656 51.785156 28.726562 49.191406 31.6875 C 48.9375 31.980469 48.9375 32.417969 49.191406 32.710938 C 51.785156 35.671875 50.730469 40.300781 47.109375 41.84375 C 46.75 41.996094 46.558594 42.390625 46.664062 42.769531 C 47.714844 46.558594 44.753906 50.273438 40.824219 50.089844 C 40.433594 50.074219 40.089844 50.347656 40.023438 50.730469 C 39.324219 54.605469 35.046875 56.664062 31.582031 54.792969 C 31.238281 54.609375 30.8125 54.707031 30.582031 55.023438 C 28.273438 58.210938 23.523438 58.210938 21.214844 55.023438 C 20.988281 54.707031 20.558594 54.609375 20.214844 54.792969 C 16.753906 56.664062 12.472656 54.605469 11.777344 50.730469 C 11.707031 50.347656 11.363281 50.074219 10.972656 50.089844 C 7.042969 50.273438 4.082031 46.558594 5.132812 42.769531 C 5.238281 42.390625 5.046875 41.996094 4.6875 41.84375 C 1.070312 40.300781 0.0117188 35.671875 2.605469 32.710938 C 2.863281 32.417969 2.863281 31.980469 2.605469 31.6875 C 0.0117188 28.726562 1.070312 24.097656 4.6875 22.554688 C 5.046875 22.402344 5.238281 22.007812 5.132812 21.628906 C 4.082031 17.835938 7.042969 14.125 10.972656 14.308594 C 11.363281 14.324219 11.707031 14.050781 11.777344 13.667969 C 12.472656 9.792969 16.753906 7.734375 20.214844 9.601562 C 20.558594 9.789062 20.988281 9.691406 21.214844 9.375 Z M 26.53125 12.3125 C 26.21875 11.882812 25.578125 11.882812 25.269531 12.3125 C 23.566406 14.660156 20.390625 15.382812 17.839844 14.007812 C 17.371094 13.753906 16.796875 14.03125 16.703125 14.554688 C 16.1875 17.40625 13.640625 19.441406 10.742188 19.304688 C 10.214844 19.28125 9.816406 19.78125 9.957031 20.292969 C 10.730469 23.085938 9.316406 26.023438 6.648438 27.160156 C 6.164062 27.367188 6.019531 27.988281 6.371094 28.386719 C 8.28125 30.570312 8.28125 33.828125 6.371094 36.007812 C 6.019531 36.410156 6.164062 37.03125 6.648438 37.238281 C 9.316406 38.375 10.730469 41.3125 9.957031 44.105469 C 9.816406 44.617188 10.214844 45.117188 10.742188 45.09375 C 13.640625 44.957031 16.1875 46.988281 16.703125 49.84375 C 16.796875 50.367188 17.371094 50.644531 17.839844 50.390625 C 20.390625 49.011719 23.566406 49.738281 25.269531 52.085938 C 25.578125 52.515625 26.21875 52.515625 26.53125 52.085938 C 28.230469 49.738281 31.410156 49.011719 33.960938 50.390625 C 34.425781 50.644531 35.003906 50.367188 35.097656 49.84375 C 35.609375 46.988281 38.160156 44.957031 41.054688 45.09375 C 41.585938 45.117188 41.984375 44.617188 41.839844 44.105469 C 41.066406 41.3125 42.480469 38.375 45.148438 37.238281 C 45.636719 37.03125 45.777344 36.410156 45.429688 36.007812 C 43.519531 33.828125 43.519531 30.570312 45.429688 28.386719 C 45.777344 27.988281 45.636719 27.367188 45.148438 27.160156 C 42.480469 26.023438 41.066406 23.085938 41.839844 20.292969 C 41.984375 19.78125 41.585938 19.28125 41.054688 19.304688 C 38.160156 19.441406 35.609375 17.40625 35.097656 14.554688 C 35.003906 14.03125 34.425781 13.753906 33.960938 14.007812 C 31.410156 15.382812 28.230469 14.660156 26.53125 12.3125 Z M 26.53125 12.3125 "/></g><path style=" stroke:none;fill-rule:evenodd;fill:#312f84;fill-opacity:1;" d="M 36.765625 29.417969 L 25.394531 40.792969 C 24.921875 41.261719 24.285156 41.527344 23.625 41.527344 C 22.960938 41.527344 22.324219 41.261719 21.855469 40.792969 L 15.03125 33.96875 L 18.566406 30.429688 L 23.625 35.484375 L 33.226562 25.878906 Z M 36.765625 29.417969 "/><path style=" stroke:none;fill-rule:evenodd;fill:#312f84;fill-opacity:1;" d="M 25.898438 19.914062 C 19.113281 19.914062 13.613281 25.414062 13.613281 32.199219 C 13.613281 38.984375 19.113281 44.484375 25.898438 44.484375 C 32.683594 44.484375 38.183594 38.984375 38.183594 32.199219 C 38.183594 25.414062 32.683594 19.914062 25.898438 19.914062 Z M 8.609375 32.199219 C 8.609375 22.652344 16.351562 14.910156 25.898438 14.910156 C 35.445312 14.910156 43.1875 22.652344 43.1875 32.199219 C 43.1875 41.746094 35.445312 49.488281 25.898438 49.488281 C 16.351562 49.488281 8.609375 41.746094 8.609375 32.199219 Z M 8.609375 32.199219 "/></g></svg>