<svg xmlns="http://www.w3.org/2000/svg" xmlns:xlink="http://www.w3.org/1999/xlink" width="130" zoomAndPan="magnify" viewBox="0 0 97.5 91.5" height="122" preserveAspectRatio="xMidYMid meet" version="1.2"><defs><clipPath id="cdc9a7d042"><path d="M 34 17.011719 L 84.976562 17.011719 L 84.976562 73.703125 L 34 73.703125 Z M 34 17.011719 "/></clipPath></defs><g id="aacaf67e5b"><g clip-rule="nonzero" clip-path="url(#cdc9a7d042)"><path style=" stroke:none;fill-rule:nonzero;fill:#393be5;fill-opacity:1;" d="M 43.617188 18.785156 C 41.84375 19.757812 39.363281 21.886719 38.125 23.390625 C 35.730469 26.667969 33.785156 32.957031 34.582031 34.996094 C 35.820312 38.449219 40.25 36.589844 40.25 32.691406 C 40.25 29.503906 43.617188 24.984375 46.894531 23.570312 C 51.054688 21.886719 67.53125 21.886719 71.695312 23.570312 C 77.453125 26.046875 78.339844 28.792969 78.339844 45.359375 C 78.339844 61.921875 77.453125 64.667969 71.695312 67.148438 C 67.53125 68.832031 51.054688 68.832031 46.894531 67.148438 C 43.617188 65.730469 40.25 61.214844 40.25 58.027344 C 40.25 54.128906 35.820312 52.269531 34.582031 55.722656 C 33.785156 57.757812 35.730469 64.046875 38.210938 67.328125 C 42.199219 72.640625 45.742188 73.703125 59.292969 73.703125 C 72.847656 73.703125 76.390625 72.640625 80.375 67.328125 C 83.652344 62.984375 84.539062 58.46875 84.539062 45.359375 C 84.539062 32.25 83.652344 27.730469 80.375 23.390625 C 76.390625 18.078125 72.847656 17.011719 59.117188 17.011719 C 48.753906 17.101562 46.363281 17.367188 43.617188 18.785156 Z M 43.617188 18.785156 "/></g><path style=" stroke:none;fill-rule:nonzero;fill:#393be5;fill-opacity:1;" d="M 53.714844 32.25 C 52.03125 33.933594 52.386719 34.816406 56.371094 38.890625 L 60.089844 42.703125 L 36.972656 42.703125 C 17.574219 42.703125 13.675781 42.878906 12.789062 44.03125 C 11.90625 45.09375 11.90625 45.625 12.789062 46.6875 C 13.675781 47.839844 17.574219 48.015625 36.972656 48.015625 L 60.089844 48.015625 L 56.195312 52.003906 C 53.003906 55.28125 52.386719 56.34375 53.183594 57.492188 C 53.714844 58.292969 54.597656 59.175781 55.132812 59.355469 C 56.546875 59.796875 69.480469 47.21875 69.480469 45.359375 C 69.480469 43.851562 57.078125 31.1875 55.574219 31.1875 C 55.132812 31.1875 54.332031 31.628906 53.714844 32.25 Z M 53.714844 32.25 "/></g></svg>