<svg xmlns="http://www.w3.org/2000/svg" xmlns:xlink="http://www.w3.org/1999/xlink" width="75" zoomAndPan="magnify" viewBox="0 0 56.25 42" height="56" preserveAspectRatio="xMidYMid meet" version="1.2"><defs><clipPath id="bb6bb86cfd"><path d="M 12.925781 13 L 42.226562 13 L 42.226562 33 L 12.925781 33 Z M 12.925781 13 "/></clipPath><clipPath id="5508b94fc9"><path d="M 12.925781 8 L 42.226562 8 L 42.226562 16 L 12.925781 16 Z M 12.925781 8 "/></clipPath><clipPath id="44a0c7c79f"><path d="M 16 5.898438 L 19 5.898438 L 19 13 L 16 13 Z M 16 5.898438 "/></clipPath><clipPath id="bb5c829181"><path d="M 21 5.898438 L 24 5.898438 L 24 13 L 21 13 Z M 21 5.898438 "/></clipPath><clipPath id="a9252f27ea"><path d="M 26 5.898438 L 29 5.898438 L 29 13 L 26 13 Z M 26 5.898438 "/></clipPath><clipPath id="88818cbcfa"><path d="M 31 5.898438 L 34 5.898438 L 34 13 L 31 13 Z M 31 5.898438 "/></clipPath><clipPath id="5c2d95dd2c"><path d="M 36 5.898438 L 39 5.898438 L 39 13 L 36 13 Z M 36 5.898438 "/></clipPath></defs><g id="357fc1ccbd"><path style=" stroke:none;fill-rule:nonzero;fill:#ffffff;fill-opacity:1;" d="M 13.378906 32.769531 C 13.253906 32.769531 13.152344 32.667969 13.152344 32.542969 L 13.152344 13.761719 C 13.152344 13.636719 13.253906 13.535156 13.378906 13.535156 L 41.777344 13.535156 C 41.898438 13.535156 42 13.636719 42 13.761719 L 42 32.542969 C 42 32.667969 41.898438 32.769531 41.777344 32.769531 L 13.378906 32.769531 "/><g clip-rule="nonzero" clip-path="url(#bb6bb86cfd)"><path style=" stroke:none;fill-rule:nonzero;fill:#371b20;fill-opacity:1;" d="M 41.777344 13.3125 L 13.378906 13.3125 C 13.128906 13.3125 12.925781 13.511719 12.925781 13.761719 L 12.925781 32.542969 C 12.925781 32.792969 13.128906 32.996094 13.378906 32.996094 L 41.777344 32.996094 C 42.023438 32.996094 42.226562 32.792969 42.226562 32.542969 L 42.226562 13.761719 C 42.226562 13.511719 42.023438 13.3125 41.777344 13.3125 Z M 41.777344 13.761719 L 41.777344 32.542969 L 13.378906 32.542969 L 13.378906 13.761719 L 41.777344 13.761719 "/></g><path style=" stroke:none;fill-rule:nonzero;fill:#b72431;fill-opacity:1;" d="M 13.378906 15.046875 C 13.253906 15.046875 13.152344 14.945312 13.152344 14.820312 L 13.152344 8.785156 C 13.152344 8.660156 13.253906 8.558594 13.378906 8.558594 L 41.777344 8.558594 C 41.898438 8.558594 42 8.660156 42 8.785156 L 42 14.820312 C 42 14.945312 41.898438 15.046875 41.777344 15.046875 L 13.378906 15.046875 "/><g clip-rule="nonzero" clip-path="url(#5508b94fc9)"><path style=" stroke:none;fill-rule:nonzero;fill:#371b20;fill-opacity:1;" d="M 41.777344 8.332031 L 13.378906 8.332031 C 13.128906 8.332031 12.925781 8.535156 12.925781 8.785156 L 12.925781 14.820312 C 12.925781 15.070312 13.128906 15.273438 13.378906 15.273438 L 41.777344 15.273438 C 42.023438 15.273438 42.226562 15.070312 42.226562 14.820312 L 42.226562 8.785156 C 42.226562 8.535156 42.023438 8.332031 41.777344 8.332031 Z M 41.777344 8.785156 L 41.777344 14.820312 L 13.378906 14.820312 L 13.378906 8.785156 L 41.777344 8.785156 "/></g><path style=" stroke:none;fill-rule:nonzero;fill:#7088a0;fill-opacity:1;" d="M 17.773438 13.007812 C 16.902344 13.007812 16.195312 12.296875 16.195312 11.425781 C 16.195312 10.550781 16.902344 9.839844 17.773438 9.839844 C 18.640625 9.839844 19.351562 10.550781 19.351562 11.425781 C 19.351562 12.296875 18.640625 13.007812 17.773438 13.007812 "/><path style=" stroke:none;fill-rule:nonzero;fill:#371b20;fill-opacity:1;" d="M 17.773438 9.613281 C 16.777344 9.613281 15.96875 10.425781 15.96875 11.425781 C 15.96875 12.421875 16.777344 13.234375 17.773438 13.234375 C 18.765625 13.234375 19.574219 12.421875 19.574219 11.425781 C 19.574219 10.425781 18.765625 9.613281 17.773438 9.613281 Z M 17.773438 10.066406 C 18.519531 10.066406 19.125 10.675781 19.125 11.425781 C 19.125 12.175781 18.519531 12.78125 17.773438 12.78125 C 17.027344 12.78125 16.421875 12.175781 16.421875 11.425781 C 16.421875 10.675781 17.027344 10.066406 17.773438 10.066406 "/><path style=" stroke:none;fill-rule:nonzero;fill:#7088a0;fill-opacity:1;" d="M 22.675781 13.007812 C 21.804688 13.007812 21.097656 12.296875 21.097656 11.425781 C 21.097656 10.550781 21.804688 9.839844 22.675781 9.839844 C 23.542969 9.839844 24.253906 10.550781 24.253906 11.425781 C 24.253906 12.296875 23.542969 13.007812 22.675781 13.007812 "/><path style=" stroke:none;fill-rule:nonzero;fill:#371b20;fill-opacity:1;" d="M 22.675781 9.613281 C 21.679688 9.613281 20.871094 10.425781 20.871094 11.425781 C 20.871094 12.421875 21.679688 13.234375 22.675781 13.234375 C 23.667969 13.234375 24.476562 12.421875 24.476562 11.425781 C 24.476562 10.425781 23.667969 9.613281 22.675781 9.613281 Z M 22.675781 10.066406 C 23.421875 10.066406 24.027344 10.675781 24.027344 11.425781 C 24.027344 12.175781 23.421875 12.78125 22.675781 12.78125 C 21.925781 12.78125 21.320312 12.175781 21.320312 11.425781 C 21.320312 10.675781 21.925781 10.066406 22.675781 10.066406 "/><path style=" stroke:none;fill-rule:nonzero;fill:#7088a0;fill-opacity:1;" d="M 27.578125 13.007812 C 26.707031 13.007812 26 12.296875 26 11.425781 C 26 10.550781 26.707031 9.839844 27.578125 9.839844 C 28.445312 9.839844 29.152344 10.550781 29.152344 11.425781 C 29.152344 12.296875 28.445312 13.007812 27.578125 13.007812 "/><path style=" stroke:none;fill-rule:nonzero;fill:#371b20;fill-opacity:1;" d="M 27.578125 9.613281 C 26.582031 9.613281 25.773438 10.425781 25.773438 11.425781 C 25.773438 12.421875 26.582031 13.234375 27.578125 13.234375 C 28.570312 13.234375 29.378906 12.421875 29.378906 11.425781 C 29.378906 10.425781 28.570312 9.613281 27.578125 9.613281 Z M 27.578125 10.066406 C 28.324219 10.066406 28.929688 10.675781 28.929688 11.425781 C 28.929688 12.175781 28.324219 12.78125 27.578125 12.78125 C 26.828125 12.78125 26.222656 12.175781 26.222656 11.425781 C 26.222656 10.675781 26.828125 10.066406 27.578125 10.066406 "/><path style=" stroke:none;fill-rule:nonzero;fill:#7088a0;fill-opacity:1;" d="M 32.476562 13.007812 C 31.609375 13.007812 30.902344 12.296875 30.902344 11.425781 C 30.902344 10.550781 31.609375 9.839844 32.476562 9.839844 C 33.347656 9.839844 34.054688 10.550781 34.054688 11.425781 C 34.054688 12.296875 33.347656 13.007812 32.476562 13.007812 "/><path style=" stroke:none;fill-rule:nonzero;fill:#371b20;fill-opacity:1;" d="M 32.476562 9.613281 C 31.484375 9.613281 30.675781 10.425781 30.675781 11.425781 C 30.675781 12.421875 31.484375 13.234375 32.476562 13.234375 C 33.472656 13.234375 34.28125 12.421875 34.28125 11.425781 C 34.28125 10.425781 33.472656 9.613281 32.476562 9.613281 Z M 32.476562 10.066406 C 33.226562 10.066406 33.832031 10.675781 33.832031 11.425781 C 33.832031 12.175781 33.226562 12.78125 32.476562 12.78125 C 31.730469 12.78125 31.125 12.175781 31.125 11.425781 C 31.125 10.675781 31.730469 10.066406 32.476562 10.066406 "/><path style=" stroke:none;fill-rule:nonzero;fill:#7088a0;fill-opacity:1;" d="M 37.378906 13.007812 C 36.511719 13.007812 35.804688 12.296875 35.804688 11.425781 C 35.804688 10.550781 36.511719 9.839844 37.378906 9.839844 C 38.25 9.839844 38.957031 10.550781 38.957031 11.425781 C 38.957031 12.296875 38.25 13.007812 37.378906 13.007812 "/><path style=" stroke:none;fill-rule:nonzero;fill:#371b20;fill-opacity:1;" d="M 37.378906 9.613281 C 36.386719 9.613281 35.578125 10.425781 35.578125 11.425781 C 35.578125 12.421875 36.386719 13.234375 37.378906 13.234375 C 38.375 13.234375 39.183594 12.421875 39.183594 11.425781 C 39.183594 10.425781 38.375 9.613281 37.378906 9.613281 Z M 37.378906 10.066406 C 38.128906 10.066406 38.734375 10.675781 38.734375 11.425781 C 38.734375 12.175781 38.128906 12.78125 37.378906 12.78125 C 36.632812 12.78125 36.027344 12.175781 36.027344 11.425781 C 36.027344 10.675781 36.632812 10.066406 37.378906 10.066406 "/><path style=" stroke:none;fill-rule:nonzero;fill:#b8ccd9;fill-opacity:1;" d="M 17.773438 12.105469 C 17.273438 12.105469 16.871094 11.699219 16.871094 11.199219 L 16.871094 7.03125 C 16.871094 6.53125 17.273438 6.125 17.773438 6.125 C 18.269531 6.125 18.675781 6.53125 18.675781 7.03125 L 18.675781 11.199219 C 18.675781 11.699219 18.269531 12.105469 17.773438 12.105469 "/><g clip-rule="nonzero" clip-path="url(#44a0c7c79f)"><path style=" stroke:none;fill-rule:nonzero;fill:#371b20;fill-opacity:1;" d="M 17.773438 5.898438 C 17.152344 5.898438 16.644531 6.40625 16.644531 7.03125 L 16.644531 11.199219 C 16.644531 11.824219 17.152344 12.328125 17.773438 12.328125 C 18.394531 12.328125 18.898438 11.824219 18.898438 11.199219 L 18.898438 7.03125 C 18.898438 6.40625 18.394531 5.898438 17.773438 5.898438 Z M 17.773438 6.351562 C 18.144531 6.351562 18.449219 6.65625 18.449219 7.03125 L 18.449219 11.199219 C 18.449219 11.574219 18.144531 11.878906 17.773438 11.878906 C 17.398438 11.878906 17.097656 11.574219 17.097656 11.199219 L 17.097656 7.03125 C 17.097656 6.65625 17.398438 6.351562 17.773438 6.351562 "/></g><path style=" stroke:none;fill-rule:nonzero;fill:#b8ccd9;fill-opacity:1;" d="M 22.675781 12.105469 C 22.175781 12.105469 21.773438 11.699219 21.773438 11.199219 L 21.773438 7.03125 C 21.773438 6.53125 22.175781 6.125 22.675781 6.125 C 23.171875 6.125 23.574219 6.53125 23.574219 7.03125 L 23.574219 11.199219 C 23.574219 11.699219 23.171875 12.105469 22.675781 12.105469 "/><g clip-rule="nonzero" clip-path="url(#bb5c829181)"><path style=" stroke:none;fill-rule:nonzero;fill:#371b20;fill-opacity:1;" d="M 22.675781 5.898438 C 22.054688 5.898438 21.546875 6.40625 21.546875 7.03125 L 21.546875 11.199219 C 21.546875 11.824219 22.054688 12.328125 22.675781 12.328125 C 23.296875 12.328125 23.800781 11.824219 23.800781 11.199219 L 23.800781 7.03125 C 23.800781 6.40625 23.296875 5.898438 22.675781 5.898438 Z M 22.675781 6.351562 C 23.046875 6.351562 23.351562 6.65625 23.351562 7.03125 L 23.351562 11.199219 C 23.351562 11.574219 23.046875 11.878906 22.675781 11.878906 C 22.300781 11.878906 22 11.574219 22 11.199219 L 22 7.03125 C 22 6.65625 22.300781 6.351562 22.675781 6.351562 "/></g><path style=" stroke:none;fill-rule:nonzero;fill:#b8ccd9;fill-opacity:1;" d="M 27.578125 12.105469 C 27.078125 12.105469 26.675781 11.699219 26.675781 11.199219 L 26.675781 7.03125 C 26.675781 6.53125 27.078125 6.125 27.578125 6.125 C 28.074219 6.125 28.476562 6.53125 28.476562 7.03125 L 28.476562 11.199219 C 28.476562 11.699219 28.074219 12.105469 27.578125 12.105469 "/><g clip-rule="nonzero" clip-path="url(#a9252f27ea)"><path style=" stroke:none;fill-rule:nonzero;fill:#371b20;fill-opacity:1;" d="M 27.578125 5.898438 C 26.957031 5.898438 26.449219 6.40625 26.449219 7.03125 L 26.449219 11.199219 C 26.449219 11.824219 26.957031 12.328125 27.578125 12.328125 C 28.199219 12.328125 28.703125 11.824219 28.703125 11.199219 L 28.703125 7.03125 C 28.703125 6.40625 28.199219 5.898438 27.578125 5.898438 Z M 27.578125 6.351562 C 27.949219 6.351562 28.253906 6.65625 28.253906 7.03125 L 28.253906 11.199219 C 28.253906 11.574219 27.949219 11.878906 27.578125 11.878906 C 27.203125 11.878906 26.898438 11.574219 26.898438 11.199219 L 26.898438 7.03125 C 26.898438 6.65625 27.203125 6.351562 27.578125 6.351562 "/></g><path style=" stroke:none;fill-rule:nonzero;fill:#b8ccd9;fill-opacity:1;" d="M 32.476562 12.105469 C 31.980469 12.105469 31.578125 11.699219 31.578125 11.199219 L 31.578125 7.03125 C 31.578125 6.53125 31.980469 6.125 32.476562 6.125 C 32.976562 6.125 33.378906 6.53125 33.378906 7.03125 L 33.378906 11.199219 C 33.378906 11.699219 32.976562 12.105469 32.476562 12.105469 "/><g clip-rule="nonzero" clip-path="url(#88818cbcfa)"><path style=" stroke:none;fill-rule:nonzero;fill:#371b20;fill-opacity:1;" d="M 32.476562 5.898438 C 31.855469 5.898438 31.351562 6.40625 31.351562 7.03125 L 31.351562 11.199219 C 31.351562 11.824219 31.855469 12.328125 32.476562 12.328125 C 33.101562 12.328125 33.605469 11.824219 33.605469 11.199219 L 33.605469 7.03125 C 33.605469 6.40625 33.101562 5.898438 32.476562 5.898438 Z M 32.476562 6.351562 C 32.851562 6.351562 33.15625 6.65625 33.15625 7.03125 L 33.15625 11.199219 C 33.15625 11.574219 32.851562 11.878906 32.476562 11.878906 C 32.105469 11.878906 31.800781 11.574219 31.800781 11.199219 L 31.800781 7.03125 C 31.800781 6.65625 32.105469 6.351562 32.476562 6.351562 "/></g><path style=" stroke:none;fill-rule:nonzero;fill:#b8ccd9;fill-opacity:1;" d="M 37.378906 12.105469 C 36.882812 12.105469 36.480469 11.699219 36.480469 11.199219 L 36.480469 7.03125 C 36.480469 6.53125 36.882812 6.125 37.378906 6.125 C 37.878906 6.125 38.28125 6.53125 38.28125 7.03125 L 38.28125 11.199219 C 38.28125 11.699219 37.878906 12.105469 37.378906 12.105469 "/><g clip-rule="nonzero" clip-path="url(#5c2d95dd2c)"><path style=" stroke:none;fill-rule:nonzero;fill:#371b20;fill-opacity:1;" d="M 37.378906 5.898438 C 36.757812 5.898438 36.253906 6.40625 36.253906 7.03125 L 36.253906 11.199219 C 36.253906 11.824219 36.757812 12.328125 37.378906 12.328125 C 38 12.328125 38.507812 11.824219 38.507812 11.199219 L 38.507812 7.03125 C 38.507812 6.40625 38 5.898438 37.378906 5.898438 Z M 37.378906 6.351562 C 37.753906 6.351562 38.054688 6.65625 38.054688 7.03125 L 38.054688 11.199219 C 38.054688 11.574219 37.753906 11.878906 37.378906 11.878906 C 37.007812 11.878906 36.703125 11.574219 36.703125 11.199219 L 36.703125 7.03125 C 36.703125 6.65625 37.007812 6.351562 37.378906 6.351562 "/></g><path style=" stroke:none;fill-rule:nonzero;fill:#94c5db;fill-opacity:1;" d="M 18.597656 20.664062 L 15.21875 20.664062 L 15.21875 17.269531 L 18.597656 17.269531 L 18.597656 20.664062 "/><path style=" stroke:none;fill-rule:nonzero;fill:#94c5db;fill-opacity:1;" d="M 23.933594 20.664062 L 20.550781 20.664062 L 20.550781 17.269531 L 23.933594 17.269531 L 23.933594 20.664062 "/><path style=" stroke:none;fill-rule:nonzero;fill:#94c5db;fill-opacity:1;" d="M 29.265625 20.664062 L 25.886719 20.664062 L 25.886719 17.269531 L 29.265625 17.269531 L 29.265625 20.664062 "/><path style=" stroke:none;fill-rule:nonzero;fill:#94c5db;fill-opacity:1;" d="M 34.601562 20.664062 L 31.21875 20.664062 L 31.21875 17.269531 L 34.601562 17.269531 L 34.601562 20.664062 "/><path style=" stroke:none;fill-rule:nonzero;fill:#94c5db;fill-opacity:1;" d="M 39.933594 20.664062 L 36.554688 20.664062 L 36.554688 17.269531 L 39.933594 17.269531 L 39.933594 20.664062 "/><path style=" stroke:none;fill-rule:nonzero;fill:#94c5db;fill-opacity:1;" d="M 18.597656 25.300781 L 15.21875 25.300781 L 15.21875 21.910156 L 18.597656 21.910156 L 18.597656 25.300781 "/><path style=" stroke:none;fill-rule:nonzero;fill:#94c5db;fill-opacity:1;" d="M 23.933594 25.300781 L 20.550781 25.300781 L 20.550781 21.910156 L 23.933594 21.910156 L 23.933594 25.300781 "/><path style=" stroke:none;fill-rule:nonzero;fill:#94c5db;fill-opacity:1;" d="M 29.265625 25.300781 L 25.886719 25.300781 L 25.886719 21.910156 L 29.265625 21.910156 L 29.265625 25.300781 "/><path style=" stroke:none;fill-rule:nonzero;fill:#94c5db;fill-opacity:1;" d="M 34.601562 25.300781 L 31.21875 25.300781 L 31.21875 21.910156 L 34.601562 21.910156 L 34.601562 25.300781 "/><path style=" stroke:none;fill-rule:nonzero;fill:#94c5db;fill-opacity:1;" d="M 39.933594 25.300781 L 36.554688 25.300781 L 36.554688 21.910156 L 39.933594 21.910156 L 39.933594 25.300781 "/><path style=" stroke:none;fill-rule:nonzero;fill:#94c5db;fill-opacity:1;" d="M 18.597656 29.941406 L 15.21875 29.941406 L 15.21875 26.546875 L 18.597656 26.546875 L 18.597656 29.941406 "/><path style=" stroke:none;fill-rule:nonzero;fill:#94c5db;fill-opacity:1;" d="M 23.933594 29.941406 L 20.550781 29.941406 L 20.550781 26.546875 L 23.933594 26.546875 L 23.933594 29.941406 "/><path style=" stroke:none;fill-rule:nonzero;fill:#94c5db;fill-opacity:1;" d="M 29.265625 29.941406 L 25.886719 29.941406 L 25.886719 26.546875 L 29.265625 26.546875 L 29.265625 29.941406 "/><path style=" stroke:none;fill-rule:nonzero;fill:#94c5db;fill-opacity:1;" d="M 34.601562 29.941406 L 31.21875 29.941406 L 31.21875 26.546875 L 34.601562 26.546875 L 34.601562 29.941406 "/><path style=" stroke:none;fill-rule:nonzero;fill:#94c5db;fill-opacity:1;" d="M 39.933594 29.941406 L 36.554688 29.941406 L 36.554688 26.546875 L 39.933594 26.546875 L 39.933594 29.941406 "/></g></svg>