<svg xmlns="http://www.w3.org/2000/svg" xmlns:xlink="http://www.w3.org/1999/xlink" width="264" zoomAndPan="magnify" viewBox="0 0 198 50.249999" height="67" preserveAspectRatio="xMidYMid meet" version="1.2"><defs/><g id="acc94927b3"><path style=" stroke:none;fill-rule:nonzero;fill:#393be5;fill-opacity:1;" d="M 75.421875 15.417969 L 182.425781 15.417969 L 182.425781 39.507812 L 75.421875 39.507812 L 75.421875 15.417969 "/><g style="fill:#ffffff;fill-opacity:1;"><g transform="translate(82.12696, 32.144493)"><path style="stroke:none" d="M 0.890625 0 L 0.890625 -12.484375 L 8.015625 -12.484375 L 8.015625 -10.703125 L 2.671875 -10.703125 L 2.671875 -7.125 L 8.015625 -7.125 L 8.015625 -5.34375 L 2.671875 -5.34375 L 2.671875 0 Z M 8.015625 -7.125 L 8.015625 -10.703125 L 9.8125 -10.703125 L 9.8125 -7.125 Z M 8.015625 -7.125 "/></g></g><g style="fill:#ffffff;fill-opacity:1;"><g transform="translate(95.496129, 32.144493)"><path style="stroke:none" d="M 0.890625 0 L 0.890625 -12.484375 L 2.671875 -12.484375 L 2.671875 -1.78125 L 9.8125 -1.78125 L 9.8125 0 Z M 0.890625 0 "/></g></g><g style="fill:#ffffff;fill-opacity:1;"><g transform="translate(108.865298, 32.144493)"><path style="stroke:none" d="M 0.890625 0 L 0.890625 -10.703125 L 2.671875 -10.703125 L 2.671875 -5.34375 L 8.015625 -5.34375 L 8.015625 -10.703125 L 9.8125 -10.703125 L 9.8125 0 L 8.015625 0 L 8.015625 -3.5625 L 2.671875 -3.5625 L 2.671875 0 Z M 2.671875 -10.703125 L 2.671875 -12.484375 L 8.015625 -12.484375 L 8.015625 -10.703125 Z M 2.671875 -10.703125 "/></g></g><g style="fill:#ffffff;fill-opacity:1;"><g transform="translate(122.234468, 32.144493)"><path style="stroke:none" d="M 8.015625 0 L 8.015625 -5.34375 L 6.234375 -5.34375 L 6.234375 -7.125 L 8.015625 -7.125 L 8.015625 -12.484375 L 9.8125 -12.484375 L 9.8125 0 Z M 0.890625 0 L 0.890625 -12.484375 L 2.671875 -12.484375 L 2.671875 -10.703125 L 4.453125 -10.703125 L 4.453125 -8.921875 L 2.671875 -8.921875 L 2.671875 0 Z M 4.453125 -7.125 L 4.453125 -8.921875 L 6.234375 -8.921875 L 6.234375 -7.125 Z M 4.453125 -7.125 "/></g></g><g style="fill:#ffffff;fill-opacity:1;"><g transform="translate(135.603637, 32.144493)"><path style="stroke:none" d="M 8.015625 0 L 8.015625 -5.34375 L 6.234375 -5.34375 L 6.234375 -7.125 L 8.015625 -7.125 L 8.015625 -12.484375 L 9.8125 -12.484375 L 9.8125 0 Z M 0.890625 0 L 0.890625 -12.484375 L 2.671875 -12.484375 L 2.671875 -10.703125 L 4.453125 -10.703125 L 4.453125 -8.921875 L 2.671875 -8.921875 L 2.671875 0 Z M 4.453125 -7.125 L 4.453125 -8.921875 L 6.234375 -8.921875 L 6.234375 -7.125 Z M 4.453125 -7.125 "/></g></g><g style="fill:#ffffff;fill-opacity:1;"><g transform="translate(148.972806, 32.144493)"><path style="stroke:none" d="M 0.890625 0 L 0.890625 -12.484375 L 9.8125 -12.484375 L 9.8125 -10.703125 L 2.671875 -10.703125 L 2.671875 -7.125 L 8.015625 -7.125 L 8.015625 -5.34375 L 2.671875 -5.34375 L 2.671875 -1.78125 L 9.78125 -1.78125 L 9.78125 0 Z M 0.890625 0 "/></g></g><g style="fill:#ffffff;fill-opacity:1;"><g transform="translate(162.341975, 32.144493)"><path style="stroke:none" d="M 0.890625 0 L 0.890625 -12.484375 L 8.015625 -12.484375 L 8.015625 -10.703125 L 2.671875 -10.703125 L 2.671875 -7.125 L 8.015625 -7.125 L 8.015625 -5.34375 L 6.234375 -5.34375 L 6.234375 -3.5625 L 4.453125 -3.5625 L 4.453125 -5.34375 L 2.671875 -5.34375 L 2.671875 0 Z M 6.234375 -1.78125 L 6.234375 -3.5625 L 8.015625 -3.5625 L 8.015625 -1.78125 Z M 8.015625 0 L 8.015625 -1.78125 L 9.8125 -1.78125 L 9.8125 0 Z M 8.015625 -7.125 L 8.015625 -10.703125 L 9.8125 -10.703125 L 9.8125 -7.125 Z M 8.015625 -7.125 "/></g></g><g style="fill:#ffffff;fill-opacity:1;"><g transform="translate(175.719746, 32.144493)"><path style="stroke:none" d=""/></g></g><path style=" stroke:none;fill-rule:nonzero;fill:#ffffff;fill-opacity:1;" d="M 5.625 4.636719 L 77.871094 4.636719 L 77.871094 28.789062 L 5.625 28.789062 L 5.625 4.636719 "/><g style="fill:#393be5;fill-opacity:1;"><g transform="translate(7.952607, 22.612281)"><path style="stroke:none" d="M 9.875 -9.359375 C 9.757812 -9.359375 9.660156 -9.398438 9.578125 -9.484375 C 9.492188 -9.566406 9.453125 -9.664062 9.453125 -9.78125 L 9.453125 -9.921875 C 9.453125 -10.140625 9.378906 -10.320312 9.234375 -10.46875 C 9.085938 -10.625 8.90625 -10.703125 8.6875 -10.703125 L 4.875 -10.703125 C 4.664062 -10.703125 4.484375 -10.625 4.328125 -10.46875 C 4.179688 -10.320312 4.109375 -10.140625 4.109375 -9.921875 L 4.109375 -8.78125 C 4.109375 -8.5625 4.179688 -8.378906 4.328125 -8.234375 C 4.484375 -8.085938 4.664062 -8.015625 4.875 -8.015625 L 8.6875 -8.015625 C 9.15625 -8.015625 9.597656 -7.921875 10.015625 -7.734375 C 10.429688 -7.554688 10.796875 -7.3125 11.109375 -7 C 11.421875 -6.6875 11.664062 -6.320312 11.84375 -5.90625 C 12.03125 -5.488281 12.125 -5.046875 12.125 -4.578125 L 12.125 -3.453125 C 12.125 -2.972656 12.03125 -2.523438 11.84375 -2.109375 C 11.664062 -1.691406 11.421875 -1.328125 11.109375 -1.015625 C 10.796875 -0.703125 10.429688 -0.453125 10.015625 -0.265625 C 9.597656 -0.0859375 9.15625 0 8.6875 0 L 4.875 0 C 4.40625 0 3.960938 -0.0859375 3.546875 -0.265625 C 3.128906 -0.453125 2.765625 -0.703125 2.453125 -1.015625 C 2.140625 -1.328125 1.890625 -1.691406 1.703125 -2.109375 C 1.523438 -2.523438 1.4375 -2.972656 1.4375 -3.453125 L 1.4375 -3.578125 C 1.4375 -3.703125 1.476562 -3.804688 1.5625 -3.890625 C 1.644531 -3.972656 1.75 -4.015625 1.875 -4.015625 L 3.6875 -4.015625 C 3.800781 -4.015625 3.898438 -3.972656 3.984375 -3.890625 C 4.066406 -3.804688 4.109375 -3.703125 4.109375 -3.578125 L 4.109375 -3.453125 C 4.109375 -3.234375 4.179688 -3.046875 4.328125 -2.890625 C 4.484375 -2.742188 4.664062 -2.671875 4.875 -2.671875 L 8.6875 -2.671875 C 8.90625 -2.671875 9.085938 -2.742188 9.234375 -2.890625 C 9.378906 -3.046875 9.453125 -3.234375 9.453125 -3.453125 L 9.453125 -4.578125 C 9.453125 -4.796875 9.378906 -4.976562 9.234375 -5.125 C 9.085938 -5.269531 8.90625 -5.34375 8.6875 -5.34375 L 4.875 -5.34375 C 4.40625 -5.34375 3.960938 -5.429688 3.546875 -5.609375 C 3.128906 -5.796875 2.765625 -6.039062 2.453125 -6.34375 C 2.140625 -6.65625 1.890625 -7.023438 1.703125 -7.453125 C 1.523438 -7.878906 1.4375 -8.320312 1.4375 -8.78125 L 1.4375 -9.921875 C 1.4375 -10.398438 1.523438 -10.847656 1.703125 -11.265625 C 1.890625 -11.679688 2.140625 -12.046875 2.453125 -12.359375 C 2.765625 -12.671875 3.128906 -12.914062 3.546875 -13.09375 C 3.960938 -13.269531 4.40625 -13.359375 4.875 -13.359375 L 8.6875 -13.359375 C 9.15625 -13.359375 9.597656 -13.269531 10.015625 -13.09375 C 10.429688 -12.914062 10.796875 -12.671875 11.109375 -12.359375 C 11.421875 -12.046875 11.664062 -11.679688 11.84375 -11.265625 C 12.03125 -10.847656 12.125 -10.398438 12.125 -9.921875 L 12.125 -9.78125 C 12.125 -9.664062 12.082031 -9.566406 12 -9.484375 C 11.925781 -9.398438 11.828125 -9.359375 11.703125 -9.359375 Z M 9.875 -9.359375 "/></g></g><g style="fill:#393be5;fill-opacity:1;"><g transform="translate(21.532195, 22.612281)"><path style="stroke:none" d="M 11.984375 -0.375 C 12.046875 -0.269531 12.050781 -0.179688 12 -0.109375 C 11.957031 -0.0351562 11.878906 0 11.765625 0 L 9.546875 0 C 9.429688 0 9.3125 -0.0351562 9.1875 -0.109375 C 9.070312 -0.179688 8.984375 -0.269531 8.921875 -0.375 L 6.09375 -5.34375 L 4.203125 -5.34375 L 4.203125 -0.421875 C 4.203125 -0.304688 4.160156 -0.207031 4.078125 -0.125 C 3.992188 -0.0390625 3.894531 0 3.78125 0 L 1.953125 0 C 1.828125 0 1.726562 -0.0390625 1.65625 -0.125 C 1.582031 -0.207031 1.546875 -0.304688 1.546875 -0.421875 L 1.546875 -12.9375 C 1.546875 -13.050781 1.582031 -13.148438 1.65625 -13.234375 C 1.726562 -13.316406 1.828125 -13.359375 1.953125 -13.359375 L 3.78125 -13.359375 C 3.894531 -13.359375 3.992188 -13.316406 4.078125 -13.234375 C 4.160156 -13.148438 4.203125 -13.050781 4.203125 -12.9375 L 4.203125 -8.015625 L 6.09375 -8.015625 L 8.921875 -13 C 8.984375 -13.101562 9.070312 -13.1875 9.1875 -13.25 C 9.3125 -13.320312 9.429688 -13.359375 9.546875 -13.359375 L 11.765625 -13.359375 C 11.878906 -13.359375 11.957031 -13.320312 12 -13.25 C 12.050781 -13.1875 12.046875 -13.101562 11.984375 -13 L 8.421875 -6.6875 Z M 11.984375 -0.375 "/></g></g><g style="fill:#393be5;fill-opacity:1;"><g transform="translate(35.111784, 22.612281)"><path style="stroke:none" d="M 11.890625 -11.109375 C 11.890625 -10.992188 11.84375 -10.894531 11.75 -10.8125 C 11.664062 -10.738281 11.566406 -10.703125 11.453125 -10.703125 L 8.125 -10.703125 L 8.125 -2.671875 L 11.453125 -2.671875 C 11.566406 -2.671875 11.664062 -2.628906 11.75 -2.546875 C 11.84375 -2.460938 11.890625 -2.359375 11.890625 -2.234375 L 11.890625 -0.421875 C 11.890625 -0.304688 11.84375 -0.207031 11.75 -0.125 C 11.664062 -0.0390625 11.566406 0 11.453125 0 L 2.140625 0 C 2.023438 0 1.925781 -0.0390625 1.84375 -0.125 C 1.757812 -0.207031 1.71875 -0.304688 1.71875 -0.421875 L 1.71875 -2.234375 C 1.71875 -2.359375 1.757812 -2.460938 1.84375 -2.546875 C 1.925781 -2.628906 2.023438 -2.671875 2.140625 -2.671875 L 5.453125 -2.671875 L 5.453125 -10.703125 L 2.140625 -10.703125 C 2.023438 -10.703125 1.925781 -10.738281 1.84375 -10.8125 C 1.757812 -10.894531 1.71875 -10.992188 1.71875 -11.109375 L 1.71875 -12.9375 C 1.71875 -13.050781 1.757812 -13.148438 1.84375 -13.234375 C 1.925781 -13.316406 2.023438 -13.359375 2.140625 -13.359375 L 11.453125 -13.359375 C 11.566406 -13.359375 11.664062 -13.316406 11.75 -13.234375 C 11.84375 -13.148438 11.890625 -13.050781 11.890625 -12.9375 Z M 11.890625 -11.109375 "/></g></g><g style="fill:#393be5;fill-opacity:1;"><g transform="translate(48.691372, 22.612281)"><path style="stroke:none" d="M 11.546875 0 L 2.4375 0 C 2.320312 0 2.21875 -0.0390625 2.125 -0.125 C 2.039062 -0.207031 2 -0.304688 2 -0.421875 L 2 -12.9375 C 2 -13.050781 2.039062 -13.148438 2.125 -13.234375 C 2.21875 -13.316406 2.320312 -13.359375 2.4375 -13.359375 L 4.25 -13.359375 C 4.363281 -13.359375 4.460938 -13.316406 4.546875 -13.234375 C 4.628906 -13.148438 4.671875 -13.050781 4.671875 -12.9375 L 4.671875 -2.671875 L 11.546875 -2.671875 C 11.671875 -2.671875 11.769531 -2.628906 11.84375 -2.546875 C 11.925781 -2.460938 11.96875 -2.359375 11.96875 -2.234375 L 11.96875 -0.421875 C 11.96875 -0.304688 11.925781 -0.207031 11.84375 -0.125 C 11.769531 -0.0390625 11.671875 0 11.546875 0 Z M 11.546875 0 "/></g></g><g style="fill:#393be5;fill-opacity:1;"><g transform="translate(62.27096, 22.612281)"><path style="stroke:none" d="M 11.546875 0 L 2.4375 0 C 2.320312 0 2.21875 -0.0390625 2.125 -0.125 C 2.039062 -0.207031 2 -0.304688 2 -0.421875 L 2 -12.9375 C 2 -13.050781 2.039062 -13.148438 2.125 -13.234375 C 2.21875 -13.316406 2.320312 -13.359375 2.4375 -13.359375 L 4.25 -13.359375 C 4.363281 -13.359375 4.460938 -13.316406 4.546875 -13.234375 C 4.628906 -13.148438 4.671875 -13.050781 4.671875 -12.9375 L 4.671875 -2.671875 L 11.546875 -2.671875 C 11.671875 -2.671875 11.769531 -2.628906 11.84375 -2.546875 C 11.925781 -2.460938 11.96875 -2.359375 11.96875 -2.234375 L 11.96875 -0.421875 C 11.96875 -0.304688 11.925781 -0.207031 11.84375 -0.125 C 11.769531 -0.0390625 11.671875 0 11.546875 0 Z M 11.546875 0 "/></g></g><g style="fill:#393be5;fill-opacity:1;"><g transform="translate(75.857564, 22.612281)"><path style="stroke:none" d=""/></g></g></g></svg>