<svg xmlns="http://www.w3.org/2000/svg" xmlns:xlink="http://www.w3.org/1999/xlink" width="78" zoomAndPan="magnify" viewBox="0 0 58.5 48" height="64" preserveAspectRatio="xMidYMid meet" version="1.2"><defs><clipPath id="f32050b9d7"><path d="M 12.0625 8.695312 L 44.386719 8.695312 L 44.386719 46.164062 L 12.0625 46.164062 Z M 12.0625 8.695312 "/></clipPath></defs><g id="ac6e3a0028"><g clip-rule="nonzero" clip-path="url(#f32050b9d7)"><path style=" stroke:none;fill-rule:nonzero;fill:#000000;fill-opacity:1;" d="M 38.695312 23.992188 L 38.695312 12.589844 C 38.695312 12.082031 38.597656 11.59375 38.402344 11.121094 C 38.207031 10.652344 37.929688 10.238281 37.570312 9.878906 C 37.210938 9.519531 36.800781 9.242188 36.332031 9.050781 C 35.863281 8.855469 35.375 8.757812 34.867188 8.761719 L 15.863281 8.761719 C 15.355469 8.761719 14.871094 8.859375 14.402344 9.050781 C 13.933594 9.246094 13.519531 9.523438 13.164062 9.882812 C 12.804688 10.242188 12.527344 10.65625 12.335938 11.125 C 12.140625 11.59375 12.042969 12.082031 12.042969 12.589844 L 12.042969 36.230469 C 12.042969 36.738281 12.140625 37.230469 12.332031 37.699219 C 12.527344 38.167969 12.804688 38.582031 13.160156 38.941406 C 13.519531 39.304688 13.933594 39.578125 14.398438 39.773438 C 14.867188 39.96875 15.355469 40.066406 15.863281 40.066406 L 34.867188 40.066406 C 34.957031 40.066406 35.042969 40.066406 35.128906 40.066406 C 35.046875 40.519531 34.949219 40.980469 34.820312 41.46875 C 34.703125 41.945312 34.640625 42.429688 34.640625 42.921875 C 34.640625 44.988281 35.710938 46.125 37.644531 46.125 C 39.578125 46.125 40.636719 44.988281 40.640625 42.921875 C 40.640625 42.429688 40.582031 41.945312 40.460938 41.46875 C 40.160156 40.351562 39.972656 39.214844 39.90625 38.054688 L 39.90625 37.800781 C 39.90625 37.472656 39.867188 37.148438 39.832031 36.828125 L 39.8125 36.464844 C 40.488281 36.230469 41.105469 35.886719 41.667969 35.441406 C 42.230469 35 42.703125 34.472656 43.09375 33.871094 C 43.480469 33.265625 43.761719 32.617188 43.929688 31.917969 C 44.101562 31.222656 44.15625 30.515625 44.09375 29.800781 C 44.03125 29.085938 43.855469 28.398438 43.5625 27.742188 C 43.273438 27.085938 42.882812 26.496094 42.394531 25.96875 C 41.910156 25.441406 41.347656 25.011719 40.71875 24.671875 C 40.085938 24.332031 39.417969 24.105469 38.714844 23.992188 Z M 34.867188 38.824219 L 15.863281 38.824219 C 15.519531 38.824219 15.191406 38.757812 14.875 38.628906 C 14.558594 38.496094 14.277344 38.308594 14.035156 38.066406 C 13.792969 37.820312 13.605469 37.542969 13.476562 37.222656 C 13.34375 36.90625 13.277344 36.574219 13.277344 36.230469 L 13.277344 12.589844 C 13.277344 12.246094 13.34375 11.917969 13.476562 11.597656 C 13.609375 11.28125 13.796875 11.003906 14.039062 10.757812 C 14.28125 10.515625 14.558594 10.328125 14.875 10.199219 C 15.191406 10.066406 15.519531 10 15.863281 10 L 34.867188 10 C 35.210938 10 35.539062 10.066406 35.855469 10.199219 C 36.171875 10.332031 36.449219 10.515625 36.691406 10.761719 C 36.933594 11.003906 37.117188 11.28125 37.25 11.597656 C 37.378906 11.917969 37.445312 12.246094 37.445312 12.589844 L 37.445312 23.910156 C 36.066406 23.949219 34.832031 24.390625 33.738281 25.234375 C 33.640625 24.960938 33.449219 24.820312 33.164062 24.816406 L 26.285156 24.816406 C 26.113281 24.816406 25.96875 24.878906 25.847656 25 C 25.726562 25.121094 25.664062 25.265625 25.664062 25.4375 C 25.664062 25.609375 25.726562 25.753906 25.847656 25.875 C 25.96875 25.996094 26.113281 26.058594 26.285156 26.058594 L 32.859375 26.058594 C 31.777344 27.265625 31.230469 28.679688 31.214844 30.304688 L 26.269531 30.304688 C 26.101562 30.304688 25.953125 30.363281 25.832031 30.484375 C 25.714844 30.605469 25.652344 30.753906 25.652344 30.925781 C 25.652344 31.09375 25.714844 31.242188 25.832031 31.363281 C 25.953125 31.484375 26.101562 31.546875 26.269531 31.546875 L 31.308594 31.546875 C 31.425781 32.171875 31.628906 32.769531 31.925781 33.332031 L 26.285156 33.332031 C 26.113281 33.332031 25.96875 33.394531 25.847656 33.515625 C 25.726562 33.636719 25.664062 33.78125 25.664062 33.953125 C 25.664062 34.125 25.726562 34.269531 25.847656 34.390625 C 25.96875 34.511719 26.113281 34.574219 26.285156 34.574219 L 32.761719 34.574219 C 33.507812 35.453125 34.429688 36.085938 35.519531 36.464844 L 35.472656 36.8125 C 35.4375 37.222656 35.414062 37.628906 35.386719 38.054688 C 35.386719 38.304688 35.355469 38.550781 35.332031 38.808594 C 35.179688 38.824219 35.023438 38.832031 34.867188 38.824219 Z M 38.578125 36.964844 C 38.613281 37.265625 38.632812 37.582031 38.644531 37.863281 L 38.644531 38.113281 C 38.726562 39.359375 38.929688 40.582031 39.261719 41.785156 C 39.359375 42.15625 39.40625 42.53125 39.40625 42.914062 C 39.40625 44.3125 38.890625 44.875 37.644531 44.875 C 36.394531 44.875 35.875 44.292969 35.875 42.914062 C 35.878906 42.527344 35.925781 42.144531 36.019531 41.765625 C 36.226562 40.972656 36.382812 40.171875 36.496094 39.359375 C 36.550781 38.941406 36.59375 38.535156 36.613281 38.117188 C 36.628906 37.703125 36.65625 37.347656 36.691406 36.96875 L 36.691406 36.796875 C 37 36.84375 37.308594 36.867188 37.621094 36.871094 C 37.941406 36.855469 38.261719 36.808594 38.578125 36.738281 Z M 37.648438 35.605469 C 37.007812 35.601562 36.390625 35.484375 35.792969 35.253906 C 35.195312 35.023438 34.65625 34.691406 34.179688 34.261719 C 33.703125 33.832031 33.316406 33.332031 33.023438 32.761719 C 32.730469 32.1875 32.546875 31.582031 32.476562 30.941406 C 32.476562 30.941406 32.476562 30.910156 32.476562 30.894531 C 32.476562 30.730469 32.476562 30.558594 32.476562 30.390625 C 32.476562 30.046875 32.511719 29.707031 32.578125 29.371094 C 32.644531 29.035156 32.742188 28.707031 32.871094 28.390625 C 33.003906 28.074219 33.164062 27.773438 33.355469 27.488281 C 33.542969 27.203125 33.757812 26.9375 34 26.695312 C 34.242188 26.453125 34.503906 26.234375 34.789062 26.046875 C 35.074219 25.855469 35.375 25.695312 35.6875 25.5625 C 36.003906 25.429688 36.332031 25.332031 36.664062 25.265625 C 37 25.199219 37.339844 25.164062 37.679688 25.164062 C 37.8125 25.164062 37.945312 25.164062 38.078125 25.164062 L 38.113281 25.164062 C 38.4375 25.191406 38.753906 25.25 39.066406 25.335938 C 39.375 25.421875 39.675781 25.535156 39.96875 25.679688 C 40.257812 25.824219 40.53125 25.992188 40.792969 26.183594 C 41.050781 26.378906 41.289062 26.597656 41.507812 26.835938 C 41.726562 27.074219 41.921875 27.332031 42.09375 27.605469 C 42.265625 27.882812 42.410156 28.171875 42.527344 28.472656 C 42.644531 28.777344 42.734375 29.085938 42.792969 29.40625 C 42.855469 29.726562 42.886719 30.046875 42.886719 30.371094 C 42.886719 30.714844 42.851562 31.058594 42.785156 31.394531 C 42.714844 31.734375 42.617188 32.0625 42.484375 32.378906 C 42.351562 32.695312 42.191406 33 42 33.285156 C 41.808594 33.570312 41.59375 33.835938 41.347656 34.078125 C 41.105469 34.320312 40.839844 34.539062 40.554688 34.730469 C 40.269531 34.917969 39.96875 35.082031 39.652344 35.210938 C 39.332031 35.34375 39.007812 35.441406 38.667969 35.507812 C 38.332031 35.574219 37.992188 35.605469 37.648438 35.605469 Z M 37.648438 26.652344 C 37.367188 26.652344 37.085938 26.6875 36.808594 26.75 C 36.53125 26.816406 36.265625 26.910156 36.007812 27.035156 C 35.753906 27.164062 35.515625 27.316406 35.296875 27.496094 C 35.078125 27.679688 34.878906 27.882812 34.707031 28.109375 C 34.53125 28.335938 34.386719 28.578125 34.269531 28.839844 C 34.152344 29.097656 34.066406 29.367188 34.011719 29.648438 C 33.953125 29.929688 33.929688 30.210938 33.941406 30.496094 C 33.949219 30.78125 33.992188 31.0625 34.0625 31.339844 C 34.136719 31.613281 34.242188 31.878906 34.375 32.132812 C 34.507812 32.382812 34.667969 32.617188 34.855469 32.832031 C 35.042969 33.046875 35.253906 33.238281 35.484375 33.402344 C 35.714844 33.570312 35.960938 33.707031 36.226562 33.816406 C 36.488281 33.925781 36.757812 34.003906 37.039062 34.050781 C 37.320312 34.097656 37.601562 34.113281 37.886719 34.09375 C 38.171875 34.074219 38.449219 34.023438 38.722656 33.941406 C 38.992188 33.859375 39.253906 33.746094 39.5 33.605469 C 39.746094 33.460938 39.972656 33.292969 40.179688 33.097656 C 40.386719 32.902344 40.570312 32.6875 40.730469 32.449219 C 40.886719 32.210938 41.015625 31.960938 41.117188 31.691406 C 41.21875 31.425781 41.285156 31.148438 41.324219 30.867188 C 41.359375 30.582031 41.367188 30.300781 41.335938 30.015625 C 41.308594 29.730469 41.25 29.453125 41.160156 29.183594 C 41.066406 28.914062 40.949219 28.65625 40.796875 28.414062 C 40.648438 28.171875 40.472656 27.949219 40.269531 27.746094 C 39.550781 27.015625 38.679688 26.648438 37.65625 26.652344 Z M 37.648438 32.859375 C 37.320312 32.859375 37.007812 32.796875 36.703125 32.671875 C 36.402344 32.546875 36.132812 32.367188 35.902344 32.132812 C 35.671875 31.902344 35.492188 31.632812 35.367188 31.328125 C 35.242188 31.023438 35.175781 30.707031 35.175781 30.378906 C 35.175781 30.050781 35.242188 29.730469 35.367188 29.429688 C 35.492188 29.125 35.671875 28.855469 35.902344 28.621094 C 36.132812 28.390625 36.402344 28.210938 36.703125 28.085938 C 37.007812 27.957031 37.320312 27.894531 37.648438 27.894531 C 37.976562 27.894531 38.292969 27.957031 38.597656 28.085938 C 38.898438 28.210938 39.167969 28.390625 39.398438 28.621094 C 39.628906 28.855469 39.808594 29.125 39.933594 29.429688 C 40.058594 29.730469 40.121094 30.050781 40.121094 30.378906 C 40.121094 30.707031 40.058594 31.023438 39.933594 31.328125 C 39.808594 31.632812 39.628906 31.902344 39.398438 32.132812 C 39.167969 32.367188 38.898438 32.546875 38.597656 32.671875 C 38.292969 32.796875 37.976562 32.859375 37.648438 32.859375 Z M 21.46875 12.492188 L 18.796875 12.492188 C 18.550781 12.492188 18.316406 12.539062 18.089844 12.632812 C 17.859375 12.726562 17.660156 12.863281 17.488281 13.035156 C 17.3125 13.210938 17.179688 13.410156 17.085938 13.640625 C 16.992188 13.867188 16.945312 14.105469 16.945312 14.351562 L 16.945312 17.035156 C 16.945312 17.28125 16.992188 17.519531 17.085938 17.746094 C 17.179688 17.972656 17.3125 18.175781 17.488281 18.351562 C 17.660156 18.523438 17.859375 18.660156 18.089844 18.753906 C 18.316406 18.847656 18.550781 18.894531 18.796875 18.894531 L 21.46875 18.894531 C 21.714844 18.894531 21.949219 18.847656 22.179688 18.753906 C 22.40625 18.660156 22.605469 18.523438 22.78125 18.351562 C 22.953125 18.175781 23.085938 17.972656 23.179688 17.746094 C 23.277344 17.519531 23.324219 17.28125 23.324219 17.035156 L 23.324219 14.351562 C 23.324219 14.105469 23.277344 13.867188 23.179688 13.640625 C 23.085938 13.410156 22.953125 13.210938 22.78125 13.035156 C 22.605469 12.863281 22.40625 12.726562 22.179688 12.632812 C 21.949219 12.539062 21.714844 12.492188 21.46875 12.492188 Z M 22.085938 17.035156 C 22.085938 17.207031 22.027344 17.351562 21.90625 17.472656 C 21.785156 17.59375 21.640625 17.65625 21.46875 17.65625 L 18.796875 17.65625 C 18.628906 17.65625 18.480469 17.59375 18.359375 17.472656 C 18.242188 17.351562 18.179688 17.207031 18.179688 17.035156 L 18.179688 14.351562 C 18.179688 14.179688 18.242188 14.035156 18.359375 13.914062 C 18.480469 13.792969 18.628906 13.730469 18.796875 13.730469 L 21.46875 13.730469 C 21.640625 13.730469 21.785156 13.792969 21.90625 13.914062 C 22.027344 14.035156 22.085938 14.179688 22.085938 14.351562 Z M 25.664062 13.886719 C 25.664062 13.714844 25.726562 13.570312 25.847656 13.449219 C 25.96875 13.328125 26.113281 13.265625 26.285156 13.265625 L 33.175781 13.265625 C 33.347656 13.265625 33.492188 13.328125 33.613281 13.449219 C 33.734375 13.570312 33.792969 13.714844 33.792969 13.886719 C 33.792969 14.058594 33.734375 14.203125 33.613281 14.324219 C 33.492188 14.445312 33.347656 14.507812 33.175781 14.507812 L 26.285156 14.507812 C 26.113281 14.507812 25.96875 14.445312 25.847656 14.324219 C 25.726562 14.203125 25.664062 14.058594 25.664062 13.886719 Z M 25.664062 16.921875 C 25.664062 16.75 25.726562 16.605469 25.847656 16.484375 C 25.96875 16.363281 26.113281 16.300781 26.285156 16.300781 L 33.175781 16.300781 C 33.347656 16.300781 33.492188 16.363281 33.613281 16.484375 C 33.734375 16.605469 33.792969 16.75 33.792969 16.921875 C 33.792969 17.09375 33.734375 17.238281 33.613281 17.359375 C 33.492188 17.480469 33.347656 17.542969 33.175781 17.542969 L 26.285156 17.542969 C 26.113281 17.542969 25.96875 17.480469 25.847656 17.359375 C 25.726562 17.238281 25.664062 17.09375 25.664062 16.921875 Z M 21.46875 21.011719 L 18.796875 21.011719 C 18.550781 21.011719 18.316406 21.058594 18.089844 21.152344 C 17.859375 21.25 17.660156 21.382812 17.488281 21.558594 C 17.3125 21.730469 17.179688 21.933594 17.085938 22.160156 C 16.992188 22.390625 16.945312 22.628906 16.945312 22.875 L 16.945312 25.566406 C 16.945312 25.816406 16.992188 26.050781 17.085938 26.28125 C 17.179688 26.507812 17.3125 26.710938 17.488281 26.882812 C 17.660156 27.058594 17.859375 27.195312 18.089844 27.289062 C 18.316406 27.382812 18.550781 27.429688 18.796875 27.429688 L 21.46875 27.429688 C 21.714844 27.429688 21.949219 27.382812 22.179688 27.289062 C 22.40625 27.195312 22.605469 27.058594 22.78125 26.882812 C 22.953125 26.710938 23.085938 26.507812 23.179688 26.28125 C 23.277344 26.050781 23.324219 25.816406 23.324219 25.566406 L 23.324219 22.875 C 23.324219 22.628906 23.277344 22.390625 23.179688 22.160156 C 23.085938 21.933594 22.953125 21.730469 22.78125 21.558594 C 22.605469 21.382812 22.40625 21.25 22.179688 21.152344 C 21.949219 21.058594 21.714844 21.011719 21.46875 21.011719 Z M 22.085938 25.550781 C 22.085938 25.722656 22.027344 25.867188 21.90625 25.988281 C 21.785156 26.109375 21.640625 26.171875 21.46875 26.171875 L 18.796875 26.171875 C 18.628906 26.171875 18.480469 26.109375 18.359375 25.988281 C 18.242188 25.867188 18.179688 25.722656 18.179688 25.550781 L 18.179688 22.875 C 18.179688 22.703125 18.242188 22.554688 18.359375 22.433594 C 18.480469 22.3125 18.628906 22.253906 18.796875 22.253906 L 21.46875 22.253906 C 21.640625 22.253906 21.785156 22.3125 21.90625 22.433594 C 22.027344 22.554688 22.085938 22.703125 22.085938 22.875 Z M 25.664062 22.402344 C 25.664062 22.230469 25.726562 22.085938 25.847656 21.964844 C 25.96875 21.84375 26.113281 21.78125 26.285156 21.78125 L 33.175781 21.78125 C 33.347656 21.78125 33.492188 21.84375 33.613281 21.964844 C 33.734375 22.085938 33.792969 22.230469 33.792969 22.402344 C 33.792969 22.574219 33.734375 22.71875 33.613281 22.839844 C 33.492188 22.960938 33.347656 23.023438 33.175781 23.023438 L 26.285156 23.023438 C 26.113281 23.023438 25.96875 22.960938 25.847656 22.839844 C 25.726562 22.71875 25.664062 22.574219 25.664062 22.402344 Z M 21.46875 29.527344 L 18.796875 29.527344 C 18.550781 29.527344 18.316406 29.574219 18.089844 29.667969 C 17.859375 29.765625 17.660156 29.898438 17.488281 30.074219 C 17.3125 30.246094 17.179688 30.449219 17.085938 30.675781 C 16.992188 30.90625 16.945312 31.144531 16.945312 31.390625 L 16.945312 34.070312 C 16.945312 34.316406 16.992188 34.554688 17.085938 34.785156 C 17.179688 35.011719 17.3125 35.214844 17.488281 35.386719 C 17.660156 35.5625 17.859375 35.695312 18.089844 35.792969 C 18.316406 35.886719 18.550781 35.933594 18.796875 35.933594 L 21.46875 35.933594 C 21.714844 35.933594 21.949219 35.886719 22.179688 35.792969 C 22.40625 35.695312 22.605469 35.5625 22.78125 35.386719 C 22.953125 35.214844 23.085938 35.011719 23.179688 34.785156 C 23.277344 34.554688 23.324219 34.316406 23.324219 34.070312 L 23.324219 31.390625 C 23.324219 31.144531 23.277344 30.90625 23.179688 30.675781 C 23.085938 30.449219 22.953125 30.246094 22.78125 30.074219 C 22.605469 29.898438 22.40625 29.765625 22.179688 29.667969 C 21.949219 29.574219 21.714844 29.527344 21.46875 29.527344 Z M 22.085938 34.070312 C 22.085938 34.242188 22.027344 34.390625 21.90625 34.511719 C 21.785156 34.632812 21.640625 34.691406 21.46875 34.691406 L 18.796875 34.691406 C 18.628906 34.691406 18.480469 34.632812 18.359375 34.511719 C 18.242188 34.390625 18.179688 34.242188 18.179688 34.070312 L 18.179688 31.390625 C 18.179688 31.21875 18.242188 31.070312 18.359375 30.949219 C 18.480469 30.828125 18.628906 30.769531 18.796875 30.769531 L 21.46875 30.769531 C 21.640625 30.769531 21.785156 30.828125 21.90625 30.949219 C 22.027344 31.070312 22.085938 31.21875 22.085938 31.390625 Z M 22.085938 34.070312 "/></g></g></svg>