<svg xmlns="http://www.w3.org/2000/svg" xmlns:xlink="http://www.w3.org/1999/xlink" width="372" zoomAndPan="magnify" viewBox="0 0 279 65.249999" height="87" preserveAspectRatio="xMidYMid meet" version="1.2"><defs/><g id="f54b88a808"><path style=" stroke:none;fill-rule:nonzero;fill:#393be5;fill-opacity:1;" d="M 8.617188 30.917969 L 252.851562 30.917969 L 252.851562 55.320312 L 8.617188 55.320312 L 8.617188 30.917969 "/><g style="fill:#ffffff;fill-opacity:1;"><g transform="translate(15.226892, 48.30994)"><path style="stroke:none" d="M 4.390625 0 L 4.390625 -10.546875 L 0.875 -10.546875 L 0.875 -12.3125 L 9.671875 -12.3125 L 9.671875 -10.546875 L 6.15625 -10.546875 L 6.15625 0 Z M 4.390625 0 "/></g></g><g style="fill:#ffffff;fill-opacity:1;"><g transform="translate(28.402097, 48.30994)"><path style="stroke:none" d="M 0.875 0 L 0.875 -12.3125 L 7.90625 -12.3125 L 7.90625 -10.546875 L 2.640625 -10.546875 L 2.640625 -7.03125 L 7.90625 -7.03125 L 7.90625 -5.28125 L 6.15625 -5.28125 L 6.15625 -3.515625 L 4.390625 -3.515625 L 4.390625 -5.28125 L 2.640625 -5.28125 L 2.640625 0 Z M 6.15625 -1.765625 L 6.15625 -3.515625 L 7.90625 -3.515625 L 7.90625 -1.765625 Z M 7.90625 0 L 7.90625 -1.765625 L 9.671875 -1.765625 L 9.671875 0 Z M 7.90625 -7.03125 L 7.90625 -10.546875 L 9.671875 -10.546875 L 9.671875 -7.03125 Z M 7.90625 -7.03125 "/></g></g><g style="fill:#ffffff;fill-opacity:1;"><g transform="translate(41.577302, 48.30994)"><path style="stroke:none" d="M 0.875 0 L 0.875 -10.546875 L 2.640625 -10.546875 L 2.640625 -5.28125 L 7.90625 -5.28125 L 7.90625 -10.546875 L 9.671875 -10.546875 L 9.671875 0 L 7.90625 0 L 7.90625 -3.515625 L 2.640625 -3.515625 L 2.640625 0 Z M 2.640625 -10.546875 L 2.640625 -12.3125 L 7.90625 -12.3125 L 7.90625 -10.546875 Z M 2.640625 -10.546875 "/></g></g><g style="fill:#ffffff;fill-opacity:1;"><g transform="translate(54.752507, 48.30994)"><path style="stroke:none" d="M 0.875 -1.765625 L 0.875 -10.546875 L 2.640625 -10.546875 L 2.640625 -1.765625 Z M 2.640625 0 L 2.640625 -1.765625 L 7.90625 -1.765625 L 7.90625 0 Z M 2.640625 -10.546875 L 2.640625 -12.3125 L 7.90625 -12.3125 L 7.90625 -10.546875 Z M 7.90625 -1.765625 L 7.90625 -3.515625 L 9.671875 -3.515625 L 9.671875 -1.765625 Z M 7.90625 -8.796875 L 7.90625 -10.546875 L 9.671875 -10.546875 L 9.671875 -8.796875 Z M 7.90625 -8.796875 "/></g></g><g style="fill:#ffffff;fill-opacity:1;"><g transform="translate(67.927712, 48.30994)"><path style="stroke:none" d="M 0.875 0 L 0.875 -12.3125 L 2.640625 -12.3125 L 2.640625 -7.03125 L 6.15625 -7.03125 L 6.15625 -5.28125 L 2.640625 -5.28125 L 2.640625 0 Z M 6.15625 -3.515625 L 6.15625 -5.28125 L 7.90625 -5.28125 L 7.90625 -3.515625 Z M 6.15625 -7.03125 L 6.15625 -8.796875 L 7.90625 -8.796875 L 7.90625 -7.03125 Z M 7.90625 0 L 7.90625 -3.515625 L 9.671875 -3.515625 L 9.671875 0 Z M 7.90625 -8.796875 L 7.90625 -12.3125 L 9.671875 -12.3125 L 9.671875 -8.796875 Z M 7.90625 -8.796875 "/></g></g><g style="fill:#ffffff;fill-opacity:1;"><g transform="translate(81.102917, 48.30994)"><path style="stroke:none" d=""/></g></g><g style="fill:#ffffff;fill-opacity:1;"><g transform="translate(88.130794, 48.30994)"><path style="stroke:none" d="M 4.390625 0 L 4.390625 -5.28125 L 6.15625 -5.28125 L 6.15625 0 Z M 0.875 -8.796875 L 0.875 -12.3125 L 2.640625 -12.3125 L 2.640625 -8.796875 Z M 2.640625 -5.28125 L 2.640625 -8.796875 L 4.390625 -8.796875 L 4.390625 -5.28125 Z M 6.15625 -5.28125 L 6.15625 -8.796875 L 7.90625 -8.796875 L 7.90625 -5.28125 Z M 7.90625 -8.796875 L 7.90625 -12.3125 L 9.671875 -12.3125 L 9.671875 -8.796875 Z M 7.90625 -8.796875 "/></g></g><g style="fill:#ffffff;fill-opacity:1;"><g transform="translate(101.305999, 48.30994)"><path style="stroke:none" d="M 7.90625 -1.765625 L 7.90625 0 L 2.640625 0 L 2.640625 -1.765625 Z M 0.875 -1.765625 L 0.875 -10.546875 L 2.640625 -10.546875 L 2.640625 -1.765625 Z M 2.640625 -10.546875 L 2.640625 -12.3125 L 7.90625 -12.3125 L 7.90625 -10.546875 Z M 7.90625 -1.765625 L 7.90625 -10.546875 L 9.671875 -10.546875 L 9.671875 -1.765625 Z M 7.90625 -1.765625 "/></g></g><g style="fill:#ffffff;fill-opacity:1;"><g transform="translate(114.481205, 48.30994)"><path style="stroke:none" d="M 7.90625 -1.765625 L 7.90625 0 L 2.640625 0 L 2.640625 -1.765625 Z M 0.875 -1.765625 L 0.875 -12.3125 L 2.640625 -12.3125 L 2.640625 -1.765625 Z M 7.90625 -1.765625 L 7.90625 -12.3125 L 9.671875 -12.3125 L 9.671875 -1.765625 Z M 7.90625 -1.765625 "/></g></g><g style="fill:#ffffff;fill-opacity:1;"><g transform="translate(127.65641, 48.30994)"><path style="stroke:none" d="M 0.875 0 L 0.875 -12.3125 L 7.90625 -12.3125 L 7.90625 -10.546875 L 2.640625 -10.546875 L 2.640625 -7.03125 L 7.90625 -7.03125 L 7.90625 -5.28125 L 6.15625 -5.28125 L 6.15625 -3.515625 L 4.390625 -3.515625 L 4.390625 -5.28125 L 2.640625 -5.28125 L 2.640625 0 Z M 6.15625 -1.765625 L 6.15625 -3.515625 L 7.90625 -3.515625 L 7.90625 -1.765625 Z M 7.90625 0 L 7.90625 -1.765625 L 9.671875 -1.765625 L 9.671875 0 Z M 7.90625 -7.03125 L 7.90625 -10.546875 L 9.671875 -10.546875 L 9.671875 -7.03125 Z M 7.90625 -7.03125 "/></g></g><g style="fill:#ffffff;fill-opacity:1;"><g transform="translate(140.831615, 48.30994)"><path style="stroke:none" d=""/></g></g><g style="fill:#ffffff;fill-opacity:1;"><g transform="translate(147.859492, 48.30994)"><path style="stroke:none" d="M 0.875 0 L 0.875 -12.3125 L 2.640625 -12.3125 L 2.640625 -1.765625 L 9.671875 -1.765625 L 9.671875 0 Z M 0.875 0 "/></g></g><g style="fill:#ffffff;fill-opacity:1;"><g transform="translate(161.034697, 48.30994)"><path style="stroke:none" d="M 0.875 0 L 0.875 -12.3125 L 9.671875 -12.3125 L 9.671875 -10.546875 L 2.640625 -10.546875 L 2.640625 -7.03125 L 7.90625 -7.03125 L 7.90625 -5.28125 L 2.640625 -5.28125 L 2.640625 -1.765625 L 9.65625 -1.765625 L 9.65625 0 Z M 0.875 0 "/></g></g><g style="fill:#ffffff;fill-opacity:1;"><g transform="translate(174.209902, 48.30994)"><path style="stroke:none" d="M 0.875 0 L 0.875 -10.546875 L 2.640625 -10.546875 L 2.640625 -5.28125 L 7.90625 -5.28125 L 7.90625 -10.546875 L 9.671875 -10.546875 L 9.671875 0 L 7.90625 0 L 7.90625 -3.515625 L 2.640625 -3.515625 L 2.640625 0 Z M 2.640625 -10.546875 L 2.640625 -12.3125 L 7.90625 -12.3125 L 7.90625 -10.546875 Z M 2.640625 -10.546875 "/></g></g><g style="fill:#ffffff;fill-opacity:1;"><g transform="translate(187.385107, 48.30994)"><path style="stroke:none" d="M 0.875 0 L 0.875 -12.3125 L 7.90625 -12.3125 L 7.90625 -10.546875 L 2.640625 -10.546875 L 2.640625 -7.03125 L 7.90625 -7.03125 L 7.90625 -5.28125 L 6.15625 -5.28125 L 6.15625 -3.515625 L 4.390625 -3.515625 L 4.390625 -5.28125 L 2.640625 -5.28125 L 2.640625 0 Z M 6.15625 -1.765625 L 6.15625 -3.515625 L 7.90625 -3.515625 L 7.90625 -1.765625 Z M 7.90625 0 L 7.90625 -1.765625 L 9.671875 -1.765625 L 9.671875 0 Z M 7.90625 -7.03125 L 7.90625 -10.546875 L 9.671875 -10.546875 L 9.671875 -7.03125 Z M 7.90625 -7.03125 "/></g></g><g style="fill:#ffffff;fill-opacity:1;"><g transform="translate(200.560312, 48.30994)"><path style="stroke:none" d="M 7.90625 0 L 7.90625 -5.28125 L 6.15625 -5.28125 L 6.15625 -7.03125 L 7.90625 -7.03125 L 7.90625 -12.3125 L 9.671875 -12.3125 L 9.671875 0 Z M 0.875 0 L 0.875 -12.3125 L 2.640625 -12.3125 L 2.640625 -10.546875 L 4.390625 -10.546875 L 4.390625 -8.796875 L 2.640625 -8.796875 L 2.640625 0 Z M 4.390625 -7.03125 L 4.390625 -8.796875 L 6.15625 -8.796875 L 6.15625 -7.03125 Z M 4.390625 -7.03125 "/></g></g><g style="fill:#ffffff;fill-opacity:1;"><g transform="translate(213.735517, 48.30994)"><path style="stroke:none" d="M 0.875 0 L 0.875 -12.3125 L 2.640625 -12.3125 L 2.640625 0 Z M 0.875 0 "/></g></g><g style="fill:#ffffff;fill-opacity:1;"><g transform="translate(219.885199, 48.30994)"><path style="stroke:none" d="M 7.90625 0 L 7.90625 -5.28125 L 6.15625 -5.28125 L 6.15625 -7.03125 L 7.90625 -7.03125 L 7.90625 -12.3125 L 9.671875 -12.3125 L 9.671875 0 Z M 0.875 0 L 0.875 -12.3125 L 2.640625 -12.3125 L 2.640625 -10.546875 L 4.390625 -10.546875 L 4.390625 -8.796875 L 2.640625 -8.796875 L 2.640625 0 Z M 4.390625 -7.03125 L 4.390625 -8.796875 L 6.15625 -8.796875 L 6.15625 -7.03125 Z M 4.390625 -7.03125 "/></g></g><g style="fill:#ffffff;fill-opacity:1;"><g transform="translate(233.060404, 48.30994)"><path style="stroke:none" d="M 7.90625 -1.765625 L 7.90625 0 L 2.640625 0 L 2.640625 -1.765625 Z M 0.875 -1.765625 L 0.875 -10.546875 L 2.640625 -10.546875 L 2.640625 -1.765625 Z M 2.640625 -10.546875 L 2.640625 -12.3125 L 7.90625 -12.3125 L 7.90625 -10.546875 Z M 6.15625 -5.28125 L 6.15625 -7.03125 L 9.671875 -7.03125 L 9.671875 -1.765625 L 7.90625 -1.765625 L 7.90625 -5.28125 Z M 7.90625 -8.796875 L 7.90625 -10.546875 L 9.671875 -10.546875 L 9.671875 -8.796875 Z M 7.90625 -8.796875 "/></g></g><g style="fill:#ffffff;fill-opacity:1;"><g transform="translate(246.243391, 48.30994)"><path style="stroke:none" d=""/></g></g><path style=" stroke:none;fill-rule:nonzero;fill:#ffffff;fill-opacity:1;" d="M 71.449219 4.648438 L 171.507812 4.648438 L 171.507812 28.996094 L 71.449219 28.996094 L 71.449219 4.648438 "/><g style="fill:#393be5;fill-opacity:1;"><g transform="translate(73.797524, 22.688986)"><path style="stroke:none" d="M 11.75 -13.40625 C 11.863281 -13.40625 11.960938 -13.363281 12.046875 -13.28125 C 12.128906 -13.195312 12.171875 -13.097656 12.171875 -12.984375 L 12.171875 -11.140625 C 12.171875 -11.023438 12.128906 -10.925781 12.046875 -10.84375 C 11.960938 -10.769531 11.863281 -10.734375 11.75 -10.734375 L 8.15625 -10.734375 L 8.15625 -0.4375 C 8.15625 -0.3125 8.109375 -0.207031 8.015625 -0.125 C 7.929688 -0.0390625 7.832031 0 7.71875 0 L 5.890625 0 C 5.765625 0 5.660156 -0.0390625 5.578125 -0.125 C 5.503906 -0.207031 5.46875 -0.3125 5.46875 -0.4375 L 5.46875 -10.734375 L 1.875 -10.734375 C 1.757812 -10.734375 1.660156 -10.769531 1.578125 -10.84375 C 1.492188 -10.925781 1.453125 -11.023438 1.453125 -11.140625 L 1.453125 -12.984375 C 1.453125 -13.097656 1.492188 -13.195312 1.578125 -13.28125 C 1.660156 -13.363281 1.757812 -13.40625 1.875 -13.40625 Z M 11.75 -13.40625 "/></g></g><g style="fill:#393be5;fill-opacity:1;"><g transform="translate(87.423176, 22.688986)"><path style="stroke:none" d="M 11.984375 -0.390625 C 12.035156 -0.285156 12.035156 -0.191406 11.984375 -0.109375 C 11.929688 -0.0351562 11.847656 0 11.734375 0 L 9.640625 0 C 9.515625 0 9.394531 -0.0351562 9.28125 -0.109375 C 9.175781 -0.191406 9.097656 -0.285156 9.046875 -0.390625 L 6.796875 -5.359375 L 4.140625 -5.359375 L 4.140625 -0.4375 C 4.140625 -0.3125 4.097656 -0.207031 4.015625 -0.125 C 3.929688 -0.0390625 3.832031 0 3.71875 0 L 1.875 0 C 1.757812 0 1.660156 -0.0390625 1.578125 -0.125 C 1.492188 -0.207031 1.453125 -0.3125 1.453125 -0.4375 L 1.453125 -12.984375 C 1.453125 -13.097656 1.492188 -13.195312 1.578125 -13.28125 C 1.660156 -13.363281 1.757812 -13.40625 1.875 -13.40625 L 8.71875 -13.40625 C 9.195312 -13.40625 9.644531 -13.3125 10.0625 -13.125 C 10.476562 -12.945312 10.84375 -12.703125 11.15625 -12.390625 C 11.46875 -12.078125 11.710938 -11.710938 11.890625 -11.296875 C 12.078125 -10.878906 12.171875 -10.429688 12.171875 -9.953125 L 12.171875 -8.8125 C 12.171875 -8.425781 12.109375 -8.050781 11.984375 -7.6875 C 11.867188 -7.332031 11.695312 -7.007812 11.46875 -6.71875 C 11.25 -6.425781 10.984375 -6.175781 10.671875 -5.96875 C 10.367188 -5.757812 10.035156 -5.601562 9.671875 -5.5 Z M 8.71875 -8.03125 C 8.9375 -8.03125 9.117188 -8.101562 9.265625 -8.25 C 9.421875 -8.40625 9.5 -8.59375 9.5 -8.8125 L 9.5 -9.953125 C 9.5 -10.171875 9.421875 -10.351562 9.265625 -10.5 C 9.117188 -10.65625 8.9375 -10.734375 8.71875 -10.734375 L 4.140625 -10.734375 L 4.140625 -8.03125 Z M 8.71875 -8.03125 "/></g></g><g style="fill:#393be5;fill-opacity:1;"><g transform="translate(101.048828, 22.688986)"><path style="stroke:none" d="M 8.640625 -13.40625 C 8.753906 -13.40625 8.863281 -13.363281 8.96875 -13.28125 C 9.082031 -13.207031 9.160156 -13.117188 9.203125 -13.015625 L 12.015625 -6.015625 C 12.054688 -5.910156 12.09375 -5.773438 12.125 -5.609375 C 12.15625 -5.453125 12.171875 -5.316406 12.171875 -5.203125 L 12.171875 -0.4375 C 12.171875 -0.3125 12.128906 -0.207031 12.046875 -0.125 C 11.960938 -0.0390625 11.863281 0 11.75 0 L 9.90625 0 C 9.789062 0 9.691406 -0.0390625 9.609375 -0.125 C 9.523438 -0.207031 9.484375 -0.3125 9.484375 -0.4375 L 9.484375 -2.671875 L 4.125 -2.671875 L 4.125 -0.4375 C 4.125 -0.3125 4.082031 -0.207031 4 -0.125 C 3.914062 -0.0390625 3.8125 0 3.6875 0 L 1.875 0 C 1.757812 0 1.660156 -0.0390625 1.578125 -0.125 C 1.492188 -0.207031 1.453125 -0.3125 1.453125 -0.4375 L 1.453125 -5.203125 C 1.453125 -5.316406 1.46875 -5.453125 1.5 -5.609375 C 1.53125 -5.773438 1.566406 -5.910156 1.609375 -6.015625 L 4.390625 -13.015625 C 4.441406 -13.117188 4.523438 -13.207031 4.640625 -13.28125 C 4.753906 -13.363281 4.867188 -13.40625 4.984375 -13.40625 Z M 4.21875 -5.359375 L 9.375 -5.359375 L 7.234375 -10.734375 L 6.375 -10.734375 Z M 4.21875 -5.359375 "/></g></g><g style="fill:#393be5;fill-opacity:1;"><g transform="translate(114.67448, 22.688986)"><path style="stroke:none" d="M 9.9375 -9.375 C 9.8125 -9.375 9.707031 -9.414062 9.625 -9.5 C 9.539062 -9.59375 9.5 -9.695312 9.5 -9.8125 L 9.5 -9.953125 C 9.5 -10.171875 9.421875 -10.351562 9.265625 -10.5 C 9.117188 -10.65625 8.9375 -10.734375 8.71875 -10.734375 L 4.90625 -10.734375 C 4.6875 -10.734375 4.503906 -10.65625 4.359375 -10.5 C 4.210938 -10.351562 4.140625 -10.171875 4.140625 -9.953125 L 4.140625 -3.453125 C 4.140625 -3.234375 4.210938 -3.046875 4.359375 -2.890625 C 4.503906 -2.742188 4.6875 -2.671875 4.90625 -2.671875 L 8.71875 -2.671875 C 8.9375 -2.671875 9.117188 -2.742188 9.265625 -2.890625 C 9.421875 -3.046875 9.5 -3.234375 9.5 -3.453125 L 9.5 -3.59375 C 9.5 -3.707031 9.539062 -3.804688 9.625 -3.890625 C 9.707031 -3.984375 9.8125 -4.03125 9.9375 -4.03125 L 11.75 -4.03125 C 11.863281 -4.03125 11.960938 -3.984375 12.046875 -3.890625 C 12.128906 -3.804688 12.171875 -3.707031 12.171875 -3.59375 L 12.171875 -3.453125 C 12.171875 -2.972656 12.078125 -2.523438 11.890625 -2.109375 C 11.710938 -1.691406 11.46875 -1.328125 11.15625 -1.015625 C 10.84375 -0.703125 10.476562 -0.453125 10.0625 -0.265625 C 9.644531 -0.0859375 9.195312 0 8.71875 0 L 4.90625 0 C 4.4375 0 3.988281 -0.0859375 3.5625 -0.265625 C 3.144531 -0.453125 2.78125 -0.703125 2.46875 -1.015625 C 2.15625 -1.328125 1.90625 -1.691406 1.71875 -2.109375 C 1.539062 -2.523438 1.453125 -2.972656 1.453125 -3.453125 L 1.453125 -9.953125 C 1.453125 -10.429688 1.539062 -10.878906 1.71875 -11.296875 C 1.90625 -11.710938 2.15625 -12.078125 2.46875 -12.390625 C 2.78125 -12.703125 3.144531 -12.945312 3.5625 -13.125 C 3.988281 -13.3125 4.4375 -13.40625 4.90625 -13.40625 L 8.71875 -13.40625 C 9.195312 -13.40625 9.644531 -13.3125 10.0625 -13.125 C 10.476562 -12.945312 10.84375 -12.703125 11.15625 -12.390625 C 11.46875 -12.078125 11.710938 -11.710938 11.890625 -11.296875 C 12.078125 -10.878906 12.171875 -10.429688 12.171875 -9.953125 L 12.171875 -9.8125 C 12.171875 -9.695312 12.128906 -9.59375 12.046875 -9.5 C 11.960938 -9.414062 11.863281 -9.375 11.75 -9.375 Z M 9.9375 -9.375 "/></g></g><g style="fill:#393be5;fill-opacity:1;"><g transform="translate(128.300132, 22.688986)"><path style="stroke:none" d="M 12.015625 -0.375 C 12.085938 -0.269531 12.097656 -0.179688 12.046875 -0.109375 C 12.003906 -0.0351562 11.925781 0 11.8125 0 L 9.578125 0 C 9.460938 0 9.34375 -0.0351562 9.21875 -0.109375 C 9.101562 -0.179688 9.015625 -0.269531 8.953125 -0.375 L 6.125 -5.359375 L 4.21875 -5.359375 L 4.21875 -0.4375 C 4.21875 -0.3125 4.175781 -0.207031 4.09375 -0.125 C 4.007812 -0.0390625 3.910156 0 3.796875 0 L 1.953125 0 C 1.835938 0 1.738281 -0.0390625 1.65625 -0.125 C 1.582031 -0.207031 1.546875 -0.3125 1.546875 -0.4375 L 1.546875 -12.984375 C 1.546875 -13.097656 1.582031 -13.195312 1.65625 -13.28125 C 1.738281 -13.363281 1.835938 -13.40625 1.953125 -13.40625 L 3.796875 -13.40625 C 3.910156 -13.40625 4.007812 -13.363281 4.09375 -13.28125 C 4.175781 -13.195312 4.21875 -13.097656 4.21875 -12.984375 L 4.21875 -8.03125 L 6.125 -8.03125 L 8.953125 -13.03125 C 9.015625 -13.132812 9.101562 -13.222656 9.21875 -13.296875 C 9.34375 -13.367188 9.460938 -13.40625 9.578125 -13.40625 L 11.8125 -13.40625 C 11.925781 -13.40625 12.003906 -13.367188 12.046875 -13.296875 C 12.097656 -13.222656 12.085938 -13.132812 12.015625 -13.03125 L 8.4375 -6.703125 Z M 12.015625 -0.375 "/></g></g><g style="fill:#393be5;fill-opacity:1;"><g transform="translate(141.925784, 22.688986)"><path style="stroke:none" d="M 11.96875 -11.140625 C 11.96875 -11.023438 11.925781 -10.925781 11.84375 -10.84375 C 11.769531 -10.769531 11.671875 -10.734375 11.546875 -10.734375 L 4.3125 -10.734375 L 4.3125 -8.03125 L 10.875 -8.03125 C 10.988281 -8.03125 11.085938 -7.988281 11.171875 -7.90625 C 11.253906 -7.832031 11.296875 -7.738281 11.296875 -7.625 L 11.296875 -5.78125 C 11.296875 -5.664062 11.253906 -5.566406 11.171875 -5.484375 C 11.085938 -5.398438 10.988281 -5.359375 10.875 -5.359375 L 4.3125 -5.359375 L 4.3125 -2.671875 L 11.546875 -2.671875 C 11.671875 -2.671875 11.769531 -2.628906 11.84375 -2.546875 C 11.925781 -2.460938 11.96875 -2.363281 11.96875 -2.25 L 11.96875 -0.4375 C 11.96875 -0.3125 11.925781 -0.207031 11.84375 -0.125 C 11.769531 -0.0390625 11.671875 0 11.546875 0 L 2.046875 0 C 1.929688 0 1.832031 -0.0390625 1.75 -0.125 C 1.675781 -0.207031 1.640625 -0.3125 1.640625 -0.4375 L 1.640625 -12.984375 C 1.640625 -13.097656 1.675781 -13.195312 1.75 -13.28125 C 1.832031 -13.363281 1.929688 -13.40625 2.046875 -13.40625 L 11.546875 -13.40625 C 11.671875 -13.40625 11.769531 -13.363281 11.84375 -13.28125 C 11.925781 -13.195312 11.96875 -13.097656 11.96875 -12.984375 Z M 11.96875 -11.140625 "/></g></g><g style="fill:#393be5;fill-opacity:1;"><g transform="translate(155.531898, 22.688986)"><path style="stroke:none" d="M 11.984375 -0.390625 C 12.035156 -0.285156 12.035156 -0.191406 11.984375 -0.109375 C 11.929688 -0.0351562 11.847656 0 11.734375 0 L 9.640625 0 C 9.515625 0 9.394531 -0.0351562 9.28125 -0.109375 C 9.175781 -0.191406 9.097656 -0.285156 9.046875 -0.390625 L 6.796875 -5.359375 L 4.140625 -5.359375 L 4.140625 -0.4375 C 4.140625 -0.3125 4.097656 -0.207031 4.015625 -0.125 C 3.929688 -0.0390625 3.832031 0 3.71875 0 L 1.875 0 C 1.757812 0 1.660156 -0.0390625 1.578125 -0.125 C 1.492188 -0.207031 1.453125 -0.3125 1.453125 -0.4375 L 1.453125 -12.984375 C 1.453125 -13.097656 1.492188 -13.195312 1.578125 -13.28125 C 1.660156 -13.363281 1.757812 -13.40625 1.875 -13.40625 L 8.71875 -13.40625 C 9.195312 -13.40625 9.644531 -13.3125 10.0625 -13.125 C 10.476562 -12.945312 10.84375 -12.703125 11.15625 -12.390625 C 11.46875 -12.078125 11.710938 -11.710938 11.890625 -11.296875 C 12.078125 -10.878906 12.171875 -10.429688 12.171875 -9.953125 L 12.171875 -8.8125 C 12.171875 -8.425781 12.109375 -8.050781 11.984375 -7.6875 C 11.867188 -7.332031 11.695312 -7.007812 11.46875 -6.71875 C 11.25 -6.425781 10.984375 -6.175781 10.671875 -5.96875 C 10.367188 -5.757812 10.035156 -5.601562 9.671875 -5.5 Z M 8.71875 -8.03125 C 8.9375 -8.03125 9.117188 -8.101562 9.265625 -8.25 C 9.421875 -8.40625 9.5 -8.59375 9.5 -8.8125 L 9.5 -9.953125 C 9.5 -10.171875 9.421875 -10.351562 9.265625 -10.5 C 9.117188 -10.65625 8.9375 -10.734375 8.71875 -10.734375 L 4.140625 -10.734375 L 4.140625 -8.03125 Z M 8.71875 -8.03125 "/></g></g><g style="fill:#393be5;fill-opacity:1;"><g transform="translate(169.159443, 22.688986)"><path style="stroke:none" d=""/></g></g></g></svg>