<svg xmlns="http://www.w3.org/2000/svg" xmlns:xlink="http://www.w3.org/1999/xlink" width="704" zoomAndPan="magnify" viewBox="0 0 528 89.999999" height="120" preserveAspectRatio="xMidYMid meet" version="1.2"><defs/><g id="57bfff204b"><path style=" stroke:none;fill-rule:nonzero;fill:#393be5;fill-opacity:1;" d="M 24.75 21.652344 L 476.152344 21.652344 L 476.152344 67.972656 L 24.75 67.972656 L 24.75 21.652344 "/><g style="fill:#ffffff;fill-opacity:1;"><g transform="translate(37.319829, 54.938431)"><path style="stroke:none" d="M 15.046875 -13.375 L 15.046875 -6.6875 L 11.703125 -6.6875 L 11.703125 -13.375 Z M 1.671875 -13.375 L 1.671875 -23.40625 L 5.015625 -23.40625 L 5.015625 -13.375 Z M 5.015625 -6.6875 L 5.015625 -13.375 L 8.359375 -13.375 L 8.359375 -6.6875 Z M 8.359375 0 L 8.359375 -6.6875 L 11.703125 -6.6875 L 11.703125 0 Z M 15.046875 -13.375 L 15.046875 -23.40625 L 18.390625 -23.40625 L 18.390625 -13.375 Z M 15.046875 -13.375 "/></g></g><g style="fill:#ffffff;fill-opacity:1;"><g transform="translate(62.395435, 54.938431)"><path style="stroke:none" d="M 1.671875 0 L 1.671875 -23.40625 L 5.015625 -23.40625 L 5.015625 0 Z M 1.671875 0 "/></g></g><g style="fill:#ffffff;fill-opacity:1;"><g transform="translate(74.097625, 54.938431)"><path style="stroke:none" d="M 5.015625 -20.0625 L 5.015625 -13.375 L 1.671875 -13.375 L 1.671875 -20.0625 Z M 1.671875 -3.34375 L 1.671875 -6.6875 L 5.015625 -6.6875 L 5.015625 -3.34375 Z M 5.015625 0 L 5.015625 -3.34375 L 15.046875 -3.34375 L 15.046875 0 Z M 5.015625 -10.03125 L 5.015625 -13.375 L 15.046875 -13.375 L 15.046875 -10.03125 Z M 5.015625 -20.0625 L 5.015625 -23.40625 L 15.046875 -23.40625 L 15.046875 -20.0625 Z M 15.046875 -3.34375 L 15.046875 -10.03125 L 18.390625 -10.03125 L 18.390625 -3.34375 Z M 15.046875 -16.71875 L 15.046875 -20.0625 L 18.390625 -20.0625 L 18.390625 -16.71875 Z M 15.046875 -16.71875 "/></g></g><g style="fill:#ffffff;fill-opacity:1;"><g transform="translate(99.17323, 54.938431)"><path style="stroke:none" d="M 15.046875 -3.34375 L 15.046875 0 L 5.015625 0 L 5.015625 -3.34375 Z M 1.671875 -3.34375 L 1.671875 -23.40625 L 5.015625 -23.40625 L 5.015625 -3.34375 Z M 15.046875 -3.34375 L 15.046875 -23.40625 L 18.390625 -23.40625 L 18.390625 -3.34375 Z M 15.046875 -3.34375 "/></g></g><g style="fill:#ffffff;fill-opacity:1;"><g transform="translate(124.248836, 54.938431)"><path style="stroke:none" d="M 1.671875 0 L 1.671875 -20.0625 L 5.015625 -20.0625 L 5.015625 -10.03125 L 15.046875 -10.03125 L 15.046875 -20.0625 L 18.390625 -20.0625 L 18.390625 0 L 15.046875 0 L 15.046875 -6.6875 L 5.015625 -6.6875 L 5.015625 0 Z M 5.015625 -20.0625 L 5.015625 -23.40625 L 15.046875 -23.40625 L 15.046875 -20.0625 Z M 5.015625 -20.0625 "/></g></g><g style="fill:#ffffff;fill-opacity:1;"><g transform="translate(149.324442, 54.938431)"><path style="stroke:none" d="M 1.671875 0 L 1.671875 -23.40625 L 5.015625 -23.40625 L 5.015625 -3.34375 L 18.390625 -3.34375 L 18.390625 0 Z M 1.671875 0 "/></g></g><g style="fill:#ffffff;fill-opacity:1;"><g transform="translate(174.400048, 54.938431)"><path style="stroke:none" d="M 1.671875 0 L 1.671875 -23.40625 L 5.015625 -23.40625 L 5.015625 0 Z M 1.671875 0 "/></g></g><g style="fill:#ffffff;fill-opacity:1;"><g transform="translate(186.102238, 54.938431)"><path style="stroke:none" d="M 15.046875 -16.71875 L 15.046875 -13.375 L 11.703125 -13.375 L 11.703125 -16.71875 Z M 1.671875 0 L 1.671875 -6.6875 L 5.015625 -6.6875 L 5.015625 -3.34375 L 18.390625 -3.34375 L 18.390625 0 Z M 1.671875 -20.0625 L 1.671875 -23.40625 L 18.390625 -23.40625 L 18.390625 -16.71875 L 15.046875 -16.71875 L 15.046875 -20.0625 Z M 5.015625 -6.6875 L 5.015625 -10.03125 L 8.359375 -10.03125 L 8.359375 -6.6875 Z M 8.359375 -10.03125 L 8.359375 -13.375 L 11.703125 -13.375 L 11.703125 -10.03125 Z M 8.359375 -10.03125 "/></g></g><g style="fill:#ffffff;fill-opacity:1;"><g transform="translate(211.177844, 54.938431)"><path style="stroke:none" d="M 1.671875 0 L 1.671875 -23.40625 L 18.390625 -23.40625 L 18.390625 -20.0625 L 5.015625 -20.0625 L 5.015625 -13.375 L 15.046875 -13.375 L 15.046875 -10.03125 L 5.015625 -10.03125 L 5.015625 -3.34375 L 18.359375 -3.34375 L 18.359375 0 Z M 1.671875 0 "/></g></g><g style="fill:#ffffff;fill-opacity:1;"><g transform="translate(236.25345, 54.938431)"><path style="stroke:none" d=""/></g></g><g style="fill:#ffffff;fill-opacity:1;"><g transform="translate(249.627313, 54.938431)"><path style="stroke:none" d="M 8.359375 0 L 8.359375 -10.03125 L 11.703125 -10.03125 L 11.703125 0 Z M 1.671875 -16.71875 L 1.671875 -23.40625 L 5.015625 -23.40625 L 5.015625 -16.71875 Z M 5.015625 -10.03125 L 5.015625 -16.71875 L 8.359375 -16.71875 L 8.359375 -10.03125 Z M 11.703125 -10.03125 L 11.703125 -16.71875 L 15.046875 -16.71875 L 15.046875 -10.03125 Z M 15.046875 -16.71875 L 15.046875 -23.40625 L 18.390625 -23.40625 L 18.390625 -16.71875 Z M 15.046875 -16.71875 "/></g></g><g style="fill:#ffffff;fill-opacity:1;"><g transform="translate(274.702919, 54.938431)"><path style="stroke:none" d="M 15.046875 -3.34375 L 15.046875 0 L 5.015625 0 L 5.015625 -3.34375 Z M 1.671875 -3.34375 L 1.671875 -20.0625 L 5.015625 -20.0625 L 5.015625 -3.34375 Z M 5.015625 -20.0625 L 5.015625 -23.40625 L 15.046875 -23.40625 L 15.046875 -20.0625 Z M 15.046875 -3.34375 L 15.046875 -20.0625 L 18.390625 -20.0625 L 18.390625 -3.34375 Z M 15.046875 -3.34375 "/></g></g><g style="fill:#ffffff;fill-opacity:1;"><g transform="translate(299.778525, 54.938431)"><path style="stroke:none" d="M 15.046875 -3.34375 L 15.046875 0 L 5.015625 0 L 5.015625 -3.34375 Z M 1.671875 -3.34375 L 1.671875 -23.40625 L 5.015625 -23.40625 L 5.015625 -3.34375 Z M 15.046875 -3.34375 L 15.046875 -23.40625 L 18.390625 -23.40625 L 18.390625 -3.34375 Z M 15.046875 -3.34375 "/></g></g><g style="fill:#ffffff;fill-opacity:1;"><g transform="translate(324.85413, 54.938431)"><path style="stroke:none" d="M 1.671875 0 L 1.671875 -23.40625 L 15.046875 -23.40625 L 15.046875 -20.0625 L 5.015625 -20.0625 L 5.015625 -13.375 L 15.046875 -13.375 L 15.046875 -10.03125 L 11.703125 -10.03125 L 11.703125 -6.6875 L 8.359375 -6.6875 L 8.359375 -10.03125 L 5.015625 -10.03125 L 5.015625 0 Z M 11.703125 -3.34375 L 11.703125 -6.6875 L 15.046875 -6.6875 L 15.046875 -3.34375 Z M 15.046875 0 L 15.046875 -3.34375 L 18.390625 -3.34375 L 18.390625 0 Z M 15.046875 -13.375 L 15.046875 -20.0625 L 18.390625 -20.0625 L 18.390625 -13.375 Z M 15.046875 -13.375 "/></g></g><g style="fill:#ffffff;fill-opacity:1;"><g transform="translate(349.929736, 54.938431)"><path style="stroke:none" d=""/></g></g><g style="fill:#ffffff;fill-opacity:1;"><g transform="translate(363.303599, 54.938431)"><path style="stroke:none" d="M 15.046875 -3.34375 L 15.046875 0 L 5.015625 0 L 5.015625 -3.34375 Z M 1.671875 -3.34375 L 1.671875 -20.0625 L 5.015625 -20.0625 L 5.015625 -3.34375 Z M 5.015625 -20.0625 L 5.015625 -23.40625 L 15.046875 -23.40625 L 15.046875 -20.0625 Z M 11.703125 -10.03125 L 11.703125 -13.375 L 18.390625 -13.375 L 18.390625 -3.34375 L 15.046875 -3.34375 L 15.046875 -10.03125 Z M 15.046875 -16.71875 L 15.046875 -20.0625 L 18.390625 -20.0625 L 18.390625 -16.71875 Z M 15.046875 -16.71875 "/></g></g><g style="fill:#ffffff;fill-opacity:1;"><g transform="translate(388.379205, 54.938431)"><path style="stroke:none" d="M 15.046875 -3.34375 L 15.046875 0 L 5.015625 0 L 5.015625 -3.34375 Z M 1.671875 -3.34375 L 1.671875 -20.0625 L 5.015625 -20.0625 L 5.015625 -3.34375 Z M 5.015625 -20.0625 L 5.015625 -23.40625 L 15.046875 -23.40625 L 15.046875 -20.0625 Z M 15.046875 -3.34375 L 15.046875 -20.0625 L 18.390625 -20.0625 L 18.390625 -3.34375 Z M 15.046875 -3.34375 "/></g></g><g style="fill:#ffffff;fill-opacity:1;"><g transform="translate(413.454811, 54.938431)"><path style="stroke:none" d="M 1.671875 0 L 1.671875 -20.0625 L 5.015625 -20.0625 L 5.015625 -10.03125 L 15.046875 -10.03125 L 15.046875 -20.0625 L 18.390625 -20.0625 L 18.390625 0 L 15.046875 0 L 15.046875 -6.6875 L 5.015625 -6.6875 L 5.015625 0 Z M 5.015625 -20.0625 L 5.015625 -23.40625 L 15.046875 -23.40625 L 15.046875 -20.0625 Z M 5.015625 -20.0625 "/></g></g><g style="fill:#ffffff;fill-opacity:1;"><g transform="translate(438.53044, 54.938431)"><path style="stroke:none" d="M 1.671875 0 L 1.671875 -23.40625 L 5.015625 -23.40625 L 5.015625 -3.34375 L 18.390625 -3.34375 L 18.390625 0 Z M 1.671875 0 "/></g></g><g style="fill:#ffffff;fill-opacity:1;"><g transform="translate(463.612779, 54.938431)"><path style="stroke:none" d=""/></g></g></g></svg>