<svg xmlns="http://www.w3.org/2000/svg" xmlns:xlink="http://www.w3.org/1999/xlink" width="69" zoomAndPan="magnify" viewBox="0 0 51.75 30.750001" height="41" preserveAspectRatio="xMidYMid meet" version="1.2"><defs><clipPath id="9c16f14622"><path d="M 22 17 L 36 17 L 36 27.527344 L 22 27.527344 Z M 22 17 "/></clipPath><clipPath id="e90a0d257c"><path d="M 10.472656 12 L 21 12 L 21 25 L 10.472656 25 Z M 10.472656 12 "/></clipPath></defs><g id="b4492b824c"><g clip-rule="nonzero" clip-path="url(#9c16f14622)"><path style=" stroke:none;fill-rule:nonzero;fill:#393be5;fill-opacity:1;" d="M 34.902344 17.167969 C 34.546875 17.03125 34.148438 17.207031 34.007812 17.5625 C 32.519531 21.390625 29.023438 23.941406 24.972656 24.214844 L 25.597656 23.59375 C 25.867188 23.324219 25.867188 22.886719 25.597656 22.617188 C 25.328125 22.34375 24.890625 22.34375 24.621094 22.617188 L 22.789062 24.445312 C 22.519531 24.71875 22.519531 25.152344 22.789062 25.425781 L 24.621094 27.253906 C 24.753906 27.390625 24.929688 27.457031 25.105469 27.457031 C 25.28125 27.457031 25.460938 27.390625 25.59375 27.253906 C 25.867188 26.988281 25.867188 26.546875 25.59375 26.277344 L 24.917969 25.601562 C 29.5625 25.335938 33.589844 22.441406 35.292969 18.0625 C 35.4375 17.703125 35.257812 17.304688 34.902344 17.167969 Z M 34.902344 17.167969 "/></g><path style=" stroke:none;fill-rule:nonzero;fill:#393be5;fill-opacity:1;" d="M 13.570312 10.359375 C 13.652344 10.390625 13.738281 10.40625 13.820312 10.40625 C 14.097656 10.40625 14.355469 10.238281 14.464844 9.964844 C 15.953125 6.136719 19.449219 3.585938 23.5 3.308594 L 22.871094 3.933594 C 22.601562 4.203125 22.601562 4.636719 22.871094 4.910156 C 23.007812 5.046875 23.183594 5.113281 23.359375 5.113281 C 23.535156 5.113281 23.714844 5.046875 23.847656 4.910156 L 25.679688 3.078125 C 25.949219 2.808594 25.949219 2.371094 25.679688 2.101562 L 23.851562 0.269531 C 23.578125 0 23.144531 0 22.871094 0.269531 C 22.601562 0.539062 22.601562 0.976562 22.871094 1.25 L 23.550781 1.925781 C 18.90625 2.1875 14.878906 5.085938 13.175781 9.464844 C 13.035156 9.820312 13.214844 10.21875 13.570312 10.359375 Z M 13.570312 10.359375 "/><g clip-rule="nonzero" clip-path="url(#e90a0d257c)"><path style=" stroke:none;fill-rule:nonzero;fill:#393be5;fill-opacity:1;" d="M 20.441406 23.535156 C 16.609375 22.046875 14.058594 18.546875 13.78125 14.5 L 14.40625 15.125 C 14.675781 15.394531 15.113281 15.394531 15.382812 15.125 C 15.652344 14.851562 15.652344 14.417969 15.382812 14.144531 L 13.550781 12.316406 C 13.28125 12.042969 12.847656 12.042969 12.574219 12.316406 L 10.746094 14.148438 C 10.472656 14.417969 10.472656 14.855469 10.746094 15.125 C 10.878906 15.261719 11.054688 15.328125 11.230469 15.328125 C 11.40625 15.328125 11.585938 15.261719 11.71875 15.125 L 12.394531 14.449219 C 12.660156 19.09375 15.558594 23.121094 19.9375 24.824219 C 20.023438 24.855469 20.105469 24.871094 20.1875 24.871094 C 20.464844 24.871094 20.726562 24.703125 20.832031 24.429688 C 20.96875 24.074219 20.792969 23.675781 20.441406 23.535156 Z M 20.441406 23.535156 "/></g><path style=" stroke:none;fill-rule:nonzero;fill:#393be5;fill-opacity:1;" d="M 37.726562 12.398438 C 37.457031 12.128906 37.023438 12.128906 36.75 12.398438 L 36.074219 13.078125 C 35.8125 8.433594 32.914062 4.40625 28.535156 2.703125 C 28.175781 2.5625 27.78125 2.738281 27.640625 3.097656 C 27.503906 3.449219 27.679688 3.851562 28.035156 3.988281 C 31.863281 5.480469 34.414062 8.976562 34.691406 13.023438 L 34.066406 12.398438 C 33.796875 12.128906 33.359375 12.128906 33.089844 12.398438 C 32.820312 12.671875 32.820312 13.105469 33.089844 13.375 L 34.921875 15.207031 C 35.054688 15.34375 35.230469 15.410156 35.40625 15.410156 C 35.582031 15.410156 35.761719 15.34375 35.894531 15.207031 L 37.726562 13.375 C 37.996094 13.109375 37.996094 12.671875 37.726562 12.398438 Z M 37.726562 12.398438 "/><path style=" stroke:none;fill-rule:nonzero;fill:#393be5;fill-opacity:1;" d="M 22.78125 20.296875 C 22.828125 20.644531 23.128906 20.902344 23.476562 20.902344 L 24.988281 20.902344 C 25.339844 20.902344 25.636719 20.648438 25.6875 20.296875 L 25.875 18.996094 C 26.273438 18.832031 26.375 18.789062 26.769531 18.625 L 27.824219 19.410156 C 28.109375 19.621094 28.5 19.59375 28.75 19.34375 L 29.816406 18.277344 C 30.066406 18.03125 30.09375 17.636719 29.882812 17.355469 L 29.097656 16.300781 C 29.261719 15.90625 29.304688 15.800781 29.464844 15.410156 L 30.773438 15.21875 C 31.117188 15.167969 31.378906 14.871094 31.378906 14.519531 L 31.378906 13.007812 C 31.378906 12.65625 31.121094 12.359375 30.773438 12.308594 L 29.46875 12.121094 C 29.304688 11.726562 29.261719 11.621094 29.097656 11.226562 L 29.882812 10.171875 C 30.09375 9.886719 30.066406 9.496094 29.816406 9.25 L 28.75 8.179688 C 28.5 7.929688 28.109375 7.902344 27.824219 8.113281 L 26.769531 8.898438 C 26.375 8.734375 26.273438 8.691406 25.875 8.527344 L 25.6875 7.222656 C 25.632812 6.878906 25.335938 6.621094 24.988281 6.621094 L 23.476562 6.621094 C 23.125 6.621094 22.828125 6.875 22.78125 7.222656 L 22.589844 8.527344 C 22.195312 8.691406 22.089844 8.734375 21.695312 8.898438 L 20.644531 8.113281 C 20.363281 7.902344 19.96875 7.929688 19.722656 8.179688 L 18.652344 9.25 C 18.40625 9.496094 18.375 9.886719 18.585938 10.171875 L 19.371094 11.226562 C 19.207031 11.621094 19.164062 11.726562 19 12.121094 L 17.699219 12.308594 C 17.351562 12.359375 17.09375 12.660156 17.09375 13.007812 L 17.09375 14.519531 C 17.09375 14.871094 17.347656 15.167969 17.699219 15.21875 L 19 15.410156 C 19.164062 15.804688 19.207031 15.910156 19.371094 16.304688 L 18.585938 17.355469 C 18.375 17.636719 18.40625 18.03125 18.652344 18.277344 L 19.722656 19.34375 C 19.96875 19.59375 20.363281 19.621094 20.644531 19.410156 L 21.699219 18.625 C 22.09375 18.789062 22.199219 18.832031 22.597656 18.996094 Z M 21.359375 14.476562 C 21.011719 14.132812 21.011719 13.570312 21.359375 13.222656 C 21.707031 12.878906 22.265625 12.878906 22.613281 13.222656 L 23.402344 14.015625 L 25.625 11.792969 C 25.976562 11.445312 26.535156 11.445312 26.878906 11.792969 C 27.226562 12.136719 27.226562 12.699219 26.878906 13.046875 L 24.03125 15.894531 C 23.859375 16.066406 23.632812 16.152344 23.40625 16.152344 C 23.179688 16.152344 22.953125 16.066406 22.78125 15.894531 Z M 21.359375 14.476562 "/></g></svg>