<svg xmlns="http://www.w3.org/2000/svg" xmlns:xlink="http://www.w3.org/1999/xlink" width="61" zoomAndPan="magnify" viewBox="0 0 45.75 30.000001" height="40" preserveAspectRatio="xMidYMid meet" version="1.2"><defs><clipPath id="e162d7f156"><path d="M 7 4.929688 L 38.855469 4.929688 L 38.855469 21.621094 L 7 21.621094 Z M 7 4.929688 "/></clipPath></defs><g id="f829b9a851"><g clip-rule="nonzero" clip-path="url(#e162d7f156)"><path style=" stroke:none;fill-rule:nonzero;fill:#393be5;fill-opacity:1;" d="M 37.894531 12.582031 C 37.613281 12.269531 30.980469 4.972656 22.589844 4.972656 C 14.199219 4.972656 7.566406 12.269531 7.289062 12.582031 C 7.113281 12.78125 7.023438 13.011719 7.023438 13.273438 C 7.023438 13.539062 7.113281 13.769531 7.289062 13.96875 C 7.566406 14.277344 14.199219 21.578125 22.589844 21.578125 C 30.980469 21.578125 37.613281 14.277344 37.894531 13.96875 C 38.070312 13.769531 38.15625 13.539062 38.15625 13.273438 C 38.15625 13.011719 38.070312 12.78125 37.894531 12.582031 Z M 22.589844 19.5 C 16.570312 19.5 11.335938 15.027344 9.515625 13.273438 C 11.332031 11.519531 16.550781 7.046875 22.589844 7.046875 C 28.628906 7.046875 33.847656 11.523438 35.667969 13.273438 C 33.851562 15.027344 28.628906 19.5 22.589844 19.5 Z M 22.589844 19.5 "/></g><path style=" stroke:none;fill-rule:nonzero;fill:#393be5;fill-opacity:1;" d="M 17.402344 13.273438 C 17.402344 13.617188 17.433594 13.953125 17.5 14.285156 C 17.566406 14.621094 17.667969 14.945312 17.796875 15.261719 C 17.925781 15.574219 18.085938 15.875 18.277344 16.15625 C 18.464844 16.441406 18.679688 16.703125 18.921875 16.945312 C 19.164062 17.183594 19.425781 17.398438 19.707031 17.589844 C 19.992188 17.777344 20.289062 17.9375 20.605469 18.070312 C 20.917969 18.199219 21.246094 18.296875 21.578125 18.363281 C 21.914062 18.429688 22.25 18.464844 22.589844 18.464844 C 22.929688 18.464844 23.269531 18.429688 23.601562 18.363281 C 23.9375 18.296875 24.261719 18.199219 24.578125 18.070312 C 24.890625 17.9375 25.191406 17.777344 25.472656 17.589844 C 25.757812 17.398438 26.019531 17.183594 26.261719 16.945312 C 26.5 16.703125 26.714844 16.441406 26.90625 16.15625 C 27.09375 15.875 27.253906 15.574219 27.386719 15.261719 C 27.515625 14.945312 27.613281 14.621094 27.679688 14.285156 C 27.746094 13.953125 27.78125 13.617188 27.78125 13.273438 C 27.78125 12.933594 27.746094 12.597656 27.679688 12.261719 C 27.613281 11.929688 27.515625 11.605469 27.386719 11.289062 C 27.253906 10.972656 27.09375 10.675781 26.90625 10.390625 C 26.714844 10.109375 26.5 9.847656 26.261719 9.605469 C 26.019531 9.363281 25.757812 9.148438 25.472656 8.960938 C 25.191406 8.769531 24.890625 8.609375 24.578125 8.480469 C 24.261719 8.351562 23.9375 8.25 23.601562 8.183594 C 23.269531 8.117188 22.929688 8.085938 22.589844 8.085938 C 22.25 8.085938 21.914062 8.121094 21.578125 8.1875 C 21.246094 8.253906 20.921875 8.351562 20.605469 8.480469 C 20.292969 8.613281 19.992188 8.773438 19.710938 8.960938 C 19.425781 9.152344 19.164062 9.367188 18.921875 9.605469 C 18.683594 9.847656 18.46875 10.109375 18.277344 10.394531 C 18.089844 10.675781 17.929688 10.976562 17.796875 11.289062 C 17.667969 11.605469 17.570312 11.929688 17.503906 12.261719 C 17.4375 12.597656 17.402344 12.933594 17.402344 13.273438 Z M 25.703125 13.273438 C 25.703125 13.6875 25.625 14.085938 25.46875 14.464844 C 25.308594 14.847656 25.085938 15.183594 24.792969 15.476562 C 24.5 15.769531 24.164062 15.992188 23.78125 16.152344 C 23.402344 16.308594 23.003906 16.386719 22.589844 16.386719 C 22.179688 16.386719 21.78125 16.308594 21.398438 16.152344 C 21.019531 15.992188 20.679688 15.769531 20.390625 15.476562 C 20.097656 15.183594 19.871094 14.847656 19.714844 14.464844 C 19.554688 14.085938 19.476562 13.6875 19.476562 13.273438 C 19.476562 12.863281 19.554688 12.464844 19.714844 12.082031 C 19.871094 11.703125 20.097656 11.363281 20.390625 11.074219 C 20.679688 10.78125 21.019531 10.554688 21.398438 10.398438 C 21.78125 10.242188 22.179688 10.160156 22.589844 10.160156 C 23.003906 10.160156 23.402344 10.242188 23.78125 10.398438 C 24.164062 10.554688 24.5 10.78125 24.792969 11.074219 C 25.085938 11.363281 25.308594 11.703125 25.46875 12.082031 C 25.625 12.464844 25.703125 12.863281 25.703125 13.273438 Z M 25.703125 13.273438 "/></g></svg>