<svg xmlns="http://www.w3.org/2000/svg" xmlns:xlink="http://www.w3.org/1999/xlink" width="91" zoomAndPan="magnify" viewBox="0 0 68.25 63.749998" height="85" preserveAspectRatio="xMidYMid meet" version="1.2"><defs><clipPath id="d168a39759"><path d="M 0 0.222656 L 67.507812 0.222656 L 67.507812 63.28125 L 0 63.28125 Z M 0 0.222656 "/></clipPath><filter x="0%" y="0%" width="100%" filterUnits="objectBoundingBox" id="7592278415" height="100%"><feColorMatrix values="0 0 0 0 1 0 0 0 0 1 0 0 0 0 1 0 0 0 1 0" type="matrix" in="SourceGraphic"/></filter><clipPath id="3485646962"><path d="M 1 1 L 62 1 L 62 54.144531 L 1 54.144531 Z M 1 1 "/></clipPath><clipPath id="6e047c4cc4"><path d="M 1 25 L 62 25 L 62 54.144531 L 1 54.144531 Z M 1 25 "/></clipPath><clipPath id="630fef82f9"><rect x="0" width="63" y="0" height="55"/></clipPath><clipPath id="a57b65c67c"><path d="M 0 0.222656 L 67.507812 0.222656 L 67.507812 63 L 0 63 Z M 0 0.222656 "/></clipPath><clipPath id="8d32cfad16"><path d="M 0 0.222656 L 67 0.222656 L 67 62.785156 L 0 62.785156 Z M 0 0.222656 "/></clipPath><clipPath id="c61b0ca268"><path d="M 11.871094 0.222656 L 55.121094 0.222656 C 58.269531 0.222656 61.289062 1.472656 63.511719 3.699219 C 65.738281 5.925781 66.988281 8.945312 66.988281 12.09375 L 66.988281 50.914062 C 66.988281 54.0625 65.738281 57.082031 63.511719 59.308594 C 61.289062 61.535156 58.269531 62.785156 55.121094 62.785156 L 11.871094 62.785156 C 8.722656 62.785156 5.703125 61.535156 3.476562 59.308594 C 1.25 57.082031 0 54.0625 0 50.914062 L 0 12.09375 C 0 8.945312 1.25 5.925781 3.476562 3.699219 C 5.703125 1.472656 8.722656 0.222656 11.871094 0.222656 Z M 11.871094 0.222656 "/></clipPath><clipPath id="4bd10a50b4"><rect x="0" width="68" y="0" height="63"/></clipPath></defs><g id="7621baae36"><g clip-rule="nonzero" clip-path="url(#d168a39759)"><path style=" stroke:none;fill-rule:nonzero;fill:#ffffff;fill-opacity:1;" d="M 0 0.222656 L 67.507812 0.222656 L 67.507812 63.28125 L 0 63.28125 Z M 0 0.222656 "/></g><g mask="url(#0adc14a5db)" transform="matrix(1,0,0,1,2,4)"><g clip-path="url(#630fef82f9)"><g clip-rule="nonzero" clip-path="url(#3485646962)"><path style=" stroke:none;fill-rule:nonzero;fill:#5e94ff;fill-opacity:1;" d="M 58.699219 26.148438 C 58.699219 26.179688 58.699219 26.207031 58.695312 26.234375 C 58.699219 26.132812 58.699219 26.03125 58.703125 25.921875 C 58.699219 26 58.699219 26.078125 58.699219 26.148438 Z M 58.675781 27.074219 C 58.671875 27.109375 58.671875 27.140625 58.671875 27.175781 C 58.675781 27.082031 58.675781 26.984375 58.679688 26.882812 C 58.679688 26.945312 58.675781 27.011719 58.675781 27.074219 Z M 58.703125 25.660156 C 58.703125 25.695312 58.703125 25.726562 58.703125 25.761719 C 58.734375 20.875 57.980469 11.894531 52.566406 6.203125 C 52.441406 6.074219 52.3125 5.945312 52.183594 5.816406 C 52.054688 5.6875 51.921875 5.5625 51.789062 5.441406 L 51.785156 5.4375 C 51.417969 5.097656 51.027344 4.773438 50.617188 4.460938 C 50.089844 4.066406 49.527344 3.699219 48.933594 3.359375 C 48.207031 2.902344 47.441406 2.507812 46.660156 2.292969 C 46.582031 2.265625 46.503906 2.234375 46.425781 2.203125 L 46.421875 2.203125 C 44.125 1.371094 41.410156 0.9375 38.199219 1.046875 C 37.519531 1.070312 36.8125 1.117188 36.089844 1.191406 C 36.039062 1.195312 35.988281 1.203125 35.9375 1.207031 C 35.207031 1.285156 34.5 1.382812 33.816406 1.503906 C 33.671875 1.527344 33.53125 1.554688 33.390625 1.578125 L 33.636719 1.503906 C 30.289062 2.09375 27.675781 2.832031 25.390625 4.433594 C 25.277344 4.496094 25.160156 4.5625 25.050781 4.628906 C 14.449219 10.847656 12.15625 23.523438 11.691406 29.957031 C 6.820312 33.515625 -0.730469 39.84375 1.4375 43.507812 C 4.570312 48.800781 14.136719 53.972656 17.152344 54.070312 C 17.21875 54.070312 17.292969 54.070312 17.371094 54.070312 C 20.953125 54.015625 35.601562 50.496094 38.855469 49.328125 C 41.648438 48.324219 47.726562 45.589844 53.039062 42.152344 C 57.507812 39.265625 62.667969 35.039062 61.878906 31.308594 C 61.28125 28.488281 60 26.742188 58.703125 25.660156 "/></g><path style=" stroke:none;fill-rule:nonzero;fill:#5e94ff;fill-opacity:1;" d="M 4.390625 42.550781 C 2.707031 40.394531 6.007812 36.429688 9.574219 33.117188 C 5.472656 36.378906 1.242188 40.609375 2.824219 43.210938 C 5.367188 47.402344 12.757812 51.726562 16.425781 52.703125 C 10.371094 48.894531 6.75 45.570312 4.390625 42.550781 "/><g clip-rule="nonzero" clip-path="url(#6e047c4cc4)"><path style=" stroke:none;fill-rule:nonzero;fill:#393be5;fill-opacity:1;" d="M 61.878906 31.308594 C 61.28125 28.488281 60 26.742188 58.703125 25.660156 C 58.703125 25.828125 58.703125 25.992188 58.699219 26.148438 C 59.859375 27.199219 60.972656 28.835938 61.511719 31.386719 C 62.257812 34.90625 57.207031 39.015625 52.835938 41.839844 C 47.550781 45.257812 41.503906 47.980469 38.730469 48.976562 C 35.417969 50.164062 20.296875 53.796875 17.164062 53.695312 C 14.195312 53.597656 4.726562 48.332031 1.757812 43.316406 C -0.207031 39.996094 6.878906 33.992188 11.65625 30.460938 C 11.667969 30.300781 11.679688 30.128906 11.691406 29.957031 C 6.820312 33.515625 -0.730469 39.84375 1.4375 43.507812 C 4.570312 48.800781 14.136719 53.972656 17.152344 54.070312 C 17.21875 54.070312 17.292969 54.070312 17.371094 54.070312 C 20.953125 54.015625 35.601562 50.496094 38.855469 49.328125 C 41.644531 48.324219 47.726562 45.589844 53.039062 42.152344 C 57.507812 39.265625 62.667969 35.039062 61.878906 31.308594 "/></g><path style=" stroke:none;fill-rule:nonzero;fill:#393be5;fill-opacity:1;" d="M 8.570312 35.398438 C 7.839844 36.679688 7.367188 38.144531 7.640625 39.632812 C 7.882812 40.96875 8.777344 42.089844 9.757812 42.980469 C 11.882812 44.917969 14.644531 46.160156 17.347656 47.046875 C 20.347656 48.023438 23.496094 48.53125 26.648438 48.617188 C 29.78125 48.699219 32.933594 48.371094 35.980469 47.621094 C 37.402344 47.269531 38.800781 46.816406 40.195312 46.359375 C 41.605469 45.898438 43.007812 45.40625 44.394531 44.863281 C 47.179688 43.773438 49.90625 42.488281 52.417969 40.855469 C 53.660156 40.046875 54.851562 39.15625 55.953125 38.167969 C 57.007812 37.21875 58.019531 36.191406 58.828125 35.019531 C 59.722656 33.714844 60.589844 32.203125 60.285156 30.589844 C 60.027344 29.222656 59.503906 28.113281 58.675781 27.074219 C 58.671875 27.109375 58.671875 27.140625 58.671875 27.175781 L 58.671875 27.179688 C 58.667969 27.265625 58.664062 27.347656 58.660156 27.429688 L 58.65625 27.449219 C 58.65625 27.527344 58.652344 27.605469 58.648438 27.679688 L 58.644531 27.699219 C 58.640625 27.769531 58.636719 27.839844 58.632812 27.90625 L 58.632812 27.933594 C 58.628906 28 58.625 28.0625 58.621094 28.125 L 58.617188 28.148438 C 58.613281 28.207031 58.609375 28.261719 58.605469 28.316406 L 58.605469 28.351562 C 58.601562 28.402344 58.597656 28.449219 58.59375 28.496094 L 58.589844 28.527344 C 58.585938 28.574219 58.585938 28.617188 58.582031 28.65625 L 58.578125 28.6875 C 58.574219 28.726562 58.570312 28.765625 58.570312 28.796875 L 58.566406 28.828125 C 58.5625 28.859375 58.558594 28.890625 58.558594 28.917969 L 58.554688 28.953125 C 58.550781 28.976562 58.550781 29 58.546875 29.019531 L 58.542969 29.050781 C 58.542969 29.066406 58.542969 29.085938 58.539062 29.097656 L 58.539062 29.121094 L 58.535156 29.15625 C 58.53125 29.1875 58.527344 29.203125 58.527344 29.203125 C 58.527344 29.203125 53.40625 42.546875 35.140625 42.546875 C 34.875 42.546875 34.609375 42.546875 34.347656 42.542969 C 34.25 42.539062 34.152344 42.539062 34.058594 42.535156 C 33.898438 42.53125 33.738281 42.53125 33.578125 42.523438 C 33.457031 42.523438 33.335938 42.519531 33.21875 42.511719 C 33.09375 42.507812 32.972656 42.503906 32.851562 42.5 C 32.710938 42.492188 32.570312 42.488281 32.429688 42.480469 C 32.359375 42.476562 32.289062 42.472656 32.21875 42.46875 C 30.980469 42.402344 29.804688 42.296875 28.695312 42.152344 C 28.542969 42.132812 28.390625 42.109375 28.238281 42.089844 L 28.242188 42.121094 C 27.636719 42.578125 26.960938 42.976562 26.210938 43.066406 L 26.175781 43.0625 C 25.960938 43.019531 25.746094 42.976562 25.535156 42.933594 L 25.503906 42.925781 C 25.316406 42.886719 25.132812 42.847656 24.953125 42.808594 C 24.777344 42.769531 24.605469 42.726562 24.4375 42.6875 L 24.398438 42.679688 C 23.359375 42.425781 22.390625 42.144531 21.492188 41.839844 C 21.492188 41.773438 21.488281 41.707031 21.484375 41.644531 C 21.46875 41.257812 21.460938 40.875 21.457031 40.492188 C 20.015625 39.996094 18.761719 39.441406 17.675781 38.871094 C 17.5 38.777344 17.332031 38.683594 17.164062 38.59375 L 17.167969 38.625 C 16.835938 38.90625 16.492188 39.171875 16.082031 39.328125 L 16.078125 39.324219 C 15.910156 39.21875 15.75 39.117188 15.59375 39.015625 C 15.527344 38.972656 15.464844 38.929688 15.402344 38.886719 C 15.3125 38.828125 15.222656 38.765625 15.136719 38.707031 C 15.066406 38.660156 15 38.609375 14.933594 38.5625 C 14.855469 38.507812 14.777344 38.453125 14.703125 38.398438 C 14.640625 38.351562 14.578125 38.304688 14.515625 38.257812 C 14.4375 38.199219 14.363281 38.144531 14.289062 38.085938 C 14.238281 38.046875 14.183594 38.003906 14.128906 37.960938 C 14.046875 37.894531 13.964844 37.828125 13.882812 37.765625 C 13.847656 37.734375 13.808594 37.703125 13.773438 37.675781 C 12.675781 36.765625 11.972656 35.964844 11.578125 35.464844 C 11.601562 34.972656 11.628906 34.484375 11.664062 33.996094 C 11.621094 33.933594 11.597656 33.894531 11.597656 33.894531 C 11.597656 33.894531 11.539062 32.730469 11.636719 30.84375 C 11.515625 31 11.394531 31.15625 11.277344 31.3125 C 10.308594 32.621094 9.378906 33.984375 8.570312 35.398438 "/><path style=" stroke:none;fill-rule:nonzero;fill:#5e94ff;fill-opacity:1;" d="M 46.796875 5.683594 L 46.820312 5.652344 C 46.835938 5.632812 46.84375 5.601562 46.839844 5.570312 C 46.832031 5.511719 46.773438 5.46875 46.714844 5.480469 C 45.972656 5.597656 45.210938 5.742188 44.492188 5.992188 C 38.5625 7.917969 34.441406 13.355469 32.132812 18.910156 C 30.714844 22.324219 29.726562 26.132812 29.484375 29.832031 C 29.429688 30.578125 29.371094 31.316406 29.371094 32.0625 C 29.363281 32.808594 29.375 33.554688 29.453125 34.304688 C 29.457031 34.335938 29.472656 34.367188 29.503906 34.386719 C 29.558594 34.417969 29.625 34.402344 29.65625 34.351562 L 29.671875 34.328125 C 30.492188 32.972656 31.210938 31.65625 31.902344 30.359375 L 31.910156 30.339844 C 35.582031 23.097656 39.371094 15.941406 44.066406 9.292969 C 44.890625 8.164062 45.796875 7.039062 46.796875 5.683594 "/><path style=" stroke:none;fill-rule:nonzero;fill:#393be5;fill-opacity:1;" d="M 52.535156 6.824219 C 53.621094 9.035156 54.308594 11.40625 54.640625 13.84375 C 54.980469 16.339844 54.96875 18.878906 54.640625 21.375 C 54.332031 23.714844 53.777344 26.074219 52.863281 28.257812 C 52.167969 29.914062 51.210938 31.445312 50.054688 32.820312 C 48.894531 34.199219 47.539062 35.40625 46.070312 36.457031 C 44.554688 37.535156 42.917969 38.445312 41.222656 39.207031 C 39.511719 39.976562 37.738281 40.597656 35.929688 41.09375 C 34.121094 41.589844 32.28125 41.957031 30.421875 42.207031 C 30.230469 42.234375 30.035156 42.257812 29.839844 42.28125 C 30.605469 42.363281 31.398438 42.425781 32.21875 42.46875 C 32.289062 42.472656 32.359375 42.476562 32.429688 42.480469 C 32.570312 42.488281 32.710938 42.492188 32.851562 42.5 C 32.972656 42.503906 33.09375 42.507812 33.21875 42.511719 C 33.335938 42.519531 33.457031 42.523438 33.578125 42.523438 C 33.738281 42.53125 33.894531 42.53125 34.054688 42.535156 C 34.152344 42.539062 34.25 42.539062 34.347656 42.542969 C 34.609375 42.546875 34.875 42.546875 35.140625 42.546875 C 53.40625 42.546875 58.527344 29.203125 58.527344 29.203125 C 58.527344 29.203125 58.53125 29.1875 58.535156 29.15625 L 58.539062 29.121094 L 58.539062 29.097656 C 58.542969 29.085938 58.542969 29.066406 58.542969 29.050781 L 58.546875 29.019531 C 58.550781 29 58.550781 28.976562 58.554688 28.953125 L 58.558594 28.917969 C 58.558594 28.890625 58.5625 28.859375 58.566406 28.828125 L 58.570312 28.796875 C 58.570312 28.765625 58.574219 28.726562 58.578125 28.6875 L 58.582031 28.65625 C 58.585938 28.617188 58.585938 28.574219 58.589844 28.527344 L 58.59375 28.496094 C 58.597656 28.449219 58.601562 28.402344 58.605469 28.351562 L 58.605469 28.316406 C 58.609375 28.261719 58.613281 28.207031 58.617188 28.148438 L 58.621094 28.125 C 58.625 28.0625 58.628906 28 58.632812 27.933594 L 58.632812 27.90625 C 58.636719 27.839844 58.640625 27.769531 58.644531 27.699219 L 58.648438 27.679688 C 58.648438 27.605469 58.65625 27.527344 58.65625 27.449219 L 58.660156 27.429688 C 58.664062 27.347656 58.667969 27.265625 58.667969 27.179688 L 58.671875 27.175781 C 58.84375 22.828125 58.554688 12.5 52.566406 6.203125 C 52.441406 6.074219 52.3125 5.941406 52.183594 5.816406 C 52.054688 5.6875 51.921875 5.5625 51.785156 5.4375 C 52.050781 5.890625 52.304688 6.351562 52.535156 6.824219 "/><path style=" stroke:none;fill-rule:nonzero;fill:#393be5;fill-opacity:1;" d="M 26.210938 43.066406 C 26.960938 42.976562 27.636719 42.578125 28.242188 42.121094 L 28.238281 42.089844 C 28.101562 41.207031 27.992188 40.3125 27.910156 39.417969 C 27.691406 37.085938 27.65625 34.734375 27.800781 32.390625 C 28.097656 27.707031 29.15625 23.054688 31.078125 18.753906 C 32.050781 16.578125 33.160156 14.445312 34.402344 12.429688 C 35.667969 10.429688 37.074219 8.515625 38.769531 6.9375 C 39.617188 6.148438 40.539062 5.453125 41.53125 4.898438 L 41.90625 4.695312 L 42.289062 4.515625 C 42.542969 4.382812 42.8125 4.296875 43.074219 4.1875 C 43.605469 4.003906 44.148438 3.84375 44.707031 3.757812 C 45.820312 3.554688 46.972656 3.589844 48.109375 3.792969 C 48.964844 3.953125 49.804688 4.21875 50.617188 4.554688 C 49.824219 4.164062 49.003906 3.84375 48.164062 3.628906 C 47.042969 3.347656 45.894531 3.234375 44.773438 3.363281 C 44.207031 3.410156 43.65625 3.535156 43.113281 3.683594 C 42.84375 3.773438 42.574219 3.84375 42.308594 3.957031 L 41.917969 4.113281 L 41.527344 4.289062 C 40.503906 4.773438 39.539062 5.40625 38.644531 6.136719 C 36.851562 7.601562 35.320312 9.414062 33.933594 11.328125 C 32.5625 13.253906 31.316406 15.308594 30.210938 17.414062 C 28.011719 21.578125 26.65625 26.148438 26.058594 30.804688 C 25.765625 33.128906 25.648438 35.480469 25.714844 37.820312 C 25.746094 38.992188 25.824219 40.15625 25.949219 41.3125 C 26.007812 41.890625 26.085938 42.460938 26.171875 43.027344 L 26.175781 43.0625 C 25.960938 43.019531 25.746094 42.976562 25.535156 42.933594 C 25.746094 42.976562 25.960938 43.019531 26.175781 43.0625 L 26.210938 43.066406 "/><path style=" stroke:none;fill-rule:nonzero;fill:#393be5;fill-opacity:1;" d="M 32.957031 1.6875 C 32.832031 1.722656 32.703125 1.75 32.578125 1.796875 L 32.203125 1.933594 C 31.957031 2.027344 31.707031 2.105469 31.464844 2.214844 C 29.523438 3.058594 27.777344 4.324219 26.261719 5.828125 C 24.738281 7.335938 23.433594 9.074219 22.269531 10.902344 C 21.988281 11.367188 21.695312 11.820312 21.421875 12.292969 L 20.640625 13.730469 C 20.117188 14.683594 19.664062 15.667969 19.230469 16.660156 C 17.523438 20.640625 16.480469 24.890625 16.035156 29.191406 C 15.816406 31.339844 15.738281 33.5 15.808594 35.652344 C 15.84375 36.730469 15.914062 37.800781 16.027344 38.863281 C 16.039062 39.015625 16.058594 39.167969 16.078125 39.324219 L 16.082031 39.328125 C 16.492188 39.171875 16.835938 38.90625 17.167969 38.625 L 17.164062 38.59375 C 17.113281 38.085938 17.070312 37.578125 17.039062 37.070312 C 16.886719 34.871094 16.890625 32.65625 17.03125 30.449219 C 17.324219 26.039062 18.214844 21.65625 19.777344 17.519531 C 20.175781 16.492188 20.59375 15.46875 21.085938 14.476562 L 21.8125 12.976562 C 22.070312 12.488281 22.347656 12.011719 22.613281 11.523438 C 23.710938 9.613281 24.953125 7.789062 26.417969 6.195312 C 27.882812 4.601562 29.582031 3.242188 31.492188 2.308594 C 31.730469 2.191406 31.976562 2.101562 32.222656 1.996094 L 32.589844 1.839844 C 32.710938 1.789062 32.839844 1.757812 32.964844 1.714844 L 33.390625 1.582031 L 33.636719 1.503906 L 32.957031 1.6875 "/><path style=" stroke:none;fill-rule:nonzero;fill:#5e94ff;fill-opacity:1;" d="M 22.683594 7.828125 L 22.679688 7.835938 C 22.019531 8.84375 21.320312 9.804688 20.734375 10.839844 C 20.425781 11.347656 20.136719 11.863281 19.839844 12.375 C 19.699219 12.632812 19.5625 12.898438 19.425781 13.160156 C 19.285156 13.417969 19.140625 13.675781 19.011719 13.941406 L 18.613281 14.730469 L 18.238281 15.53125 L 18.050781 15.929688 L 17.871094 16.335938 C 17.753906 16.605469 17.625 16.871094 17.515625 17.140625 L 17.179688 17.957031 C 17.0625 18.230469 16.96875 18.507812 16.855469 18.78125 C 16.632812 19.324219 16.441406 19.882812 16.242188 20.433594 L 15.957031 21.269531 C 15.863281 21.550781 15.785156 21.832031 15.691406 22.113281 C 15.597656 22.390625 15.511719 22.671875 15.425781 22.953125 C 15.339844 23.238281 15.253906 23.515625 15.175781 23.800781 L 14.707031 25.507812 L 14.484375 26.363281 L 14.28125 27.226562 C 13.726562 29.523438 13.277344 31.855469 12.902344 34.222656 L 12.898438 34.238281 C 12.890625 34.289062 12.84375 34.320312 12.792969 34.3125 C 12.746094 34.308594 12.714844 34.269531 12.714844 34.222656 C 12.691406 33.019531 12.746094 31.816406 12.851562 30.617188 C 12.96875 29.421875 13.136719 28.226562 13.34375 27.042969 C 13.566406 25.859375 13.835938 24.683594 14.144531 23.519531 C 14.21875 23.226562 14.304688 22.9375 14.386719 22.648438 C 14.46875 22.359375 14.550781 22.070312 14.644531 21.78125 C 14.820312 21.207031 15.023438 20.640625 15.226562 20.070312 C 16.058594 17.8125 17.039062 15.597656 18.273438 13.523438 C 18.417969 13.261719 18.578125 13.003906 18.738281 12.75 C 18.898438 12.496094 19.054688 12.238281 19.21875 11.984375 C 19.5625 11.488281 19.878906 10.976562 20.25 10.503906 C 20.957031 9.527344 21.742188 8.613281 22.539062 7.714844 C 22.570312 7.675781 22.628906 7.671875 22.667969 7.707031 C 22.703125 7.738281 22.710938 7.789062 22.683594 7.828125 Z M 20.410156 9.570312 C 20.074219 10.035156 19.726562 10.5 19.402344 10.972656 L 18.46875 12.421875 C 17.84375 13.386719 17.28125 14.402344 16.742188 15.425781 C 14.605469 19.546875 13.144531 24.039062 12.328125 28.644531 C 12.015625 30.410156 11.792969 32.199219 11.664062 33.996094 C 11.628906 34.484375 11.601562 34.972656 11.578125 35.464844 C 11.972656 35.964844 12.675781 36.765625 13.773438 37.675781 C 13.808594 37.703125 13.847656 37.734375 13.882812 37.765625 C 13.964844 37.828125 14.046875 37.894531 14.128906 37.960938 C 14.183594 38.003906 14.234375 38.046875 14.289062 38.085938 C 14.363281 38.144531 14.4375 38.203125 14.515625 38.257812 C 14.578125 38.304688 14.640625 38.351562 14.703125 38.398438 C 14.777344 38.453125 14.855469 38.507812 14.933594 38.5625 C 15 38.613281 15.066406 38.660156 15.136719 38.707031 C 15.222656 38.765625 15.3125 38.828125 15.402344 38.886719 C 15.464844 38.929688 15.527344 38.972656 15.59375 39.015625 C 15.75 39.117188 15.910156 39.21875 16.078125 39.324219 C 16.058594 39.167969 16.039062 39.015625 16.027344 38.863281 C 15.914062 37.800781 15.84375 36.730469 15.808594 35.652344 C 15.734375 33.5 15.816406 31.339844 16.03125 29.191406 C 16.480469 24.890625 17.523438 20.640625 19.230469 16.660156 C 19.664062 15.667969 20.117188 14.683594 20.640625 13.730469 L 21.421875 12.292969 C 21.695312 11.820312 21.988281 11.367188 22.269531 10.902344 C 23.433594 9.074219 24.738281 7.335938 26.261719 5.828125 C 27.777344 4.324219 29.523438 3.058594 31.464844 2.214844 C 31.707031 2.105469 31.957031 2.027344 32.203125 1.933594 L 32.578125 1.796875 C 32.703125 1.75 32.832031 1.726562 32.957031 1.6875 L 33.636719 1.503906 C 30.289062 2.09375 27.675781 2.832031 25.390625 4.433594 C 25.316406 4.484375 25.246094 4.53125 25.171875 4.585938 C 23.414062 5.871094 21.707031 7.824219 20.410156 9.570312 "/><path style=" stroke:none;fill-rule:nonzero;fill:#5e94ff;fill-opacity:1;" d="M 22.324219 33.703125 C 22.421875 32.488281 22.578125 31.277344 22.785156 30.074219 C 23.234375 27.675781 23.859375 25.300781 24.753906 23.023438 C 25.636719 20.746094 26.707031 18.535156 28 16.464844 L 28.5 15.695312 L 28.746094 15.3125 L 29.53125 14.1875 C 29.710938 13.941406 29.902344 13.703125 30.085938 13.460938 C 30.828125 12.492188 31.636719 11.578125 32.457031 10.683594 C 32.488281 10.644531 32.550781 10.640625 32.585938 10.675781 C 32.621094 10.707031 32.628906 10.761719 32.597656 10.800781 L 32.59375 10.804688 C 31.175781 12.777344 29.882812 14.808594 28.726562 16.902344 L 28.308594 17.695312 L 28.101562 18.09375 L 27.90625 18.496094 L 27.503906 19.296875 L 27.128906 20.105469 C 26.996094 20.375 26.882812 20.652344 26.765625 20.925781 C 26.652344 21.199219 26.53125 21.46875 26.417969 21.746094 L 26.078125 22.574219 L 25.761719 23.40625 C 25.652344 23.683594 25.558594 23.964844 25.460938 24.246094 C 25.363281 24.527344 25.265625 24.808594 25.175781 25.09375 C 25.082031 25.375 24.984375 25.65625 24.894531 25.941406 L 24.632812 26.796875 L 24.152344 28.515625 C 23.996094 29.09375 23.851562 29.671875 23.722656 30.253906 C 23.171875 32.578125 22.75 34.941406 22.480469 37.355469 L 22.476562 37.367188 C 22.472656 37.417969 22.425781 37.457031 22.375 37.449219 C 22.328125 37.445312 22.296875 37.40625 22.292969 37.363281 C 22.214844 36.140625 22.242188 34.921875 22.324219 33.703125 Z M 44.695312 2.140625 C 44.058594 2.152344 43.425781 2.246094 42.800781 2.367188 C 42.492188 2.449219 42.175781 2.507812 41.875 2.613281 L 41.417969 2.753906 L 40.972656 2.921875 C 39.78125 3.382812 38.667969 4.011719 37.632812 4.738281 C 35.5625 6.199219 33.800781 8.019531 32.199219 9.929688 C 30.617188 11.863281 29.183594 13.890625 27.867188 16.019531 C 25.203125 20.316406 23.386719 25.167969 22.394531 30.171875 C 21.898438 32.679688 21.59375 35.226562 21.492188 37.785156 C 21.457031 38.6875 21.441406 39.589844 21.457031 40.492188 C 21.460938 40.875 21.46875 41.257812 21.484375 41.644531 C 21.488281 41.707031 21.492188 41.773438 21.492188 41.839844 C 22.390625 42.144531 23.359375 42.425781 24.398438 42.679688 L 24.4375 42.6875 C 24.605469 42.726562 24.777344 42.769531 24.953125 42.808594 C 25.132812 42.847656 25.316406 42.886719 25.503906 42.925781 L 25.535156 42.933594 C 25.746094 42.976562 25.960938 43.019531 26.175781 43.0625 L 26.171875 43.027344 C 26.085938 42.460938 26.007812 41.890625 25.949219 41.3125 C 25.824219 40.15625 25.75 38.992188 25.714844 37.820312 C 25.648438 35.480469 25.765625 33.128906 26.058594 30.804688 C 26.65625 26.148438 28.011719 21.578125 30.210938 17.414062 C 31.316406 15.308594 32.5625 13.253906 33.933594 11.328125 C 35.320312 9.414062 36.851562 7.601562 38.644531 6.136719 C 39.539062 5.40625 40.503906 4.773438 41.527344 4.289062 L 41.917969 4.113281 L 42.308594 3.957031 C 42.574219 3.84375 42.84375 3.773438 43.113281 3.683594 C 43.65625 3.535156 44.207031 3.410156 44.773438 3.363281 C 45.894531 3.234375 47.042969 3.347656 48.164062 3.628906 C 49.003906 3.84375 49.824219 4.164062 50.617188 4.554688 C 50.097656 4.15625 49.53125 3.734375 48.933594 3.359375 C 48.207031 2.902344 47.441406 2.507812 46.660156 2.292969 C 46.566406 2.269531 46.472656 2.246094 46.378906 2.222656 C 45.964844 2.132812 45.261719 2.117188 44.695312 2.140625 "/><path style=" stroke:none;fill-rule:nonzero;fill:#ffffff;fill-opacity:1;" d="M 22.375 37.449219 C 22.425781 37.457031 22.472656 37.417969 22.476562 37.367188 L 22.480469 37.355469 C 22.75 34.945312 23.171875 32.578125 23.722656 30.253906 C 23.851562 29.671875 23.996094 29.09375 24.152344 28.515625 L 24.632812 26.796875 L 24.894531 25.941406 C 24.984375 25.65625 25.082031 25.375 25.175781 25.09375 C 25.265625 24.808594 25.363281 24.527344 25.460938 24.246094 C 25.558594 23.964844 25.652344 23.683594 25.761719 23.40625 L 26.078125 22.574219 L 26.417969 21.746094 C 26.53125 21.46875 26.652344 21.199219 26.765625 20.925781 C 26.882812 20.652344 26.996094 20.375 27.128906 20.105469 L 27.503906 19.296875 L 27.90625 18.496094 L 28.101562 18.09375 L 28.308594 17.695312 L 28.726562 16.902344 C 29.882812 14.808594 31.175781 12.777344 32.59375 10.804688 L 32.597656 10.800781 C 32.628906 10.761719 32.621094 10.707031 32.585938 10.675781 C 32.550781 10.640625 32.488281 10.644531 32.457031 10.683594 C 31.636719 11.578125 30.828125 12.492188 30.085938 13.460938 C 29.902344 13.703125 29.710938 13.941406 29.53125 14.1875 L 28.746094 15.3125 L 28.5 15.699219 L 28 16.464844 C 26.707031 18.535156 25.636719 20.746094 24.753906 23.023438 C 23.859375 25.300781 23.234375 27.675781 22.785156 30.074219 C 22.578125 31.277344 22.421875 32.488281 22.324219 33.703125 C 22.242188 34.921875 22.214844 36.140625 22.292969 37.363281 C 22.296875 37.40625 22.328125 37.445312 22.375 37.449219 "/><path style=" stroke:none;fill-rule:nonzero;fill:#ffffff;fill-opacity:1;" d="M 22.539062 7.714844 C 21.742188 8.613281 20.957031 9.527344 20.25 10.503906 C 19.878906 10.976562 19.5625 11.488281 19.21875 11.984375 C 19.054688 12.238281 18.898438 12.496094 18.738281 12.75 C 18.578125 13.003906 18.417969 13.261719 18.273438 13.523438 C 17.039062 15.597656 16.058594 17.808594 15.226562 20.070312 C 15.023438 20.640625 14.820312 21.207031 14.644531 21.78125 C 14.550781 22.070312 14.46875 22.359375 14.386719 22.648438 C 14.304688 22.9375 14.21875 23.226562 14.144531 23.519531 C 13.835938 24.683594 13.566406 25.859375 13.34375 27.042969 C 13.136719 28.226562 12.96875 29.421875 12.851562 30.617188 C 12.746094 31.816406 12.691406 33.019531 12.714844 34.222656 C 12.714844 34.269531 12.746094 34.308594 12.792969 34.3125 C 12.84375 34.320312 12.890625 34.289062 12.898438 34.238281 L 12.902344 34.222656 C 13.277344 31.855469 13.726562 29.523438 14.28125 27.226562 L 14.484375 26.363281 L 14.707031 25.507812 L 15.175781 23.800781 C 15.253906 23.515625 15.339844 23.234375 15.425781 22.953125 C 15.511719 22.671875 15.597656 22.390625 15.691406 22.113281 C 15.785156 21.832031 15.863281 21.550781 15.957031 21.269531 L 16.242188 20.433594 C 16.441406 19.882812 16.632812 19.324219 16.855469 18.78125 C 16.96875 18.507812 17.0625 18.230469 17.179688 17.957031 L 17.515625 17.140625 C 17.625 16.871094 17.753906 16.605469 17.871094 16.335938 L 18.050781 15.929688 L 18.238281 15.53125 L 18.613281 14.730469 L 19.011719 13.941406 C 19.140625 13.675781 19.285156 13.417969 19.425781 13.160156 C 19.5625 12.898438 19.699219 12.632812 19.839844 12.375 C 20.136719 11.863281 20.425781 11.347656 20.734375 10.839844 C 21.320312 9.804688 22.019531 8.839844 22.679688 7.835938 L 22.6875 7.828125 C 22.710938 7.789062 22.703125 7.738281 22.667969 7.707031 C 22.632812 7.671875 22.570312 7.675781 22.539062 7.714844 "/></g><mask id="0adc14a5db"><g filter="url(#7592278415)"><rect x="0" width="68.25" y="0" height="63.749998" style="fill:#000000;fill-opacity:0.8;stroke:none;"/></g></mask></g><g clip-rule="nonzero" clip-path="url(#a57b65c67c)"><g mask="url(#bb7f618ac4)" transform="matrix(1,0,0,1,0,0.000000000000004968)"><g clip-path="url(#4bd10a50b4)"><g clip-rule="nonzero" clip-path="url(#8d32cfad16)"><g clip-rule="nonzero" clip-path="url(#c61b0ca268)"><path style=" stroke:none;fill-rule:nonzero;fill:#5e94ff;fill-opacity:1;" d="M 0 0.222656 L 66.960938 0.222656 L 66.960938 62.785156 L 0 62.785156 Z M 0 0.222656 "/></g></g></g><mask id="bb7f618ac4"><g filter="url(#7592278415)"><rect x="0" width="68.25" y="0" height="63.749998" style="fill:#000000;fill-opacity:0.25;stroke:none;"/></g></mask></g></g></g></svg>